# Blender 5.0.1
# www.blender.org
mtllib book_stack.mtl
o SM_BookStack
v -14.272801 -11.048302 -0.000000
v -14.272801 -11.198301 0.150000
v -14.422801 -11.048302 0.150000
v -14.272801 -11.154367 0.043933
v -14.359405 -11.134904 0.063397
v -14.378866 -11.154367 0.150000
v -14.378866 -11.048302 0.043933
v -14.272801 -11.198301 0.200000
v -14.272801 -11.048302 0.350000
v -14.422801 -11.048302 0.200000
v -14.272801 -11.154367 0.306066
v -14.359405 -11.134904 0.286602
v -14.378866 -11.048302 0.306066
v -14.378866 -11.154367 0.200000
v -14.272801 9.651697 0.000000
v -14.422801 9.651697 0.150000
v -14.272801 9.801698 0.150000
v -14.378866 9.651697 0.043934
v -14.359405 9.738299 0.063398
v -14.378866 9.757763 0.150000
v -14.272801 9.757763 0.043934
v -14.272801 9.651697 0.350000
v -14.272801 9.801698 0.200000
v -14.422801 9.651697 0.200000
v -14.272801 9.757763 0.306066
v -14.359405 9.738299 0.286603
v -14.378866 9.757763 0.200000
v -14.378866 9.651697 0.306066
v 13.427199 -11.048302 -0.000000
v 13.577199 -11.048302 0.150000
v 13.427199 -11.198301 0.150000
v 13.533263 -11.048302 0.043933
v 13.513801 -11.134904 0.063397
v 13.533263 -11.154367 0.150000
v 13.427198 -11.154367 0.043933
v 13.427199 -11.048302 0.350000
v 13.427199 -11.198301 0.200000
v 13.577199 -11.048302 0.200000
v 13.427199 -11.154367 0.306066
v 13.513802 -11.134904 0.286602
v 13.533264 -11.154367 0.200000
v 13.533264 -11.048302 0.306066
v 13.427199 9.651697 0.000000
v 13.427199 9.801698 0.150000
v 13.577199 9.651697 0.150000
v 13.427199 9.757763 0.043934
v 13.513802 9.738299 0.063398
v 13.533264 9.757763 0.150000
v 13.533264 9.651697 0.043934
v 13.427199 9.651697 0.350000
v 13.577199 9.651697 0.200000
v 13.427199 9.801698 0.200000
v 13.533263 9.651697 0.306066
v 13.513801 9.738299 0.286603
v 13.533263 9.757763 0.200000
v 13.427198 9.757763 0.306066
v -14.272801 -11.048302 4.150000
v -14.272801 -11.198301 4.299999
v -14.422801 -11.048302 4.299999
v -14.272801 -11.154367 4.193933
v -14.359405 -11.134904 4.213397
v -14.378866 -11.154367 4.299999
v -14.378866 -11.048302 4.193933
v -14.272801 -11.198301 4.349999
v -14.272801 -11.048302 4.500000
v -14.422801 -11.048302 4.349999
v -14.272801 -11.154367 4.456066
v -14.359405 -11.134904 4.436602
v -14.378866 -11.048302 4.456066
v -14.378866 -11.154367 4.349999
v -14.272801 9.651697 4.150000
v -14.422801 9.651697 4.300000
v -14.272801 9.801698 4.300000
v -14.378866 9.651697 4.193934
v -14.359405 9.738299 4.213398
v -14.378866 9.757763 4.300000
v -14.272801 9.757763 4.193934
v -14.272801 9.651697 4.500000
v -14.272801 9.801698 4.350000
v -14.422801 9.651697 4.350000
v -14.272801 9.757763 4.456066
v -14.359405 9.738299 4.436603
v -14.378866 9.757763 4.350000
v -14.378866 9.651697 4.456066
v 13.427199 -11.048302 4.150000
v 13.577199 -11.048302 4.299999
v 13.427199 -11.198301 4.299999
v 13.533263 -11.048302 4.193933
v 13.513801 -11.134904 4.213397
v 13.533263 -11.154367 4.299999
v 13.427198 -11.154367 4.193933
v 13.427199 -11.048302 4.500000
v 13.427199 -11.198301 4.349999
v 13.577199 -11.048302 4.349999
v 13.427199 -11.154367 4.456066
v 13.513802 -11.134904 4.436602
v 13.533264 -11.154367 4.349999
v 13.533264 -11.048302 4.456066
v 13.427199 9.651697 4.150000
v 13.427199 9.801698 4.300000
v 13.577199 9.651697 4.300000
v 13.427199 9.757763 4.193934
v 13.513802 9.738299 4.213398
v 13.533264 9.757763 4.300000
v 13.533264 9.651697 4.193934
v 13.427199 9.651697 4.500000
v 13.577199 9.651697 4.350000
v 13.427199 9.801698 4.350000
v 13.533263 9.651697 4.456066
v 13.513801 9.738299 4.436603
v 13.533263 9.757763 4.350000
v 13.427198 9.757763 4.456066
v -14.422801 9.801698 4.500001
v -14.422801 -11.198301 4.500000
v -14.029052 9.801698 4.198558
v -14.029052 -11.198301 4.198557
v -13.740807 9.801698 3.375001
v -13.740807 -11.198301 3.374999
v -13.635302 9.801698 2.250001
v -13.635302 -11.198301 2.249999
v -13.740807 9.801698 1.125001
v -13.740807 -11.198301 1.124999
v -14.029052 9.801698 0.301444
v -14.029052 -11.198301 0.301442
v -14.422801 9.801698 0.000001
v -14.422801 -11.198301 -0.000001
v -14.816551 9.801698 0.301444
v -14.816551 -11.198301 0.301442
v -15.104796 9.801698 1.125001
v -15.104796 -11.198301 1.124999
v -15.210300 9.801698 2.250001
v -15.210300 -11.198301 2.249999
v -15.104796 9.801698 3.375001
v -15.104796 -11.198301 3.374999
v -14.816551 9.801698 4.198558
v -14.816551 -11.198301 4.198557
v -13.422802 -10.698302 0.400000
v -13.422802 -10.798303 0.500000
v -13.522802 -10.698302 0.500000
v -13.422802 -10.769012 0.429289
v -13.480536 -10.756038 0.442265
v -13.493512 -10.769012 0.500000
v -13.493512 -10.698302 0.429289
v -13.422802 -10.798303 4.000000
v -13.422802 -10.698302 4.100000
v -13.522802 -10.698302 4.000000
v -13.422802 -10.769012 4.070710
v -13.480536 -10.756038 4.057735
v -13.493512 -10.698302 4.070710
v -13.493512 -10.769012 4.000000
v -13.422802 9.301699 0.400000
v -13.522802 9.301699 0.500000
v -13.422802 9.401698 0.500000
v -13.493512 9.301698 0.429290
v -13.480536 9.359433 0.442265
v -13.493512 9.372408 0.500000
v -13.422802 9.372408 0.429290
v -13.422802 9.301699 4.100000
v -13.422802 9.401698 4.000000
v -13.522802 9.301699 4.000000
v -13.422802 9.372408 4.070711
v -13.480536 9.359433 4.057735
v -13.493512 9.372408 4.000000
v -13.493512 9.301698 4.070711
v 13.377198 -10.698302 0.400000
v 13.477199 -10.698302 0.500000
v 13.377198 -10.798303 0.500000
v 13.447909 -10.698302 0.429289
v 13.434933 -10.756038 0.442265
v 13.447909 -10.769012 0.500000
v 13.377198 -10.769012 0.429289
v 13.377198 -10.698302 4.100000
v 13.377198 -10.798303 4.000000
v 13.477199 -10.698302 4.000000
v 13.377198 -10.769012 4.070710
v 13.434933 -10.756038 4.057735
v 13.447909 -10.769012 4.000000
v 13.447909 -10.698302 4.070710
v 13.377198 9.301699 0.400000
v 13.377198 9.401698 0.500000
v 13.477199 9.301699 0.500000
v 13.377198 9.372408 0.429290
v 13.434933 9.359433 0.442265
v 13.447909 9.372408 0.500000
v 13.447909 9.301698 0.429290
v 13.377198 9.301699 4.100000
v 13.477199 9.301699 4.000000
v 13.377198 9.401698 4.000000
v 13.447909 9.301698 4.070711
v 13.434933 9.359433 4.057735
v 13.447909 9.372408 4.000000
v 13.377198 9.372408 4.070711
v -10.839491 -11.119929 4.550000
v -10.821534 -11.268851 4.699999
v -10.988412 -11.137886 4.699999
v -10.826794 -11.225232 4.593934
v -10.915103 -11.216276 4.613397
v -10.932096 -11.237929 4.699999
v -10.944794 -11.132627 4.593934
v -10.821534 -11.268851 4.750000
v -10.839491 -11.119929 4.900000
v -10.988412 -11.137886 4.750000
v -10.826794 -11.225232 4.856066
v -10.915103 -11.216276 4.836602
v -10.944794 -11.132627 4.856066
v -10.932096 -11.237929 4.750000
v -12.958397 6.452783 4.550000
v -13.107318 6.434826 4.700000
v -12.976355 6.601705 4.700000
v -13.063699 6.440085 4.593934
v -13.054742 6.528395 4.613398
v -13.076396 6.545389 4.700000
v -12.971093 6.558086 4.593934
v -12.958397 6.452783 4.900000
v -12.976355 6.601705 4.750000
v -13.107318 6.434826 4.750000
v -12.971093 6.558086 4.856066
v -13.054742 6.528395 4.836603
v -13.076396 6.545389 4.750000
v -13.063699 6.440085 4.856066
v 13.682882 -8.163038 4.550000
v 13.831803 -8.145082 4.699999
v 13.700840 -8.311960 4.699999
v 13.788184 -8.150341 4.593934
v 13.779227 -8.238650 4.613397
v 13.800881 -8.255644 4.699999
v 13.695579 -8.268341 4.593934
v 13.682882 -8.163038 4.900000
v 13.700840 -8.311960 4.750000
v 13.831803 -8.145082 4.750000
v 13.695579 -8.268341 4.856066
v 13.779227 -8.238650 4.836602
v 13.800881 -8.255644 4.750000
v 13.788184 -8.150341 4.856066
v 11.563976 9.409675 4.550000
v 11.546020 9.558596 4.700000
v 11.712897 9.427631 4.700000
v 11.551279 9.514977 4.593934
v 11.639588 9.506021 4.613398
v 11.656582 9.527675 4.700000
v 11.669280 9.422371 4.593934
v 11.563976 9.409675 4.900000
v 11.712897 9.427631 4.750000
v 11.546020 9.558596 4.750000
v 11.669280 9.422372 4.856066
v 11.639588 9.506022 4.836603
v 11.656582 9.527676 4.750000
v 11.551279 9.514978 4.856066
v -10.839491 -11.119929 7.699999
v -10.821534 -11.268851 7.849999
v -10.988412 -11.137886 7.849999
v -10.826794 -11.225232 7.743933
v -10.915103 -11.216276 7.763397
v -10.932096 -11.237929 7.849999
v -10.944794 -11.132627 7.743933
v -10.821534 -11.268851 7.899999
v -10.839491 -11.119929 8.049999
v -10.988412 -11.137886 7.899999
v -10.826794 -11.225232 8.006065
v -10.915103 -11.216276 7.986601
v -10.944794 -11.132627 8.006065
v -10.932096 -11.237929 7.899999
v -12.958397 6.452783 7.700000
v -13.107318 6.434826 7.850000
v -12.976355 6.601705 7.850000
v -13.063699 6.440085 7.743934
v -13.054742 6.528395 7.763398
v -13.076396 6.545389 7.850000
v -12.971093 6.558086 7.743934
v -12.958397 6.452783 8.050000
v -12.976355 6.601705 7.900000
v -13.107318 6.434826 7.900000
v -12.971093 6.558086 8.006066
v -13.054742 6.528395 7.986602
v -13.076396 6.545389 7.900000
v -13.063699 6.440085 8.006066
v 13.682882 -8.163038 7.700000
v 13.831803 -8.145082 7.850000
v 13.700840 -8.311960 7.850000
v 13.788184 -8.150341 7.743934
v 13.779227 -8.238650 7.763398
v 13.800881 -8.255644 7.850000
v 13.695579 -8.268341 7.743934
v 13.682882 -8.163038 8.050000
v 13.700840 -8.311960 7.900000
v 13.831803 -8.145082 7.900000
v 13.695579 -8.268341 8.006066
v 13.779227 -8.238650 7.986602
v 13.800881 -8.255644 7.900000
v 13.788184 -8.150341 8.006066
v 11.563976 9.409675 7.700001
v 11.546020 9.558596 7.850001
v 11.712897 9.427631 7.850001
v 11.551279 9.514977 7.743935
v 11.639588 9.506021 7.763399
v 11.656582 9.527675 7.850001
v 11.669280 9.422371 7.743935
v 11.563976 9.409675 8.050001
v 11.712897 9.427631 7.900001
v 11.546020 9.558596 7.900001
v 11.669280 9.422372 8.006067
v 11.639588 9.506022 7.986603
v 11.656582 9.527676 7.900001
v 11.551279 9.514978 8.006067
v -13.125275 6.583748 8.050001
v -10.970455 -11.286808 8.049999
v -12.821227 6.620410 7.815545
v -10.666408 -11.250146 7.815544
v -12.598649 6.647248 7.175001
v -10.443829 -11.223308 7.174999
v -12.517179 6.657072 6.300001
v -10.362360 -11.213485 6.299999
v -12.598649 6.647249 5.425001
v -10.443829 -11.223308 5.424999
v -12.821227 6.620410 4.784456
v -10.666408 -11.250146 4.784455
v -13.125275 6.583748 4.550001
v -10.970455 -11.286808 4.549999
v -13.429323 6.547086 4.784456
v -11.274503 -11.323470 4.784455
v -13.651901 6.520248 5.425001
v -11.497081 -11.350307 5.424999
v -13.733371 6.510425 6.300001
v -11.578551 -11.360131 6.299999
v -13.651901 6.520247 7.175001
v -11.497081 -11.350308 7.174999
v -13.429323 6.547086 7.815545
v -11.274503 -11.323470 7.815544
v -10.037502 -10.670691 4.950000
v -10.025531 -10.769972 5.049999
v -10.136784 -10.682663 5.049999
v -10.029037 -10.740894 4.979289
v -10.087911 -10.734924 4.992265
v -10.099239 -10.749359 5.049999
v -10.107705 -10.679157 4.979289
v -10.025531 -10.769972 7.549999
v -10.037502 -10.670691 7.649999
v -10.136784 -10.682663 7.549999
v -10.029037 -10.740894 7.620709
v -10.087911 -10.734924 7.607734
v -10.107705 -10.679157 7.620709
v -10.099239 -10.749359 7.549999
v -12.072610 6.207055 4.950000
v -12.171891 6.195084 5.050000
v -12.084581 6.306337 5.050000
v -12.142813 6.198590 4.979290
v -12.136843 6.257464 4.992265
v -12.151278 6.268793 5.050000
v -12.081077 6.277258 4.979290
v -12.072610 6.207055 7.650000
v -12.084581 6.306337 7.550000
v -12.171891 6.195084 7.550000
v -12.081077 6.277259 7.620710
v -12.136843 6.257465 7.607735
v -12.151278 6.268793 7.550000
v -12.142813 6.198591 7.620710
v 13.591343 -7.821540 4.950000
v 13.690623 -7.809570 5.049999
v 13.603314 -7.920823 5.049999
v 13.661546 -7.813075 4.979289
v 13.655575 -7.871949 4.992265
v 13.670011 -7.883278 5.049999
v 13.599809 -7.891743 4.979289
v 13.591343 -7.821540 7.650000
v 13.603314 -7.920822 7.550000
v 13.690623 -7.809570 7.550000
v 13.599809 -7.891743 7.620710
v 13.655575 -7.871949 7.607735
v 13.670011 -7.883278 7.550000
v 13.661546 -7.813076 7.620710
v 11.556235 9.056206 4.950000
v 11.544264 9.155486 5.050000
v 11.655517 9.068177 5.050000
v 11.547770 9.126408 4.979290
v 11.606644 9.120438 4.992265
v 11.617972 9.134873 5.050000
v 11.626437 9.064671 4.979290
v 11.556235 9.056206 7.650001
v 11.655517 9.068177 7.550000
v 11.544264 9.155486 7.550000
v 11.626437 9.064671 7.620711
v 11.606644 9.120438 7.607736
v 11.617972 9.134873 7.550000
v 11.547770 9.126408 7.620711
v -11.874892 -7.435685 8.100000
v -11.886879 -7.585206 8.250000
v -12.024412 -7.423698 8.250000
v -11.883368 -7.541413 8.143934
v -11.968138 -7.515091 8.163399
v -11.989095 -7.532937 8.250001
v -11.980618 -7.427210 8.143934
v -11.886879 -7.585206 8.299999
v -11.874892 -7.435685 8.450000
v -12.024412 -7.423698 8.299999
v -11.883368 -7.541413 8.406066
v -11.968138 -7.515091 8.386602
v -11.980618 -7.427210 8.406066
v -11.989095 -7.532937 8.299999
v -10.580275 8.712503 8.100000
v -10.729795 8.724490 8.250001
v -10.568287 8.862023 8.250001
v -10.686002 8.720980 8.143935
v -10.659679 8.805750 8.163400
v -10.677526 8.826707 8.250002
v -10.571798 8.818230 8.143935
v -10.580275 8.712503 8.450001
v -10.568287 8.862023 8.300000
v -10.729795 8.724490 8.300000
v -10.571798 8.818230 8.406067
v -10.659679 8.805750 8.386603
v -10.677526 8.826707 8.300000
v -10.686002 8.720980 8.406067
v 10.752508 -9.249748 8.099999
v 10.902028 -9.261736 8.250000
v 10.740520 -9.399269 8.250000
v 10.858235 -9.258224 8.143934
v 10.831913 -9.342994 8.163398
v 10.849760 -9.363951 8.250000
v 10.744032 -9.355474 8.143934
v 10.752508 -9.249748 8.449999
v 10.740520 -9.399269 8.299999
v 10.902028 -9.261736 8.299999
v 10.744032 -9.355475 8.406065
v 10.831913 -9.342996 8.386601
v 10.849760 -9.363953 8.299999
v 10.858235 -9.258225 8.406065
v 12.047126 6.898440 8.100000
v 12.059113 7.047961 8.250000
v 12.196646 6.886453 8.250000
v 12.055601 7.004167 8.143934
v 12.140371 6.977845 8.163399
v 12.161328 6.995691 8.250001
v 12.152851 6.889964 8.143934
v 12.047126 6.898440 8.450000
v 12.196646 6.886453 8.299999
v 12.059113 7.047961 8.299999
v 12.152853 6.889964 8.406066
v 12.140372 6.977845 8.386602
v 12.161329 6.995691 8.299999
v 12.055603 7.004167 8.406066
v -11.874892 -7.435686 12.750000
v -11.886879 -7.585207 12.900000
v -12.024412 -7.423699 12.900000
v -11.883368 -7.541414 12.793936
v -11.968138 -7.515091 12.813398
v -11.989095 -7.532938 12.900001
v -11.980618 -7.427210 12.793936
v -11.886879 -7.585207 12.950002
v -11.874892 -7.435686 13.100001
v -12.024412 -7.423699 12.950002
v -11.883368 -7.541414 13.056067
v -11.968138 -7.515091 13.036604
v -11.980618 -7.427210 13.056067
v -11.989095 -7.532938 12.950002
v -10.580275 8.712502 12.750000
v -10.729795 8.724490 12.900000
v -10.568287 8.862023 12.900000
v -10.686002 8.720979 12.793936
v -10.659679 8.805749 12.813398
v -10.677526 8.826706 12.900001
v -10.571798 8.818230 12.793936
v -10.580275 8.712502 13.100001
v -10.568287 8.862023 12.950002
v -10.729795 8.724490 12.950002
v -10.571798 8.818230 13.056067
v -10.659679 8.805749 13.036604
v -10.677526 8.826706 12.950002
v -10.686002 8.720979 13.056067
v 10.752508 -9.249749 12.750000
v 10.902028 -9.261736 12.900000
v 10.740520 -9.399269 12.900000
v 10.858235 -9.258224 12.793936
v 10.831913 -9.342995 12.813398
v 10.849760 -9.363952 12.900001
v 10.744032 -9.355475 12.793936
v 10.752508 -9.249749 13.100001
v 10.740520 -9.399269 12.950002
v 10.902028 -9.261736 12.950002
v 10.744032 -9.355476 13.056067
v 10.831913 -9.342996 13.036604
v 10.849760 -9.363953 12.950002
v 10.858235 -9.258226 13.056067
v 12.047126 6.898440 12.750000
v 12.059113 7.047960 12.900000
v 12.196646 6.886453 12.900000
v 12.055601 7.004167 12.793936
v 12.140371 6.977844 12.813398
v 12.161328 6.995691 12.900001
v 12.152851 6.889963 12.793936
v 12.047126 6.898440 13.100001
v 12.196646 6.886453 12.950002
v 12.059113 7.047960 12.950002
v 12.152853 6.889963 13.056067
v 12.140372 6.977844 13.036604
v 12.161329 6.995691 12.950002
v 12.055603 7.004167 13.056067
v -10.717807 8.874011 13.099999
v -12.036399 -7.573219 13.099999
v -10.281706 8.839048 12.765063
v -11.600299 -7.608181 12.765063
v -9.962459 8.813455 11.850001
v -11.281051 -7.633776 11.849999
v -9.845606 8.804086 10.600000
v -11.164197 -7.643144 10.599999
v -9.962459 8.813455 9.350001
v -11.281051 -7.633776 9.349999
v -10.281706 8.839049 8.434937
v -11.600299 -7.608181 8.434937
v -10.717807 8.874012 8.100000
v -12.036399 -7.573218 8.099999
v -11.153908 8.908975 8.434937
v -12.472500 -7.538255 8.434937
v -11.473155 8.934567 9.350001
v -12.791748 -7.512662 9.349999
v -11.590009 8.943936 10.600000
v -12.908600 -7.503294 10.599999
v -11.473155 8.934567 11.850001
v -12.791748 -7.512662 11.849999
v -11.153908 8.908974 12.765063
v -12.472500 -7.538256 12.765063
v -10.999640 -7.154731 8.500000
v -11.007632 -7.254412 8.600000
v -11.099320 -7.146741 8.600000
v -11.005292 -7.225216 8.529289
v -11.061806 -7.207669 8.542264
v -11.075777 -7.219566 8.599999
v -11.070126 -7.149082 8.529289
v -11.007632 -7.254412 12.600000
v -10.999640 -7.154732 12.700001
v -11.099320 -7.146741 12.600000
v -11.005292 -7.225216 12.670711
v -11.061806 -7.207669 12.657735
v -11.070126 -7.149082 12.670711
v -11.075777 -7.219566 12.600000
v -9.760962 8.295697 8.500000
v -9.860642 8.303688 8.600000
v -9.752971 8.395376 8.600000
v -9.831447 8.301347 8.529289
v -9.813899 8.357861 8.542264
v -9.825796 8.371832 8.599999
v -9.755312 8.366180 8.529289
v -9.760962 8.295696 12.700001
v -9.752971 8.395376 12.600000
v -9.860642 8.303688 12.600000
v -9.755312 8.366180 12.670711
v -9.813899 8.357861 12.657735
v -9.825796 8.371832 12.600000
v -9.831447 8.301347 12.670711
v 10.730638 -8.896873 8.499999
v 10.830317 -8.904864 8.599999
v 10.722646 -8.996553 8.599999
v 10.801122 -8.902524 8.529288
v 10.783574 -8.959038 8.542263
v 10.795471 -8.973009 8.599998
v 10.724987 -8.967358 8.529288
v 10.730638 -8.896873 12.700001
v 10.722646 -8.996553 12.600000
v 10.830317 -8.904864 12.600000
v 10.724987 -8.967358 12.670711
v 10.783574 -8.959038 12.657735
v 10.795471 -8.973009 12.600000
v 10.801122 -8.902524 12.670711
v 11.969316 6.553556 8.500000
v 11.977307 6.653235 8.600000
v 12.068995 6.545564 8.600000
v 11.974966 6.624039 8.529289
v 12.031479 6.606492 8.542264
v 12.045450 6.618389 8.599999
v 12.039800 6.547905 8.529289
v 11.969316 6.553555 12.700001
v 12.068995 6.545564 12.600000
v 11.977307 6.653235 12.600000
v 12.039800 6.547905 12.670711
v 12.031479 6.606492 12.657735
v 12.045450 6.618389 12.600000
v 11.974966 6.624039 12.670711
v -9.178519 -8.819589 13.149999
v -9.145785 -8.965974 13.299998
v -9.324903 -8.852324 13.299998
v -9.155371 -8.923098 13.193933
v -9.244134 -8.923002 13.213396
v -9.258881 -8.946244 13.299998
v -9.282027 -8.842735 13.193933
v -9.145785 -8.965974 13.350001
v -9.178519 -8.819589 13.500001
v -9.324903 -8.852324 13.350001
v -9.155371 -8.923098 13.456066
v -9.244134 -8.923002 13.436604
v -9.282027 -8.842735 13.456066
v -9.258881 -8.946244 13.350001
v -12.168266 4.550207 13.149999
v -12.314651 4.517472 13.299998
v -12.201000 4.696591 13.299998
v -12.271775 4.527059 13.193933
v -12.271680 4.615822 13.213396
v -12.294922 4.630569 13.299998
v -12.191413 4.653715 13.193933
v -12.168266 4.550207 13.500001
v -12.201000 4.696591 13.350001
v -12.314651 4.517472 13.350001
v -12.191413 4.653716 13.456066
v -12.271680 4.615822 13.436604
v -12.294922 4.630569 13.350001
v -12.271775 4.527060 13.456066
v 10.046661 -4.520465 13.149999
v 10.193046 -4.487731 13.299998
v 10.079395 -4.666850 13.299998
v 10.150170 -4.497318 13.193933
v 10.150075 -4.586081 13.213396
v 10.173317 -4.600827 13.299998
v 10.069808 -4.623974 13.193933
v 10.046661 -4.520465 13.500001
v 10.079395 -4.666850 13.350001
v 10.193046 -4.487731 13.350001
v 10.069808 -4.623975 13.456066
v 10.150075 -4.586081 13.436604
v 10.173317 -4.600828 13.350001
v 10.150170 -4.497319 13.456066
v 7.056914 8.849330 13.149999
v 7.024180 8.995715 13.299998
v 7.203299 8.882065 13.299998
v 7.033768 8.952839 13.193933
v 7.122530 8.952744 13.213396
v 7.137277 8.975986 13.299998
v 7.160424 8.872477 13.193933
v 7.056914 8.849330 13.500001
v 7.203299 8.882065 13.350001
v 7.024180 8.995715 13.350001
v 7.160424 8.872477 13.456066
v 7.122530 8.952744 13.436604
v 7.137277 8.975986 13.350001
v 7.033768 8.952839 13.456066
v -9.178519 -8.819589 15.799999
v -9.145785 -8.965974 15.949999
v -9.324903 -8.852324 15.949999
v -9.155371 -8.923098 15.843935
v -9.244134 -8.923002 15.863398
v -9.258881 -8.946244 15.950001
v -9.282027 -8.842735 15.843935
v -9.145785 -8.965974 16.000002
v -9.178519 -8.819589 16.150002
v -9.324903 -8.852324 16.000002
v -9.155371 -8.923098 16.106066
v -9.244134 -8.923002 16.086603
v -9.282027 -8.842735 16.106066
v -9.258881 -8.946244 16.000002
v -12.168266 4.550207 15.799999
v -12.314651 4.517472 15.949999
v -12.201000 4.696591 15.949999
v -12.271775 4.527059 15.843935
v -12.271680 4.615822 15.863398
v -12.294922 4.630569 15.950001
v -12.191413 4.653715 15.843935
v -12.168266 4.550207 16.150002
v -12.201000 4.696591 16.000002
v -12.314651 4.517472 16.000002
v -12.191413 4.653716 16.106066
v -12.271680 4.615822 16.086603
v -12.294922 4.630569 16.000002
v -12.271775 4.527060 16.106066
v 10.046661 -4.520465 15.799999
v 10.193046 -4.487731 15.949999
v 10.079395 -4.666850 15.949999
v 10.150170 -4.497318 15.843935
v 10.150075 -4.586081 15.863398
v 10.173317 -4.600827 15.950001
v 10.069808 -4.623974 15.843935
v 10.046661 -4.520465 16.150002
v 10.079395 -4.666850 16.000002
v 10.193046 -4.487731 16.000002
v 10.069808 -4.623975 16.106066
v 10.150075 -4.586081 16.086603
v 10.173317 -4.600828 16.000002
v 10.150170 -4.497319 16.106066
v 7.056914 8.849330 15.799999
v 7.024180 8.995715 15.949999
v 7.203299 8.882065 15.949999
v 7.033768 8.952839 15.843935
v 7.122530 8.952744 15.863398
v 7.137277 8.975986 15.950001
v 7.160424 8.872477 15.843935
v 7.056914 8.849330 16.150002
v 7.203299 8.882065 16.000002
v 7.024180 8.995715 16.000002
v 7.160424 8.872477 16.106066
v 7.122530 8.952744 16.086603
v 7.137277 8.975986 16.000002
v 7.033768 8.952839 16.106066
v -12.347384 4.663857 16.150002
v -9.292170 -8.998708 16.150002
v -12.091211 4.721142 15.949039
v -9.035997 -8.941422 15.949038
v -11.903679 4.763078 15.400002
v -8.848465 -8.899487 15.400000
v -11.835039 4.778428 14.650001
v -8.779823 -8.884137 14.650001
v -11.903679 4.763078 13.900002
v -8.848465 -8.899487 13.900000
v -12.091211 4.721142 13.350964
v -9.035997 -8.941422 13.350962
v -12.347384 4.663857 13.150001
v -9.292170 -8.998708 13.150001
v -12.603558 4.606572 13.350964
v -9.548343 -9.055993 13.350962
v -12.791090 4.564636 13.900002
v -9.735875 -9.097929 13.900000
v -12.859731 4.549286 14.650001
v -9.804516 -9.113278 14.650001
v -12.791090 4.564636 15.400002
v -9.735875 -9.097929 15.400000
v -12.603558 4.606572 15.949039
v -9.548343 -9.055993 15.949038
v -8.425386 -8.292530 13.550001
v -8.403563 -8.390120 13.650002
v -8.522976 -8.314352 13.650002
v -8.409955 -8.361536 13.579289
v -8.469131 -8.361473 13.592265
v -8.478962 -8.376967 13.650000
v -8.494392 -8.307961 13.579289
v -8.403563 -8.390120 15.650000
v -8.425386 -8.292530 15.750000
v -8.522976 -8.314352 15.650000
v -8.409955 -8.361536 15.720710
v -8.469131 -8.361473 15.707734
v -8.494392 -8.307961 15.720710
v -8.478962 -8.376967 15.650000
v -11.262372 4.394138 13.550001
v -11.359962 4.372315 13.650002
v -11.284195 4.491728 13.650002
v -11.331380 4.378706 13.579289
v -11.331317 4.437881 13.592265
v -11.346811 4.447713 13.650000
v -11.277804 4.463144 13.579289
v -11.262372 4.394138 15.750000
v -11.284195 4.491728 15.650000
v -11.359962 4.372315 15.650000
v -11.277803 4.463144 15.720710
v -11.331315 4.437881 15.707734
v -11.346809 4.447713 15.650000
v -11.331379 4.378706 15.720710
v 9.921485 -4.189813 13.550001
v 10.019075 -4.167990 13.650002
v 9.943308 -4.287402 13.650002
v 9.990492 -4.174382 13.579289
v 9.990428 -4.233557 13.592265
v 10.005922 -4.243388 13.650000
v 9.936916 -4.258819 13.579289
v 9.921485 -4.189813 15.750000
v 9.943308 -4.287402 15.650000
v 10.019075 -4.167990 15.650000
v 9.936916 -4.258819 15.720710
v 9.990428 -4.233557 15.707734
v 10.005922 -4.243388 15.650000
v 9.990492 -4.174382 15.720710
v 7.084499 8.496855 13.550001
v 7.062676 8.594444 13.650002
v 7.182089 8.518677 13.650002
v 7.069068 8.565861 13.579289
v 7.128243 8.565798 13.592265
v 7.138075 8.581292 13.650000
v 7.153506 8.512285 13.579289
v 7.084499 8.496855 15.750000
v 7.182089 8.518677 15.650000
v 7.062676 8.594444 15.650000
v 7.153506 8.512285 15.720710
v 7.128243 8.565798 15.707734
v 7.138075 8.581292 15.650000
v 7.069068 8.565861 15.720710
vn -0.3251 -0.3250 -0.8881
vn -0.3251 -0.8881 -0.3251
vn -0.8881 -0.3251 -0.3250
vn -0.3251 -0.8881 0.3251
vn -0.3251 -0.3251 0.8881
vn -0.8881 -0.3251 0.3251
vn -0.3251 0.3251 -0.8881
vn -0.8881 0.3251 -0.3251
vn -0.3251 0.8881 -0.3251
vn -0.3251 0.3250 0.8881
vn -0.3251 0.8881 0.3251
vn -0.8881 0.3251 0.3250
vn 0.3251 -0.3251 -0.8881
vn 0.8881 -0.3251 -0.3251
vn 0.3251 -0.8881 -0.3251
vn 0.3251 -0.3251 0.8881
vn 0.3251 -0.8881 0.3251
vn 0.8881 -0.3251 0.3251
vn 0.3251 0.3251 -0.8881
vn 0.3251 0.8881 -0.3251
vn 0.8881 0.3251 -0.3250
vn 0.3251 0.3251 0.8881
vn 0.8881 0.3251 0.3251
vn 0.3251 0.8881 0.3251
vn -0.3827 -0.0000 -0.9239
vn -0.9239 -0.0000 -0.3827
vn -0.3827 -0.9239 -0.0000
vn -0.9239 -0.3827 -0.0000
vn -0.3827 -0.0000 0.9239
vn -0.9239 -0.0000 0.3827
vn -0.3827 0.9239 -0.0000
vn -0.9239 0.3827 -0.0000
vn -0.0000 0.3827 -0.9239
vn -0.0000 0.9239 -0.3827
vn -0.0000 0.3827 0.9239
vn -0.0000 0.9239 0.3827
vn 0.9239 0.3827 -0.0000
vn 0.3827 0.9239 -0.0000
vn 0.3827 -0.0000 -0.9239
vn 0.9239 -0.0000 -0.3827
vn 0.3827 -0.0000 0.9239
vn 0.9239 -0.0000 0.3827
vn 0.3827 -0.9239 -0.0000
vn 0.9239 -0.3827 -0.0000
vn -0.0000 -0.3827 -0.9239
vn -0.0000 -0.9239 -0.3827
vn -0.0000 -0.3827 0.9239
vn -0.0000 -0.9239 0.3827
vn -0.0000 -0.0000 -1.0000
vn -1.0000 -0.0000 -0.0000
vn -0.0000 -1.0000 -0.0000
vn -0.0000 -0.0000 1.0000
vn -0.0000 1.0000 -0.0000
vn 1.0000 -0.0000 -0.0000
vn -0.3251 -0.3251 -0.8881
vn -0.8881 -0.3251 0.3250
vn -0.3251 0.3251 0.8881
vn 0.6079 -0.0000 0.7940
vn 0.9439 -0.0000 0.3304
vn 0.9956 -0.0000 0.0934
vn 0.9956 -0.0000 -0.0934
vn 0.9439 -0.0000 -0.3304
vn 0.6079 -0.0000 -0.7940
vn -0.6079 -0.0000 -0.7940
vn -0.9439 -0.0000 -0.3304
vn -0.9956 -0.0000 -0.0934
vn -0.9956 -0.0000 0.0934
vn -0.9439 -0.0000 0.3304
vn -0.6079 -0.0000 0.7940
vn -0.8881 -0.3251 -0.3251
vn -0.8881 0.3251 0.3251
vn 0.8881 0.3251 -0.3251
vn -0.2838 -0.3616 -0.8881
vn -0.2164 -0.9206 -0.3251
vn -0.8428 -0.4290 -0.3251
vn -0.2164 -0.9206 0.3251
vn -0.2838 -0.3616 0.8881
vn -0.8428 -0.4290 0.3251
vn -0.3616 0.2838 -0.8881
vn -0.9206 0.2164 -0.3251
vn -0.4290 0.8428 -0.3251
vn -0.3616 0.2838 0.8881
vn -0.4290 0.8428 0.3251
vn -0.9206 0.2164 0.3251
vn 0.3616 -0.2838 -0.8881
vn 0.9206 -0.2164 -0.3251
vn 0.4290 -0.8428 -0.3251
vn 0.3616 -0.2838 0.8881
vn 0.4290 -0.8428 0.3251
vn 0.9206 -0.2164 0.3251
vn 0.2838 0.3616 -0.8881
vn 0.2164 0.9206 -0.3251
vn 0.8428 0.4290 -0.3251
vn 0.2838 0.3616 0.8881
vn 0.8428 0.4290 0.3251
vn 0.2164 0.9206 0.3251
vn -0.3799 -0.0458 -0.9239
vn -0.9172 -0.1106 -0.3827
vn -0.2693 -0.9630 -0.0000
vn -0.8714 -0.4905 -0.0000
vn -0.3799 -0.0458 0.9239
vn -0.9172 -0.1106 0.3827
vn -0.4905 0.8714 -0.0000
vn -0.9630 0.2693 -0.0000
vn -0.0458 0.3799 -0.9239
vn -0.1106 0.9172 -0.3827
vn -0.0458 0.3799 0.9239
vn -0.1106 0.9172 0.3827
vn 0.8714 0.4905 -0.0000
vn 0.2693 0.9630 -0.0000
vn 0.3799 0.0458 -0.9239
vn 0.9172 0.1106 -0.3827
vn 0.3799 0.0458 0.9239
vn 0.9172 0.1106 0.3827
vn 0.4905 -0.8714 -0.0000
vn 0.9630 -0.2693 -0.0000
vn 0.0458 -0.3799 -0.9239
vn 0.1106 -0.9172 -0.3827
vn 0.0458 -0.3799 0.9239
vn 0.1106 -0.9172 0.3827
vn -0.9928 -0.1197 -0.0000
vn 0.1197 -0.9928 -0.0000
vn -0.1197 0.9928 -0.0000
vn 0.9928 0.1197 -0.0000
vn 0.6035 0.0728 0.7940
vn 0.9371 0.1130 0.3304
vn 0.9885 0.1192 0.0934
vn 0.9885 0.1192 -0.0934
vn 0.9371 0.1130 -0.3303
vn 0.6035 0.0728 -0.7940
vn -0.6035 -0.0728 -0.7940
vn -0.9371 -0.1130 -0.3303
vn -0.9885 -0.1192 -0.0934
vn -0.9885 -0.1192 0.0934
vn -0.9371 -0.1130 0.3303
vn -0.6035 -0.0728 0.7940
vn -0.9206 0.2164 -0.3250
vn -0.4290 0.8428 0.3250
vn -0.9206 0.2164 0.3250
vn 0.8428 0.4290 -0.3250
vn 0.8428 0.4290 0.3250
vn -0.2693 -0.9631 -0.0000
vn -0.9631 0.2693 -0.0000
vn 0.9631 -0.2693 -0.0000
vn -0.3500 -0.2980 -0.8881
vn -0.3950 -0.8593 -0.3251
vn -0.9112 -0.2531 -0.3251
vn -0.3950 -0.8593 0.3251
vn -0.3500 -0.2980 0.8881
vn -0.9112 -0.2531 0.3251
vn -0.2980 0.3500 -0.8881
vn -0.8593 0.3950 -0.3251
vn -0.2531 0.9112 -0.3251
vn -0.2980 0.3500 0.8881
vn -0.2531 0.9112 0.3251
vn -0.8593 0.3950 0.3251
vn 0.2980 -0.3500 -0.8881
vn 0.8593 -0.3950 -0.3251
vn 0.2531 -0.9112 -0.3251
vn 0.2980 -0.3500 0.8881
vn 0.2530 -0.9112 0.3250
vn 0.8593 -0.3950 0.3251
vn 0.3500 0.2980 -0.8881
vn 0.3950 0.8593 -0.3251
vn 0.9112 0.2531 -0.3251
vn 0.3500 0.2980 0.8881
vn 0.9112 0.2530 0.3250
vn 0.3950 0.8593 0.3251
vn -0.3815 0.0306 -0.9239
vn -0.9209 0.0738 -0.3827
vn -0.4553 -0.8903 -0.0000
vn -0.9515 -0.3076 -0.0000
vn -0.3815 0.0306 0.9239
vn -0.9209 0.0738 0.3827
vn -0.3076 0.9515 -0.0000
vn -0.8903 0.4553 -0.0000
vn 0.0306 0.3815 -0.9239
vn 0.0738 0.9209 -0.3827
vn 0.0306 0.3815 0.9239
vn 0.0738 0.9209 0.3827
vn 0.9515 0.3076 -0.0000
vn 0.4553 0.8903 -0.0000
vn 0.3815 -0.0306 -0.9239
vn 0.9209 -0.0738 -0.3827
vn 0.3815 -0.0306 0.9239
vn 0.9209 -0.0738 0.3827
vn 0.3076 -0.9515 -0.0000
vn 0.8903 -0.4553 -0.0000
vn -0.0306 -0.3815 -0.9239
vn -0.0738 -0.9209 -0.3827
vn -0.0306 -0.3815 0.9239
vn -0.0738 -0.9209 0.3827
vn -0.9968 0.0799 -0.0000
vn -0.0799 -0.9968 -0.0000
vn 0.0799 0.9968 -0.0000
vn 0.9968 -0.0799 -0.0000
vn -0.3500 -0.2981 -0.8881
vn -0.9112 -0.2530 -0.3251
vn -0.9112 -0.2530 0.3251
vn -0.2530 0.9112 -0.3251
vn -0.2530 0.9112 0.3251
vn 0.2530 -0.9112 0.3251
vn 0.3500 0.2981 -0.8881
vn 0.9112 0.2530 0.3251
vn 0.6059 -0.0486 0.7940
vn 0.9408 -0.0754 0.3303
vn 0.9924 -0.0796 0.0934
vn 0.9924 -0.0796 -0.0934
vn 0.9408 -0.0754 -0.3303
vn 0.6059 -0.0486 -0.7940
vn -0.6059 0.0486 -0.7940
vn -0.9408 0.0754 -0.3304
vn -0.9924 0.0796 -0.0934
vn -0.9924 0.0796 0.0934
vn -0.9408 0.0754 0.3304
vn -0.6059 0.0486 0.7940
vn 0.2530 -0.9112 -0.3251
vn 0.9112 0.2530 -0.3251
vn 0.3500 0.2981 0.8881
vn 0.9112 0.2531 0.3251
vn -0.3814 0.0306 -0.9239
vn -0.2463 -0.3882 -0.8881
vn -0.1234 -0.9376 -0.3251
vn -0.7957 -0.5110 -0.3251
vn -0.1234 -0.9376 0.3251
vn -0.2463 -0.3882 0.8881
vn -0.7957 -0.5110 0.3251
vn -0.3882 0.2463 -0.8881
vn -0.9376 0.1234 -0.3250
vn -0.5110 0.7957 -0.3251
vn -0.3882 0.2463 0.8881
vn -0.5110 0.7957 0.3251
vn -0.9376 0.1234 0.3250
vn 0.3882 -0.2463 -0.8881
vn 0.9376 -0.1234 -0.3251
vn 0.5110 -0.7957 -0.3251
vn 0.3882 -0.2463 0.8881
vn 0.5110 -0.7957 0.3251
vn 0.9376 -0.1234 0.3251
vn 0.2463 0.3882 -0.8881
vn 0.1234 0.9376 -0.3251
vn 0.7957 0.5110 -0.3251
vn 0.2463 0.3882 0.8881
vn 0.7957 0.5110 0.3251
vn 0.1234 0.9376 0.3251
vn -0.3735 -0.0835 -0.9239
vn -0.9016 -0.2016 -0.3827
vn -0.1719 -0.9851 -0.0000
vn -0.8181 -0.5751 -0.0000
vn -0.3735 -0.0835 0.9239
vn -0.9016 -0.2016 0.3827
vn -0.5751 0.8181 -0.0000
vn -0.9851 0.1718 -0.0000
vn -0.0835 0.3735 -0.9239
vn -0.2016 0.9016 -0.3827
vn -0.0835 0.3735 0.9239
vn -0.2016 0.9016 0.3827
vn 0.8181 0.5751 -0.0000
vn 0.1718 0.9851 -0.0000
vn 0.3735 0.0835 -0.9239
vn 0.9016 0.2016 -0.3827
vn 0.3735 0.0835 0.9239
vn 0.9016 0.2016 0.3827
vn 0.5751 -0.8181 -0.0000
vn 0.9851 -0.1718 -0.0000
vn 0.0835 -0.3735 -0.9239
vn 0.2016 -0.9016 -0.3827
vn 0.0835 -0.3735 0.9239
vn 0.2016 -0.9016 0.3827
vn -0.9759 -0.2182 -0.0000
vn 0.2182 -0.9759 -0.0000
vn -0.2182 0.9759 -0.0000
vn 0.9759 0.2182 -0.0000
vn 0.1719 0.9851 -0.0000
vn 0.5932 0.1327 0.7940
vn 0.9211 0.2060 0.3304
vn 0.9716 0.2173 0.0934
vn 0.9716 0.2173 -0.0934
vn 0.9211 0.2060 -0.3304
vn 0.5932 0.1327 -0.7940
vn -0.5932 -0.1327 -0.7940
vn -0.9211 -0.2060 -0.3304
vn -0.9716 -0.2173 -0.0934
vn -0.9716 -0.2173 0.0934
vn -0.9211 -0.2060 0.3304
vn -0.5932 -0.1327 0.7940
vn -0.2463 -0.3881 -0.8881
vn -0.3881 0.2463 -0.8881
vn -0.9376 0.1234 -0.3251
vn -0.5110 0.7957 -0.3250
vn -0.9376 0.1234 0.3251
vn 0.9376 -0.1234 -0.3250
vn 0.2463 0.3881 -0.8881
vn -0.3734 -0.0835 -0.9239
vn -0.1718 -0.9851 -0.0000
vn -0.0835 0.3734 -0.9239
vn 0.3734 0.0835 -0.9239
vt 0.006804 0.006804
vt 0.005996 0.006804
vt 0.006144 0.006144
vt 0.006804 0.005996
vt 0.959398 0.884315
vt 0.959398 0.885140
vt 0.958738 0.884999
vt 0.958589 0.884332
vt 0.350001 0.986899
vt 0.350810 0.986861
vt 0.350661 0.987500
vt 0.350001 0.987664
vt 0.959779 0.884315
vt 0.960588 0.884332
vt 0.960439 0.884999
vt 0.959779 0.885140
vt 0.178212 0.217966
vt 0.178212 0.218774
vt 0.177552 0.218626
vt 0.177404 0.217966
vt 0.349620 0.986899
vt 0.349620 0.987664
vt 0.348960 0.987500
vt 0.348811 0.986861
vt 0.164604 0.006804
vt 0.164604 0.005996
vt 0.165264 0.006144
vt 0.165412 0.006804
vt 0.350001 0.830132
vt 0.350001 0.829291
vt 0.350661 0.829421
vt 0.350810 0.830094
vt 0.945790 0.659851
vt 0.946598 0.659835
vt 0.946450 0.660486
vt 0.945790 0.660642
vt 0.336011 0.217966
vt 0.336820 0.217966
vt 0.336672 0.218626
vt 0.336011 0.218774
vt 0.945408 0.659851
vt 0.945408 0.660642
vt 0.944748 0.660486
vt 0.944600 0.659835
vt 0.349620 0.830132
vt 0.348811 0.830094
vt 0.348960 0.829421
vt 0.349620 0.829291
vt 0.006804 0.217966
vt 0.006804 0.218774
vt 0.006144 0.218626
vt 0.005996 0.217966
vt 0.728997 0.980030
vt 0.728997 0.980843
vt 0.728337 0.980697
vt 0.728188 0.980035
vt 0.959398 0.673424
vt 0.958589 0.673441
vt 0.958738 0.672789
vt 0.959398 0.672634
vt 0.178212 0.006804
vt 0.177404 0.006804
vt 0.177552 0.006144
vt 0.178212 0.005996
vt 0.959779 0.673424
vt 0.959779 0.672634
vt 0.960439 0.672789
vt 0.960588 0.673441
vt 0.729378 0.980030
vt 0.730186 0.980035
vt 0.730038 0.980697
vt 0.729378 0.980843
vt 0.164604 0.217966
vt 0.165412 0.217966
vt 0.165264 0.218626
vt 0.164604 0.218774
vt 0.945790 0.448960
vt 0.945790 0.448136
vt 0.946450 0.448276
vt 0.946598 0.448943
vt 0.728997 0.822248
vt 0.728188 0.822253
vt 0.728337 0.821595
vt 0.728997 0.821444
vt 0.336011 0.006804
vt 0.336011 0.005996
vt 0.336672 0.006144
vt 0.336820 0.006804
vt 0.729378 0.822248
vt 0.729378 0.821444
vt 0.730038 0.821595
vt 0.730186 0.822253
vt 0.945408 0.448960
vt 0.944600 0.448943
vt 0.944748 0.448277
vt 0.945408 0.448136
vt 0.006804 0.231574
vt 0.005996 0.231574
vt 0.006144 0.230914
vt 0.006804 0.230766
vt 0.946841 0.217678
vt 0.946841 0.218502
vt 0.946180 0.218361
vt 0.946032 0.217694
vt 0.363610 0.830056
vt 0.362801 0.830094
vt 0.362950 0.829455
vt 0.363610 0.829291
vt 0.947222 0.217678
vt 0.948030 0.217694
vt 0.947882 0.218361
vt 0.947222 0.218502
vt 0.178212 0.442736
vt 0.178212 0.443544
vt 0.177552 0.443396
vt 0.177404 0.442736
vt 0.363991 0.830056
vt 0.363991 0.829291
vt 0.364651 0.829455
vt 0.364799 0.830094
vt 0.164604 0.231574
vt 0.164604 0.230766
vt 0.165264 0.230914
vt 0.165412 0.231574
vt 0.363610 0.986823
vt 0.363610 0.987664
vt 0.362950 0.987534
vt 0.362801 0.986861
vt 0.959398 0.448926
vt 0.958589 0.448943
vt 0.958738 0.448292
vt 0.959398 0.448136
vt 0.336011 0.442736
vt 0.336820 0.442736
vt 0.336672 0.443396
vt 0.336011 0.443544
vt 0.959779 0.448926
vt 0.959779 0.448136
vt 0.960439 0.448292
vt 0.960588 0.448943
vt 0.363991 0.986823
vt 0.364799 0.986861
vt 0.364651 0.987534
vt 0.363991 0.987664
vt 0.006804 0.442736
vt 0.006804 0.443544
vt 0.006144 0.443396
vt 0.005996 0.442736
vt 0.753150 0.980030
vt 0.753150 0.980843
vt 0.752490 0.980697
vt 0.752342 0.980035
vt 0.946841 0.006786
vt 0.946032 0.006803
vt 0.946180 0.006151
vt 0.946841 0.005996
vt 0.178212 0.231574
vt 0.177404 0.231574
vt 0.177552 0.230914
vt 0.178212 0.230766
vt 0.947222 0.006786
vt 0.947222 0.005996
vt 0.947882 0.006151
vt 0.948030 0.006803
vt 0.753531 0.980030
vt 0.754340 0.980035
vt 0.754192 0.980697
vt 0.753531 0.980843
vt 0.164604 0.442736
vt 0.165412 0.442736
vt 0.165264 0.443396
vt 0.164604 0.443544
vt 0.959398 0.659818
vt 0.959398 0.660642
vt 0.958738 0.660501
vt 0.958589 0.659835
vt 0.753150 0.822248
vt 0.752342 0.822253
vt 0.752490 0.821595
vt 0.753150 0.821444
vt 0.336011 0.231574
vt 0.336011 0.230766
vt 0.336672 0.230914
vt 0.336820 0.231574
vt 0.753531 0.822248
vt 0.753531 0.821444
vt 0.754192 0.821595
vt 0.754340 0.822253
vt 0.959779 0.659818
vt 0.960588 0.659835
vt 0.960439 0.660501
vt 0.959779 0.660642
vt 0.949034 0.390580
vt 0.949034 0.230493
vt 0.952035 0.230493
vt 0.952035 0.390580
vt 0.812700 0.775749
vt 0.812700 0.935818
vt 0.806422 0.935786
vt 0.806422 0.775717
vt 0.797846 0.935774
vt 0.797846 0.775705
vt 0.789270 0.935786
vt 0.789270 0.775717
vt 0.782992 0.935818
vt 0.782992 0.775749
vt 0.960022 0.166082
vt 0.960022 0.005996
vt 0.963023 0.005996
vt 0.963023 0.166082
vt 0.966025 0.005996
vt 0.966025 0.166082
vt 0.824692 0.935087
vt 0.824692 0.776048
vt 0.830970 0.775797
vt 0.830970 0.934836
vt 0.839546 0.775705
vt 0.839546 0.934744
vt 0.848122 0.775797
vt 0.848122 0.934836
vt 0.569250 0.400203
vt 0.572449 0.398195
vt 0.575220 0.400763
vt 0.576819 0.407218
vt 0.576819 0.415832
vt 0.575220 0.424295
vt 0.572449 0.430341
vt 0.569250 0.432350
vt 0.566480 0.429782
vt 0.564880 0.423327
vt 0.564880 0.414713
vt 0.566480 0.406250
vt 0.854400 0.776048
vt 0.854400 0.935087
vt 0.946032 0.390580
vt 0.946032 0.230493
vt 0.593180 0.398195
vt 0.596379 0.400203
vt 0.599150 0.406250
vt 0.600749 0.414713
vt 0.600749 0.423327
vt 0.599150 0.429782
vt 0.596379 0.432350
vt 0.593180 0.430341
vt 0.590410 0.424295
vt 0.588810 0.415832
vt 0.588810 0.407218
vt 0.590410 0.400763
vt 0.349351 0.006535
vt 0.348812 0.006535
vt 0.348910 0.006095
vt 0.349351 0.005996
vt 0.309600 0.877209
vt 0.309600 0.877759
vt 0.309160 0.877665
vt 0.309061 0.877221
vt 0.906821 0.172022
vt 0.906281 0.172047
vt 0.906380 0.171621
vt 0.906821 0.171512
vt 0.336281 0.877209
vt 0.336820 0.877221
vt 0.336721 0.877665
vt 0.336281 0.877759
vt 0.349351 0.435605
vt 0.349351 0.436144
vt 0.348910 0.436045
vt 0.348812 0.435605
vt 0.933502 0.172022
vt 0.933502 0.171512
vt 0.933942 0.171621
vt 0.934041 0.172047
vt 0.501814 0.006535
vt 0.501814 0.005996
vt 0.502254 0.006095
vt 0.502353 0.006535
vt 0.906821 0.323487
vt 0.906821 0.324048
vt 0.906380 0.323961
vt 0.906281 0.323513
vt 0.309600 0.456063
vt 0.309061 0.456074
vt 0.309160 0.455639
vt 0.309600 0.455536
vt 0.501814 0.435605
vt 0.502353 0.435605
vt 0.502254 0.436045
vt 0.501814 0.436144
vt 0.336281 0.456063
vt 0.336281 0.455536
vt 0.336721 0.455639
vt 0.336820 0.456074
vt 0.933502 0.323487
vt 0.934041 0.323513
vt 0.933942 0.323961
vt 0.933502 0.324048
vt 0.349351 0.210835
vt 0.349351 0.211374
vt 0.348910 0.211275
vt 0.348811 0.210835
vt 0.933502 0.006538
vt 0.933502 0.005996
vt 0.933942 0.006093
vt 0.934041 0.006535
vt 0.309600 0.673170
vt 0.309061 0.673181
vt 0.309160 0.672747
vt 0.309600 0.672643
vt 0.349351 0.231305
vt 0.348812 0.231305
vt 0.348910 0.230865
vt 0.349351 0.230766
vt 0.336281 0.673170
vt 0.336281 0.672643
vt 0.336721 0.672747
vt 0.336820 0.673181
vt 0.906821 0.006538
vt 0.906282 0.006535
vt 0.906380 0.006093
vt 0.906821 0.005996
vt 0.501814 0.210835
vt 0.502353 0.210835
vt 0.502254 0.211275
vt 0.501814 0.211374
vt 0.309600 0.660102
vt 0.309600 0.660652
vt 0.309160 0.660558
vt 0.309061 0.660113
vt 0.933502 0.158985
vt 0.934041 0.158981
vt 0.933942 0.159420
vt 0.933502 0.159520
vt 0.501814 0.231305
vt 0.501814 0.230766
vt 0.502254 0.230865
vt 0.502353 0.231305
vt 0.906821 0.158985
vt 0.906821 0.159520
vt 0.906380 0.159420
vt 0.906282 0.158981
vt 0.336281 0.660102
vt 0.336820 0.660113
vt 0.336721 0.660558
vt 0.336281 0.660652
vt 0.006804 0.456344
vt 0.005996 0.456344
vt 0.006144 0.455684
vt 0.006804 0.455536
vt 0.979206 0.006849
vt 0.979206 0.005996
vt 0.979866 0.006117
vt 0.980015 0.006793
vt 0.461919 0.961393
vt 0.462727 0.961316
vt 0.462579 0.961923
vt 0.461919 0.962102
vt 0.978825 0.006849
vt 0.978016 0.006793
vt 0.978165 0.006117
vt 0.978825 0.005996
vt 0.484550 0.448944
vt 0.484550 0.448136
vt 0.485210 0.448284
vt 0.485358 0.448944
vt 0.461538 0.961393
vt 0.461538 0.962102
vt 0.460878 0.961923
vt 0.460729 0.961316
vt 0.141734 0.456344
vt 0.141734 0.455536
vt 0.142394 0.455684
vt 0.142543 0.456344
vt 0.461919 0.830155
vt 0.461919 0.829291
vt 0.462579 0.829401
vt 0.462727 0.830077
vt 0.965216 0.416906
vt 0.966025 0.416849
vt 0.965877 0.417474
vt 0.965216 0.417646
vt 0.349620 0.448944
vt 0.348811 0.448944
vt 0.348960 0.448284
vt 0.349620 0.448136
vt 0.964835 0.416906
vt 0.964835 0.417646
vt 0.964175 0.417474
vt 0.964027 0.416849
vt 0.461538 0.830155
vt 0.460729 0.830077
vt 0.460878 0.829401
vt 0.461538 0.829291
vt 0.006804 0.644636
vt 0.006804 0.645445
vt 0.006144 0.645296
vt 0.005996 0.644636
vt 0.433558 0.963754
vt 0.433558 0.964600
vt 0.432898 0.964473
vt 0.432750 0.963799
vt 0.979206 0.192408
vt 0.980015 0.192351
vt 0.979866 0.192977
vt 0.979206 0.193148
vt 0.484550 0.637236
vt 0.485358 0.637236
vt 0.485210 0.637896
vt 0.484550 0.638045
vt 0.978825 0.192408
vt 0.978825 0.193148
vt 0.978165 0.192977
vt 0.978016 0.192351
vt 0.433940 0.963754
vt 0.434748 0.963799
vt 0.434600 0.964473
vt 0.433940 0.964600
vt 0.141734 0.644636
vt 0.142543 0.644636
vt 0.142394 0.645296
vt 0.141734 0.645445
vt 0.965216 0.231347
vt 0.965216 0.230493
vt 0.965877 0.230614
vt 0.966025 0.231290
vt 0.433558 0.830047
vt 0.432750 0.830092
vt 0.432898 0.829458
vt 0.433558 0.829291
vt 0.349620 0.637236
vt 0.349620 0.638045
vt 0.348960 0.637896
vt 0.348811 0.637236
vt 0.433940 0.830047
vt 0.433940 0.829291
vt 0.434600 0.829458
vt 0.434748 0.830092
vt 0.964835 0.231347
vt 0.964027 0.231290
vt 0.964175 0.230614
vt 0.964835 0.230493
vt 0.155343 0.456344
vt 0.154534 0.456344
vt 0.154683 0.455684
vt 0.155343 0.455536
vt 0.973388 0.634435
vt 0.973388 0.635288
vt 0.972728 0.635167
vt 0.972579 0.634491
vt 0.481230 0.961394
vt 0.482038 0.961316
vt 0.481890 0.961923
vt 0.481230 0.962102
vt 0.973769 0.634435
vt 0.974577 0.634491
vt 0.974429 0.635167
vt 0.973769 0.635288
vt 0.633088 0.448944
vt 0.633088 0.448136
vt 0.633749 0.448284
vt 0.633897 0.448944
vt 0.480848 0.961394
vt 0.480848 0.962102
vt 0.480188 0.961923
vt 0.480040 0.961316
vt 0.290273 0.456344
vt 0.290273 0.455536
vt 0.290933 0.455684
vt 0.291081 0.456344
vt 0.481230 0.830155
vt 0.481230 0.829291
vt 0.481890 0.829401
vt 0.482038 0.830077
vt 0.973769 0.859046
vt 0.974578 0.858989
vt 0.974429 0.859615
vt 0.973769 0.859786
vt 0.498158 0.448944
vt 0.497350 0.448944
vt 0.497498 0.448284
vt 0.498158 0.448136
vt 0.973388 0.859046
vt 0.973388 0.859786
vt 0.972728 0.859615
vt 0.972579 0.858989
vt 0.480848 0.830155
vt 0.480040 0.830077
vt 0.480188 0.829401
vt 0.480848 0.829291
vt 0.155343 0.644636
vt 0.155343 0.645445
vt 0.154683 0.645296
vt 0.154534 0.644636
vt 0.447548 0.963754
vt 0.447548 0.964600
vt 0.446888 0.964473
vt 0.446740 0.963799
vt 0.973388 0.448876
vt 0.972579 0.448933
vt 0.972728 0.448307
vt 0.973388 0.448136
vt 0.633088 0.637236
vt 0.633897 0.637236
vt 0.633749 0.637896
vt 0.633088 0.638045
vt 0.973769 0.448876
vt 0.973769 0.448136
vt 0.974429 0.448307
vt 0.974577 0.448933
vt 0.447929 0.963754
vt 0.448738 0.963799
vt 0.448589 0.964473
vt 0.447929 0.964600
vt 0.290273 0.644636
vt 0.291081 0.644636
vt 0.290933 0.645296
vt 0.290273 0.645445
vt 0.973769 0.673487
vt 0.973769 0.672634
vt 0.974429 0.672755
vt 0.974578 0.673430
vt 0.447548 0.830047
vt 0.446740 0.830092
vt 0.446888 0.829458
vt 0.447548 0.829291
vt 0.498158 0.637236
vt 0.498158 0.638045
vt 0.497498 0.637896
vt 0.497350 0.637236
vt 0.447929 0.830047
vt 0.447929 0.829291
vt 0.448589 0.829458
vt 0.448738 0.830092
vt 0.973388 0.673487
vt 0.972579 0.673430
vt 0.972728 0.672755
vt 0.973388 0.672634
vt 0.713862 0.958661
vt 0.713862 0.821444
vt 0.716197 0.821444
vt 0.716197 0.958661
vt 0.167604 0.957194
vt 0.167604 0.821221
vt 0.172487 0.821451
vt 0.172487 0.957424
vt 0.179157 0.821535
vt 0.179157 0.957508
vt 0.185827 0.821451
vt 0.185827 0.957424
vt 0.190710 0.821221
vt 0.190710 0.957194
vt 0.766331 0.958661
vt 0.766331 0.821444
vt 0.768666 0.821444
vt 0.768666 0.958661
vt 0.771001 0.821444
vt 0.771001 0.958661
vt 0.202702 0.955226
vt 0.202702 0.821763
vt 0.207585 0.821366
vt 0.207585 0.954829
vt 0.214255 0.821221
vt 0.214255 0.954684
vt 0.220925 0.821366
vt 0.220925 0.954829
vt 0.616095 0.399763
vt 0.618550 0.398195
vt 0.620677 0.400186
vt 0.621904 0.405204
vt 0.621904 0.411902
vt 0.620677 0.418488
vt 0.618550 0.423195
vt 0.616095 0.424763
vt 0.613968 0.422771
vt 0.612741 0.417754
vt 0.612741 0.411055
vt 0.613968 0.404470
vt 0.225808 0.821763
vt 0.225808 0.955226
vt 0.711528 0.958661
vt 0.711528 0.821444
vt 0.639705 0.398195
vt 0.641832 0.400186
vt 0.643060 0.405204
vt 0.643060 0.411902
vt 0.641832 0.418488
vt 0.639705 0.423195
vt 0.637250 0.424763
vt 0.635124 0.422771
vt 0.633896 0.417754
vt 0.633896 0.411055
vt 0.635124 0.404470
vt 0.637250 0.399763
vt 0.514883 0.201035
vt 0.514344 0.201035
vt 0.514443 0.200595
vt 0.514883 0.200496
vt 0.292177 0.658005
vt 0.292177 0.657436
vt 0.292617 0.657517
vt 0.292716 0.657967
vt 0.257396 0.947846
vt 0.257935 0.947794
vt 0.257837 0.948199
vt 0.257396 0.948318
vt 0.273119 0.658005
vt 0.272580 0.657967
vt 0.272679 0.657517
vt 0.273119 0.657436
vt 0.644477 0.006535
vt 0.644477 0.005996
vt 0.644917 0.006095
vt 0.645016 0.006535
vt 0.238339 0.947846
vt 0.238339 0.948318
vt 0.237898 0.948199
vt 0.237800 0.947794
vt 0.644477 0.201035
vt 0.644477 0.200496
vt 0.644917 0.200595
vt 0.645016 0.201035
vt 0.257396 0.821797
vt 0.257396 0.821221
vt 0.257837 0.821294
vt 0.257935 0.821745
vt 0.633358 0.829403
vt 0.633897 0.829365
vt 0.633798 0.829782
vt 0.633358 0.829896
vt 0.514883 0.006535
vt 0.514344 0.006535
vt 0.514443 0.006095
vt 0.514883 0.005996
vt 0.614300 0.829403
vt 0.614300 0.829896
vt 0.613860 0.829782
vt 0.613761 0.829365
vt 0.238339 0.821797
vt 0.237800 0.821745
vt 0.237898 0.821294
vt 0.238339 0.821221
vt 0.514883 0.382467
vt 0.514883 0.383006
vt 0.514443 0.382907
vt 0.514344 0.382467
vt 0.866931 0.904629
vt 0.866931 0.905193
vt 0.866490 0.905108
vt 0.866391 0.904659
vt 0.292177 0.836803
vt 0.292716 0.836765
vt 0.292617 0.837182
vt 0.292177 0.837296
vt 0.644477 0.187966
vt 0.645016 0.187966
vt 0.644917 0.188406
vt 0.644477 0.188505
vt 0.273119 0.836803
vt 0.273119 0.837296
vt 0.272679 0.837182
vt 0.272580 0.836765
vt 0.885988 0.904629
vt 0.886527 0.904659
vt 0.886429 0.905108
vt 0.885988 0.905193
vt 0.644477 0.382467
vt 0.645016 0.382467
vt 0.644917 0.382907
vt 0.644477 0.383006
vt 0.633358 0.650605
vt 0.633358 0.650036
vt 0.633798 0.650117
vt 0.633897 0.650568
vt 0.866931 0.776209
vt 0.866391 0.776239
vt 0.866490 0.775817
vt 0.866931 0.775705
vt 0.514883 0.187966
vt 0.514883 0.188505
vt 0.514443 0.188406
vt 0.514344 0.187966
vt 0.885988 0.776209
vt 0.885988 0.775705
vt 0.886429 0.775817
vt 0.886527 0.776239
vt 0.614300 0.650605
vt 0.613761 0.650568
vt 0.613860 0.650117
vt 0.614300 0.650036
vt 0.781311 0.374351
vt 0.782120 0.374351
vt 0.781971 0.375011
vt 0.781311 0.375159
vt 0.992815 0.179785
vt 0.992815 0.180583
vt 0.992154 0.180430
vt 0.992006 0.179775
vt 0.495219 0.953532
vt 0.496028 0.953521
vt 0.495880 0.954175
vt 0.495219 0.954329
vt 0.993196 0.179785
vt 0.994004 0.179775
vt 0.993856 0.180430
vt 0.993196 0.180583
vt 0.646697 0.621990
vt 0.646697 0.622799
vt 0.646037 0.622650
vt 0.645888 0.621990
vt 0.494838 0.953532
vt 0.494838 0.954329
vt 0.494178 0.954175
vt 0.494030 0.953521
vt 0.657816 0.374351
vt 0.657816 0.375159
vt 0.657156 0.375011
vt 0.657007 0.374351
vt 0.495219 0.830110
vt 0.495219 0.829291
vt 0.495880 0.829434
vt 0.496028 0.830099
vt 0.987377 0.673452
vt 0.986569 0.673442
vt 0.986717 0.672778
vt 0.987377 0.672634
vt 0.770192 0.621990
vt 0.771001 0.621990
vt 0.770852 0.622650
vt 0.770192 0.622799
vt 0.987759 0.673452
vt 0.987759 0.672634
vt 0.988419 0.672778
vt 0.988567 0.673442
vt 0.494838 0.830110
vt 0.494030 0.830099
vt 0.494178 0.829434
vt 0.494838 0.829291
vt 0.781311 0.201305
vt 0.781311 0.200496
vt 0.781971 0.200645
vt 0.782120 0.201305
vt 0.522818 0.953351
vt 0.522818 0.954136
vt 0.522157 0.953979
vt 0.522009 0.953330
vt 0.992815 0.006814
vt 0.992006 0.006804
vt 0.992154 0.006140
vt 0.992815 0.005996
vt 0.646697 0.448944
vt 0.645888 0.448944
vt 0.646037 0.448284
vt 0.646697 0.448136
vt 0.993196 0.006814
vt 0.993196 0.005996
vt 0.993856 0.006140
vt 0.994004 0.006804
vt 0.523199 0.953351
vt 0.524007 0.953330
vt 0.523859 0.953979
vt 0.523199 0.954136
vt 0.657816 0.201305
vt 0.657007 0.201305
vt 0.657156 0.200645
vt 0.657816 0.200496
vt 0.987377 0.846422
vt 0.987377 0.847221
vt 0.986717 0.847068
vt 0.986569 0.846413
vt 0.522818 0.830119
vt 0.522009 0.830097
vt 0.522157 0.829429
vt 0.522818 0.829291
vt 0.770192 0.448944
vt 0.770192 0.448136
vt 0.770852 0.448284
vt 0.771001 0.448944
vt 0.523199 0.830119
vt 0.523199 0.829291
vt 0.523859 0.829429
vt 0.524007 0.830097
vt 0.987759 0.846422
vt 0.988567 0.846413
vt 0.988419 0.847068
vt 0.987759 0.847221
vt 0.770192 0.808644
vt 0.771001 0.808644
vt 0.770852 0.809304
vt 0.770192 0.809453
vt 0.987759 0.448934
vt 0.987759 0.448136
vt 0.988419 0.448289
vt 0.988567 0.448944
vt 0.508828 0.830087
vt 0.508019 0.830099
vt 0.508168 0.829444
vt 0.508828 0.829291
vt 0.987377 0.448934
vt 0.986569 0.448944
vt 0.986717 0.448289
vt 0.987377 0.448136
vt 0.657816 0.179850
vt 0.657816 0.180658
vt 0.657156 0.180510
vt 0.657007 0.179850
vt 0.509209 0.830087
vt 0.509209 0.829291
vt 0.509869 0.829444
vt 0.510018 0.830099
vt 0.646697 0.808644
vt 0.646697 0.809453
vt 0.646037 0.809304
vt 0.645888 0.808644
vt 0.508828 0.953509
vt 0.508828 0.954329
vt 0.508168 0.954185
vt 0.508019 0.953521
vt 0.979206 0.378909
vt 0.980015 0.378919
vt 0.979866 0.379583
vt 0.979206 0.379727
vt 0.781311 0.179850
vt 0.782120 0.179850
vt 0.781971 0.180510
vt 0.781311 0.180658
vt 0.978825 0.378909
vt 0.978825 0.379727
vt 0.978165 0.379583
vt 0.978016 0.378919
vt 0.509209 0.953509
vt 0.510018 0.953521
vt 0.509869 0.954185
vt 0.509209 0.954329
vt 0.770192 0.635599
vt 0.770192 0.634790
vt 0.770852 0.634938
vt 0.771001 0.635599
vt 0.537189 0.830076
vt 0.537189 0.829291
vt 0.537849 0.829448
vt 0.537997 0.830097
vt 0.987759 0.621905
vt 0.988567 0.621915
vt 0.988419 0.622579
vt 0.987759 0.622723
vt 0.657816 0.006804
vt 0.657007 0.006804
vt 0.657156 0.006144
vt 0.657816 0.005996
vt 0.987377 0.621905
vt 0.987377 0.622723
vt 0.986717 0.622579
vt 0.986569 0.621915
vt 0.536807 0.830076
vt 0.535999 0.830097
vt 0.536147 0.829448
vt 0.536807 0.829291
vt 0.646697 0.635599
vt 0.645888 0.635599
vt 0.646037 0.634938
vt 0.646697 0.634790
vt 0.979206 0.205938
vt 0.979206 0.205139
vt 0.979866 0.205292
vt 0.980015 0.205948
vt 0.537189 0.953308
vt 0.537997 0.953330
vt 0.537849 0.953998
vt 0.537188 0.954136
vt 0.781311 0.006804
vt 0.781311 0.005996
vt 0.781971 0.006144
vt 0.782120 0.006804
vt 0.536807 0.953308
vt 0.536807 0.954136
vt 0.536147 0.953998
vt 0.535999 0.953330
vt 0.978825 0.205938
vt 0.978016 0.205948
vt 0.978165 0.205292
vt 0.978825 0.205139
vt 0.696201 0.947226
vt 0.696201 0.821444
vt 0.699536 0.821444
vt 0.699536 0.947226
vt 0.039005 0.821221
vt 0.039005 0.946735
vt 0.032029 0.946894
vt 0.032029 0.821380
vt 0.022500 0.946953
vt 0.022500 0.821439
vt 0.012971 0.946894
vt 0.012971 0.821380
vt 0.005996 0.946735
vt 0.005996 0.821221
vt 0.674204 0.947226
vt 0.674204 0.821444
vt 0.677539 0.821444
vt 0.677539 0.947226
vt 0.680874 0.821444
vt 0.680874 0.947226
vt 0.901038 0.932322
vt 0.901038 0.806615
vt 0.908013 0.806531
vt 0.908013 0.932238
vt 0.917542 0.806500
vt 0.917542 0.932207
vt 0.927071 0.806531
vt 0.927071 0.932238
vt 0.519204 0.400426
vt 0.522761 0.398195
vt 0.525842 0.401048
vt 0.527621 0.408221
vt 0.527621 0.417792
vt 0.525842 0.427196
vt 0.522761 0.433913
vt 0.519204 0.436144
vt 0.516123 0.433291
vt 0.514344 0.426118
vt 0.514344 0.416547
vt 0.516123 0.407143
vt 0.934047 0.806615
vt 0.934047 0.932322
vt 0.692866 0.947226
vt 0.692866 0.821444
vt 0.544472 0.398195
vt 0.548029 0.400426
vt 0.551110 0.407143
vt 0.552889 0.416547
vt 0.552889 0.426118
vt 0.551110 0.433291
vt 0.548029 0.436144
vt 0.544472 0.433913
vt 0.541391 0.427196
vt 0.539612 0.417792
vt 0.539612 0.408221
vt 0.541391 0.401048
vt 0.598738 0.816760
vt 0.599277 0.816760
vt 0.599178 0.817200
vt 0.598738 0.817299
vt 0.901577 0.793976
vt 0.901577 0.794508
vt 0.901137 0.794407
vt 0.901038 0.793970
vt 0.155073 0.939856
vt 0.155612 0.939848
vt 0.155513 0.940285
vt 0.155073 0.940387
vt 0.932069 0.793976
vt 0.932608 0.793970
vt 0.932509 0.794407
vt 0.932069 0.794508
vt 0.349351 0.816760
vt 0.349351 0.817299
vt 0.348910 0.817200
vt 0.348812 0.816760
vt 0.124581 0.939856
vt 0.124581 0.940387
vt 0.124140 0.940285
vt 0.124042 0.939848
vt 0.480579 0.816760
vt 0.480579 0.817299
vt 0.480139 0.817200
vt 0.480040 0.816760
vt 0.155073 0.821767
vt 0.155073 0.821221
vt 0.155513 0.821316
vt 0.155612 0.821760
vt 0.932069 0.614781
vt 0.932608 0.614788
vt 0.932510 0.615230
vt 0.932069 0.615326
vt 0.467509 0.816760
vt 0.468049 0.816760
vt 0.467950 0.817200
vt 0.467509 0.817299
vt 0.901577 0.614781
vt 0.901577 0.615326
vt 0.901137 0.615230
vt 0.901038 0.614788
vt 0.124581 0.821767
vt 0.124042 0.821760
vt 0.124140 0.821316
vt 0.124581 0.821221
vt 0.598738 0.650575
vt 0.598738 0.650036
vt 0.599178 0.650135
vt 0.599277 0.650575
vt 0.081018 0.939681
vt 0.081018 0.940204
vt 0.080578 0.940099
vt 0.080479 0.939666
vt 0.901577 0.627863
vt 0.901038 0.627857
vt 0.901137 0.627414
vt 0.901577 0.627318
vt 0.349351 0.650575
vt 0.348812 0.650575
vt 0.348910 0.650135
vt 0.349351 0.650036
vt 0.932069 0.627863
vt 0.932069 0.627318
vt 0.932509 0.627414
vt 0.932608 0.627857
vt 0.111511 0.939681
vt 0.112050 0.939666
vt 0.111951 0.940099
vt 0.111511 0.940204
vt 0.480579 0.650575
vt 0.480040 0.650575
vt 0.480139 0.650135
vt 0.480579 0.650036
vt 0.932069 0.448668
vt 0.932069 0.448136
vt 0.932510 0.448238
vt 0.932608 0.448675
vt 0.081018 0.821773
vt 0.080479 0.821759
vt 0.080578 0.821313
vt 0.081018 0.821221
vt 0.467509 0.650575
vt 0.467509 0.650036
vt 0.467950 0.650135
vt 0.468048 0.650575
vt 0.111511 0.821773
vt 0.111511 0.821221
vt 0.111951 0.821313
vt 0.112050 0.821759
vt 0.901577 0.448668
vt 0.901038 0.448675
vt 0.901137 0.448238
vt 0.901577 0.448136
vt 0.006804 0.658245
vt 0.005996 0.658245
vt 0.006144 0.657585
vt 0.006804 0.657436
vt 0.377981 0.830159
vt 0.377981 0.829291
vt 0.378641 0.829394
vt 0.378789 0.830070
vt 0.580780 0.829944
vt 0.579972 0.830054
vt 0.580120 0.829480
vt 0.580780 0.829291
vt 0.377599 0.830159
vt 0.376791 0.830070
vt 0.376939 0.829394
vt 0.377599 0.829291
vt 0.888238 0.448944
vt 0.888238 0.448136
vt 0.888898 0.448284
vt 0.889046 0.448944
vt 0.581162 0.829944
vt 0.581162 0.829291
vt 0.581822 0.829480
vt 0.581970 0.830054
vt 0.111242 0.658245
vt 0.111242 0.657436
vt 0.111902 0.657585
vt 0.112050 0.658245
vt 0.580780 0.928595
vt 0.580780 0.929469
vt 0.580120 0.929377
vt 0.579972 0.928705
vt 0.391970 0.974871
vt 0.392779 0.974781
vt 0.392631 0.975378
vt 0.391970 0.975561
vt 0.783801 0.448944
vt 0.782992 0.448944
vt 0.783140 0.448284
vt 0.783801 0.448136
vt 0.391589 0.974871
vt 0.391589 0.975561
vt 0.390929 0.975378
vt 0.390781 0.974781
vt 0.581162 0.928595
vt 0.581970 0.928705
vt 0.581822 0.929377
vt 0.581162 0.929469
vt 0.006804 0.808421
vt 0.006804 0.809229
vt 0.006144 0.809081
vt 0.005996 0.808421
vt 0.598087 0.931573
vt 0.598087 0.932437
vt 0.597427 0.932327
vt 0.597279 0.931651
vt 0.377981 0.974871
vt 0.378789 0.974781
vt 0.378641 0.975378
vt 0.377981 0.975560
vt 0.888238 0.599121
vt 0.889046 0.599121
vt 0.888898 0.599781
vt 0.888238 0.599929
vt 0.377599 0.974871
vt 0.377599 0.975560
vt 0.376939 0.975378
vt 0.376791 0.974781
vt 0.598468 0.931573
vt 0.599277 0.931651
vt 0.599129 0.932327
vt 0.598468 0.932437
vt 0.111242 0.808421
vt 0.112050 0.808421
vt 0.111902 0.809081
vt 0.111241 0.809229
vt 0.391970 0.830159
vt 0.391970 0.829291
vt 0.392631 0.829394
vt 0.392779 0.830070
vt 0.598087 0.829999
vt 0.597279 0.830077
vt 0.597427 0.829470
vt 0.598087 0.829291
vt 0.783801 0.599121
vt 0.783801 0.599929
vt 0.783140 0.599781
vt 0.782992 0.599121
vt 0.598468 0.829999
vt 0.598468 0.829291
vt 0.599129 0.829470
vt 0.599277 0.830077
vt 0.391589 0.830159
vt 0.390781 0.830070
vt 0.390929 0.829394
vt 0.391589 0.829291
vt 0.155343 0.658245
vt 0.154534 0.658245
vt 0.154683 0.657585
vt 0.155343 0.657436
vt 0.405960 0.830159
vt 0.405960 0.829291
vt 0.406620 0.829394
vt 0.406769 0.830070
vt 0.614569 0.842541
vt 0.613761 0.842651
vt 0.613909 0.842077
vt 0.614569 0.841888
vt 0.405579 0.830159
vt 0.404770 0.830070
vt 0.404919 0.829394
vt 0.405579 0.829291
vt 0.888238 0.612729
vt 0.888238 0.611921
vt 0.888898 0.612069
vt 0.889046 0.612729
vt 0.614951 0.842541
vt 0.614951 0.841888
vt 0.615611 0.842077
vt 0.615759 0.842651
vt 0.259780 0.658245
vt 0.259780 0.657436
vt 0.260440 0.657585
vt 0.260588 0.658245
vt 0.614569 0.941192
vt 0.614569 0.942066
vt 0.613909 0.941974
vt 0.613761 0.941302
vt 0.419950 0.974871
vt 0.420758 0.974781
vt 0.420610 0.975378
vt 0.419950 0.975561
vt 0.783801 0.612729
vt 0.782992 0.612729
vt 0.783140 0.612069
vt 0.783801 0.611921
vt 0.419569 0.974871
vt 0.419569 0.975561
vt 0.418908 0.975378
vt 0.418760 0.974781
vt 0.614951 0.941192
vt 0.615759 0.941302
vt 0.615611 0.941974
vt 0.614951 0.942066
vt 0.155343 0.808421
vt 0.155343 0.809229
vt 0.154682 0.809081
vt 0.154534 0.808421
vt 0.566791 0.931573
vt 0.566791 0.932437
vt 0.566131 0.932327
vt 0.565982 0.931651
vt 0.405960 0.974871
vt 0.406769 0.974781
vt 0.406620 0.975378
vt 0.405960 0.975561
vt 0.888238 0.762905
vt 0.889046 0.762905
vt 0.888898 0.763565
vt 0.888238 0.763714
vt 0.405579 0.974871
vt 0.405579 0.975561
vt 0.404919 0.975378
vt 0.404770 0.974781
vt 0.567172 0.931573
vt 0.567980 0.931651
vt 0.567832 0.932327
vt 0.567172 0.932437
vt 0.259780 0.808421
vt 0.260588 0.808421
vt 0.260440 0.809081
vt 0.259780 0.809229
vt 0.419950 0.830159
vt 0.419950 0.829291
vt 0.420610 0.829394
vt 0.420758 0.830070
vt 0.566791 0.829999
vt 0.565982 0.830077
vt 0.566131 0.829470
vt 0.566791 0.829291
vt 0.783801 0.762905
vt 0.783801 0.763714
vt 0.783140 0.763565
vt 0.782992 0.762905
vt 0.567172 0.829999
vt 0.567172 0.829291
vt 0.567832 0.829470
vt 0.567980 0.830077
vt 0.419569 0.830159
vt 0.418760 0.830070
vt 0.418908 0.829394
vt 0.419569 0.829291
vt 0.888022 0.425490
vt 0.888022 0.318765
vt 0.890023 0.318765
vt 0.890023 0.425490
vt 0.813917 0.319231
vt 0.813917 0.423028
vt 0.809731 0.422688
vt 0.809731 0.318890
vt 0.804014 0.422563
vt 0.804014 0.318765
vt 0.798296 0.422688
vt 0.798296 0.318890
vt 0.794111 0.423028
vt 0.794111 0.319231
vt 0.549989 0.936015
vt 0.549989 0.829291
vt 0.551990 0.829291
vt 0.551990 0.936015
vt 0.553991 0.829291
vt 0.553991 0.936015
vt 0.845714 0.318765
vt 0.845714 0.419576
vt 0.841528 0.420057
vt 0.841528 0.319246
vt 0.835811 0.420233
vt 0.835811 0.319422
vt 0.830093 0.420057
vt 0.830093 0.319246
vt 0.677536 0.399547
vt 0.679594 0.398195
vt 0.681377 0.399894
vt 0.682406 0.404190
vt 0.682406 0.409930
vt 0.681377 0.415578
vt 0.679594 0.419619
vt 0.677536 0.420972
vt 0.675754 0.419272
vt 0.674724 0.414977
vt 0.674724 0.409236
vt 0.675753 0.403589
vt 0.825908 0.419576
vt 0.825908 0.318765
vt 0.886021 0.425490
vt 0.886021 0.318765
vt 0.657863 0.398195
vt 0.659921 0.399547
vt 0.661704 0.403589
vt 0.662733 0.409236
vt 0.662733 0.414977
vt 0.661704 0.419272
vt 0.659921 0.420972
vt 0.657863 0.419619
vt 0.656080 0.415578
vt 0.655051 0.409930
vt 0.655051 0.404190
vt 0.656080 0.399894
vt 0.794650 0.006535
vt 0.794111 0.006535
vt 0.794210 0.006095
vt 0.794650 0.005996
vt 0.139827 0.658015
vt 0.139827 0.657436
vt 0.140267 0.657505
vt 0.140366 0.657956
vt 0.646427 0.821880
vt 0.645888 0.821953
vt 0.645987 0.821570
vt 0.646427 0.821444
vt 0.124581 0.658015
vt 0.124042 0.657956
vt 0.124140 0.657505
vt 0.124581 0.657436
vt 0.893751 0.162920
vt 0.893751 0.162381
vt 0.894191 0.162480
vt 0.894290 0.162920
vt 0.661674 0.821880
vt 0.661674 0.821444
vt 0.662114 0.821570
vt 0.662213 0.821953
vt 0.893751 0.006535
vt 0.893751 0.005996
vt 0.894191 0.006095
vt 0.894290 0.006535
vt 0.646427 0.915490
vt 0.646427 0.916073
vt 0.645987 0.916012
vt 0.645888 0.915563
vt 0.067949 0.959900
vt 0.068488 0.959841
vt 0.068389 0.960239
vt 0.067949 0.960360
vt 0.794650 0.162920
vt 0.794111 0.162920
vt 0.794210 0.162480
vt 0.794650 0.162381
vt 0.052703 0.959900
vt 0.052703 0.960360
vt 0.052262 0.960239
vt 0.052164 0.959841
vt 0.661674 0.915490
vt 0.662213 0.915563
vt 0.662114 0.916012
vt 0.661674 0.916073
vt 0.794650 0.149850
vt 0.794650 0.150389
vt 0.794210 0.150290
vt 0.794111 0.149850
vt 0.858244 0.415621
vt 0.858244 0.416197
vt 0.857804 0.416124
vt 0.857705 0.415673
vt 0.139827 0.796116
vt 0.140366 0.796056
vt 0.140267 0.796454
vt 0.139827 0.796575
vt 0.893751 0.306235
vt 0.894290 0.306235
vt 0.894191 0.306675
vt 0.893751 0.306774
vt 0.124581 0.796116
vt 0.124581 0.796575
vt 0.124140 0.796454
vt 0.124042 0.796056
vt 0.873490 0.415621
vt 0.874029 0.415673
vt 0.873930 0.416124
vt 0.873490 0.416197
vt 0.893751 0.149850
vt 0.894290 0.149850
vt 0.894191 0.150290
vt 0.893751 0.150389
vt 0.067949 0.821800
vt 0.067949 0.821221
vt 0.068389 0.821290
vt 0.068488 0.821740
vt 0.858244 0.319238
vt 0.857705 0.319290
vt 0.857804 0.318885
vt 0.858244 0.318765
vt 0.794650 0.306235
vt 0.794650 0.306774
vt 0.794210 0.306675
vt 0.794111 0.306235
vt 0.873490 0.319238
vt 0.873490 0.318765
vt 0.873930 0.318885
vt 0.874029 0.319290
vt 0.052703 0.821800
vt 0.052164 0.821740
vt 0.052262 0.821290
vt 0.052703 0.821221
s 0
usemtl M_BookCoverA
f 1/1/1 4/2/1 5/3/1 7/4/1
f 2/5/2 6/6/2 5/7/2 4/8/2
f 3/9/3 7/10/3 5/11/3 6/12/3
f 8/13/4 11/14/4 12/15/4 14/16/4
f 9/17/5 13/18/5 12/19/5 11/20/5
f 10/21/6 14/22/6 12/23/6 13/24/6
f 15/25/7 18/26/7 19/27/7 21/28/7
f 16/29/8 20/30/8 19/31/8 18/32/8
f 17/33/9 21/34/9 19/35/9 20/36/9
f 22/37/10 25/38/10 26/39/10 28/40/10
f 23/41/11 27/42/11 26/43/11 25/44/11
f 24/45/12 28/46/12 26/47/12 27/48/12
f 29/49/13 32/50/13 33/51/13 35/52/13
f 30/53/14 34/54/14 33/55/14 32/56/14
f 31/57/15 35/58/15 33/59/15 34/60/15
f 36/61/16 39/62/16 40/63/16 42/64/16
f 37/65/17 41/66/17 40/67/17 39/68/17
f 38/69/18 42/70/18 40/71/18 41/72/18
f 43/73/19 46/74/19 47/75/19 49/76/19
f 44/77/20 48/78/20 47/79/20 46/80/20
f 45/81/21 49/82/21 47/83/21 48/84/21
f 50/85/22 53/86/22 54/87/22 56/88/22
f 51/89/23 55/90/23 54/91/23 53/92/23
f 52/93/24 56/94/24 54/95/24 55/96/24
f 15/25/25 1/1/25 7/4/25 18/26/25
f 18/32/26 7/10/26 3/9/26 16/29/26
f 2/5/27 8/13/27 14/16/27 6/6/27
f 6/12/28 14/22/28 10/21/28 3/9/28
f 9/17/29 22/37/29 28/40/29 13/18/29
f 13/24/30 28/46/30 24/45/30 10/21/30
f 23/41/31 17/33/31 20/36/31 27/42/31
f 27/48/32 20/30/32 16/29/32 24/45/32
f 43/73/33 15/25/33 21/28/33 46/74/33
f 46/80/34 21/34/34 17/33/34 44/77/34
f 22/37/35 50/85/35 56/88/35 25/38/35
f 25/44/36 56/94/36 52/93/36 23/41/36
f 51/89/37 45/81/37 48/84/37 55/90/37
f 55/96/38 48/78/38 44/77/38 52/93/38
f 29/49/39 43/73/39 49/76/39 32/50/39
f 32/56/40 49/82/40 45/81/40 30/53/40
f 50/85/41 36/61/41 42/64/41 53/86/41
f 53/92/42 42/70/42 38/69/42 51/89/42
f 37/65/43 31/57/43 34/60/43 41/66/43
f 41/72/44 34/54/44 30/53/44 38/69/44
f 1/1/45 29/49/45 35/52/45 4/2/45
f 4/8/46 35/58/46 31/57/46 2/5/46
f 36/61/47 9/17/47 11/20/47 39/62/47
f 39/68/48 11/14/48 8/13/48 37/65/48
f 15/25/49 43/73/49 29/49/49 1/1/49
f 3/9/50 10/21/50 24/45/50 16/29/50
f 31/57/51 37/65/51 8/13/51 2/5/51
f 50/85/52 22/37/52 9/17/52 36/61/52
f 17/33/53 23/41/53 52/93/53 44/77/53
f 45/81/54 51/89/54 38/69/54 30/53/54
f 57/97/55 60/98/55 61/99/55 63/100/55
f 58/101/2 62/102/2 61/103/2 60/104/2
f 59/105/3 63/106/3 61/107/3 62/108/3
f 64/109/4 67/110/4 68/111/4 70/112/4
f 65/113/5 69/114/5 68/115/5 67/116/5
f 66/117/56 70/118/56 68/119/56 69/120/56
f 71/121/7 74/122/7 75/123/7 77/124/7
f 72/125/8 76/126/8 75/127/8 74/128/8
f 73/129/9 77/130/9 75/131/9 76/132/9
f 78/133/57 81/134/57 82/135/57 84/136/57
f 79/137/11 83/138/11 82/139/11 81/140/11
f 80/141/12 84/142/12 82/143/12 83/144/12
f 85/145/13 88/146/13 89/147/13 91/148/13
f 86/149/14 90/150/14 89/151/14 88/152/14
f 87/153/15 91/154/15 89/155/15 90/156/15
f 92/157/16 95/158/16 96/159/16 98/160/16
f 93/161/17 97/162/17 96/163/17 95/164/17
f 94/165/18 98/166/18 96/167/18 97/168/18
f 99/169/19 102/170/19 103/171/19 105/172/19
f 100/173/20 104/174/20 103/175/20 102/176/20
f 101/177/21 105/178/21 103/179/21 104/180/21
f 106/181/22 109/182/22 110/183/22 112/184/22
f 107/185/23 111/186/23 110/187/23 109/188/23
f 108/189/24 112/190/24 110/191/24 111/192/24
f 71/121/25 57/97/25 63/100/25 74/122/25
f 74/128/26 63/106/26 59/105/26 72/125/26
f 58/101/27 64/109/27 70/112/27 62/102/27
f 62/108/28 70/118/28 66/117/28 59/105/28
f 65/113/29 78/133/29 84/136/29 69/114/29
f 69/120/30 84/142/30 80/141/30 66/117/30
f 79/137/31 73/129/31 76/132/31 83/138/31
f 83/144/32 76/126/32 72/125/32 80/141/32
f 99/169/33 71/121/33 77/124/33 102/170/33
f 102/176/34 77/130/34 73/129/34 100/173/34
f 78/133/35 106/181/35 112/184/35 81/134/35
f 81/140/36 112/190/36 108/189/36 79/137/36
f 107/185/37 101/177/37 104/180/37 111/186/37
f 111/192/38 104/174/38 100/173/38 108/189/38
f 85/145/39 99/169/39 105/172/39 88/146/39
f 88/152/40 105/178/40 101/177/40 86/149/40
f 106/181/41 92/157/41 98/160/41 109/182/41
f 109/188/42 98/166/42 94/165/42 107/185/42
f 93/161/43 87/153/43 90/156/43 97/162/43
f 97/168/44 90/150/44 86/149/44 94/165/44
f 57/97/45 85/145/45 91/148/45 60/98/45
f 60/104/46 91/154/46 87/153/46 58/101/46
f 92/157/47 65/113/47 67/116/47 95/158/47
f 95/164/48 67/110/48 64/109/48 93/161/48
f 71/121/49 99/169/49 85/145/49 57/97/49
f 59/105/50 66/117/50 80/141/50 72/125/50
f 87/153/51 93/161/51 64/109/51 58/101/51
f 106/181/52 78/133/52 65/113/52 92/157/52
f 73/129/53 79/137/53 108/189/53 100/173/53
f 101/177/54 107/185/54 94/165/54 86/149/54
f 113/193/58 114/194/58 116/195/58 115/196/58
f 115/197/59 116/198/59 118/199/59 117/200/59
f 117/200/60 118/199/60 120/201/60 119/202/60
f 119/202/61 120/201/61 122/203/61 121/204/61
f 121/204/62 122/203/62 124/205/62 123/206/62
f 123/207/63 124/208/63 126/209/63 125/210/63
f 125/210/64 126/209/64 128/211/64 127/212/64
f 127/213/65 128/214/65 130/215/65 129/216/65
f 129/216/66 130/215/66 132/217/66 131/218/66
f 131/218/67 132/217/67 134/219/67 133/220/67
f 116/221/51 114/222/51 136/223/51 134/224/51 132/225/51 130/226/51 128/227/51 126/228/51 124/229/51 122/230/51 120/231/51 118/232/51
f 133/220/68 134/219/68 136/233/68 135/234/68
f 135/235/69 136/236/69 114/194/69 113/193/69
f 113/237/53 115/238/53 117/239/53 119/240/53 121/241/53 123/242/53 125/243/53 127/244/53 129/245/53 131/246/53 133/247/53 135/248/53
f 577/1033/222 580/1034/222 581/1035/222 583/1036/222
f 578/1037/223 582/1038/223 581/1039/223 580/1040/223
f 579/1041/224 583/1042/224 581/1043/224 582/1044/224
f 584/1045/225 587/1046/225 588/1047/225 590/1048/225
f 585/1049/226 589/1050/226 588/1051/226 587/1052/226
f 586/1053/227 590/1054/227 588/1055/227 589/1056/227
f 591/1057/228 594/1058/228 595/1059/228 597/1060/228
f 592/1061/229 596/1062/229 595/1063/229 594/1064/229
f 593/1065/230 597/1066/230 595/1067/230 596/1068/230
f 598/1069/231 601/1070/231 602/1071/231 604/1072/231
f 599/1073/232 603/1074/232 602/1075/232 601/1076/232
f 600/1077/233 604/1078/233 602/1079/233 603/1080/233
f 605/1081/234 608/1082/234 609/1083/234 611/1084/234
f 606/1085/235 610/1086/235 609/1087/235 608/1088/235
f 607/1089/236 611/1090/236 609/1091/236 610/1092/236
f 612/1093/237 615/1094/237 616/1095/237 618/1096/237
f 613/1097/238 617/1098/238 616/1099/238 615/1100/238
f 614/1101/239 618/1102/239 616/1103/239 617/1104/239
f 619/1105/240 622/1106/240 623/1107/240 625/1108/240
f 620/1109/241 624/1110/241 623/1111/241 622/1112/241
f 621/1113/242 625/1114/242 623/1115/242 624/1116/242
f 626/1117/243 629/1118/243 630/1119/243 632/1120/243
f 627/1121/244 631/1122/244 630/1123/244 629/1124/244
f 628/1125/245 632/1126/245 630/1127/245 631/1128/245
f 591/1057/246 577/1033/246 583/1036/246 594/1058/246
f 594/1064/247 583/1042/247 579/1041/247 592/1061/247
f 578/1037/248 584/1045/248 590/1048/248 582/1038/248
f 582/1044/249 590/1054/249 586/1053/249 579/1041/249
f 585/1049/250 598/1069/250 604/1072/250 589/1050/250
f 589/1056/251 604/1078/251 600/1077/251 586/1053/251
f 599/1073/252 593/1065/252 596/1068/252 603/1074/252
f 603/1080/253 596/1062/253 592/1061/253 600/1077/253
f 619/1105/254 591/1057/254 597/1060/254 622/1106/254
f 622/1112/255 597/1066/255 593/1065/255 620/1109/255
f 598/1069/256 626/1117/256 632/1120/256 601/1070/256
f 601/1076/257 632/1126/257 628/1125/257 599/1073/257
f 627/1121/258 621/1113/258 624/1116/258 631/1122/258
f 631/1128/259 624/1110/259 620/1109/259 628/1125/259
f 605/1081/260 619/1105/260 625/1108/260 608/1082/260
f 608/1088/261 625/1114/261 621/1113/261 606/1085/261
f 626/1117/262 612/1093/262 618/1096/262 629/1118/262
f 629/1124/263 618/1102/263 614/1101/263 627/1121/263
f 613/1097/264 607/1089/264 610/1092/264 617/1098/264
f 617/1104/265 610/1086/265 606/1085/265 614/1101/265
f 577/1033/266 605/1081/266 611/1084/266 580/1034/266
f 580/1040/267 611/1090/267 607/1089/267 578/1037/267
f 612/1093/268 585/1049/268 587/1052/268 615/1094/268
f 615/1100/269 587/1046/269 584/1045/269 613/1097/269
f 591/1057/49 619/1105/49 605/1081/49 577/1033/49
f 579/1041/270 586/1053/270 600/1077/270 592/1061/270
f 607/1089/271 613/1097/271 584/1045/271 578/1037/271
f 626/1117/52 598/1069/52 585/1049/52 612/1093/52
f 593/1065/272 599/1073/272 628/1125/272 620/1109/272
f 621/1113/273 627/1121/273 614/1101/273 606/1085/273
f 633/1129/222 636/1130/222 637/1131/222 639/1132/222
f 634/1133/223 638/1134/223 637/1135/223 636/1136/223
f 635/1137/224 639/1138/224 637/1139/224 638/1140/224
f 640/1141/225 643/1142/225 644/1143/225 646/1144/225
f 641/1145/226 645/1146/226 644/1147/226 643/1148/226
f 642/1149/227 646/1150/227 644/1151/227 645/1152/227
f 647/1153/228 650/1154/228 651/1155/228 653/1156/228
f 648/1157/229 652/1158/229 651/1159/229 650/1160/229
f 649/1161/230 653/1162/230 651/1163/230 652/1164/230
f 654/1165/231 657/1166/231 658/1167/231 660/1168/231
f 655/1169/232 659/1170/232 658/1171/232 657/1172/232
f 656/1173/233 660/1174/233 658/1175/233 659/1176/233
f 661/1177/234 664/1178/234 665/1179/234 667/1180/234
f 662/1181/235 666/1182/235 665/1183/235 664/1184/235
f 663/1185/236 667/1186/236 665/1187/236 666/1188/236
f 668/1189/237 671/1190/237 672/1191/237 674/1192/237
f 669/1193/238 673/1194/238 672/1195/238 671/1196/238
f 670/1197/239 674/1198/239 672/1199/239 673/1200/239
f 675/1201/240 678/1202/240 679/1203/240 681/1204/240
f 676/1205/241 680/1206/241 679/1207/241 678/1208/241
f 677/1209/242 681/1210/242 679/1211/242 680/1212/242
f 682/1213/243 685/1214/243 686/1215/243 688/1216/243
f 683/1217/244 687/1218/244 686/1219/244 685/1220/244
f 684/1221/245 688/1222/245 686/1223/245 687/1224/245
f 647/1153/246 633/1129/246 639/1132/246 650/1154/246
f 650/1160/247 639/1138/247 635/1137/247 648/1157/247
f 634/1133/248 640/1141/248 646/1144/248 638/1134/248
f 638/1140/249 646/1150/249 642/1149/249 635/1137/249
f 641/1145/250 654/1165/250 660/1168/250 645/1146/250
f 645/1152/251 660/1174/251 656/1173/251 642/1149/251
f 655/1169/252 649/1161/252 652/1164/252 659/1170/252
f 659/1176/253 652/1158/253 648/1157/253 656/1173/253
f 675/1201/254 647/1153/254 653/1156/254 678/1202/254
f 678/1208/255 653/1162/255 649/1161/255 676/1205/255
f 654/1165/256 682/1213/256 688/1216/256 657/1166/256
f 657/1172/257 688/1222/257 684/1221/257 655/1169/257
f 683/1217/258 677/1209/258 680/1212/258 687/1218/258
f 687/1224/274 680/1206/274 676/1205/274 684/1221/274
f 661/1177/260 675/1201/260 681/1204/260 664/1178/260
f 664/1184/261 681/1210/261 677/1209/261 662/1181/261
f 682/1213/262 668/1189/262 674/1192/262 685/1214/262
f 685/1220/263 674/1198/263 670/1197/263 683/1217/263
f 669/1193/264 663/1185/264 666/1188/264 673/1194/264
f 673/1200/265 666/1182/265 662/1181/265 670/1197/265
f 633/1129/266 661/1177/266 667/1180/266 636/1130/266
f 636/1136/267 667/1186/267 663/1185/267 634/1133/267
f 668/1189/268 641/1145/268 643/1148/268 671/1190/268
f 671/1196/269 643/1142/269 640/1141/269 669/1193/269
f 647/1153/49 675/1201/49 661/1177/49 633/1129/49
f 635/1137/270 642/1149/270 656/1173/270 648/1157/270
f 663/1185/271 669/1193/271 640/1141/271 634/1133/271
f 682/1213/52 654/1165/52 641/1145/52 668/1189/52
f 649/1161/272 655/1169/272 684/1221/272 676/1205/272
f 677/1209/273 683/1217/273 670/1197/273 662/1181/273
f 689/1225/275 690/1226/275 692/1227/275 691/1228/275
f 691/1229/276 692/1230/276 694/1231/276 693/1232/276
f 693/1232/277 694/1231/277 696/1233/277 695/1234/277
f 695/1234/278 696/1233/278 698/1235/278 697/1236/278
f 697/1236/279 698/1235/279 700/1237/279 699/1238/279
f 699/1239/280 700/1240/280 702/1241/280 701/1242/280
f 701/1242/281 702/1241/281 704/1243/281 703/1244/281
f 703/1245/282 704/1246/282 706/1247/282 705/1248/282
f 705/1248/283 706/1247/283 708/1249/283 707/1250/283
f 707/1250/284 708/1249/284 710/1251/284 709/1252/284
f 692/1253/271 690/1254/271 712/1255/271 710/1256/271 708/1257/271 706/1258/271 704/1259/271 702/1260/271 700/1261/271 698/1262/271 696/1263/271 694/1264/271
f 709/1252/285 710/1251/285 712/1265/285 711/1266/285
f 711/1267/286 712/1268/286 690/1226/286 689/1225/286
f 689/1269/272 691/1270/272 693/1271/272 695/1272/272 697/1273/272 699/1274/272 701/1275/272 703/1276/272 705/1277/272 707/1278/272 709/1279/272 711/1280/272
usemtl M_Pages
f 137/249/55 140/250/55 141/251/55 143/252/55
f 138/253/2 142/254/2 141/255/2 140/256/2
f 139/257/70 143/258/70 141/259/70 142/260/70
f 144/261/4 147/262/4 148/263/4 150/264/4
f 145/265/5 149/266/5 148/267/5 147/268/5
f 146/269/6 150/270/6 148/271/6 149/272/6
f 151/273/7 154/274/7 155/275/7 157/276/7
f 152/277/8 156/278/8 155/279/8 154/280/8
f 153/281/9 157/282/9 155/283/9 156/284/9
f 158/285/57 161/286/57 162/287/57 164/288/57
f 159/289/11 163/290/11 162/291/11 161/292/11
f 160/293/71 164/294/71 162/295/71 163/296/71
f 165/297/13 168/298/13 169/299/13 171/300/13
f 166/301/14 170/302/14 169/303/14 168/304/14
f 167/305/15 171/306/15 169/307/15 170/308/15
f 172/309/16 175/310/16 176/311/16 178/312/16
f 173/313/17 177/314/17 176/315/17 175/316/17
f 174/317/18 178/318/18 176/319/18 177/320/18
f 179/321/19 182/322/19 183/323/19 185/324/19
f 180/325/20 184/326/20 183/327/20 182/328/20
f 181/329/72 185/330/72 183/331/72 184/332/72
f 186/333/22 189/334/22 190/335/22 192/336/22
f 187/337/23 191/338/23 190/339/23 189/340/23
f 188/341/24 192/342/24 190/343/24 191/344/24
f 151/273/25 137/249/25 143/252/25 154/274/25
f 154/280/26 143/258/26 139/257/26 152/277/26
f 138/253/27 144/261/27 150/264/27 142/254/27
f 142/260/28 150/270/28 146/269/28 139/257/28
f 145/265/29 158/285/29 164/288/29 149/266/29
f 149/272/30 164/294/30 160/293/30 146/269/30
f 159/289/31 153/281/31 156/284/31 163/290/31
f 163/296/32 156/278/32 152/277/32 160/293/32
f 179/321/33 151/273/33 157/276/33 182/322/33
f 182/328/34 157/282/34 153/281/34 180/325/34
f 158/285/35 186/333/35 192/336/35 161/286/35
f 161/292/36 192/342/36 188/341/36 159/289/36
f 187/337/37 181/329/37 184/332/37 191/338/37
f 191/344/38 184/326/38 180/325/38 188/341/38
f 165/297/39 179/321/39 185/324/39 168/298/39
f 168/304/40 185/330/40 181/329/40 166/301/40
f 186/333/41 172/309/41 178/312/41 189/334/41
f 189/340/42 178/318/42 174/317/42 187/337/42
f 173/313/43 167/305/43 170/308/43 177/314/43
f 177/320/44 170/302/44 166/301/44 174/317/44
f 137/249/45 165/297/45 171/300/45 140/250/45
f 140/256/46 171/306/46 167/305/46 138/253/46
f 172/309/47 145/265/47 147/268/47 175/310/47
f 175/316/48 147/262/48 144/261/48 173/313/48
f 151/273/49 179/321/49 165/297/49 137/249/49
f 139/257/50 146/269/50 160/293/50 152/277/50
f 167/305/51 173/313/51 144/261/51 138/253/51
f 186/333/52 158/285/52 145/265/52 172/309/52
f 153/281/53 159/289/53 188/341/53 180/325/53
f 181/329/54 187/337/54 174/317/54 166/301/54
f 329/593/73 332/594/73 333/595/73 335/596/73
f 330/597/74 334/598/74 333/599/74 332/600/74
f 331/601/75 335/602/75 333/603/75 334/604/75
f 336/605/76 339/606/76 340/607/76 342/608/76
f 337/609/77 341/610/77 340/611/77 339/612/77
f 338/613/78 342/614/78 340/615/78 341/616/78
f 343/617/79 346/618/79 347/619/79 349/620/79
f 344/621/137 348/622/137 347/623/137 346/624/137
f 345/625/81 349/626/81 347/627/81 348/628/81
f 350/629/82 353/630/82 354/631/82 356/632/82
f 351/633/138 355/634/138 354/635/138 353/636/138
f 352/637/139 356/638/139 354/639/139 355/640/139
f 357/641/85 360/642/85 361/643/85 363/644/85
f 358/645/86 362/646/86 361/647/86 360/648/86
f 359/649/87 363/650/87 361/651/87 362/652/87
f 364/653/88 367/654/88 368/655/88 370/656/88
f 365/657/89 369/658/89 368/659/89 367/660/89
f 366/661/90 370/662/90 368/663/90 369/664/90
f 371/665/91 374/666/91 375/667/91 377/668/91
f 372/669/92 376/670/92 375/671/92 374/672/92
f 373/673/140 377/674/140 375/675/140 376/676/140
f 378/677/94 381/678/94 382/679/94 384/680/94
f 379/681/141 383/682/141 382/683/141 381/684/141
f 380/685/96 384/686/96 382/687/96 383/688/96
f 343/617/97 329/593/97 335/596/97 346/618/97
f 346/624/98 335/602/98 331/601/98 344/621/98
f 330/597/142 336/605/142 342/608/142 334/598/142
f 334/604/100 342/614/100 338/613/100 331/601/100
f 337/609/101 350/629/101 356/632/101 341/610/101
f 341/616/102 356/638/102 352/637/102 338/613/102
f 351/633/103 345/625/103 348/628/103 355/634/103
f 355/640/143 348/622/143 344/621/143 352/637/143
f 371/665/105 343/617/105 349/620/105 374/666/105
f 374/672/106 349/626/106 345/625/106 372/669/106
f 350/629/107 378/677/107 384/680/107 353/630/107
f 353/636/108 384/686/108 380/685/108 351/633/108
f 379/681/109 373/673/109 376/676/109 383/682/109
f 383/688/110 376/670/110 372/669/110 380/685/110
f 357/641/111 371/665/111 377/668/111 360/642/111
f 360/648/112 377/674/112 373/673/112 358/645/112
f 378/677/113 364/653/113 370/656/113 381/678/113
f 381/684/114 370/662/114 366/661/114 379/681/114
f 365/657/115 359/649/115 362/652/115 369/658/115
f 369/664/144 362/646/144 358/645/144 366/661/144
f 329/593/117 357/641/117 363/644/117 332/594/117
f 332/600/118 363/650/118 359/649/118 330/597/118
f 364/653/119 337/609/119 339/612/119 367/654/119
f 367/660/120 339/606/120 336/605/120 365/657/120
f 343/617/49 371/665/49 357/641/49 329/593/49
f 331/601/121 338/613/121 352/637/121 344/621/121
f 359/649/122 365/657/122 336/605/122 330/597/122
f 378/677/52 350/629/52 337/609/52 364/653/52
f 345/625/123 351/633/123 380/685/123 372/669/123
f 373/673/124 379/681/124 366/661/124 358/645/124
f 521/937/145 524/938/145 525/939/145 527/940/145
f 522/941/146 526/942/146 525/943/146 524/944/146
f 523/945/198 527/946/198 525/947/198 526/948/198
f 528/949/148 531/950/148 532/951/148 534/952/148
f 529/953/149 533/954/149 532/955/149 531/956/149
f 530/957/199 534/958/199 532/959/199 533/960/199
f 535/961/151 538/962/151 539/963/151 541/964/151
f 536/965/152 540/966/152 539/967/152 538/968/152
f 537/969/200 541/970/200 539/971/200 540/972/200
f 542/973/154 545/974/154 546/975/154 548/976/154
f 543/977/201 547/978/201 546/979/201 545/980/201
f 544/981/156 548/982/156 546/983/156 547/984/156
f 549/985/157 552/986/157 553/987/157 555/988/157
f 550/989/158 554/990/158 553/991/158 552/992/158
f 551/993/217 555/994/217 553/995/217 554/996/217
f 556/997/160 559/998/160 560/999/160 562/1000/160
f 557/1001/202 561/1002/202 560/1003/202 559/1004/202
f 558/1005/162 562/1006/162 560/1007/162 561/1008/162
f 563/1009/203 566/1010/203 567/1011/203 569/1012/203
f 564/1013/164 568/1014/164 567/1015/164 566/1016/164
f 565/1017/218 569/1018/218 567/1019/218 568/1020/218
f 570/1021/219 573/1022/219 574/1023/219 576/1024/219
f 571/1025/220 575/1026/220 574/1027/220 573/1028/220
f 572/1029/168 576/1030/168 574/1031/168 575/1032/168
f 535/961/221 521/937/221 527/940/221 538/962/221
f 538/968/170 527/946/170 523/945/170 536/965/170
f 522/941/171 528/949/171 534/952/171 526/942/171
f 526/948/172 534/958/172 530/957/172 523/945/172
f 529/953/173 542/973/173 548/976/173 533/954/173
f 533/960/174 548/982/174 544/981/174 530/957/174
f 543/977/175 537/969/175 540/972/175 547/978/175
f 547/984/176 540/966/176 536/965/176 544/981/176
f 563/1009/177 535/961/177 541/964/177 566/1010/177
f 566/1016/178 541/970/178 537/969/178 564/1013/178
f 542/973/179 570/1021/179 576/1024/179 545/974/179
f 545/980/180 576/1030/180 572/1029/180 543/977/180
f 571/1025/181 565/1017/181 568/1020/181 575/1026/181
f 575/1032/182 568/1014/182 564/1013/182 572/1029/182
f 549/985/183 563/1009/183 569/1012/183 552/986/183
f 552/992/184 569/1018/184 565/1017/184 550/989/184
f 570/1021/185 556/997/185 562/1000/185 573/1022/185
f 573/1028/186 562/1006/186 558/1005/186 571/1025/186
f 557/1001/187 551/993/187 554/996/187 561/1002/187
f 561/1008/188 554/990/188 550/989/188 558/1005/188
f 521/937/189 549/985/189 555/988/189 524/938/189
f 524/944/190 555/994/190 551/993/190 522/941/190
f 556/997/191 529/953/191 531/956/191 559/998/191
f 559/1004/192 531/950/192 528/949/192 557/1001/192
f 535/961/49 563/1009/49 549/985/49 521/937/49
f 523/945/193 530/957/193 544/981/193 536/965/193
f 551/993/194 557/1001/194 528/949/194 522/941/194
f 570/1021/52 542/973/52 529/953/52 556/997/52
f 537/969/195 543/977/195 572/1029/195 564/1013/195
f 565/1017/196 571/1025/196 558/1005/196 550/989/196
f 713/1281/287 716/1282/287 717/1283/287 719/1284/287
f 714/1285/223 718/1286/223 717/1287/223 716/1288/223
f 715/1289/224 719/1290/224 717/1291/224 718/1292/224
f 720/1293/225 723/1294/225 724/1295/225 726/1296/225
f 721/1297/226 725/1298/226 724/1299/226 723/1300/226
f 722/1301/227 726/1302/227 724/1303/227 725/1304/227
f 727/1305/288 730/1306/288 731/1307/288 733/1308/288
f 728/1309/289 732/1310/289 731/1311/289 730/1312/289
f 729/1313/290 733/1314/290 731/1315/290 732/1316/290
f 734/1317/231 737/1318/231 738/1319/231 740/1320/231
f 735/1321/232 739/1322/232 738/1323/232 737/1324/232
f 736/1325/291 740/1326/291 738/1327/291 739/1328/291
f 741/1329/234 744/1330/234 745/1331/234 747/1332/234
f 742/1333/292 746/1334/292 745/1335/292 744/1336/292
f 743/1337/236 747/1338/236 745/1339/236 746/1340/236
f 748/1341/237 751/1342/237 752/1343/237 754/1344/237
f 749/1345/238 753/1346/238 752/1347/238 751/1348/238
f 750/1349/239 754/1350/239 752/1351/239 753/1352/239
f 755/1353/293 758/1354/293 759/1355/293 761/1356/293
f 756/1357/241 760/1358/241 759/1359/241 758/1360/241
f 757/1361/242 761/1362/242 759/1363/242 760/1364/242
f 762/1365/243 765/1366/243 766/1367/243 768/1368/243
f 763/1369/244 767/1370/244 766/1371/244 765/1372/244
f 764/1373/245 768/1374/245 766/1375/245 767/1376/245
f 727/1305/294 713/1281/294 719/1284/294 730/1306/294
f 730/1312/247 719/1290/247 715/1289/247 728/1309/247
f 714/1285/295 720/1293/295 726/1296/295 718/1286/295
f 718/1292/249 726/1302/249 722/1301/249 715/1289/249
f 721/1297/250 734/1317/250 740/1320/250 725/1298/250
f 725/1304/251 740/1326/251 736/1325/251 722/1301/251
f 735/1321/252 729/1313/252 732/1316/252 739/1322/252
f 739/1328/253 732/1310/253 728/1309/253 736/1325/253
f 755/1353/296 727/1305/296 733/1308/296 758/1354/296
f 758/1360/255 733/1314/255 729/1313/255 756/1357/255
f 734/1317/256 762/1365/256 768/1368/256 737/1318/256
f 737/1324/257 768/1374/257 764/1373/257 735/1321/257
f 763/1369/258 757/1361/258 760/1364/258 767/1370/258
f 767/1376/259 760/1358/259 756/1357/259 764/1373/259
f 741/1329/297 755/1353/297 761/1356/297 744/1330/297
f 744/1336/261 761/1362/261 757/1361/261 742/1333/261
f 762/1365/262 748/1341/262 754/1344/262 765/1366/262
f 765/1372/263 754/1350/263 750/1349/263 763/1369/263
f 749/1345/264 743/1337/264 746/1340/264 753/1346/264
f 753/1352/265 746/1334/265 742/1333/265 750/1349/265
f 713/1281/266 741/1329/266 747/1332/266 716/1282/266
f 716/1288/267 747/1338/267 743/1337/267 714/1285/267
f 748/1341/268 721/1297/268 723/1300/268 751/1342/268
f 751/1348/269 723/1294/269 720/1293/269 749/1345/269
f 727/1305/49 755/1353/49 741/1329/49 713/1281/49
f 715/1289/270 722/1301/270 736/1325/270 728/1309/270
f 743/1337/271 749/1345/271 720/1293/271 714/1285/271
f 762/1365/52 734/1317/52 721/1297/52 748/1341/52
f 729/1313/272 735/1321/272 764/1373/272 756/1357/272
f 757/1361/273 763/1369/273 750/1349/273 742/1333/273
usemtl M_BookCoverB
f 193/345/73 196/346/73 197/347/73 199/348/73
f 194/349/74 198/350/74 197/351/74 196/352/74
f 195/353/75 199/354/75 197/355/75 198/356/75
f 200/357/76 203/358/76 204/359/76 206/360/76
f 201/361/77 205/362/77 204/363/77 203/364/77
f 202/365/78 206/366/78 204/367/78 205/368/78
f 207/369/79 210/370/79 211/371/79 213/372/79
f 208/373/80 212/374/80 211/375/80 210/376/80
f 209/377/81 213/378/81 211/379/81 212/380/81
f 214/381/82 217/382/82 218/383/82 220/384/82
f 215/385/83 219/386/83 218/387/83 217/388/83
f 216/389/84 220/390/84 218/391/84 219/392/84
f 221/393/85 224/394/85 225/395/85 227/396/85
f 222/397/86 226/398/86 225/399/86 224/400/86
f 223/401/87 227/402/87 225/403/87 226/404/87
f 228/405/88 231/406/88 232/407/88 234/408/88
f 229/409/89 233/410/89 232/411/89 231/412/89
f 230/413/90 234/414/90 232/415/90 233/416/90
f 235/417/91 238/418/91 239/419/91 241/420/91
f 236/421/92 240/422/92 239/423/92 238/424/92
f 237/425/93 241/426/93 239/427/93 240/428/93
f 242/429/94 245/430/94 246/431/94 248/432/94
f 243/433/95 247/434/95 246/435/95 245/436/95
f 244/437/96 248/438/96 246/439/96 247/440/96
f 207/369/97 193/345/97 199/348/97 210/370/97
f 210/376/98 199/354/98 195/353/98 208/373/98
f 194/349/99 200/357/99 206/360/99 198/350/99
f 198/356/100 206/366/100 202/365/100 195/353/100
f 201/361/101 214/381/101 220/384/101 205/362/101
f 205/368/102 220/390/102 216/389/102 202/365/102
f 215/385/103 209/377/103 212/380/103 219/386/103
f 219/392/104 212/374/104 208/373/104 216/389/104
f 235/417/105 207/369/105 213/372/105 238/418/105
f 238/424/106 213/378/106 209/377/106 236/421/106
f 214/381/107 242/429/107 248/432/107 217/382/107
f 217/388/108 248/438/108 244/437/108 215/385/108
f 243/433/109 237/425/109 240/428/109 247/434/109
f 247/440/110 240/422/110 236/421/110 244/437/110
f 221/393/111 235/417/111 241/420/111 224/394/111
f 224/400/112 241/426/112 237/425/112 222/397/112
f 242/429/113 228/405/113 234/408/113 245/430/113
f 245/436/114 234/414/114 230/413/114 243/433/114
f 229/409/115 223/401/115 226/404/115 233/410/115
f 233/416/116 226/398/116 222/397/116 230/413/116
f 193/345/117 221/393/117 227/396/117 196/346/117
f 196/352/118 227/402/118 223/401/118 194/349/118
f 228/405/119 201/361/119 203/364/119 231/406/119
f 231/412/120 203/358/120 200/357/120 229/409/120
f 207/369/49 235/417/49 221/393/49 193/345/49
f 195/353/121 202/365/121 216/389/121 208/373/121
f 223/401/122 229/409/122 200/357/122 194/349/122
f 242/429/52 214/381/52 201/361/52 228/405/52
f 209/377/123 215/385/123 244/437/123 236/421/123
f 237/425/124 243/433/124 230/413/124 222/397/124
f 249/441/73 252/442/73 253/443/73 255/444/73
f 250/445/74 254/446/74 253/447/74 252/448/74
f 251/449/75 255/450/75 253/451/75 254/452/75
f 256/453/76 259/454/76 260/455/76 262/456/76
f 257/457/77 261/458/77 260/459/77 259/460/77
f 258/461/78 262/462/78 260/463/78 261/464/78
f 263/465/79 266/466/79 267/467/79 269/468/79
f 264/469/80 268/470/80 267/471/80 266/472/80
f 265/473/81 269/474/81 267/475/81 268/476/81
f 270/477/82 273/478/82 274/479/82 276/480/82
f 271/481/83 275/482/83 274/483/83 273/484/83
f 272/485/84 276/486/84 274/487/84 275/488/84
f 277/489/85 280/490/85 281/491/85 283/492/85
f 278/493/86 282/494/86 281/495/86 280/496/86
f 279/497/87 283/498/87 281/499/87 282/500/87
f 284/501/88 287/502/88 288/503/88 290/504/88
f 285/505/89 289/506/89 288/507/89 287/508/89
f 286/509/90 290/510/90 288/511/90 289/512/90
f 291/513/91 294/514/91 295/515/91 297/516/91
f 292/517/92 296/518/92 295/519/92 294/520/92
f 293/521/93 297/522/93 295/523/93 296/524/93
f 298/525/94 301/526/94 302/527/94 304/528/94
f 299/529/95 303/530/95 302/531/95 301/532/95
f 300/533/96 304/534/96 302/535/96 303/536/96
f 263/465/97 249/441/97 255/444/97 266/466/97
f 266/472/98 255/450/98 251/449/98 264/469/98
f 250/445/99 256/453/99 262/456/99 254/446/99
f 254/452/100 262/462/100 258/461/100 251/449/100
f 257/457/101 270/477/101 276/480/101 261/458/101
f 261/464/102 276/486/102 272/485/102 258/461/102
f 271/481/103 265/473/103 268/476/103 275/482/103
f 275/488/104 268/470/104 264/469/104 272/485/104
f 291/513/105 263/465/105 269/468/105 294/514/105
f 294/520/106 269/474/106 265/473/106 292/517/106
f 270/477/107 298/525/107 304/528/107 273/478/107
f 273/484/108 304/534/108 300/533/108 271/481/108
f 299/529/109 293/521/109 296/524/109 303/530/109
f 303/536/110 296/518/110 292/517/110 300/533/110
f 277/489/111 291/513/111 297/516/111 280/490/111
f 280/496/112 297/522/112 293/521/112 278/493/112
f 298/525/113 284/501/113 290/504/113 301/526/113
f 301/532/114 290/510/114 286/509/114 299/529/114
f 285/505/115 279/497/115 282/500/115 289/506/115
f 289/512/116 282/494/116 278/493/116 286/509/116
f 249/441/117 277/489/117 283/492/117 252/442/117
f 252/448/118 283/498/118 279/497/118 250/445/118
f 284/501/119 257/457/119 259/460/119 287/502/119
f 287/508/120 259/454/120 256/453/120 285/505/120
f 263/465/49 291/513/49 277/489/49 249/441/49
f 251/449/121 258/461/121 272/485/121 264/469/121
f 279/497/122 285/505/122 256/453/122 250/445/122
f 298/525/52 270/477/52 257/457/52 284/501/52
f 265/473/123 271/481/123 300/533/123 292/517/123
f 293/521/124 299/529/124 286/509/124 278/493/124
f 305/537/125 306/538/125 308/539/125 307/540/125
f 307/541/126 308/542/126 310/543/126 309/544/126
f 309/544/127 310/543/127 312/545/127 311/546/127
f 311/546/128 312/545/128 314/547/128 313/548/128
f 313/548/129 314/547/129 316/549/129 315/550/129
f 315/551/130 316/552/130 318/553/130 317/554/130
f 317/554/131 318/553/131 320/555/131 319/556/131
f 319/557/132 320/558/132 322/559/132 321/560/132
f 321/560/133 322/559/133 324/561/133 323/562/133
f 323/562/134 324/561/134 326/563/134 325/564/134
f 308/565/122 306/566/122 328/567/122 326/568/122 324/569/122 322/570/122 320/571/122 318/572/122 316/573/122 314/574/122 312/575/122 310/576/122
f 325/564/135 326/563/135 328/577/135 327/578/135
f 327/579/136 328/580/136 306/538/136 305/537/136
f 305/581/123 307/582/123 309/583/123 311/584/123 313/585/123 315/586/123 317/587/123 319/588/123 321/589/123 323/590/123 325/591/123 327/592/123
usemtl M_BookCoverC
f 385/689/145 388/690/145 389/691/145 391/692/145
f 386/693/146 390/694/146 389/695/146 388/696/146
f 387/697/147 391/698/147 389/699/147 390/700/147
f 392/701/148 395/702/148 396/703/148 398/704/148
f 393/705/149 397/706/149 396/707/149 395/708/149
f 394/709/150 398/710/150 396/711/150 397/712/150
f 399/713/151 402/714/151 403/715/151 405/716/151
f 400/717/152 404/718/152 403/719/152 402/720/152
f 401/721/153 405/722/153 403/723/153 404/724/153
f 406/725/154 409/726/154 410/727/154 412/728/154
f 407/729/155 411/730/155 410/731/155 409/732/155
f 408/733/156 412/734/156 410/735/156 411/736/156
f 413/737/157 416/738/157 417/739/157 419/740/157
f 414/741/158 418/742/158 417/743/158 416/744/158
f 415/745/159 419/746/159 417/747/159 418/748/159
f 420/749/160 423/750/160 424/751/160 426/752/160
f 421/753/161 425/754/161 424/755/161 423/756/161
f 422/757/162 426/758/162 424/759/162 425/760/162
f 427/761/163 430/762/163 431/763/163 433/764/163
f 428/765/164 432/766/164 431/767/164 430/768/164
f 429/769/165 433/770/165 431/771/165 432/772/165
f 434/773/166 437/774/166 438/775/166 440/776/166
f 435/777/167 439/778/167 438/779/167 437/780/167
f 436/781/168 440/782/168 438/783/168 439/784/168
f 399/713/169 385/689/169 391/692/169 402/714/169
f 402/720/170 391/698/170 387/697/170 400/717/170
f 386/693/171 392/701/171 398/704/171 390/694/171
f 390/700/172 398/710/172 394/709/172 387/697/172
f 393/705/173 406/725/173 412/728/173 397/706/173
f 397/712/174 412/734/174 408/733/174 394/709/174
f 407/729/175 401/721/175 404/724/175 411/730/175
f 411/736/176 404/718/176 400/717/176 408/733/176
f 427/761/177 399/713/177 405/716/177 430/762/177
f 430/768/178 405/722/178 401/721/178 428/765/178
f 406/725/179 434/773/179 440/776/179 409/726/179
f 409/732/180 440/782/180 436/781/180 407/729/180
f 435/777/181 429/769/181 432/772/181 439/778/181
f 439/784/182 432/766/182 428/765/182 436/781/182
f 413/737/183 427/761/183 433/764/183 416/738/183
f 416/744/184 433/770/184 429/769/184 414/741/184
f 434/773/185 420/749/185 426/752/185 437/774/185
f 437/780/186 426/758/186 422/757/186 435/777/186
f 421/753/187 415/745/187 418/748/187 425/754/187
f 425/760/188 418/742/188 414/741/188 422/757/188
f 385/689/189 413/737/189 419/740/189 388/690/189
f 388/696/190 419/746/190 415/745/190 386/693/190
f 420/749/191 393/705/191 395/708/191 423/750/191
f 423/756/192 395/702/192 392/701/192 421/753/192
f 399/713/49 427/761/49 413/737/49 385/689/49
f 387/697/193 394/709/193 408/733/193 400/717/193
f 415/745/194 421/753/194 392/701/194 386/693/194
f 434/773/52 406/725/52 393/705/52 420/749/52
f 401/721/195 407/729/195 436/781/195 428/765/195
f 429/769/196 435/777/196 422/757/196 414/741/196
f 441/785/197 444/786/197 445/787/197 447/788/197
f 442/789/146 446/790/146 445/791/146 444/792/146
f 443/793/198 447/794/198 445/795/198 446/796/198
f 448/797/148 451/798/148 452/799/148 454/800/148
f 449/801/149 453/802/149 452/803/149 451/804/149
f 450/805/199 454/806/199 452/807/199 453/808/199
f 455/809/151 458/810/151 459/811/151 461/812/151
f 456/813/152 460/814/152 459/815/152 458/816/152
f 457/817/200 461/818/200 459/819/200 460/820/200
f 462/821/154 465/822/154 466/823/154 468/824/154
f 463/825/201 467/826/201 466/827/201 465/828/201
f 464/829/156 468/830/156 466/831/156 467/832/156
f 469/833/157 472/834/157 473/835/157 475/836/157
f 470/837/158 474/838/158 473/839/158 472/840/158
f 471/841/159 475/842/159 473/843/159 474/844/159
f 476/845/160 479/846/160 480/847/160 482/848/160
f 477/849/202 481/850/202 480/851/202 479/852/202
f 478/853/162 482/854/162 480/855/162 481/856/162
f 483/857/203 486/858/203 487/859/203 489/860/203
f 484/861/164 488/862/164 487/863/164 486/864/164
f 485/865/165 489/866/165 487/867/165 488/868/165
f 490/869/166 493/870/166 494/871/166 496/872/166
f 491/873/204 495/874/204 494/875/204 493/876/204
f 492/877/168 496/878/168 494/879/168 495/880/168
f 455/809/169 441/785/169 447/788/169 458/810/169
f 458/816/170 447/794/170 443/793/170 456/813/170
f 442/789/171 448/797/171 454/800/171 446/790/171
f 446/796/172 454/806/172 450/805/172 443/793/172
f 449/801/173 462/821/173 468/824/173 453/802/173
f 453/808/174 468/830/174 464/829/174 450/805/174
f 463/825/175 457/817/175 460/820/175 467/826/175
f 467/832/176 460/814/176 456/813/176 464/829/176
f 483/857/177 455/809/177 461/812/177 486/858/177
f 486/864/178 461/818/178 457/817/178 484/861/178
f 462/821/179 490/869/179 496/872/179 465/822/179
f 465/828/180 496/878/180 492/877/180 463/825/180
f 491/873/181 485/865/181 488/868/181 495/874/181
f 495/880/182 488/862/182 484/861/182 492/877/182
f 469/833/183 483/857/183 489/860/183 472/834/183
f 472/840/184 489/866/184 485/865/184 470/837/184
f 490/869/185 476/845/185 482/848/185 493/870/185
f 493/876/186 482/854/186 478/853/186 491/873/186
f 477/849/187 471/841/187 474/844/187 481/850/187
f 481/856/188 474/838/188 470/837/188 478/853/188
f 441/785/189 469/833/189 475/836/189 444/786/189
f 444/792/190 475/842/190 471/841/190 442/789/190
f 476/845/191 449/801/191 451/804/191 479/846/191
f 479/852/192 451/798/192 448/797/192 477/849/192
f 455/809/49 483/857/49 469/833/49 441/785/49
f 443/793/193 450/805/193 464/829/193 456/813/193
f 471/841/194 477/849/194 448/797/194 442/789/194
f 490/869/52 462/821/52 449/801/52 476/845/52
f 457/817/195 463/825/195 492/877/195 484/861/195
f 485/865/196 491/873/196 478/853/196 470/837/196
f 497/881/205 498/882/205 500/883/205 499/884/205
f 499/885/206 500/886/206 502/887/206 501/888/206
f 501/888/207 502/887/207 504/889/207 503/890/207
f 503/890/208 504/889/208 506/891/208 505/892/208
f 505/892/209 506/891/209 508/893/209 507/894/209
f 507/895/210 508/896/210 510/897/210 509/898/210
f 509/898/211 510/897/211 512/899/211 511/900/211
f 511/901/212 512/902/212 514/903/212 513/904/212
f 513/904/213 514/903/213 516/905/213 515/906/213
f 515/906/214 516/905/214 518/907/214 517/908/214
f 500/909/194 498/910/194 520/911/194 518/912/194 516/913/194 514/914/194 512/915/194 510/916/194 508/917/194 506/918/194 504/919/194 502/920/194
f 517/908/215 518/907/215 520/921/215 519/922/215
f 519/923/216 520/924/216 498/882/216 497/881/216
f 497/925/195 499/926/195 501/927/195 503/928/195 505/929/195 507/930/195 509/931/195 511/932/195 513/933/195 515/934/195 517/935/195 519/936/195
