# Blender 5.0.1
# www.blender.org
mtllib coat_sleeve.mtl
o SM_CoatSleeve
v 4.832540 5.934785 0.004874
v 24.165874 5.483030 -0.003086
v 4.832664 5.759433 -1.142130
v 24.166000 5.406615 -1.075098
v 4.832649 5.412547 -2.243106
v 24.165983 5.071342 -2.096873
v 4.832506 4.909838 -3.286196
v 24.165840 4.517527 -3.014298
v 4.832362 4.222347 -4.228082
v 24.165697 3.813265 -3.812648
v 4.832346 3.334030 -4.989537
v 24.165682 3.001150 -4.496978
v 4.832471 2.285451 -5.506664
v 24.165806 2.086191 -5.046428
v 4.832626 1.154183 -5.779245
v 24.165960 1.073142 -5.401169
v 4.832673 0.000863 -5.855831
v 24.166008 0.002468 -5.503777
v 4.832570 -1.151192 -5.769118
v 24.165905 -1.060235 -5.350337
v 4.832410 -2.281592 -5.495621
v 24.165745 -2.065669 -4.991945
v 4.832333 -3.334064 -4.986548
v 24.165668 -2.998348 -4.484073
v 4.832409 -4.229528 -4.233540
v 24.165743 -3.847224 -3.841670
v 4.832572 -4.919961 -3.293365
v 24.165907 -4.568358 -3.049418
v 4.832675 -5.416408 -2.246431
v 24.166008 -5.091867 -2.110311
v 4.832627 -5.752261 -1.142166
v 24.165960 -5.371492 -1.072296
v 4.832473 -5.922142 0.004874
v 24.165806 -5.420045 -0.003085
v 4.832348 -5.869672 1.171041
v 24.165682 -5.286966 1.051987
v 4.832364 -5.541828 2.294343
v 24.165699 -5.001788 2.075554
v 4.832507 -4.948836 3.301160
v 24.165838 -4.548047 3.043127
v 4.832650 -4.161771 4.156034
v 24.165987 -3.896376 3.896994
v 4.832666 -3.253329 4.869139
v 24.166000 -3.056276 4.568600
v 4.832541 -2.251997 5.447707
v 24.165874 -2.086234 5.026699
v 4.832386 -1.158989 5.849859
v 24.165722 -1.053943 5.292411
v 4.832339 0.000861 6.001099
v 24.165674 0.002468 5.399302
v 4.832441 1.161979 5.859979
v 24.165777 1.066850 5.343237
v 4.832603 2.255859 5.458752
v 24.165937 2.106759 5.081184
v 4.832679 3.253292 4.872130
v 24.166014 3.059078 4.581507
v 4.832603 4.154584 4.150573
v 24.165937 3.862415 3.867967
v 4.832442 4.938714 3.293992
v 24.165777 4.497220 3.008006
v 4.832338 5.537969 2.291022
v 24.165672 4.981266 2.062118
v 4.832385 5.876838 1.171006
v 24.165718 5.322084 1.054789
v 4.829363 5.802469 0.005853
v 24.162697 5.350715 -0.002106
v 4.829990 5.629961 -1.114256
v 24.163322 5.277144 -1.047222
v 4.829910 5.290600 -2.191155
v 24.163246 4.949398 -2.044920
v 4.829198 4.799282 -3.213053
v 24.162533 4.406971 -2.941155
v 4.828484 4.127280 -4.135842
v 24.161819 3.718196 -3.720411
v 4.828402 3.259170 -4.880411
v 24.161737 2.926288 -4.387855
v 4.829026 2.235008 -5.384361
v 24.162359 2.035747 -4.924127
v 4.829803 1.130164 -5.649056
v 24.163136 1.049124 -5.270981
v 4.830038 0.002709 -5.723329
v 24.163372 0.004317 -5.371276
v 4.829524 -1.125126 -5.639135
v 24.162859 -1.034167 -5.220353
v 4.828721 -2.232378 -5.372589
v 24.162056 -2.016457 -4.868912
v 4.828338 -3.262189 -4.875381
v 24.161673 -2.926476 -4.372902
v 4.828718 -4.136414 -4.139561
v 24.162052 -3.754111 -3.747690
v 4.829525 -4.809199 -3.220944
v 24.162859 -4.457595 -2.976999
v 4.830038 -5.293245 -2.197668
v 24.163372 -4.968704 -2.061550
v 4.829804 -5.622056 -1.117275
v 24.163137 -5.241287 -1.047407
v 4.829031 -5.789598 0.005858
v 24.162365 -5.287501 -0.002100
v 4.828405 -5.739393 1.147247
v 24.161739 -5.156686 1.028196
v 4.828483 -5.419081 2.244937
v 24.161816 -4.879040 2.026151
v 4.829196 -4.839162 3.227156
v 24.162529 -4.438374 2.969123
v 4.829911 -4.069566 4.061004
v 24.163248 -3.804174 3.801962
v 4.829991 -3.181049 4.758049
v 24.163324 -2.983997 4.457509
v 4.829367 -2.201078 5.325307
v 24.162699 -2.035315 4.904299
v 4.828593 -1.131338 5.720290
v 24.161928 -1.026290 5.162842
v 4.828357 0.002704 5.868757
v 24.161694 0.004315 5.266960
v 4.828868 1.136376 5.730186
v 24.162203 1.041248 5.213445
v 4.829674 2.203722 5.337093
v 24.163010 2.054621 4.959526
v 4.830056 3.178028 4.763093
v 24.163391 2.983812 4.472472
v 4.829675 4.060414 4.057265
v 24.163010 3.768242 3.774659
v 4.828871 4.829260 3.219264
v 24.162205 4.387766 2.933276
v 4.828357 5.416452 2.238438
v 24.161690 4.859751 2.009531
v 4.828589 5.747273 1.144226
v 24.161921 5.192519 1.028006
v 4.832614 5.871958 -0.573433
v 24.165947 5.477051 -0.541093
v 14.499802 5.733717 0.000710
v 14.499833 5.607300 -1.113841
v 4.832677 5.605250 -1.698903
v 24.166012 5.269919 -1.596291
v 14.499829 5.264809 -2.179730
v 4.832587 5.182059 -2.773678
v 24.165922 4.817470 -2.570332
v 14.499794 4.734411 -3.163961
v 4.832425 4.591087 -3.774407
v 24.165762 4.180686 -3.427966
v 14.499758 4.035632 -4.037660
v 4.832335 3.801943 -4.636321
v 24.165672 3.419879 -4.169505
v 14.499754 3.181626 -4.763718
v 4.832397 2.825133 -5.280071
v 24.165731 2.556706 -4.791781
v 14.499785 2.195280 -5.299477
v 4.832555 1.725602 -5.670887
v 24.165890 1.590203 -5.252393
v 14.499824 1.118166 -5.614616
v 4.832669 0.578272 -5.839037
v 24.166004 0.541015 -5.485583
v 14.499836 0.001319 -5.704648
v 4.832637 -0.576149 -5.833278
v 24.165974 -0.533640 -5.456587
v 14.499810 -1.110601 -5.584099
v 4.832488 -1.721799 -5.658939
v 24.165825 -1.571600 -5.192783
v 14.499770 -2.182858 -5.266852
v 4.832354 -2.822561 -5.272387
v 24.165691 -2.541420 -4.754821
v 14.499751 -3.179682 -4.756155
v 4.832354 -3.805558 -4.638082
v 24.165691 -3.435205 -4.180488
v 14.499768 -4.055835 -4.055226
v 4.832489 -4.600727 -3.781660
v 24.165823 -4.228037 -3.464911
v 14.499809 -4.764928 -3.184971
v 4.832639 -5.190125 -2.779250
v 24.165974 -4.858723 -2.596049
v 14.499836 -5.277230 -2.187514
v 4.832670 -5.603561 -1.700216
v 24.166004 -5.262560 -1.599362
v 14.499825 -5.586289 -1.111898
v 4.832556 -5.860819 -0.573167
v 24.165892 -5.421745 -0.538060
v 14.499786 -5.695945 0.000710
v 4.832398 -5.927831 0.588745
v 24.165733 -5.373484 0.527592
v 14.499755 -5.602746 1.115975
v 4.832337 -5.741083 1.742968
v 24.165672 -5.163638 1.568693
v 14.499758 -5.294824 2.194212
v 4.832426 -5.274775 2.815618
v 24.165764 -4.798146 2.569323
v 14.499796 -4.769006 3.186019
v 4.832588 -4.574407 3.747519
v 24.165924 -4.247474 3.488848
v 14.499831 -4.046361 4.044333
v 4.832677 -3.719987 4.529175
v 24.166016 -3.496935 4.258657
v 14.499836 -3.168355 4.739699
v 4.832616 -2.764163 5.176764
v 24.165955 -2.582948 4.823836
v 14.499803 -2.178663 5.260153
v 4.832458 -1.716269 5.675441
v 24.165794 -1.574780 5.181160
v 14.499765 -1.111651 5.595428
v 4.832344 -0.583907 5.960754
v 24.165680 -0.527670 5.364954
v 14.499754 0.001318 5.725016
v 4.832375 0.586027 5.966510
v 24.165712 0.535044 5.393945
v 14.499779 1.119215 5.625945
v 4.832524 1.720073 5.687386
v 24.165859 1.593384 5.240767
v 14.499819 2.191085 5.292779
v 4.832658 2.766736 5.184453
v 24.165995 2.598237 4.860800
v 14.499839 3.170297 4.747263
v 4.832658 3.716367 4.527412
v 24.165995 3.481608 4.247672
v 14.499819 4.026157 4.026765
v 4.832524 4.564766 3.740265
v 24.165861 4.200121 3.451899
v 14.499779 4.738490 3.165010
v 4.832375 5.266715 2.810048
v 24.165709 4.756899 2.543607
v 14.499752 5.282402 2.186430
v 4.832343 5.742770 1.741658
v 24.165678 5.170995 1.565623
v 14.499764 5.623755 1.117919
v 4.832456 5.938966 0.589010
v 24.165791 5.428786 0.530623
v 4.829739 5.740408 -0.558741
v 24.163074 5.345502 -0.526399
v 14.495436 5.551782 0.002057
v 14.496155 5.429277 -1.075512
v 4.830048 5.479023 -1.658599
v 24.163382 5.143692 -1.555986
v 14.496064 5.097133 -2.108297
v 4.829601 5.065331 -2.710821
v 24.162937 4.700743 -2.507474
v 14.495245 4.582398 -3.063389
v 4.828794 4.487717 -3.691478
v 24.162132 4.077314 -3.345037
v 14.494424 3.904913 -3.910832
v 4.828345 3.716387 -4.535288
v 24.161680 3.334320 -4.068474
v 14.494329 3.078692 -4.613672
v 4.828651 2.762065 -5.163778
v 24.161985 2.493637 -4.675489
v 14.495048 2.125918 -5.131312
v 4.829443 1.688294 -5.543933
v 24.162779 1.552896 -5.125438
v 14.495940 1.085141 -5.435610
v 4.830014 0.567363 -5.707036
v 24.163349 0.530109 -5.353582
v 14.496212 0.003859 -5.522459
v 4.829857 -0.562002 -5.701473
v 24.163195 -0.519491 -5.324784
v 14.495622 -1.074759 -5.405372
v 4.829113 -1.684081 -5.531860
v 24.162451 -1.533882 -5.065704
v 14.494697 -2.115190 -5.097682
v 4.828443 -2.761933 -5.154630
v 24.161777 -2.480794 -4.637062
v 14.494257 -3.080856 -4.603297
v 4.828441 -3.722759 -4.534869
v 24.161776 -3.352408 -4.077272
v 14.494694 -3.927804 -3.926004
v 4.829111 -4.498209 -3.698043
v 24.162447 -4.125520 -3.381294
v 14.495619 -4.612629 -3.085392
v 4.829858 -5.072469 -2.718540
v 24.163193 -4.741067 -2.535341
v 14.496212 -5.107881 -2.120466
v 4.830015 -5.476247 -1.663408
v 24.163349 -5.135246 -1.562557
v 14.495943 -5.407258 -1.077674
v 4.829446 -5.728882 -0.560175
v 24.162783 -5.289807 -0.525068
v 14.495054 -5.513697 0.002064
v 4.828656 -5.795810 0.577480
v 24.161989 -5.241461 0.516330
v 14.494331 -5.423613 1.083260
v 4.828346 -5.613871 1.706389
v 24.161682 -5.036426 1.532118
v 14.494422 -5.126046 2.126281
v 4.828793 -5.157914 2.753620
v 24.162130 -4.681284 2.507327
v 14.495245 -4.618205 3.084264
v 4.829601 -4.473041 3.662432
v 24.162937 -4.146109 3.403759
v 14.496066 -3.919582 3.913664
v 4.830050 -3.637532 4.425483
v 24.163387 -3.414483 4.154964
v 14.496158 -3.068971 4.586949
v 4.829741 -2.702377 5.059472
v 24.163078 -2.521163 4.706543
v 14.495439 -2.108649 5.091853
v 4.828951 -1.676689 5.548944
v 24.162289 -1.535198 5.054664
v 14.494551 -1.073629 5.417272
v 4.828381 -0.568859 5.829191
v 24.161718 -0.512618 5.233391
v 14.494278 0.003856 5.543044
v 4.828536 0.574213 5.834733
v 24.161873 0.523233 5.262169
v 14.494867 1.084012 5.447479
v 4.829281 1.680910 5.561009
v 24.162619 1.554222 5.114390
v 14.495794 2.119396 5.125499
v 4.829952 2.702518 5.068641
v 24.163290 2.534019 4.744990
v 14.496233 3.066808 4.597339
v 4.829953 3.631145 4.425896
v 24.163290 3.396384 4.146156
v 14.495794 3.896671 3.898466
v 4.829283 4.462544 3.655852
v 24.162619 4.097900 3.367486
v 14.494867 4.587991 3.062258
v 4.828537 5.150800 2.745910
v 24.161873 4.640985 2.479467
v 14.494278 5.115317 2.114125
v 4.828379 5.616640 1.701588
v 24.161715 5.044867 1.525549
v 14.494544 5.445603 1.081095
v 4.828948 5.807316 0.576039
v 24.162283 5.297136 0.517650
v 1.205951 5.953331 0.006856
v 27.789284 5.332169 -0.004088
v 1.206327 5.760850 -1.140762
v 27.789661 5.275727 -1.048591
v 1.206280 5.415549 -2.244550
v 27.789616 4.946393 -2.043478
v 1.205852 4.928118 -3.300605
v 27.789188 4.388691 -2.926745
v 1.205423 4.251516 -4.259856
v 27.788761 3.689028 -3.688636
v 1.205374 3.359015 -5.027329
v 27.788708 2.901303 -4.350062
v 1.205749 2.297590 -5.531806
v 27.789083 2.023607 -4.898983
v 1.206214 1.157369 -5.785040
v 27.789549 1.045938 -5.265186
v 1.206355 0.001485 -5.855590
v 27.789692 0.003694 -5.371517
v 1.206047 -1.155214 -5.782648
v 27.789385 -1.030147 -5.206824
v 1.205565 -2.297470 -5.528545
v 27.788902 -2.000577 -4.835989
v 1.205335 -3.361073 -5.025179
v 27.788671 -2.899466 -4.334273
v 1.205563 -4.254653 -4.260026
v 27.788898 -3.728986 -3.721204
v 1.206048 -4.930506 -3.302894
v 27.789381 -4.447051 -2.967469
v 1.206356 -5.415678 -2.247572
v 27.789692 -4.969434 -2.060408
v 1.206216 -5.758554 -1.142821
v 27.789551 -5.234995 -1.046751
v 1.205752 -5.950014 0.006858
v 27.789085 -5.259630 -0.004085
v 1.205377 -5.913791 1.181467
v 27.788712 -5.112568 1.017770
v 1.205424 -5.581712 2.310663
v 27.788757 -4.839157 2.009830
v 1.205852 -4.969148 3.312539
v 27.789185 -4.418062 2.957744
v 1.206280 -4.165429 4.157089
v 27.789619 -3.800513 3.800908
v 1.206328 -3.254136 4.869946
v 27.789665 -2.983189 4.456703
v 1.205953 -2.257618 5.465446
v 27.789291 -2.029694 4.886560
v 1.205489 -1.164860 5.889596
v 27.788826 -1.020420 5.123105
v 1.205348 0.001481 6.047765
v 27.788681 0.003693 5.220294
v 1.205655 1.167014 5.891973
v 27.788988 1.036212 5.181451
v 1.206138 2.257747 5.468717
v 27.789474 2.052734 4.949562
v 1.206367 3.252076 4.872105
v 27.789705 2.985029 4.472497
v 1.206138 4.162282 4.156907
v 27.789476 3.760546 3.768325
v 1.205656 4.966767 3.310251
v 27.788990 4.359713 2.917019
v 1.205348 5.581592 2.307650
v 27.788683 4.816127 1.992905
v 1.205487 5.916072 1.179408
v 27.788820 5.153286 1.019606
v 14.499821 5.699171 -0.560018
v 14.499836 5.461252 -1.655154
v 14.499816 5.021651 -2.683790
v 14.499773 4.405268 -3.616736
v 14.499749 3.626954 -4.421856
v 14.499765 2.702745 -5.057731
v 14.499805 1.664898 -5.485444
v 14.499837 0.561688 -5.687060
v 14.499826 -0.557548 -5.669646
v 14.499788 -1.653771 -5.449689
v 14.499755 -2.693358 -5.035684
v 14.499757 -3.635906 -4.428638
v 14.499791 -4.433605 -3.638964
v 14.499828 -5.046484 -2.699032
v 14.499834 -5.456932 -1.656690
v 14.499807 -5.666020 -0.558049
v 14.499767 -5.675412 0.560280
v 14.499752 -5.476212 1.662689
v 14.499776 -5.058372 2.704094
v 14.499816 -4.429946 3.634137
v 14.499839 -3.623921 4.413359
v 14.499824 -2.685141 5.022292
v 14.499784 -1.652945 5.452019
v 14.499755 -0.558611 5.687521
v 14.499763 0.562750 5.704935
v 14.499802 1.664072 5.487772
v 14.499836 2.694527 5.044340
v 14.499833 3.614967 4.406577
v 14.499800 4.401610 3.611910
v 14.499763 5.033540 2.688854
v 14.499754 5.480531 1.661154
v 14.499781 5.708560 0.562249
v 14.495866 5.518289 -0.539815
v 14.496221 5.287691 -1.599735
v 14.495708 4.861150 -2.597362
v 14.494780 4.263134 -3.502707
v 14.494263 3.509311 -4.282937
v 14.494615 2.616025 -4.897829
v 14.495524 1.613599 -5.310882
v 14.496181 0.546691 -5.505559
v 14.496001 -0.538093 -5.488415
v 14.495148 -1.601910 -5.274954
v 14.494377 -2.609996 -4.873766
v 14.494373 -3.522059 -4.286717
v 14.495145 -4.292642 -3.523990
v 14.496003 -4.884708 -2.615558
v 14.496185 -5.281876 -1.606081
v 14.495527 -5.484607 -0.540186
v 14.494620 -5.493882 0.544793
v 14.494265 -5.301296 1.612395
v 14.494779 -4.897688 2.618849
v 14.495705 -4.290569 3.517142
v 14.496223 -3.510547 4.270781
v 14.495869 -2.600184 4.861014
v 14.494962 -1.598522 5.278087
v 14.494305 -0.537916 5.506624
v 14.494483 0.546508 5.523743
v 14.495338 1.610223 5.314004
v 14.496112 2.606228 4.885102
v 14.496114 3.497785 4.266992
v 14.495343 4.261056 3.495841
v 14.494485 4.874158 2.600663
v 14.494303 5.307105 1.606055
v 14.494957 5.527541 0.544412
v 1.206177 5.880228 -0.572151
v 27.789513 5.337232 -0.527682
v 1.206362 5.605011 -1.697991
v 27.789698 5.143932 -1.556899
v 1.206094 5.192056 -2.780377
v 27.789433 4.690746 -2.500775
v 1.205610 4.616352 -3.797900
v 27.788942 4.052049 -3.321545
v 1.205339 3.830802 -4.673332
v 27.788677 3.305462 -4.031462
v 1.205524 2.843929 -5.313478
v 27.788860 2.474841 -4.642080
v 1.205998 1.732335 -5.685877
v 27.789337 1.546163 -5.110448
v 1.206341 0.579803 -5.839309
v 27.789679 0.528576 -5.353310
v 1.206247 -0.577046 -5.838005
v 27.789583 -0.518595 -5.320056
v 1.205800 -1.731102 -5.682804
v 27.789137 -1.524579 -5.041839
v 1.205398 -2.844961 -5.310553
v 27.788734 -2.458393 -4.598897
v 1.205397 -3.833600 -4.672274
v 27.788734 -3.324365 -4.043080
v 1.205800 -4.619347 -3.799242
v 27.789137 -4.106899 -3.363712
v 1.206248 -5.193435 -2.783245
v 27.789583 -4.737757 -2.531345
v 1.206343 -5.603842 -1.700722
v 27.789679 -5.134965 -1.562050
v 1.206001 -5.877177 -0.573253
v 27.789337 -5.273449 -0.524982
v 1.205527 -5.965761 0.594578
v 27.788866 -5.203532 0.510495
v 1.205341 -5.785748 1.757355
v 27.788675 -4.991760 1.517729
v 1.205610 -5.305712 2.830799
v 27.788946 -4.650347 2.492145
v 1.206094 -4.585023 3.753477
v 27.789433 -4.135491 3.397802
v 1.206363 -3.720581 4.528051
v 27.789698 -3.413886 4.156088
v 1.206178 -2.767247 5.184291
v 27.789513 -2.518078 4.699015
v 1.205704 -1.723008 5.704870
v 27.789038 -1.528460 5.025234
v 1.205362 -0.586928 6.006685
v 27.788698 -0.509599 5.187459
v 1.205455 0.589679 6.007977
v 27.788792 0.519579 5.220701
v 1.205902 1.724245 5.707939
v 27.789238 1.550049 5.093838
v 1.206305 2.766221 5.187232
v 27.789640 2.534534 4.742210
v 1.206305 3.717773 4.529105
v 27.789644 3.394978 4.144464
v 1.205903 4.582025 3.752126
v 27.789238 4.080640 3.355624
v 1.205456 5.304347 2.827937
v 27.788788 4.603351 2.461580
v 1.205361 5.786912 1.754630
v 27.788692 5.000723 1.512579
v 1.205702 5.968800 0.593472
v 27.789036 5.267302 0.513189
vn 0.0193 0.9962 -0.0852
vn 0.0245 0.9990 -0.0368
vn 0.0221 0.9888 -0.1475
vn 0.0169 0.9837 -0.1791
vn 0.0158 0.9645 -0.2637
vn 0.0209 0.9662 -0.2571
vn 0.0212 0.9329 -0.3595
vn 0.0161 0.9395 -0.3421
vn 0.0178 0.9091 -0.4162
vn 0.0229 0.8912 -0.4531
vn 0.0257 0.8438 -0.5361
vn 0.0205 0.8710 -0.4909
vn 0.0236 0.8234 -0.5669
vn 0.0288 0.7925 -0.6092
vn 0.0315 0.7374 -0.6747
vn 0.0263 0.7638 -0.6449
vn 0.0281 0.6907 -0.7226
vn 0.0332 0.6782 -0.7341
vn 0.0335 0.6121 -0.7901
vn 0.0284 0.6054 -0.7954
vn 0.0272 0.5091 -0.8603
vn 0.0323 0.5374 -0.8427
vn 0.0299 0.4524 -0.8913
vn 0.0248 0.4082 -0.9126
vn 0.0217 0.3057 -0.9519
vn 0.0269 0.3566 -0.9339
vn 0.0239 0.2527 -0.9672
vn 0.0187 0.2078 -0.9780
vn 0.0166 0.1160 -0.9931
vn 0.0217 0.1426 -0.9895
vn 0.0208 0.0325 -0.9993
vn 0.0157 0.0302 -0.9994
vn 0.0163 -0.0506 -0.9986
vn 0.0214 -0.0748 -0.9970
vn 0.0234 -0.1749 -0.9843
vn 0.0183 -0.1315 -0.9911
vn 0.0211 -0.2144 -0.9765
vn 0.0263 -0.2667 -0.9634
vn 0.0294 -0.3510 -0.9359
vn 0.0242 -0.3029 -0.9527
vn 0.0268 -0.3966 -0.9176
vn 0.0319 -0.4287 -0.9029
vn 0.0334 -0.5036 -0.8633
vn 0.0282 -0.4928 -0.8697
vn 0.0282 -0.5887 -0.8079
vn 0.0334 -0.5768 -0.8162
vn 0.0319 -0.6500 -0.7593
vn 0.0268 -0.6776 -0.7350
vn 0.0242 -0.7569 -0.6530
vn 0.0293 -0.7223 -0.6909
vn 0.0262 -0.7911 -0.6111
vn 0.0211 -0.8227 -0.5680
vn 0.0182 -0.8754 -0.4830
vn 0.0234 -0.8539 -0.5199
vn 0.0214 -0.9065 -0.4217
vn 0.0163 -0.9160 -0.4009
vn 0.0157 -0.9465 -0.3224
vn 0.0208 -0.9476 -0.3187
vn 0.0217 -0.9759 -0.2170
vn 0.0166 -0.9695 -0.2444
vn 0.0188 -0.9861 -0.1653
vn 0.0239 -0.9927 -0.1186
vn 0.0269 -0.9993 -0.0258
vn 0.0217 -0.9966 -0.0800
vn 0.0248 -0.9996 0.0130
vn 0.0299 -0.9977 0.0614
vn 0.0323 -0.9888 0.1457
vn 0.0272 -0.9931 0.1142
vn 0.0284 -0.9746 0.2223
vn 0.0335 -0.9729 0.2286
vn 0.0332 -0.9490 0.3137
vn 0.0281 -0.9430 0.3315
vn 0.0263 -0.8983 0.4386
vn 0.0315 -0.9154 0.4014
vn 0.0287 -0.8705 0.4913
vn 0.0236 -0.8436 0.5365
vn 0.0205 -0.7816 0.6234
vn 0.0256 -0.8130 0.5818
vn 0.0229 -0.7439 0.6679
vn 0.0177 -0.7168 0.6971
vn 0.0161 -0.6514 0.7585
vn 0.0212 -0.6643 0.7472
vn 0.0209 -0.5788 0.8152
vn 0.0158 -0.5856 0.8105
vn 0.0170 -0.5188 0.8547
vn 0.0221 -0.4900 0.8715
vn 0.0245 -0.4021 0.9153
vn 0.0193 -0.4468 0.8944
vn 0.0224 -0.3675 0.9297
vn 0.0275 -0.3166 0.9482
vn 0.0305 -0.2330 0.9720
vn 0.0253 -0.2778 0.9603
vn 0.0275 -0.1770 0.9838
vn 0.0327 -0.1507 0.9880
vn 0.0336 -0.0657 0.9973
vn 0.0284 -0.0678 0.9973
vn 0.0278 0.0476 0.9985
vn 0.0329 0.0232 0.9992
vn 0.0310 0.1183 0.9925
vn 0.0258 0.1616 0.9865
vn 0.0230 0.2711 0.9623
vn 0.0281 0.2191 0.9753
vn 0.0250 0.3225 0.9462
vn 0.0199 0.3702 0.9287
vn 0.0173 0.4580 0.8888
vn 0.0225 0.4262 0.9044
vn 0.0210 0.5240 0.8515
vn 0.0159 0.5349 0.8447
vn 0.0159 0.6025 0.7980
vn 0.0210 0.6138 0.7892
vn 0.0225 0.6920 0.7216
vn 0.0174 0.6651 0.7466
vn 0.0199 0.7241 0.6894
vn 0.0251 0.7586 0.6511
vn 0.0282 0.8144 0.5796
vn 0.0230 0.7822 0.6225
vn 0.0258 0.8386 0.5442
vn 0.0310 0.8609 0.5078
vn 0.0330 0.9007 0.4332
vn 0.0278 0.8908 0.4536
vn 0.0284 0.9360 0.3509
vn 0.0335 0.9344 0.3547
vn 0.0326 0.9626 0.2688
vn 0.0275 0.9700 0.2415
vn 0.0253 0.9914 0.1281
vn 0.0305 0.9842 0.1745
vn 0.0275 0.9970 0.0723
vn 0.0223 0.9996 0.0183
vn -0.0244 -0.9960 0.0860
vn -0.0220 -0.9835 0.1798
vn -0.0169 -0.9889 0.1473
vn -0.0193 -0.9992 0.0363
vn -0.0209 -0.9643 0.2640
vn -0.0212 -0.9395 0.3420
vn -0.0161 -0.9328 0.3599
vn -0.0158 -0.9662 0.2573
vn -0.0229 -0.9092 0.4158
vn -0.0256 -0.8712 0.4902
vn -0.0205 -0.8435 0.5368
vn -0.0178 -0.8909 0.4538
vn -0.0287 -0.8237 0.5662
vn -0.0315 -0.7642 0.6442
vn -0.0264 -0.7373 0.6751
vn -0.0236 -0.7923 0.6097
vn -0.0332 -0.6909 0.7222
vn -0.0335 -0.6054 0.7952
vn -0.0284 -0.6124 0.7900
vn -0.0281 -0.6783 0.7342
vn -0.0323 -0.5087 0.8603
vn -0.0299 -0.4075 0.9127
vn -0.0248 -0.4532 0.8911
vn -0.0272 -0.5381 0.8425
vn -0.0268 -0.3049 0.9520
vn -0.0239 -0.2069 0.9781
vn -0.0188 -0.2533 0.9672
vn -0.0217 -0.3574 0.9337
vn -0.0217 -0.1154 0.9931
vn -0.0208 -0.0300 0.9993
vn -0.0157 -0.0324 0.9994
vn -0.0166 -0.1428 0.9896
vn -0.0214 0.0504 0.9985
vn -0.0234 0.1310 0.9911
vn -0.0183 0.1755 0.9843
vn -0.0163 0.0753 0.9970
vn -0.0263 0.2137 0.9765
vn -0.0293 0.3021 0.9528
vn -0.0242 0.3515 0.9359
vn -0.0211 0.2674 0.9633
vn -0.0319 0.3959 0.9177
vn -0.0334 0.4923 0.8698
vn -0.0282 0.5037 0.8634
vn -0.0268 0.4290 0.9029
vn -0.0334 0.5886 0.8078
vn -0.0319 0.6778 0.7346
vn -0.0268 0.6496 0.7598
vn -0.0282 0.5765 0.8166
vn -0.0293 0.7573 0.6524
vn -0.0262 0.8231 0.5672
vn -0.0211 0.7908 0.6118
vn -0.0242 0.7218 0.6916
vn -0.0234 0.8757 0.4822
vn -0.0214 0.9161 0.4003
vn -0.0163 0.9065 0.4218
vn -0.0183 0.8537 0.5204
vn -0.0208 0.9464 0.3222
vn -0.0217 0.9694 0.2446
vn -0.0166 0.9761 0.2165
vn -0.0157 0.9478 0.3185
vn -0.0239 0.9859 0.1659
vn -0.0269 0.9964 0.0807
vn -0.0218 0.9994 0.0251
vn -0.0188 0.9928 0.1179
vn -0.0299 0.9995 -0.0122
vn -0.0323 0.9930 -0.1135
vn -0.0272 0.9889 -0.1460
vn -0.0248 0.9978 -0.0619
vn -0.0335 0.9745 -0.2219
vn -0.0332 0.9429 -0.3315
vn -0.0281 0.9493 -0.3133
vn -0.0284 0.9731 -0.2285
vn -0.0315 0.8979 -0.4390
vn -0.0287 0.8430 -0.5371
vn -0.0236 0.8710 -0.4907
vn -0.0263 0.9158 -0.4007
vn -0.0256 0.7810 -0.6241
vn -0.0229 0.7162 -0.6976
vn -0.0178 0.7443 -0.6676
vn -0.0205 0.8135 -0.5813
vn -0.0212 0.6510 -0.7588
vn -0.0209 0.5854 -0.8104
vn -0.0158 0.5786 -0.8155
vn -0.0161 0.6644 -0.7472
vn -0.0221 0.5190 -0.8545
vn -0.0245 0.4472 -0.8941
vn -0.0194 0.4015 -0.9157
vn -0.0170 0.4895 -0.8718
vn -0.0275 0.3682 -0.9293
vn -0.0305 0.2785 -0.9600
vn -0.0254 0.2326 -0.9722
vn -0.0224 0.3160 -0.9485
vn -0.0326 0.1775 -0.9836
vn -0.0336 0.0681 -0.9971
vn -0.0284 0.0659 -0.9974
vn -0.0275 0.1506 -0.9882
vn -0.0329 -0.0478 -0.9983
vn -0.0310 -0.1621 -0.9863
vn -0.0258 -0.1175 -0.9927
vn -0.0278 -0.0227 -0.9994
vn -0.0281 -0.2719 -0.9619
vn -0.0250 -0.3710 -0.9283
vn -0.0199 -0.3219 -0.9466
vn -0.0230 -0.2183 -0.9756
vn -0.0224 -0.4586 -0.8884
vn -0.0210 -0.5352 -0.8445
vn -0.0159 -0.5241 -0.8515
vn -0.0173 -0.4259 -0.9046
vn -0.0210 -0.6025 -0.7979
vn -0.0225 -0.6647 -0.7468
vn -0.0174 -0.6925 -0.7212
vn -0.0159 -0.6142 -0.7890
vn -0.0250 -0.7236 -0.6898
vn -0.0281 -0.7817 -0.6231
vn -0.0230 -0.8149 -0.5792
vn -0.0199 -0.7591 -0.6506
vn -0.0310 -0.8381 -0.5447
vn -0.0329 -0.8904 -0.4540
vn -0.0278 -0.9009 -0.4332
vn -0.0259 -0.8613 -0.5075
vn -0.0336 -0.9358 -0.3510
vn -0.0326 -0.9699 -0.2412
vn -0.0275 -0.9626 -0.2694
vn -0.0284 -0.9344 -0.3550
vn -0.0304 -0.9914 -0.1274
vn -0.0275 -0.9995 -0.0174
vn -0.0224 -0.9971 -0.0731
vn -0.0253 -0.9842 -0.1754
vn 0.0036 0.9932 -0.1166
vn 0.0012 0.9798 -0.1998
vn -0.0377 -0.9790 0.2001
vn -0.0400 -0.9923 0.1173
vn 0.0377 0.9916 -0.1240
vn 0.0401 0.9992 -0.0009
vn -0.0037 -1.0000 0.0001
vn -0.0013 -0.9923 0.1237
vn 0.0001 0.9634 -0.2681
vn 0.0004 0.9438 -0.3307
vn -0.0369 -0.9432 0.3303
vn -0.0366 -0.9627 0.2681
vn 0.0369 0.9274 -0.3722
vn 0.0366 0.9670 -0.2522
vn -0.0001 -0.9676 0.2524
vn -0.0004 -0.9279 0.3727
vn 0.0021 0.9201 -0.3917
vn 0.0048 0.8875 -0.4608
vn -0.0413 -0.8871 0.4598
vn -0.0386 -0.9196 0.3910
vn 0.0413 0.8216 -0.5686
vn 0.0386 0.8765 -0.4798
vn -0.0021 -0.8769 0.4807
vn -0.0049 -0.8219 0.5696
vn 0.0079 0.8423 -0.5389
vn 0.0106 0.7804 -0.6252
vn -0.0471 -0.7799 0.6241
vn -0.0443 -0.8419 0.5379
vn 0.0471 0.7164 -0.6961
vn 0.0444 0.7676 -0.6394
vn -0.0080 -0.7678 0.6406
vn -0.0107 -0.7168 0.6972
vn 0.0124 0.6988 -0.7153
vn 0.0127 0.6013 -0.7989
vn -0.0491 -0.6006 0.7981
vn -0.0488 -0.6982 0.7142
vn 0.0491 0.6168 -0.7856
vn 0.0489 0.6684 -0.7422
vn -0.0124 -0.6690 0.7431
vn -0.0127 -0.6177 0.7863
vn 0.0115 0.4907 -0.8713
vn 0.0091 0.3791 -0.9253
vn -0.0455 -0.3781 0.9246
vn -0.0479 -0.4898 0.8705
vn 0.0455 0.4848 -0.8735
vn 0.0479 0.5582 -0.8284
vn -0.0115 -0.5593 0.8289
vn -0.0091 -0.4860 0.8739
vn 0.0060 0.2722 -0.9622
vn 0.0031 0.1781 -0.9840
vn -0.0395 -0.1773 0.9834
vn -0.0424 -0.2712 0.9616
vn 0.0395 0.2857 -0.9575
vn 0.0425 0.3938 -0.9182
vn -0.0061 -0.3949 0.9187
vn -0.0031 -0.2865 0.9581
vn 0.0009 0.0984 -0.9951
vn -0.0000 0.0286 -0.9996
vn -0.0365 -0.0285 0.9989
vn -0.0373 -0.0979 0.9945
vn 0.0365 0.0342 -0.9987
vn 0.0374 0.1621 -0.9861
vn -0.0009 -0.1625 0.9867
vn -0.0000 -0.0341 0.9994
vn 0.0006 -0.0347 -0.9994
vn 0.0026 -0.1031 -0.9947
vn -0.0390 0.1025 0.9940
vn -0.0371 0.0345 0.9987
vn 0.0391 -0.2067 -0.9776
vn 0.0371 -0.0927 -0.9950
vn -0.0006 0.0932 0.9956
vn -0.0026 0.2075 0.9782
vn 0.0054 -0.1802 -0.9836
vn 0.0085 -0.2714 -0.9624
vn -0.0449 0.2705 0.9617
vn -0.0418 0.1794 0.9829
vn 0.0450 -0.3863 -0.9213
vn 0.0419 -0.3051 -0.9514
vn -0.0055 0.3061 0.9520
vn -0.0086 0.3873 0.9219
vn 0.0111 -0.3757 -0.9267
vn 0.0126 -0.4858 -0.8740
vn -0.0490 0.4850 0.8731
vn -0.0475 0.3748 0.9259
vn 0.0490 -0.5115 -0.8579
vn 0.0476 -0.4524 -0.8906
vn -0.0111 0.4533 0.8913
vn -0.0126 0.5121 0.8588
vn 0.0126 -0.5963 -0.8026
vn 0.0111 -0.6949 -0.7190
vn -0.0475 0.6945 0.7179
vn -0.0490 0.5957 0.8017
vn 0.0475 -0.6283 -0.7766
vn 0.0490 -0.5673 -0.8220
vn -0.0126 0.5677 0.8231
vn -0.0111 0.6284 0.7778
vn 0.0085 -0.7784 -0.6277
vn 0.0054 -0.8422 -0.5392
vn -0.0418 0.8419 0.5381
vn -0.0449 0.7781 0.6265
vn 0.0418 -0.7657 -0.6419
vn 0.0449 -0.6947 -0.7179
vn -0.0086 0.6948 0.7192
vn -0.0055 0.7658 0.6431
vn 0.0026 -0.8888 -0.4583
vn 0.0006 -0.9221 -0.3871
vn -0.0371 0.9216 0.3864
vn -0.0390 0.8884 0.4574
vn 0.0371 -0.8988 -0.4367
vn 0.0390 -0.8366 -0.5465
vn -0.0026 0.8369 0.5474
vn -0.0006 0.8993 0.4372
vn -0.0000 -0.9458 -0.3248
vn 0.0009 -0.9650 -0.2624
vn -0.0374 0.9642 0.2625
vn -0.0365 0.9452 0.3245
vn 0.0374 -0.9798 -0.1964
vn 0.0365 -0.9481 -0.3158
vn -0.0000 0.9488 0.3159
vn -0.0009 0.9806 0.1961
vn 0.0031 -0.9807 -0.1957
vn 0.0060 -0.9933 -0.1151
vn -0.0425 0.9924 0.1156
vn -0.0395 0.9798 0.1960
vn 0.0425 -0.9990 0.0147
vn 0.0396 -0.9957 -0.0836
vn -0.0031 0.9965 0.0830
vn -0.0061 0.9999 -0.0154
vn 0.0090 -0.9998 -0.0183
vn 0.0115 -0.9955 0.0938
vn -0.0479 0.9945 -0.0932
vn -0.0455 0.9988 0.0189
vn 0.0480 -0.9844 0.1694
vn 0.0456 -0.9942 0.0977
vn -0.0091 0.9951 -0.0984
vn -0.0115 0.9854 -0.1699
vn 0.0127 -0.9758 0.2182
vn 0.0124 -0.9393 0.3429
vn -0.0488 0.9382 -0.3427
vn -0.0491 0.9748 -0.2178
vn 0.0488 -0.9527 0.2999
vn 0.0492 -0.9712 0.2332
vn -0.0127 0.9723 -0.2335
vn -0.0124 0.9539 -0.2999
vn 0.0107 -0.8866 0.4623
vn 0.0079 -0.8250 0.5651
vn -0.0443 0.8238 -0.5651
vn -0.0471 0.8855 -0.4623
vn 0.0443 -0.8887 0.4563
vn 0.0471 -0.9268 0.3726
vn -0.0107 0.9280 -0.3723
vn -0.0080 0.8899 -0.4560
vn 0.0048 -0.7601 0.6498
vn 0.0021 -0.6984 0.7157
vn -0.0385 0.6975 -0.7156
vn -0.0412 0.7590 -0.6498
vn 0.0385 -0.7630 0.6453
vn 0.0412 -0.8345 0.5494
vn -0.0049 0.8357 -0.5492
vn -0.0021 0.7639 -0.6453
vn 0.0004 -0.6429 0.7660
vn 0.0001 -0.5900 0.8074
vn -0.0366 0.5896 -0.8068
vn -0.0368 0.6422 -0.7657
vn 0.0366 -0.5735 0.8184
vn 0.0369 -0.6734 0.7384
vn -0.0004 0.6739 -0.7388
vn -0.0001 0.5737 -0.8191
vn 0.0013 -0.5374 0.8433
vn 0.0036 -0.4754 0.8798
vn -0.0401 0.4755 -0.8788
vn -0.0377 0.5373 -0.8425
vn 0.0401 -0.3681 0.9289
vn 0.0377 -0.4681 0.8829
vn -0.0013 0.4679 -0.8838
vn -0.0037 0.3678 -0.9299
vn 0.0066 -0.4000 0.9165
vn 0.0096 -0.3065 0.9518
vn -0.0460 0.3067 -0.9507
vn -0.0431 0.4002 -0.9154
vn 0.0461 -0.1990 0.9789
vn 0.0432 -0.2778 0.9597
vn -0.0067 0.2773 -0.9608
vn -0.0097 0.1986 -0.9800
vn 0.0118 -0.1940 0.9809
vn 0.0128 -0.0692 0.9975
vn -0.0492 0.0693 -0.9964
vn -0.0483 0.1941 -0.9798
vn 0.0492 -0.0642 0.9967
vn 0.0483 -0.1307 0.9902
vn -0.0119 0.1305 -0.9914
vn -0.0128 0.0643 -0.9978
vn 0.0122 0.0633 0.9979
vn 0.0102 0.1895 0.9818
vn -0.0466 -0.1898 -0.9807
vn -0.0486 -0.0634 -0.9968
vn 0.0466 0.0854 0.9953
vn 0.0486 0.0047 0.9988
vn -0.0122 -0.0042 -0.9999
vn -0.0102 -0.0847 -0.9964
vn 0.0073 0.3046 0.9525
vn 0.0042 0.4008 0.9161
vn -0.0406 -0.4012 -0.9151
vn -0.0436 -0.3050 -0.9514
vn 0.0406 0.2863 0.9573
vn 0.0437 0.1795 0.9828
vn -0.0074 -0.1789 -0.9838
vn -0.0043 -0.2858 -0.9583
vn 0.0016 0.4787 0.8780
vn 0.0002 0.5422 0.8403
vn -0.0367 -0.5420 -0.8396
vn -0.0381 -0.4788 -0.8771
vn 0.0367 0.5157 0.8560
vn 0.0381 0.4020 0.9148
vn -0.0017 -0.4019 -0.9157
vn -0.0002 -0.5159 -0.8566
vn 0.0002 0.5951 0.8037
vn 0.0017 0.6470 0.7625
vn -0.0381 -0.6462 -0.7622
vn -0.0367 -0.5946 -0.8032
vn 0.0381 0.7110 0.7021
vn 0.0367 0.6219 0.7822
vn -0.0002 -0.6226 -0.7826
vn -0.0017 -0.7120 -0.7022
vn 0.0042 0.7007 0.7134
vn 0.0073 0.7603 0.6495
vn -0.0437 -0.7592 -0.6494
vn -0.0407 -0.6997 -0.7133
vn 0.0438 0.8365 0.5462
vn 0.0407 0.7826 0.6212
vn -0.0043 -0.7837 -0.6211
vn -0.0074 -0.8377 -0.5461
vn 0.0101 0.8235 0.5672
vn 0.0121 0.8843 0.4667
vn -0.0486 -0.8832 -0.4665
vn -0.0466 -0.8223 -0.5671
vn 0.0486 0.9074 0.4175
vn 0.0466 0.8763 0.4795
vn -0.0102 -0.8775 -0.4795
vn -0.0122 -0.9085 -0.4177
vn 0.0128 0.9372 0.3487
vn 0.0119 0.9745 0.2239
vn -0.0483 -0.9735 -0.2233
vn -0.0492 -0.9361 -0.3483
vn 0.0483 0.9560 0.2892
vn 0.0492 0.9327 0.3574
vn -0.0128 -0.9337 -0.3580
vn -0.0119 -0.9569 -0.2900
vn 0.0096 0.9952 0.0979
vn 0.0067 0.9998 -0.0168
vn -0.0430 -0.9989 0.0175
vn -0.0460 -0.9942 -0.0972
vn 0.0431 0.9927 0.1125
vn 0.0460 0.9768 0.2092
vn -0.0097 -0.9776 -0.2102
vn -0.0067 -0.9935 -0.1135
vt 0.407288 0.431035
vt 0.410919 0.251014
vt 0.421379 0.251211
vt 0.418097 0.431237
vt 0.414583 0.071016
vt 0.424598 0.071204
vt 0.434589 0.071391
vt 0.431756 0.251406
vt 0.428767 0.431437
vt 0.441944 0.251598
vt 0.439249 0.431635
vt 0.444395 0.071575
vt 0.453866 0.071754
vt 0.451860 0.251785
vt 0.449527 0.431829
vt 0.461431 0.251966
vt 0.459582 0.432019
vt 0.462877 0.071925
vt 0.471375 0.072087
vt 0.470593 0.252139
vt 0.469334 0.432205
vt 0.479279 0.252303
vt 0.478671 0.432382
vt 0.479339 0.072238
vt 0.486789 0.072380
vt 0.487404 0.252456
vt 0.487404 0.432548
vt 0.494878 0.252597
vt 0.495334 0.432697
vt 0.657709 0.249851
vt 0.653438 0.429883
vt 0.646320 0.429884
vt 0.650322 0.249852
vt 0.638713 0.429885
vt 0.642228 0.249853
vt 0.653705 0.069793
vt 0.645197 0.069794
vt 0.633483 0.249854
vt 0.635891 0.069795
vt 0.630609 0.429886
vt 0.621996 0.429888
vt 0.624175 0.249855
vt 0.625974 0.069797
vt 0.614408 0.249856
vt 0.615646 0.069799
vt 0.612881 0.429890
vt 0.603341 0.429892
vt 0.604304 0.249856
vt 0.605071 0.069801
vt 0.593986 0.249857
vt 0.594384 0.069802
vt 0.593483 0.429893
vt 0.583468 0.429893
vt 0.583564 0.249857
vt 0.583644 0.069802
vt 0.573140 0.249856
vt 0.572889 0.069801
vt 0.573460 0.429892
vt 0.563596 0.429890
vt 0.562794 0.249856
vt 0.562147 0.069799
vt 0.552605 0.249855
vt 0.551461 0.069798
vt 0.553985 0.429889
vt 0.544672 0.429886
vt 0.542650 0.249854
vt 0.540945 0.069796
vt 0.533013 0.249853
vt 0.530746 0.069794
vt 0.535678 0.429885
vt 0.527016 0.429884
vt 0.523798 0.249852
vt 0.521059 0.069793
vt 0.515116 0.249852
vt 0.512081 0.069792
vt 0.518708 0.429883
vt 0.510843 0.429883
vt 0.507084 0.249851
vt 0.503955 0.069792
vt 0.824551 0.429830
vt 0.828006 0.249772
vt 0.835451 0.249770
vt 0.832665 0.429828
vt 0.503536 0.429884
vt 0.499811 0.249850
vt 0.838852 0.069736
vt 0.846313 0.069734
vt 0.843636 0.249769
vt 0.841497 0.429826
vt 0.852455 0.249768
vt 0.850849 0.429824
vt 0.854519 0.069732
vt 0.863372 0.069731
vt 0.861790 0.249768
vt 0.860584 0.429823
vt 0.871525 0.249767
vt 0.870600 0.429822
vt 0.872745 0.069731
vt 0.882466 0.069731
vt 0.881560 0.249767
vt 0.880866 0.429823
vt 0.891803 0.249767
vt 0.891368 0.429824
vt 0.892367 0.069732
vt 0.902324 0.069734
vt 0.902176 0.249767
vt 0.902076 0.429825
vt 0.912606 0.249768
vt 0.912936 0.429826
vt 0.912236 0.069735
vt 0.922063 0.069736
vt 0.923004 0.249768
vt 0.923818 0.429827
vt 0.933278 0.249768
vt 0.934563 0.429827
vt 0.931776 0.069736
vt 0.941337 0.069736
vt 0.943313 0.249768
vt 0.944982 0.429827
vt 0.952989 0.249768
vt 0.954894 0.429826
vt 0.950687 0.069735
vt 0.959702 0.069734
vt 0.962187 0.249768
vt 0.964188 0.429825
vt 0.970795 0.249768
vt 0.972792 0.429824
vt 0.968235 0.069733
vt 0.976110 0.069732
vt 0.978734 0.249768
vt 0.980722 0.429824
vt 0.165271 0.069818
vt 0.163041 0.249875
vt 0.155478 0.249871
vt 0.157352 0.069815
vt 0.160139 0.429913
vt 0.152998 0.429910
vt 0.145048 0.429906
vt 0.147264 0.249868
vt 0.148942 0.069811
vt 0.138501 0.249865
vt 0.140088 0.069807
vt 0.136447 0.429903
vt 0.127367 0.429899
vt 0.129268 0.249862
vt 0.130776 0.069803
vt 0.119640 0.249859
vt 0.120991 0.069799
vt 0.117975 0.429896
vt 0.108373 0.429894
vt 0.109683 0.249858
vt 0.110762 0.069796
vt 0.099467 0.249857
vt 0.100150 0.069794
vt 0.098638 0.429892
vt 0.088801 0.429892
vt 0.089078 0.249856
vt 0.089301 0.069793
vt 0.078615 0.249857
vt 0.078385 0.069795
vt 0.078887 0.429893
vt 0.068950 0.429895
vt 0.068196 0.249858
vt 0.067582 0.069797
vt 0.057946 0.249860
vt 0.057057 0.069801
vt 0.059070 0.429898
vt 0.049388 0.429901
vt 0.047982 0.249863
vt 0.046903 0.069805
vt 0.038414 0.249866
vt 0.037175 0.069809
vt 0.040065 0.429905
vt 0.031264 0.429908
vt 0.029321 0.249870
vt 0.027870 0.069813
vt 0.020772 0.249873
vt 0.018975 0.069817
vt 0.023133 0.429912
vt 0.015740 0.429915
vt 0.012814 0.249877
vt 0.010517 0.069820
vt 0.005493 0.249882
vt 0.002553 0.069823
vt 0.337372 0.249626
vt 0.343851 0.069680
vt 0.351323 0.069823
vt 0.344792 0.249766
vt 0.359345 0.069976
vt 0.352839 0.249919
vt 0.338880 0.429744
vt 0.346885 0.429897
vt 0.361463 0.250082
vt 0.355628 0.430063
vt 0.367779 0.070136
vt 0.376559 0.070302
vt 0.370613 0.250255
vt 0.365069 0.430242
vt 0.380228 0.250436
vt 0.375127 0.430432
vt 0.385645 0.070474
vt 0.395029 0.070650
vt 0.390221 0.250624
vt 0.385638 0.430629
vt 0.400492 0.250818
vt 0.396416 0.430831
vt 0.404697 0.070831
vt 0.750228 0.430470
vt 0.739673 0.430556
vt 0.738264 0.250525
vt 0.748374 0.250444
vt 0.729248 0.430643
vt 0.728225 0.250608
vt 0.727046 0.070556
vt 0.736792 0.070475
vt 0.746552 0.070396
vt 0.718999 0.430732
vt 0.718358 0.250693
vt 0.708940 0.430822
vt 0.708744 0.250780
vt 0.708221 0.070722
vt 0.717473 0.070639
vt 0.699091 0.430915
vt 0.699456 0.250868
vt 0.689534 0.431006
vt 0.690562 0.250955
vt 0.691113 0.070885
vt 0.699416 0.070805
vt 0.680384 0.431093
vt 0.682134 0.251037
vt 0.671829 0.431174
vt 0.674255 0.251113
vt 0.676065 0.071030
vt 0.683336 0.070961
vt 0.664070 0.431244
vt 0.667016 0.251179
vt 0.501697 0.569352
vt 0.509926 0.569400
vt 0.512554 0.749446
vt 0.504808 0.749400
vt 0.514626 0.929516
vt 0.507291 0.929473
vt 0.669283 0.071091
vt 0.518948 0.569455
vt 0.520934 0.749498
vt 0.528577 0.569516
vt 0.529865 0.749556
vt 0.530764 0.929619
vt 0.522444 0.929565
vt 0.538621 0.569578
vt 0.539253 0.749617
vt 0.548922 0.569640
vt 0.548986 0.749677
vt 0.548843 0.929733
vt 0.539586 0.929676
vt 0.559348 0.569700
vt 0.558949 0.749735
vt 0.569842 0.569756
vt 0.569036 0.749789
vt 0.568204 0.929840
vt 0.558434 0.929788
vt 0.580367 0.569808
vt 0.579148 0.749838
vt 0.590896 0.569857
vt 0.589201 0.749883
vt 0.587649 0.929932
vt 0.577988 0.929888
vt 0.601383 0.569903
vt 0.599116 0.749925
vt 0.611714 0.569949
vt 0.608810 0.749966
vt 0.606211 0.930011
vt 0.597073 0.929972
vt 0.621744 0.569994
vt 0.618198 0.750007
vt 0.631278 0.570040
vt 0.627177 0.750049
vt 0.623544 0.930090
vt 0.615038 0.930050
vt 0.640123 0.570084
vt 0.635642 0.750093
vt 0.648139 0.570127
vt 0.643483 0.750136
vt 0.639449 0.930174
vt 0.631709 0.930132
vt 0.978405 0.929518
vt 0.970477 0.929511
vt 0.967077 0.749477
vt 0.974268 0.749485
vt 0.961846 0.929503
vt 0.959170 0.749467
vt 0.957033 0.569411
vt 0.964293 0.569419
vt 0.650596 0.750178
vt 0.646656 0.930216
vt 0.952706 0.929496
vt 0.950644 0.749460
vt 0.943189 0.929492
vt 0.941609 0.749456
vt 0.940405 0.569401
vt 0.949040 0.569404
vt 0.933393 0.929492
vt 0.932175 0.749456
vt 0.923346 0.929496
vt 0.922442 0.749460
vt 0.921750 0.569404
vt 0.931252 0.569401
vt 0.913065 0.929502
vt 0.912502 0.749468
vt 0.902580 0.929510
vt 0.902434 0.749476
vt 0.902335 0.569418
vt 0.912069 0.569411
vt 0.891948 0.929517
vt 0.892319 0.749484
vt 0.881301 0.929521
vt 0.882243 0.749489
vt 0.883059 0.569430
vt 0.892652 0.569425
vt 0.870796 0.929522
vt 0.872300 0.749490
vt 0.860619 0.929520
vt 0.862598 0.749487
vt 0.864268 0.569428
vt 0.873586 0.569431
vt 0.850946 0.929514
vt 0.853250 0.749481
vt 0.841881 0.929506
vt 0.844367 0.749472
vt 0.846370 0.569415
vt 0.855157 0.569422
vt 0.833489 0.929499
vt 0.836051 0.749463
vt 0.825752 0.929493
vt 0.828377 0.749457
vt 0.830368 0.569401
vt 0.838050 0.569407
vt 0.171654 0.069752
vt 0.179487 0.069754
vt 0.181939 0.249791
vt 0.174529 0.249789
vt 0.187794 0.069752
vt 0.189977 0.249789
vt 0.191632 0.429845
vt 0.183792 0.429847
vt 0.176741 0.429845
vt 0.196531 0.069747
vt 0.198546 0.249783
vt 0.205710 0.069739
vt 0.207564 0.249775
vt 0.209036 0.429832
vt 0.200105 0.429840
vt 0.215344 0.069731
vt 0.216954 0.249765
vt 0.225398 0.069724
vt 0.226645 0.249757
vt 0.227671 0.429817
vt 0.218260 0.429824
vt 0.235807 0.069720
vt 0.236567 0.249753
vt 0.246424 0.069719
vt 0.246632 0.249752
vt 0.246798 0.429813
vt 0.237194 0.429813
vt 0.257083 0.069723
vt 0.256745 0.249756
vt 0.267609 0.069729
vt 0.266796 0.249763
vt 0.266133 0.429822
vt 0.256461 0.429816
vt 0.277844 0.069737
vt 0.276669 0.249772
vt 0.287706 0.069745
vt 0.286256 0.249781
vt 0.285144 0.429838
vt 0.275739 0.429830
vt 0.297146 0.069751
vt 0.295458 0.249788
vt 0.306175 0.069754
vt 0.304198 0.249791
vt 0.302723 0.429846
vt 0.294193 0.429844
vt 0.314804 0.069753
vt 0.312412 0.249790
vt 0.323008 0.069748
vt 0.320050 0.249785
vt 0.317729 0.429841
vt 0.310592 0.429845
vt 0.330726 0.069742
vt 0.327065 0.249777
vt 0.817081 0.429881
vt 0.809249 0.429958
vt 0.804551 0.249958
vt 0.812359 0.249880
vt 0.800408 0.069929
vt 0.808257 0.069852
vt 0.819562 0.249808
vt 0.815571 0.069779
vt 0.800697 0.430040
vt 0.796190 0.250040
vt 0.791465 0.430125
vt 0.787328 0.250122
vt 0.783594 0.070087
vt 0.792165 0.070008
vt 0.781635 0.430212
vt 0.778027 0.250204
vt 0.771367 0.430298
vt 0.768368 0.250284
vt 0.765595 0.070242
vt 0.774736 0.070165
vt 0.760842 0.430384
vt 0.758447 0.250364
vt 0.756181 0.070319
vt 0.416793 0.498769
vt 0.405963 0.498569
vt 0.427468 0.498967
vt 0.740129 0.498045
vt 0.729453 0.498136
vt 0.750961 0.497954
vt 0.425732 0.003722
vt 0.435472 0.003903
vt 0.415994 0.003543
vt 0.736167 0.002933
vt 0.745906 0.002852
vt 0.726425 0.003016
vt 0.437959 0.499164
vt 0.448278 0.499360
vt 0.718960 0.498228
vt 0.708640 0.498320
vt 0.445034 0.004083
vt 0.454244 0.004258
vt 0.716862 0.003100
vt 0.707651 0.003182
vt 0.458425 0.499555
vt 0.468314 0.499745
vt 0.698491 0.498412
vt 0.688601 0.498503
vt 0.462955 0.004425
vt 0.471121 0.004584
vt 0.698939 0.003262
vt 0.690772 0.003337
vt 0.477814 0.499929
vt 0.486699 0.500100
vt 0.679100 0.498591
vt 0.670214 0.498672
vt 0.478734 0.004731
vt 0.485852 0.004869
vt 0.683158 0.003408
vt 0.676039 0.003474
vt 0.494726 0.500252
vt 0.645685 0.002240
vt 0.654264 0.002238
vt 0.499811 0.501862
vt 0.508305 0.501912
vt 0.662186 0.498743
vt 0.644109 0.497363
vt 0.636769 0.497365
vt 0.651053 0.497364
vt 0.507503 0.997029
vt 0.500642 0.996991
vt 0.500429 0.929435
vt 0.514766 0.997072
vt 0.636261 0.002243
vt 0.626215 0.002248
vt 0.517658 0.501967
vt 0.527648 0.502026
vt 0.628998 0.497368
vt 0.620745 0.497373
vt 0.522466 0.997118
vt 0.530655 0.997168
vt 0.615781 0.002253
vt 0.605134 0.002257
vt 0.538042 0.502087
vt 0.548661 0.502149
vt 0.611979 0.497378
vt 0.602756 0.497382
vt 0.539369 0.997222
vt 0.548552 0.997276
vt 0.594413 0.002260
vt 0.583656 0.002260
vt 0.559364 0.502208
vt 0.570112 0.502265
vt 0.593175 0.497385
vt 0.583414 0.497385
vt 0.558108 0.997329
vt 0.567860 0.997381
vt 0.572876 0.002258
vt 0.562081 0.002254
vt 0.580892 0.502320
vt 0.591695 0.502373
vt 0.573661 0.497383
vt 0.564072 0.497379
vt 0.577620 0.997430
vt 0.587230 0.997476
vt 0.551302 0.002249
vt 0.540670 0.002244
vt 0.602491 0.502424
vt 0.613154 0.502474
vt 0.554773 0.497374
vt 0.545793 0.497369
vt 0.596564 0.997519
vt 0.605587 0.997560
vt 0.530352 0.002240
vt 0.520579 0.002239
vt 0.623518 0.502523
vt 0.633352 0.502571
vt 0.537133 0.497365
vt 0.528770 0.497363
vt 0.614297 0.997600
vt 0.622718 0.997641
vt 0.511579 0.002239
vt 0.503503 0.002241
vt 0.642429 0.502616
vt 0.650596 0.502658
vt 0.520692 0.497364
vt 0.512974 0.497366
vt 0.630859 0.997682
vt 0.638648 0.997722
vt 0.832323 0.497377
vt 0.824039 0.497382
vt 0.841312 0.497371
vt 0.972455 0.996996
vt 0.963466 0.996991
vt 0.980739 0.997001
vt 0.840831 0.002251
vt 0.847934 0.002246
vt 0.505732 0.497370
vt 0.645968 0.997761
vt 0.956849 0.501865
vt 0.963952 0.501870
vt 0.850773 0.497367
vt 0.860564 0.497364
vt 0.954005 0.996987
vt 0.944214 0.996985
vt 0.855818 0.002241
vt 0.864398 0.002239
vt 0.948965 0.501861
vt 0.940386 0.501859
vt 0.870591 0.497364
vt 0.880849 0.497366
vt 0.934188 0.996985
vt 0.923929 0.996987
vt 0.873540 0.002238
vt 0.883049 0.002241
vt 0.931244 0.501859
vt 0.921734 0.501861
vt 0.891354 0.497370
vt 0.902091 0.497374
vt 0.913425 0.996991
vt 0.902688 0.996995
vt 0.892728 0.002244
vt 0.902432 0.002249
vt 0.912055 0.501865
vt 0.902351 0.501869
vt 0.913015 0.497378
vt 0.923977 0.497381
vt 0.891764 0.996999
vt 0.880801 0.997002
vt 0.912052 0.002253
vt 0.921564 0.002256
vt 0.892731 0.501873
vt 0.883219 0.501876
vt 0.934796 0.497382
vt 0.945254 0.497380
vt 0.869983 0.997002
vt 0.859524 0.997001
vt 0.930964 0.002257
vt 0.940242 0.002255
vt 0.873820 0.501876
vt 0.864541 0.501875
vt 0.955152 0.497377
vt 0.964384 0.497373
vt 0.849626 0.996997
vt 0.840394 0.996993
vt 0.949367 0.002252
vt 0.958216 0.002248
vt 0.855416 0.501871
vt 0.846567 0.501867
vt 0.972895 0.497369
vt 0.980739 0.497367
vt 0.831883 0.996988
vt 0.824039 0.996985
vt 0.966630 0.002244
vt 0.974397 0.002241
vt 0.838153 0.501862
vt 0.830386 0.501859
vt 0.157359 0.002273
vt 0.165338 0.002275
vt 0.148955 0.002269
vt 0.177882 0.002261
vt 0.186369 0.002259
vt 0.169815 0.002260
vt 0.151373 0.497404
vt 0.143601 0.497400
vt 0.158281 0.497406
vt 0.183802 0.497388
vt 0.176809 0.497388
vt 0.191647 0.497387
vt 0.140149 0.002263
vt 0.130892 0.002256
vt 0.195252 0.002256
vt 0.204578 0.002251
vt 0.135142 0.497395
vt 0.126205 0.497388
vt 0.200166 0.497384
vt 0.209150 0.497379
vt 0.121137 0.002248
vt 0.110900 0.002243
vt 0.214392 0.002246
vt 0.224677 0.002241
vt 0.116990 0.497382
vt 0.107615 0.497377
vt 0.218401 0.497374
vt 0.227803 0.497370
vt 0.100241 0.002239
vt 0.089325 0.002238
vt 0.235369 0.002239
vt 0.246299 0.002238
vt 0.098162 0.497375
vt 0.088637 0.497374
vt 0.237276 0.497367
vt 0.246812 0.497367
vt 0.078347 0.002241
vt 0.067511 0.002246
vt 0.257272 0.002241
vt 0.268087 0.002245
vt 0.079038 0.497376
vt 0.069393 0.497380
vt 0.256416 0.497369
vt 0.266057 0.497373
vt 0.056993 0.002253
vt 0.046873 0.002260
vt 0.278567 0.002250
vt 0.288636 0.002255
vt 0.059760 0.497386
vt 0.050290 0.497392
vt 0.275673 0.497378
vt 0.285114 0.497383
vt 0.037184 0.002267
vt 0.027889 0.002271
vt 0.298265 0.002259
vt 0.307491 0.002261
vt 0.041158 0.497398
vt 0.032557 0.497402
vt 0.294203 0.497386
vt 0.302745 0.497388
vt 0.018947 0.002274
vt 0.010376 0.002275
vt 0.316358 0.002260
vt 0.324848 0.002258
vt 0.024664 0.497405
vt 0.017558 0.497406
vt 0.310566 0.497388
vt 0.317588 0.497386
vt 0.002239 0.002276
vt 0.345287 0.497429
vt 0.337372 0.497275
vt 0.819562 0.497349
vt 0.811645 0.497424
vt 0.332895 0.002255
vt 0.354482 0.002383
vt 0.362420 0.002538
vt 0.347058 0.002238
vt 0.807428 0.002309
vt 0.814853 0.002239
vt 0.799488 0.002384
vt 0.353992 0.497597
vt 0.363452 0.497778
vt 0.802939 0.497505
vt 0.793478 0.497590
vt 0.370699 0.002698
vt 0.379250 0.002861
vt 0.791207 0.002461
vt 0.782656 0.002539
vt 0.373577 0.497969
vt 0.384177 0.498166
vt 0.783351 0.497680
vt 0.772750 0.497771
vt 0.388040 0.003027
vt 0.397090 0.003195
vt 0.773865 0.002616
vt 0.764813 0.002694
vt 0.395036 0.498367
vt 0.761889 0.497863
vt 0.406422 0.003367
vt 0.755480 0.002772
s 0
usemtl M_CoatWool
f 1/1/1 131/2/1 385/3/1 129/4/1
f 131/2/2 2/5/2 130/6/2 385/3/2
f 385/3/3 130/6/3 4/7/3 132/8/3
f 129/4/4 385/3/4 132/8/4 3/9/4
f 3/9/5 132/8/5 386/10/5 133/11/5
f 132/8/6 4/7/6 134/12/6 386/10/6
f 386/10/7 134/12/7 6/13/7 135/14/7
f 133/11/8 386/10/8 135/14/8 5/15/8
f 5/15/9 135/14/9 387/16/9 136/17/9
f 135/14/10 6/13/10 137/18/10 387/16/10
f 387/16/11 137/18/11 8/19/11 138/20/11
f 136/17/12 387/16/12 138/20/12 7/21/12
f 7/21/13 138/20/13 388/22/13 139/23/13
f 138/20/14 8/19/14 140/24/14 388/22/14
f 388/22/15 140/24/15 10/25/15 141/26/15
f 139/23/16 388/22/16 141/26/16 9/27/16
f 9/27/17 141/26/17 389/28/17 142/29/17
f 141/30/18 10/31/18 143/32/18 389/33/18
f 389/33/19 143/32/19 12/34/19 144/35/19
f 142/36/20 389/33/20 144/35/20 11/37/20
f 11/37/21 144/35/21 390/38/21 145/39/21
f 144/35/22 12/34/22 146/40/22 390/38/22
f 390/38/23 146/40/23 14/41/23 147/42/23
f 145/39/24 390/38/24 147/42/24 13/43/24
f 13/43/25 147/42/25 391/44/25 148/45/25
f 147/42/26 14/41/26 149/46/26 391/44/26
f 391/44/27 149/46/27 16/47/27 150/48/27
f 148/45/28 391/44/28 150/48/28 15/49/28
f 15/49/29 150/48/29 392/50/29 151/51/29
f 150/48/30 16/47/30 152/52/30 392/50/30
f 392/50/31 152/52/31 18/53/31 153/54/31
f 151/51/32 392/50/32 153/54/32 17/55/32
f 17/55/33 153/54/33 393/56/33 154/57/33
f 153/54/34 18/53/34 155/58/34 393/56/34
f 393/56/35 155/58/35 20/59/35 156/60/35
f 154/57/36 393/56/36 156/60/36 19/61/36
f 19/61/37 156/60/37 394/62/37 157/63/37
f 156/60/38 20/59/38 158/64/38 394/62/38
f 394/62/39 158/64/39 22/65/39 159/66/39
f 157/63/40 394/62/40 159/66/40 21/67/40
f 21/67/41 159/66/41 395/68/41 160/69/41
f 159/66/42 22/65/42 161/70/42 395/68/42
f 395/68/43 161/70/43 24/71/43 162/72/43
f 160/69/44 395/68/44 162/72/44 23/73/44
f 23/73/45 162/72/45 396/74/45 163/75/45
f 162/72/46 24/71/46 164/76/46 396/74/46
f 396/74/47 164/76/47 26/77/47 165/78/47
f 163/75/48 396/74/48 165/78/48 25/79/48
f 25/80/49 165/81/49 397/82/49 166/83/49
f 165/78/50 26/77/50 167/84/50 397/85/50
f 397/82/51 167/86/51 28/87/51 168/88/51
f 166/83/52 397/82/52 168/88/52 27/89/52
f 27/89/53 168/88/53 398/90/53 169/91/53
f 168/88/54 28/87/54 170/92/54 398/90/54
f 398/90/55 170/92/55 30/93/55 171/94/55
f 169/91/56 398/90/56 171/94/56 29/95/56
f 29/95/57 171/94/57 399/96/57 172/97/57
f 171/94/58 30/93/58 173/98/58 399/96/58
f 399/96/59 173/98/59 32/99/59 174/100/59
f 172/97/60 399/96/60 174/100/60 31/101/60
f 31/101/61 174/100/61 400/102/61 175/103/61
f 174/100/62 32/99/62 176/104/62 400/102/62
f 400/102/63 176/104/63 34/105/63 177/106/63
f 175/103/64 400/102/64 177/106/64 33/107/64
f 33/107/65 177/106/65 401/108/65 178/109/65
f 177/106/66 34/105/66 179/110/66 401/108/66
f 401/108/67 179/110/67 36/111/67 180/112/67
f 178/109/68 401/108/68 180/112/68 35/113/68
f 35/113/69 180/112/69 402/114/69 181/115/69
f 180/112/70 36/111/70 182/116/70 402/114/70
f 402/114/71 182/116/71 38/117/71 183/118/71
f 181/115/72 402/114/72 183/118/72 37/119/72
f 37/119/73 183/118/73 403/120/73 184/121/73
f 183/118/74 38/117/74 185/122/74 403/120/74
f 403/120/75 185/122/75 40/123/75 186/124/75
f 184/121/76 403/120/76 186/124/76 39/125/76
f 39/125/77 186/124/77 404/126/77 187/127/77
f 186/124/78 40/123/78 188/128/78 404/126/78
f 404/126/79 188/128/79 42/129/79 189/130/79
f 187/127/80 404/126/80 189/130/80 41/131/80
f 41/132/81 189/133/81 405/134/81 190/135/81
f 189/133/82 42/136/82 191/137/82 405/134/82
f 405/134/83 191/137/83 44/138/83 192/139/83
f 190/135/84 405/134/84 192/139/84 43/140/84
f 43/140/85 192/139/85 406/141/85 193/142/85
f 192/139/86 44/138/86 194/143/86 406/141/86
f 406/141/87 194/143/87 46/144/87 195/145/87
f 193/142/88 406/141/88 195/145/88 45/146/88
f 45/146/89 195/145/89 407/147/89 196/148/89
f 195/145/90 46/144/90 197/149/90 407/147/90
f 407/147/91 197/149/91 48/150/91 198/151/91
f 196/148/92 407/147/92 198/151/92 47/152/92
f 47/152/93 198/151/93 408/153/93 199/154/93
f 198/151/94 48/150/94 200/155/94 408/153/94
f 408/153/95 200/155/95 50/156/95 201/157/95
f 199/154/96 408/153/96 201/157/96 49/158/96
f 49/158/97 201/157/97 409/159/97 202/160/97
f 201/157/98 50/156/98 203/161/98 409/159/98
f 409/159/99 203/161/99 52/162/99 204/163/99
f 202/160/100 409/159/100 204/163/100 51/164/100
f 51/164/101 204/163/101 410/165/101 205/166/101
f 204/163/102 52/162/102 206/167/102 410/165/102
f 410/165/103 206/167/103 54/168/103 207/169/103
f 205/166/104 410/165/104 207/169/104 53/170/104
f 53/170/105 207/169/105 411/171/105 208/172/105
f 207/169/106 54/168/106 209/173/106 411/171/106
f 411/171/107 209/173/107 56/174/107 210/175/107
f 208/172/108 411/171/108 210/175/108 55/176/108
f 55/176/109 210/175/109 412/177/109 211/178/109
f 210/175/110 56/174/110 212/179/110 412/177/110
f 412/177/111 212/179/111 58/180/111 213/181/111
f 211/178/112 412/177/112 213/181/112 57/182/112
f 57/182/113 213/181/113 413/183/113 214/184/113
f 213/185/114 58/186/114 215/187/114 413/188/114
f 413/188/115 215/187/115 60/189/115 216/190/115
f 214/191/116 413/188/116 216/190/116 59/192/116
f 59/192/117 216/190/117 414/193/117 217/194/117
f 216/190/118 60/189/118 218/195/118 414/193/118
f 414/193/119 218/195/119 62/196/119 219/197/119
f 217/194/120 414/193/120 219/197/120 61/198/120
f 61/198/121 219/197/121 415/199/121 220/200/121
f 219/197/122 62/196/122 221/201/122 415/199/122
f 415/199/123 221/201/123 64/202/123 222/203/123
f 220/200/124 415/199/124 222/203/124 63/204/124
f 63/204/125 222/203/125 416/205/125 223/206/125
f 222/203/126 64/202/126 224/207/126 416/205/126
f 416/205/127 224/207/127 2/5/127 131/2/127
f 223/206/128 416/205/128 131/2/128 1/1/128
f 65/208/129 225/209/129 417/210/129 227/211/129
f 225/209/130 67/212/130 228/213/130 417/210/130
f 417/210/131 228/213/131 68/214/131 226/215/131
f 227/211/132 417/210/132 226/215/132 66/216/132
f 67/212/133 229/217/133 418/218/133 228/213/133
f 229/217/134 69/219/134 231/220/134 418/218/134
f 418/218/135 231/220/135 70/221/135 230/222/135
f 228/213/136 418/218/136 230/222/136 68/214/136
f 69/219/137 232/223/137 419/224/137 231/220/137
f 232/223/138 71/225/138 234/226/138 419/224/138
f 419/224/139 234/226/139 72/227/139 233/228/139
f 231/220/140 419/224/140 233/228/140 70/221/140
f 71/225/141 235/229/141 420/230/141 234/226/141
f 235/229/142 73/231/142 237/232/142 420/230/142
f 420/230/143 237/232/143 74/233/143 236/234/143
f 234/226/144 420/230/144 236/234/144 72/227/144
f 73/231/145 238/235/145 421/236/145 237/232/145
f 238/237/146 75/238/146 240/239/146 421/240/146
f 421/240/147 240/239/147 76/241/147 239/242/147
f 237/232/148 421/236/148 239/243/148 74/233/148
f 75/238/149 241/244/149 422/245/149 240/239/149
f 241/244/150 77/246/150 243/247/150 422/245/150
f 422/245/151 243/247/151 78/248/151 242/249/151
f 240/239/152 422/245/152 242/249/152 76/241/152
f 77/246/153 244/250/153 423/251/153 243/247/153
f 244/250/154 79/252/154 246/253/154 423/251/154
f 423/251/155 246/253/155 80/254/155 245/255/155
f 243/247/156 423/251/156 245/255/156 78/248/156
f 79/252/157 247/256/157 424/257/157 246/253/157
f 247/256/158 81/258/158 249/259/158 424/257/158
f 424/257/159 249/259/159 82/260/159 248/261/159
f 246/253/160 424/257/160 248/261/160 80/254/160
f 81/258/161 250/262/161 425/263/161 249/259/161
f 250/262/162 83/264/162 252/265/162 425/263/162
f 425/263/163 252/265/163 84/266/163 251/267/163
f 249/259/164 425/263/164 251/267/164 82/260/164
f 83/264/165 253/268/165 426/269/165 252/265/165
f 253/268/166 85/270/166 255/271/166 426/269/166
f 426/269/167 255/271/167 86/272/167 254/273/167
f 252/265/168 426/269/168 254/273/168 84/266/168
f 85/270/169 256/274/169 427/275/169 255/271/169
f 256/274/170 87/276/170 258/277/170 427/275/170
f 427/275/171 258/277/171 88/278/171 257/279/171
f 255/271/172 427/275/172 257/279/172 86/272/172
f 87/276/173 259/280/173 428/281/173 258/277/173
f 259/280/174 89/282/174 261/283/174 428/281/174
f 428/281/175 261/283/175 90/284/175 260/285/175
f 258/277/176 428/281/176 260/285/176 88/278/176
f 89/286/177 262/287/177 429/288/177 261/289/177
f 262/287/178 91/290/178 264/291/178 429/288/178
f 429/288/179 264/291/179 92/292/179 263/293/179
f 261/283/180 429/294/180 263/295/180 90/284/180
f 91/290/181 265/296/181 430/297/181 264/291/181
f 265/296/182 93/298/182 267/299/182 430/297/182
f 430/297/183 267/299/183 94/300/183 266/301/183
f 264/291/184 430/297/184 266/301/184 92/292/184
f 93/298/185 268/302/185 431/303/185 267/299/185
f 268/302/186 95/304/186 270/305/186 431/303/186
f 431/303/187 270/305/187 96/306/187 269/307/187
f 267/299/188 431/303/188 269/307/188 94/300/188
f 95/304/189 271/308/189 432/309/189 270/305/189
f 271/308/190 97/310/190 273/311/190 432/309/190
f 432/309/191 273/311/191 98/312/191 272/313/191
f 270/305/192 432/309/192 272/313/192 96/306/192
f 97/310/193 274/314/193 433/315/193 273/311/193
f 274/314/194 99/316/194 276/317/194 433/315/194
f 433/315/195 276/317/195 100/318/195 275/319/195
f 273/311/196 433/315/196 275/319/196 98/312/196
f 99/316/197 277/320/197 434/321/197 276/317/197
f 277/320/198 101/322/198 279/323/198 434/321/198
f 434/321/199 279/323/199 102/324/199 278/325/199
f 276/317/200 434/321/200 278/325/200 100/318/200
f 101/322/201 280/326/201 435/327/201 279/323/201
f 280/326/202 103/328/202 282/329/202 435/327/202
f 435/327/203 282/329/203 104/330/203 281/331/203
f 279/323/204 435/327/204 281/331/204 102/324/204
f 103/328/205 283/332/205 436/333/205 282/329/205
f 283/332/206 105/334/206 285/335/206 436/333/206
f 436/333/207 285/335/207 106/336/207 284/337/207
f 282/329/208 436/333/208 284/337/208 104/330/208
f 105/338/209 286/339/209 437/340/209 285/341/209
f 286/339/210 107/342/210 288/343/210 437/340/210
f 437/340/211 288/343/211 108/344/211 287/345/211
f 285/341/212 437/340/212 287/345/212 106/346/212
f 107/342/213 289/347/213 438/348/213 288/343/213
f 289/347/214 109/349/214 291/350/214 438/348/214
f 438/348/215 291/350/215 110/351/215 290/352/215
f 288/343/216 438/348/216 290/352/216 108/344/216
f 109/349/217 292/353/217 439/354/217 291/350/217
f 292/353/218 111/355/218 294/356/218 439/354/218
f 439/354/219 294/356/219 112/357/219 293/358/219
f 291/350/220 439/354/220 293/358/220 110/351/220
f 111/355/221 295/359/221 440/360/221 294/356/221
f 295/359/222 113/361/222 297/362/222 440/360/222
f 440/360/223 297/362/223 114/363/223 296/364/223
f 294/356/224 440/360/224 296/364/224 112/357/224
f 113/361/225 298/365/225 441/366/225 297/362/225
f 298/365/226 115/367/226 300/368/226 441/366/226
f 441/366/227 300/368/227 116/369/227 299/370/227
f 297/362/228 441/366/228 299/370/228 114/363/228
f 115/367/229 301/371/229 442/372/229 300/368/229
f 301/371/230 117/373/230 303/374/230 442/372/230
f 442/372/231 303/374/231 118/375/231 302/376/231
f 300/368/232 442/372/232 302/376/232 116/369/232
f 117/373/233 304/377/233 443/378/233 303/374/233
f 304/377/234 119/379/234 306/380/234 443/378/234
f 443/378/235 306/380/235 120/381/235 305/382/235
f 303/374/236 443/378/236 305/382/236 118/375/236
f 119/379/237 307/383/237 444/384/237 306/380/237
f 307/383/238 121/385/238 309/386/238 444/384/238
f 444/384/239 309/386/239 122/387/239 308/388/239
f 306/380/240 444/384/240 308/388/240 120/381/240
f 121/385/241 310/389/241 445/390/241 309/386/241
f 310/391/242 123/392/242 312/393/242 445/394/242
f 445/394/243 312/393/243 124/395/243 311/396/243
f 309/397/244 445/394/244 311/396/244 122/398/244
f 123/392/245 313/399/245 446/400/245 312/393/245
f 313/399/246 125/401/246 315/402/246 446/400/246
f 446/400/247 315/402/247 126/403/247 314/404/247
f 312/393/248 446/400/248 314/404/248 124/395/248
f 125/401/249 316/405/249 447/406/249 315/402/249
f 316/405/250 127/407/250 318/408/250 447/406/250
f 447/406/251 318/408/251 128/409/251 317/410/251
f 315/402/252 447/406/252 317/410/252 126/403/252
f 127/407/253 319/411/253 448/412/253 318/408/253
f 319/411/254 65/208/254 227/211/254 448/412/254
f 448/412/255 227/211/255 66/216/255 320/413/255
f 318/408/256 448/412/256 320/413/256 128/409/256
f 1/1/257 129/4/257 449/414/257 321/415/257
f 129/4/258 3/9/258 323/416/258 449/414/258
f 449/417/259 323/418/259 67/212/259 225/209/259
f 321/419/260 449/417/260 225/209/260 65/208/260
f 4/7/261 130/6/261 450/420/261 324/421/261
f 130/6/262 2/5/262 322/422/262 450/420/262
f 450/423/263 322/424/263 66/216/263 226/215/263
f 324/425/264 450/423/264 226/215/264 68/214/264
f 3/9/265 133/11/265 451/426/265 323/416/265
f 133/11/266 5/15/266 325/427/266 451/426/266
f 451/428/267 325/429/267 69/219/267 229/217/267
f 323/418/268 451/428/268 229/217/268 67/212/268
f 6/13/269 134/12/269 452/430/269 326/431/269
f 134/12/270 4/7/270 324/421/270 452/430/270
f 452/432/271 324/425/271 68/214/271 230/222/271
f 326/433/272 452/432/272 230/222/272 70/221/272
f 5/15/273 136/17/273 453/434/273 325/427/273
f 136/17/274 7/21/274 327/435/274 453/434/274
f 453/436/275 327/437/275 71/225/275 232/223/275
f 325/429/276 453/436/276 232/223/276 69/219/276
f 8/19/277 137/18/277 454/438/277 328/439/277
f 137/18/278 6/13/278 326/431/278 454/438/278
f 454/440/279 326/433/279 70/221/279 233/228/279
f 328/441/280 454/440/280 233/228/280 72/227/280
f 7/21/281 139/23/281 455/442/281 327/435/281
f 139/23/282 9/27/282 329/443/282 455/442/282
f 455/444/283 329/445/283 73/231/283 235/229/283
f 327/437/284 455/444/284 235/229/284 71/225/284
f 10/25/285 140/24/285 456/446/285 330/447/285
f 140/24/286 8/19/286 328/439/286 456/446/286
f 456/448/287 328/441/287 72/227/287 236/234/287
f 330/449/288 456/448/288 236/234/288 74/233/288
f 9/27/289 142/29/289 457/450/289 329/443/289
f 142/36/290 11/37/290 331/451/290 457/452/290
f 457/453/291 331/454/291 75/238/291 238/237/291
f 329/445/292 457/455/292 238/235/292 73/231/292
f 12/34/293 143/32/293 458/456/293 332/457/293
f 143/32/294 10/31/294 330/458/294 458/456/294
f 458/459/295 330/460/295 74/461/295 239/242/295
f 332/462/296 458/459/296 239/242/296 76/241/296
f 11/37/297 145/39/297 459/463/297 331/451/297
f 145/39/298 13/43/298 333/464/298 459/463/298
f 459/465/299 333/466/299 77/246/299 241/244/299
f 331/454/300 459/465/300 241/244/300 75/238/300
f 14/41/301 146/40/301 460/467/301 334/468/301
f 146/40/302 12/34/302 332/457/302 460/467/302
f 460/469/303 332/462/303 76/241/303 242/249/303
f 334/470/304 460/469/304 242/249/304 78/248/304
f 13/43/305 148/45/305 461/471/305 333/464/305
f 148/45/306 15/49/306 335/472/306 461/471/306
f 461/473/307 335/474/307 79/252/307 244/250/307
f 333/466/308 461/473/308 244/250/308 77/246/308
f 16/47/309 149/46/309 462/475/309 336/476/309
f 149/46/310 14/41/310 334/468/310 462/475/310
f 462/477/311 334/470/311 78/248/311 245/255/311
f 336/478/312 462/477/312 245/255/312 80/254/312
f 15/49/313 151/51/313 463/479/313 335/472/313
f 151/51/314 17/55/314 337/480/314 463/479/314
f 463/481/315 337/482/315 81/258/315 247/256/315
f 335/474/316 463/481/316 247/256/316 79/252/316
f 18/53/317 152/52/317 464/483/317 338/484/317
f 152/52/318 16/47/318 336/476/318 464/483/318
f 464/485/319 336/478/319 80/254/319 248/261/319
f 338/486/320 464/485/320 248/261/320 82/260/320
f 17/55/321 154/57/321 465/487/321 337/480/321
f 154/57/322 19/61/322 339/488/322 465/487/322
f 465/489/323 339/490/323 83/264/323 250/262/323
f 337/482/324 465/489/324 250/262/324 81/258/324
f 20/59/325 155/58/325 466/491/325 340/492/325
f 155/58/326 18/53/326 338/484/326 466/491/326
f 466/493/327 338/486/327 82/260/327 251/267/327
f 340/494/328 466/493/328 251/267/328 84/266/328
f 19/61/329 157/63/329 467/495/329 339/488/329
f 157/63/330 21/67/330 341/496/330 467/495/330
f 467/497/331 341/498/331 85/270/331 253/268/331
f 339/490/332 467/497/332 253/268/332 83/264/332
f 22/65/333 158/64/333 468/499/333 342/500/333
f 158/64/334 20/59/334 340/492/334 468/499/334
f 468/501/335 340/494/335 84/266/335 254/273/335
f 342/502/336 468/501/336 254/273/336 86/272/336
f 21/67/337 160/69/337 469/503/337 341/496/337
f 160/69/338 23/73/338 343/504/338 469/503/338
f 469/505/339 343/506/339 87/276/339 256/274/339
f 341/498/340 469/505/340 256/274/340 85/270/340
f 24/71/341 161/70/341 470/507/341 344/508/341
f 161/70/342 22/65/342 342/500/342 470/507/342
f 470/509/343 342/502/343 86/272/343 257/279/343
f 344/510/344 470/509/344 257/279/344 88/278/344
f 23/73/345 163/75/345 471/511/345 343/504/345
f 163/75/346 25/79/346 345/512/346 471/511/346
f 471/513/347 345/514/347 89/282/347 259/280/347
f 343/506/348 471/513/348 259/280/348 87/276/348
f 26/77/349 164/76/349 472/515/349 346/516/349
f 164/76/350 24/71/350 344/508/350 472/515/350
f 472/517/351 344/510/351 88/278/351 260/285/351
f 346/518/352 472/517/352 260/285/352 90/284/352
f 25/80/353 166/83/353 473/519/353 345/520/353
f 166/83/354 27/89/354 347/521/354 473/519/354
f 473/522/355 347/523/355 91/290/355 262/287/355
f 345/524/356 473/522/356 262/287/356 89/286/356
f 28/87/357 167/86/357 474/525/357 348/526/357
f 167/84/358 26/77/358 346/516/358 474/527/358
f 474/528/359 346/518/359 90/284/359 263/295/359
f 348/529/360 474/530/360 263/293/360 92/292/360
f 27/89/361 169/91/361 475/531/361 347/521/361
f 169/91/362 29/95/362 349/532/362 475/531/362
f 475/533/363 349/534/363 93/298/363 265/296/363
f 347/523/364 475/533/364 265/296/364 91/290/364
f 30/93/365 170/92/365 476/535/365 350/536/365
f 170/92/366 28/87/366 348/526/366 476/535/366
f 476/537/367 348/529/367 92/292/367 266/301/367
f 350/538/368 476/537/368 266/301/368 94/300/368
f 29/95/369 172/97/369 477/539/369 349/532/369
f 172/97/370 31/101/370 351/540/370 477/539/370
f 477/541/371 351/542/371 95/304/371 268/302/371
f 349/534/372 477/541/372 268/302/372 93/298/372
f 32/99/373 173/98/373 478/543/373 352/544/373
f 173/98/374 30/93/374 350/536/374 478/543/374
f 478/545/375 350/538/375 94/300/375 269/307/375
f 352/546/376 478/545/376 269/307/376 96/306/376
f 31/101/377 175/103/377 479/547/377 351/540/377
f 175/103/378 33/107/378 353/548/378 479/547/378
f 479/549/379 353/550/379 97/310/379 271/308/379
f 351/542/380 479/549/380 271/308/380 95/304/380
f 34/105/381 176/104/381 480/551/381 354/552/381
f 176/104/382 32/99/382 352/544/382 480/551/382
f 480/553/383 352/546/383 96/306/383 272/313/383
f 354/554/384 480/553/384 272/313/384 98/312/384
f 33/107/385 178/109/385 481/555/385 353/548/385
f 178/109/386 35/113/386 355/556/386 481/555/386
f 481/557/387 355/558/387 99/316/387 274/314/387
f 353/550/388 481/557/388 274/314/388 97/310/388
f 36/111/389 179/110/389 482/559/389 356/560/389
f 179/110/390 34/105/390 354/552/390 482/559/390
f 482/561/391 354/554/391 98/312/391 275/319/391
f 356/562/392 482/561/392 275/319/392 100/318/392
f 35/113/393 181/115/393 483/563/393 355/556/393
f 181/115/394 37/119/394 357/564/394 483/563/394
f 483/565/395 357/566/395 101/322/395 277/320/395
f 355/558/396 483/565/396 277/320/396 99/316/396
f 38/117/397 182/116/397 484/567/397 358/568/397
f 182/116/398 36/111/398 356/560/398 484/567/398
f 484/569/399 356/562/399 100/318/399 278/325/399
f 358/570/400 484/569/400 278/325/400 102/324/400
f 37/119/401 184/121/401 485/571/401 357/564/401
f 184/121/402 39/125/402 359/572/402 485/571/402
f 485/573/403 359/574/403 103/328/403 280/326/403
f 357/566/404 485/573/404 280/326/404 101/322/404
f 40/123/405 185/122/405 486/575/405 360/576/405
f 185/122/406 38/117/406 358/568/406 486/575/406
f 486/577/407 358/570/407 102/324/407 281/331/407
f 360/578/408 486/577/408 281/331/408 104/330/408
f 39/125/409 187/127/409 487/579/409 359/572/409
f 187/127/410 41/131/410 361/580/410 487/579/410
f 487/581/411 361/582/411 105/334/411 283/332/411
f 359/574/412 487/581/412 283/332/412 103/328/412
f 42/129/413 188/128/413 488/583/413 362/584/413
f 188/128/414 40/123/414 360/576/414 488/583/414
f 488/585/415 360/578/415 104/330/415 284/337/415
f 362/586/416 488/585/416 284/337/416 106/336/416
f 41/132/417 190/135/417 489/587/417 361/588/417
f 190/135/418 43/140/418 363/589/418 489/587/418
f 489/590/419 363/591/419 107/342/419 286/339/419
f 361/592/420 489/590/420 286/339/420 105/338/420
f 44/138/421 191/137/421 490/593/421 364/594/421
f 191/137/422 42/136/422 362/595/422 490/593/422
f 490/596/423 362/597/423 106/346/423 287/345/423
f 364/598/424 490/596/424 287/345/424 108/344/424
f 43/140/425 193/142/425 491/599/425 363/589/425
f 193/142/426 45/146/426 365/600/426 491/599/426
f 491/601/427 365/602/427 109/349/427 289/347/427
f 363/591/428 491/601/428 289/347/428 107/342/428
f 46/144/429 194/143/429 492/603/429 366/604/429
f 194/143/430 44/138/430 364/594/430 492/603/430
f 492/605/431 364/598/431 108/344/431 290/352/431
f 366/606/432 492/605/432 290/352/432 110/351/432
f 45/146/433 196/148/433 493/607/433 365/600/433
f 196/148/434 47/152/434 367/608/434 493/607/434
f 493/609/435 367/610/435 111/355/435 292/353/435
f 365/602/436 493/609/436 292/353/436 109/349/436
f 48/150/437 197/149/437 494/611/437 368/612/437
f 197/149/438 46/144/438 366/604/438 494/611/438
f 494/613/439 366/606/439 110/351/439 293/358/439
f 368/614/440 494/613/440 293/358/440 112/357/440
f 47/152/441 199/154/441 495/615/441 367/608/441
f 199/154/442 49/158/442 369/616/442 495/615/442
f 495/617/443 369/618/443 113/361/443 295/359/443
f 367/610/444 495/617/444 295/359/444 111/355/444
f 50/156/445 200/155/445 496/619/445 370/620/445
f 200/155/446 48/150/446 368/612/446 496/619/446
f 496/621/447 368/614/447 112/357/447 296/364/447
f 370/622/448 496/621/448 296/364/448 114/363/448
f 49/158/449 202/160/449 497/623/449 369/616/449
f 202/160/450 51/164/450 371/624/450 497/623/450
f 497/625/451 371/626/451 115/367/451 298/365/451
f 369/618/452 497/625/452 298/365/452 113/361/452
f 52/162/453 203/161/453 498/627/453 372/628/453
f 203/161/454 50/156/454 370/620/454 498/627/454
f 498/629/455 370/622/455 114/363/455 299/370/455
f 372/630/456 498/629/456 299/370/456 116/369/456
f 51/164/457 205/166/457 499/631/457 371/624/457
f 205/166/458 53/170/458 373/632/458 499/631/458
f 499/633/459 373/634/459 117/373/459 301/371/459
f 371/626/460 499/633/460 301/371/460 115/367/460
f 54/168/461 206/167/461 500/635/461 374/636/461
f 206/167/462 52/162/462 372/628/462 500/635/462
f 500/637/463 372/630/463 116/369/463 302/376/463
f 374/638/464 500/637/464 302/376/464 118/375/464
f 53/170/465 208/172/465 501/639/465 373/632/465
f 208/172/466 55/176/466 375/640/466 501/639/466
f 501/641/467 375/642/467 119/379/467 304/377/467
f 373/634/468 501/641/468 304/377/468 117/373/468
f 56/174/469 209/173/469 502/643/469 376/644/469
f 209/173/470 54/168/470 374/636/470 502/643/470
f 502/645/471 374/638/471 118/375/471 305/382/471
f 376/646/472 502/645/472 305/382/472 120/381/472
f 55/176/473 211/178/473 503/647/473 375/640/473
f 211/178/474 57/182/474 377/648/474 503/647/474
f 503/649/475 377/650/475 121/385/475 307/383/475
f 375/642/476 503/649/476 307/383/476 119/379/476
f 58/180/477 212/179/477 504/651/477 378/652/477
f 212/179/478 56/174/478 376/644/478 504/651/478
f 504/653/479 376/646/479 120/381/479 308/388/479
f 378/654/480 504/653/480 308/388/480 122/387/480
f 57/182/481 214/184/481 505/655/481 377/648/481
f 214/191/482 59/192/482 379/656/482 505/657/482
f 505/658/483 379/659/483 123/392/483 310/391/483
f 377/650/484 505/660/484 310/389/484 121/385/484
f 60/189/485 215/187/485 506/661/485 380/662/485
f 215/187/486 58/186/486 378/663/486 506/661/486
f 506/664/487 378/665/487 122/398/487 311/396/487
f 380/666/488 506/664/488 311/396/488 124/395/488
f 59/192/489 217/194/489 507/667/489 379/656/489
f 217/194/490 61/198/490 381/668/490 507/667/490
f 507/669/491 381/670/491 125/401/491 313/399/491
f 379/659/492 507/669/492 313/399/492 123/392/492
f 62/196/493 218/195/493 508/671/493 382/672/493
f 218/195/494 60/189/494 380/662/494 508/671/494
f 508/673/495 380/666/495 124/395/495 314/404/495
f 382/674/496 508/673/496 314/404/496 126/403/496
f 61/198/497 220/200/497 509/675/497 381/668/497
f 220/200/498 63/204/498 383/676/498 509/675/498
f 509/677/499 383/678/499 127/407/499 316/405/499
f 381/670/500 509/677/500 316/405/500 125/401/500
f 64/202/501 221/201/501 510/679/501 384/680/501
f 221/201/502 62/196/502 382/672/502 510/679/502
f 510/681/503 382/674/503 126/403/503 317/410/503
f 384/682/504 510/681/504 317/410/504 128/409/504
f 63/204/505 223/206/505 511/683/505 383/676/505
f 223/206/506 1/1/506 321/415/506 511/683/506
f 511/684/507 321/419/507 65/208/507 319/411/507
f 383/678/508 511/684/508 319/411/508 127/407/508
f 2/5/509 224/207/509 512/685/509 322/422/509
f 224/207/510 64/202/510 384/680/510 512/685/510
f 512/686/511 384/682/511 128/409/511 320/413/511
f 322/424/512 512/686/512 320/413/512 66/216/512
