# Blender 5.0.1
# www.blender.org
mtllib ledger.mtl
o SM_Ledger
v -13.350001 -9.849999 -0.000000
v -13.350001 -10.000000 0.150000
v -13.500001 -9.849999 0.150000
v -13.350001 -9.956066 0.043934
v -13.436604 -9.936603 0.063397
v -13.456066 -9.956066 0.150000
v -13.456066 -9.849999 0.043934
v -13.350001 -10.000000 0.250000
v -13.350001 -9.849999 0.400000
v -13.500001 -9.849999 0.250000
v -13.350001 -9.956066 0.356066
v -13.436604 -9.936603 0.336602
v -13.456066 -9.849999 0.356066
v -13.456066 -9.956066 0.250000
v -13.350001 9.849999 0.000000
v -13.500001 9.849999 0.150000
v -13.350001 10.000000 0.150000
v -13.456066 9.849999 0.043934
v -13.436604 9.936603 0.063398
v -13.456066 9.956066 0.150000
v -13.350001 9.956066 0.043934
v -13.350001 9.849999 0.400000
v -13.350001 10.000000 0.250000
v -13.500001 9.849999 0.250000
v -13.350001 9.956066 0.356066
v -13.436604 9.936603 0.336603
v -13.456066 9.956066 0.250000
v -13.456066 9.849999 0.356066
v 13.350001 -9.849999 -0.000000
v 13.500001 -9.849999 0.150000
v 13.350001 -10.000000 0.150000
v 13.456066 -9.849999 0.043934
v 13.436604 -9.936603 0.063397
v 13.456066 -9.956066 0.150000
v 13.350001 -9.956066 0.043934
v 13.350001 -9.849999 0.400000
v 13.350001 -10.000000 0.250000
v 13.500001 -9.849999 0.250000
v 13.350001 -9.956066 0.356066
v 13.436604 -9.936603 0.336602
v 13.456066 -9.956066 0.250000
v 13.456066 -9.849999 0.356066
v 13.350001 9.849999 0.000000
v 13.350001 10.000000 0.150000
v 13.500001 9.849999 0.150000
v 13.350001 9.956066 0.043934
v 13.436604 9.936603 0.063398
v 13.456066 9.956066 0.150000
v 13.456066 9.849999 0.043934
v 13.350001 9.849999 0.400000
v 13.500001 9.849999 0.250000
v 13.350001 10.000000 0.250000
v 13.456066 9.849999 0.356066
v 13.436604 9.936603 0.336603
v 13.456066 9.956066 0.250000
v 13.350001 9.956066 0.356066
v -13.350001 -9.849999 2.600000
v -13.350001 -10.000000 2.750000
v -13.500001 -9.849999 2.750000
v -13.350001 -9.956066 2.643934
v -13.436604 -9.936603 2.663397
v -13.456066 -9.956066 2.750000
v -13.456066 -9.849999 2.643934
v -13.350001 -10.000000 2.850000
v -13.350001 -9.849999 3.000000
v -13.500001 -9.849999 2.850000
v -13.350001 -9.956066 2.956066
v -13.436604 -9.936603 2.936602
v -13.456066 -9.849999 2.956066
v -13.456066 -9.956066 2.850000
v -13.350001 9.849999 2.600000
v -13.500001 9.849999 2.750000
v -13.350001 10.000000 2.750000
v -13.456066 9.849999 2.643934
v -13.436604 9.936603 2.663398
v -13.456066 9.956066 2.750000
v -13.350001 9.956066 2.643934
v -13.350001 9.849999 3.000000
v -13.350001 10.000000 2.850001
v -13.500001 9.849999 2.850001
v -13.350001 9.956066 2.956066
v -13.436604 9.936603 2.936603
v -13.456066 9.956066 2.850001
v -13.456066 9.849999 2.956066
v 13.350001 -9.849999 2.600000
v 13.500001 -9.849999 2.750000
v 13.350001 -10.000000 2.750000
v 13.456066 -9.849999 2.643934
v 13.436604 -9.936603 2.663397
v 13.456066 -9.956066 2.750000
v 13.350001 -9.956066 2.643934
v 13.350001 -9.849999 3.000000
v 13.350001 -10.000000 2.850000
v 13.500001 -9.849999 2.850000
v 13.350001 -9.956066 2.956066
v 13.436604 -9.936603 2.936602
v 13.456066 -9.956066 2.850000
v 13.456066 -9.849999 2.956066
v 13.350001 9.849999 2.600000
v 13.350001 10.000000 2.750000
v 13.500001 9.849999 2.750000
v 13.350001 9.956066 2.643934
v 13.436604 9.936603 2.663398
v 13.456066 9.956066 2.750000
v 13.456066 9.849999 2.643934
v 13.350001 9.849999 3.000000
v 13.500001 9.849999 2.850001
v 13.350001 10.000000 2.850001
v 13.456066 9.849999 2.956066
v 13.436604 9.936603 2.936603
v 13.456066 9.956066 2.850001
v 13.350001 9.956066 2.956066
v -13.650002 -9.849999 -0.000000
v -13.650002 -10.000000 0.150000
v -13.800001 -9.849999 0.150000
v -13.650002 -9.956066 0.043934
v -13.736604 -9.936603 0.063397
v -13.756066 -9.956066 0.150000
v -13.756066 -9.849999 0.043934
v -13.650002 -10.000000 2.850000
v -13.650002 -9.849999 3.000000
v -13.800001 -9.849999 2.850000
v -13.650002 -9.956066 2.956065
v -13.736604 -9.936603 2.936602
v -13.756066 -9.849999 2.956065
v -13.756066 -9.956066 2.849999
v -13.650002 9.849999 0.000000
v -13.800001 9.849999 0.150000
v -13.650002 10.000000 0.150000
v -13.756065 9.849999 0.043934
v -13.736603 9.936603 0.063398
v -13.756065 9.956066 0.150000
v -13.650000 9.956066 0.043934
v -13.650002 9.849999 3.000000
v -13.650002 10.000000 2.850000
v -13.800001 9.849999 2.850000
v -13.650002 9.956066 2.956066
v -13.736604 9.936603 2.936603
v -13.756066 9.956066 2.850000
v -13.756066 9.849999 2.956066
v -13.349999 -9.849999 -0.000000
v -13.200000 -9.849999 0.150000
v -13.349999 -10.000000 0.150000
v -13.243935 -9.849999 0.043934
v -13.263397 -9.936603 0.063397
v -13.243935 -9.956066 0.150000
v -13.349999 -9.956066 0.043934
v -13.349999 -9.849999 3.000000
v -13.349999 -10.000000 2.850000
v -13.200000 -9.849999 2.850000
v -13.349999 -9.956066 2.956065
v -13.263397 -9.936603 2.936602
v -13.243935 -9.956066 2.849999
v -13.243935 -9.849999 2.956065
v -13.349999 9.849999 0.000000
v -13.349999 10.000000 0.150000
v -13.200000 9.849999 0.150000
v -13.349999 9.956066 0.043934
v -13.263397 9.936603 0.063398
v -13.243935 9.956066 0.150000
v -13.243935 9.849999 0.043934
v -13.349999 9.849999 3.000000
v -13.200000 9.849999 2.850000
v -13.349999 10.000000 2.850000
v -13.243935 9.849999 2.956066
v -13.263397 9.936603 2.936603
v -13.243935 9.956066 2.850000
v -13.349999 9.956066 2.956066
v -12.750000 -9.450000 0.400000
v -12.750000 -9.600000 0.550000
v -12.900000 -9.450000 0.550000
v -12.750000 -9.556067 0.443934
v -12.836602 -9.536602 0.463397
v -12.856065 -9.556067 0.550000
v -12.856065 -9.450000 0.443934
v -12.750000 -9.600000 2.450000
v -12.750000 -9.450000 2.600000
v -12.900000 -9.450000 2.450000
v -12.750000 -9.556067 2.556066
v -12.836602 -9.536602 2.536602
v -12.856065 -9.450000 2.556066
v -12.856065 -9.556067 2.450000
v -12.750000 9.450000 0.400000
v -12.900000 9.450000 0.550000
v -12.750000 9.600000 0.550000
v -12.856065 9.450000 0.443934
v -12.836602 9.536602 0.463398
v -12.856065 9.556067 0.550000
v -12.750000 9.556067 0.443934
v -12.750000 9.450000 2.600000
v -12.750000 9.600000 2.450001
v -12.900000 9.450000 2.450001
v -12.750000 9.556067 2.556067
v -12.836602 9.536602 2.536603
v -12.856065 9.556067 2.450001
v -12.856065 9.450000 2.556067
v 13.150001 -9.450000 0.400000
v 13.300000 -9.450000 0.550000
v 13.150001 -9.600000 0.550000
v 13.256065 -9.450000 0.443934
v 13.236603 -9.536602 0.463397
v 13.256065 -9.556067 0.550000
v 13.150001 -9.556067 0.443934
v 13.150001 -9.450000 2.600000
v 13.150001 -9.600000 2.450000
v 13.300000 -9.450000 2.450000
v 13.150001 -9.556067 2.556066
v 13.236603 -9.536602 2.536602
v 13.256065 -9.556067 2.450000
v 13.256065 -9.450000 2.556066
v 13.150001 9.450000 0.400000
v 13.150001 9.600000 0.550000
v 13.300000 9.450000 0.550000
v 13.150001 9.556067 0.443934
v 13.236603 9.536602 0.463398
v 13.256065 9.556067 0.550000
v 13.256065 9.450000 0.443934
v 13.150001 9.450000 2.600000
v 13.300000 9.450000 2.450001
v 13.150001 9.600000 2.450001
v 13.256065 9.450000 2.556067
v 13.236603 9.536602 2.536603
v 13.256065 9.556067 2.450001
v 13.150001 9.556067 2.556067
v 3.675000 -10.000000 -7.500001
v 3.675000 -10.075000 -7.425001
v 3.600000 -10.000000 -7.425001
v 3.675000 -10.053032 -7.478034
v 3.631698 -10.043301 -7.468303
v 3.621967 -10.053032 -7.425001
v 3.621967 -9.999999 -7.478034
v 3.675000 -10.075000 1.425000
v 3.675000 -10.000000 1.500000
v 3.600000 -10.000000 1.425000
v 3.675000 -10.053032 1.478033
v 3.631698 -10.043301 1.468301
v 3.621967 -9.999999 1.478033
v 3.621967 -10.053032 1.425000
v 3.675000 -10.000000 -7.500001
v 3.600000 -10.000000 -7.425001
v 3.675000 -9.925000 -7.425001
v 3.621967 -10.000000 -7.478034
v 3.631698 -9.956698 -7.468303
v 3.621967 -9.946968 -7.425001
v 3.675000 -9.946968 -7.478034
v 3.675000 -10.000000 1.500000
v 3.675000 -9.925000 1.425000
v 3.600000 -10.000000 1.425000
v 3.675000 -9.946968 1.478033
v 3.631698 -9.956698 1.468301
v 3.621967 -9.946968 1.425000
v 3.621967 -10.000000 1.478033
v 4.325000 -10.000000 -7.500001
v 4.400000 -10.000000 -7.425001
v 4.325000 -10.075000 -7.425001
v 4.378033 -10.000001 -7.478034
v 4.368301 -10.043303 -7.468303
v 4.378033 -10.053034 -7.425001
v 4.325000 -10.053034 -7.478034
v 4.325000 -10.000000 1.500000
v 4.325000 -10.075000 1.425000
v 4.400000 -10.000000 1.425000
v 4.325000 -10.053032 1.478033
v 4.368301 -10.043301 1.468301
v 4.378033 -10.053032 1.425000
v 4.378033 -9.999999 1.478033
v 4.325000 -10.000000 -7.500001
v 4.325000 -9.925000 -7.425001
v 4.400000 -10.000000 -7.425001
v 4.325000 -9.946968 -7.478034
v 4.368301 -9.956698 -7.468303
v 4.378033 -9.946968 -7.425001
v 4.378033 -10.000000 -7.478034
v 4.325000 -10.000000 1.500000
v 4.400000 -10.000000 1.425000
v 4.325000 -9.925000 1.425000
v 4.378033 -10.000000 1.478033
v 4.368301 -9.956698 1.468301
v 4.378033 -9.946968 1.425000
v 4.325000 -9.946968 1.478033
vn -0.3251 -0.3251 -0.8881
vn -0.3251 -0.8881 -0.3251
vn -0.8881 -0.3251 -0.3251
vn -0.3251 -0.8881 0.3251
vn -0.3251 -0.3251 0.8881
vn -0.8881 -0.3251 0.3251
vn -0.3251 0.3251 -0.8881
vn -0.8881 0.3251 -0.3251
vn -0.3251 0.8881 -0.3251
vn -0.3251 0.3251 0.8881
vn -0.3251 0.8881 0.3251
vn -0.8881 0.3251 0.3251
vn 0.3251 -0.3251 -0.8881
vn 0.8881 -0.3251 -0.3251
vn 0.3251 -0.8881 -0.3251
vn 0.3251 -0.3251 0.8881
vn 0.3251 -0.8881 0.3251
vn 0.8881 -0.3251 0.3251
vn 0.3251 0.3251 -0.8881
vn 0.3251 0.8881 -0.3251
vn 0.8881 0.3251 -0.3251
vn 0.3251 0.3251 0.8881
vn 0.8881 0.3251 0.3251
vn 0.3251 0.8881 0.3251
vn -0.3827 -0.0000 -0.9239
vn -0.9239 -0.0000 -0.3827
vn -0.3827 -0.9239 -0.0000
vn -0.9239 -0.3827 -0.0000
vn -0.3827 -0.0000 0.9239
vn -0.9239 -0.0000 0.3827
vn -0.3827 0.9239 -0.0000
vn -0.9239 0.3827 -0.0000
vn -0.0000 0.3827 -0.9239
vn -0.0000 0.9239 -0.3827
vn -0.0000 0.3827 0.9239
vn -0.0000 0.9239 0.3827
vn 0.9239 0.3827 -0.0000
vn 0.3827 0.9239 -0.0000
vn 0.3827 -0.0000 -0.9239
vn 0.9239 -0.0000 -0.3827
vn 0.3827 -0.0000 0.9239
vn 0.9239 -0.0000 0.3827
vn 0.3827 -0.9239 -0.0000
vn 0.9239 -0.3827 -0.0000
vn -0.0000 -0.3827 -0.9239
vn -0.0000 -0.9239 -0.3827
vn -0.0000 -0.3827 0.9239
vn -0.0000 -0.9239 0.3827
vn -0.0000 -0.0000 -1.0000
vn -1.0000 -0.0000 -0.0000
vn -0.0000 -1.0000 -0.0000
vn -0.0000 -0.0000 1.0000
vn -0.0000 1.0000 -0.0000
vn 1.0000 -0.0000 -0.0000
vn -0.8881 -0.3251 -0.3250
vn -0.8881 -0.3251 0.3250
vn -0.8881 0.3251 0.3250
vn 0.8881 -0.3251 0.3250
vn 0.8881 0.3251 -0.3250
vn 0.8881 0.3251 0.3250
vn -0.8881 0.3251 -0.3250
vn -0.3250 0.8881 -0.3251
vn 0.3250 0.8881 -0.3251
vn 0.6773 -0.0000 0.7357
vn 0.9756 -0.0000 0.2195
vn 0.6773 -0.0000 -0.7357
vn 0.9756 -0.0000 -0.2195
vn 0.9937 -0.0000 -0.1118
vn -0.6773 -0.0000 -0.7357
vn -0.9756 -0.0000 -0.2195
vt 0.286497 0.386637
vt 0.288015 0.386631
vt 0.287736 0.387867
vt 0.286497 0.388148
vt 0.952459 0.284344
vt 0.952459 0.282827
vt 0.953699 0.283105
vt 0.953977 0.284344
vt 0.988928 0.675638
vt 0.987404 0.675638
vt 0.987680 0.674399
vt 0.988922 0.674121
vt 0.951029 0.284344
vt 0.949511 0.284344
vt 0.949790 0.283105
vt 0.951029 0.282827
vt 0.286497 0.395917
vt 0.286497 0.394406
vt 0.287736 0.394687
vt 0.288015 0.395923
vt 0.990358 0.675638
vt 0.990352 0.674121
vt 0.991588 0.674399
vt 0.991870 0.675638
vt 0.004646 0.386637
vt 0.004646 0.388148
vt 0.003407 0.387867
vt 0.003129 0.386631
vt 0.988928 0.957489
vt 0.988922 0.959006
vt 0.987680 0.958728
vt 0.987404 0.957489
vt 0.963183 0.666345
vt 0.964701 0.666345
vt 0.964422 0.667584
vt 0.963183 0.667863
vt 0.004646 0.395917
vt 0.003129 0.395923
vt 0.003407 0.394687
vt 0.004646 0.394406
vt 0.961752 0.666345
vt 0.961752 0.667863
vt 0.960513 0.667584
vt 0.960235 0.666345
vt 0.990358 0.957489
vt 0.991870 0.957489
vt 0.991588 0.958728
vt 0.990352 0.959006
vt 0.286497 0.004652
vt 0.286497 0.003129
vt 0.287736 0.003405
vt 0.288015 0.004646
vt 0.979623 0.675638
vt 0.979629 0.674121
vt 0.980870 0.674399
vt 0.981146 0.675638
vt 0.952459 0.666345
vt 0.953977 0.666345
vt 0.953698 0.667584
vt 0.952459 0.667863
vt 0.286497 0.777900
vt 0.288015 0.777906
vt 0.287736 0.779148
vt 0.286497 0.779424
vt 0.951029 0.666345
vt 0.951029 0.667863
vt 0.949790 0.667584
vt 0.949511 0.666345
vt 0.978192 0.675638
vt 0.976681 0.675638
vt 0.976962 0.674399
vt 0.978198 0.674121
vt 0.004646 0.004652
vt 0.003129 0.004646
vt 0.003407 0.003405
vt 0.004646 0.003129
vt 0.963183 0.284344
vt 0.963183 0.282827
vt 0.964422 0.283105
vt 0.964701 0.284344
vt 0.979623 0.957489
vt 0.981146 0.957489
vt 0.980870 0.958728
vt 0.979629 0.959006
vt 0.004646 0.777900
vt 0.004646 0.779424
vt 0.003407 0.779148
vt 0.003129 0.777906
vt 0.978192 0.957489
vt 0.978198 0.959006
vt 0.976962 0.958728
vt 0.976681 0.957489
vt 0.961752 0.284344
vt 0.960235 0.284344
vt 0.960513 0.283105
vt 0.961752 0.282827
vt 0.577641 0.386637
vt 0.579158 0.386631
vt 0.578880 0.387867
vt 0.577641 0.388148
vt 0.904538 0.586934
vt 0.904538 0.585416
vt 0.905777 0.585695
vt 0.906055 0.586934
vt 0.995347 0.566195
vt 0.996871 0.566195
vt 0.996595 0.567434
vt 0.995354 0.567713
vt 0.903107 0.586934
vt 0.901590 0.586934
vt 0.901868 0.585695
vt 0.903107 0.585416
vt 0.577641 0.395917
vt 0.577641 0.394406
vt 0.578880 0.394687
vt 0.579158 0.395923
vt 0.993917 0.566195
vt 0.993923 0.567713
vt 0.992687 0.567434
vt 0.992406 0.566195
vt 0.295790 0.386637
vt 0.295790 0.388148
vt 0.294551 0.387867
vt 0.294273 0.386631
vt 0.995347 0.284344
vt 0.995354 0.282827
vt 0.996595 0.283105
vt 0.996871 0.284344
vt 0.973907 0.666345
vt 0.975424 0.666345
vt 0.975146 0.667584
vt 0.973907 0.667863
vt 0.295790 0.395917
vt 0.294273 0.395923
vt 0.294551 0.394687
vt 0.295790 0.394406
vt 0.972476 0.666345
vt 0.972476 0.667863
vt 0.971237 0.667584
vt 0.970958 0.666345
vt 0.993917 0.284344
vt 0.992406 0.284344
vt 0.992687 0.283105
vt 0.993923 0.282827
vt 0.577641 0.004652
vt 0.577641 0.003129
vt 0.578880 0.003405
vt 0.579158 0.004646
vt 0.984624 0.284344
vt 0.984630 0.282827
vt 0.985872 0.283105
vt 0.986148 0.284344
vt 0.904538 0.968935
vt 0.906055 0.968935
vt 0.905777 0.970174
vt 0.904538 0.970452
vt 0.577641 0.777900
vt 0.579158 0.777906
vt 0.578880 0.779148
vt 0.577641 0.779424
vt 0.903107 0.968935
vt 0.903107 0.970452
vt 0.901868 0.970174
vt 0.901590 0.968935
vt 0.983194 0.284344
vt 0.981682 0.284344
vt 0.981963 0.283105
vt 0.983200 0.282827
vt 0.295790 0.004652
vt 0.294273 0.004646
vt 0.294551 0.003405
vt 0.295790 0.003129
vt 0.973907 0.284344
vt 0.973907 0.282827
vt 0.975146 0.283105
vt 0.975424 0.284344
vt 0.984624 0.566195
vt 0.986148 0.566195
vt 0.985872 0.567434
vt 0.984630 0.567713
vt 0.295790 0.777900
vt 0.295790 0.779424
vt 0.294551 0.779148
vt 0.294273 0.777906
vt 0.983194 0.566195
vt 0.983200 0.567713
vt 0.981963 0.567434
vt 0.981682 0.566195
vt 0.972476 0.284344
vt 0.970958 0.284344
vt 0.971237 0.283105
vt 0.972476 0.282827
vt 0.951023 0.957489
vt 0.951029 0.959006
vt 0.949792 0.958728
vt 0.949511 0.957489
vt 0.647185 0.802938
vt 0.648702 0.802938
vt 0.648424 0.804177
vt 0.647185 0.804455
vt 0.905253 0.577641
vt 0.906777 0.577641
vt 0.906501 0.578880
vt 0.905259 0.579158
vt 0.647185 0.764309
vt 0.647185 0.762791
vt 0.648424 0.763070
vt 0.648702 0.764309
vt 0.968912 0.957489
vt 0.970423 0.957489
vt 0.970142 0.958728
vt 0.968905 0.959006
vt 0.866626 0.577641
vt 0.866632 0.579158
vt 0.865395 0.578880
vt 0.865114 0.577641
vt 0.951023 0.675638
vt 0.949511 0.675638
vt 0.949792 0.674399
vt 0.951029 0.674121
vt 0.905253 0.295790
vt 0.905259 0.294273
vt 0.906501 0.294551
vt 0.906777 0.295790
vt 0.656477 0.802938
vt 0.656478 0.804455
vt 0.655238 0.804177
vt 0.654960 0.802938
vt 0.968912 0.675638
vt 0.968905 0.674121
vt 0.970142 0.674399
vt 0.970423 0.675638
vt 0.656477 0.764309
vt 0.654960 0.764309
vt 0.655238 0.763070
vt 0.656477 0.762791
vt 0.866626 0.295790
vt 0.865114 0.295790
vt 0.865395 0.294551
vt 0.866632 0.294273
vt 0.955315 0.957489
vt 0.956838 0.957489
vt 0.956562 0.958728
vt 0.955321 0.959006
vt 0.905253 0.004646
vt 0.905259 0.003129
vt 0.906501 0.003407
vt 0.906777 0.004646
vt 0.642892 0.802938
vt 0.642892 0.804455
vt 0.641653 0.804177
vt 0.641375 0.802938
vt 0.964620 0.957489
vt 0.964613 0.959006
vt 0.963372 0.958728
vt 0.963096 0.957489
vt 0.642892 0.764309
vt 0.641375 0.764309
vt 0.641653 0.763070
vt 0.642892 0.762791
vt 0.866626 0.004646
vt 0.865114 0.004646
vt 0.865395 0.003407
vt 0.866632 0.003129
vt 0.955315 0.675638
vt 0.955321 0.674121
vt 0.956562 0.674399
vt 0.956838 0.675638
vt 0.660770 0.802938
vt 0.662287 0.802938
vt 0.662009 0.804177
vt 0.660770 0.804455
vt 0.905253 0.286497
vt 0.906777 0.286497
vt 0.906501 0.287736
vt 0.905259 0.288015
vt 0.964620 0.675638
vt 0.963096 0.675638
vt 0.963372 0.674399
vt 0.964613 0.674121
vt 0.866626 0.286497
vt 0.866632 0.288015
vt 0.865395 0.287736
vt 0.865114 0.286497
vt 0.660770 0.764309
vt 0.660770 0.762791
vt 0.662009 0.763070
vt 0.662287 0.764309
vt 0.857339 0.375191
vt 0.858856 0.375185
vt 0.858578 0.376422
vt 0.857339 0.376703
vt 0.941736 0.004646
vt 0.941736 0.003129
vt 0.942975 0.003407
vt 0.943253 0.004646
vt 0.951035 0.004646
vt 0.949511 0.004646
vt 0.949787 0.003407
vt 0.951029 0.003129
vt 0.914552 0.004646
vt 0.913035 0.004646
vt 0.913313 0.003407
vt 0.914552 0.003129
vt 0.857339 0.384472
vt 0.857339 0.382961
vt 0.858578 0.383242
vt 0.858856 0.384478
vt 0.978217 0.004646
vt 0.978211 0.003129
vt 0.979447 0.003407
vt 0.979728 0.004646
vt 0.586934 0.375191
vt 0.586934 0.376703
vt 0.585695 0.376422
vt 0.585416 0.375185
vt 0.951035 0.275052
vt 0.951029 0.276569
vt 0.949787 0.276291
vt 0.949511 0.275052
vt 0.941736 0.755049
vt 0.943253 0.755049
vt 0.942975 0.756289
vt 0.941736 0.756567
vt 0.586934 0.384472
vt 0.585416 0.384478
vt 0.585695 0.383242
vt 0.586934 0.382961
vt 0.914552 0.755049
vt 0.914552 0.756567
vt 0.913313 0.756289
vt 0.913035 0.755049
vt 0.978217 0.275052
vt 0.979728 0.275052
vt 0.979447 0.276291
vt 0.978211 0.276569
vt 0.857339 0.004652
vt 0.857339 0.003129
vt 0.858578 0.003405
vt 0.858856 0.004646
vt 0.893808 0.586934
vt 0.893814 0.585416
vt 0.895056 0.585695
vt 0.895332 0.586934
vt 0.941736 0.375202
vt 0.943253 0.375202
vt 0.942975 0.376441
vt 0.941736 0.376719
vt 0.857339 0.755010
vt 0.858856 0.755016
vt 0.858578 0.756258
vt 0.857339 0.756533
vt 0.914552 0.375202
vt 0.914552 0.376719
vt 0.913313 0.376441
vt 0.913035 0.375202
vt 0.866626 0.586934
vt 0.865114 0.586934
vt 0.865395 0.585695
vt 0.866632 0.585416
vt 0.586934 0.004652
vt 0.585416 0.004646
vt 0.585695 0.003405
vt 0.586934 0.003129
vt 0.941736 0.384494
vt 0.941736 0.382977
vt 0.942975 0.383255
vt 0.943253 0.384494
vt 0.893808 0.857339
vt 0.895332 0.857339
vt 0.895056 0.858578
vt 0.893814 0.858856
vt 0.586934 0.755010
vt 0.586934 0.756533
vt 0.585695 0.756257
vt 0.585416 0.755016
vt 0.866626 0.857339
vt 0.866632 0.858856
vt 0.865395 0.858578
vt 0.865114 0.857339
vt 0.914552 0.384494
vt 0.913035 0.384494
vt 0.913313 0.383255
vt 0.914552 0.382977
vt 0.669304 0.772852
vt 0.670063 0.772849
vt 0.669923 0.773467
vt 0.669304 0.773608
vt 0.595475 0.890168
vt 0.596233 0.890168
vt 0.596094 0.890788
vt 0.595475 0.890927
vt 0.628100 0.890159
vt 0.628100 0.890921
vt 0.627481 0.890783
vt 0.627342 0.890162
vt 0.595475 0.763550
vt 0.595475 0.762791
vt 0.596094 0.762930
vt 0.596233 0.763550
vt 0.683337 0.763547
vt 0.683337 0.762791
vt 0.683957 0.762932
vt 0.684096 0.763550
vt 0.628100 0.763547
vt 0.627342 0.763550
vt 0.627481 0.762932
vt 0.628100 0.762791
vt 0.669304 0.773608
vt 0.668684 0.773467
vt 0.668545 0.772849
vt 0.634358 0.890159
vt 0.635117 0.890162
vt 0.634978 0.890783
vt 0.634358 0.890921
vt 0.603250 0.890168
vt 0.603250 0.890927
vt 0.602631 0.890788
vt 0.602491 0.890168
vt 0.677079 0.763547
vt 0.676320 0.763550
vt 0.676460 0.762932
vt 0.677079 0.762791
vt 0.603250 0.763550
vt 0.602491 0.763550
vt 0.602631 0.762930
vt 0.603250 0.762791
vt 0.634358 0.763547
vt 0.634358 0.762791
vt 0.634978 0.762932
vt 0.635117 0.763550
vt 0.669304 0.763553
vt 0.669304 0.762791
vt 0.669923 0.762929
vt 0.670063 0.763550
vt 0.620325 0.890160
vt 0.621084 0.890163
vt 0.620945 0.890783
vt 0.620325 0.890921
vt 0.586175 0.890168
vt 0.586175 0.890927
vt 0.585556 0.890788
vt 0.585416 0.890168
vt 0.683337 0.772846
vt 0.684096 0.772849
vt 0.683957 0.773470
vt 0.683337 0.773608
vt 0.586175 0.763550
vt 0.585416 0.763550
vt 0.585556 0.762930
vt 0.586175 0.762791
vt 0.620325 0.763547
vt 0.620325 0.762791
vt 0.620945 0.762932
vt 0.621084 0.763550
vt 0.668545 0.763550
vt 0.668684 0.762929
vt 0.612550 0.890168
vt 0.613308 0.890168
vt 0.613169 0.890788
vt 0.612550 0.890927
vt 0.619706 0.890783
vt 0.619566 0.890163
vt 0.677079 0.772846
vt 0.677079 0.773608
vt 0.676460 0.773470
vt 0.676320 0.772849
vt 0.619566 0.763550
vt 0.619706 0.762932
vt 0.612550 0.763550
vt 0.612550 0.762791
vt 0.613169 0.762930
vt 0.613308 0.763550
vt 0.690354 0.763553
vt 0.690354 0.762791
vt 0.721643 0.763547
vt 0.721643 0.762791
vt 0.709127 0.762791
vt 0.709127 0.763553
vt 0.709127 0.763553
vt 0.702869 0.762791
vt 0.702869 0.763553
vt 0.715385 0.763547
vt 0.715385 0.762791
vt 0.696612 0.762791
vt 0.696612 0.763553
vt 0.727901 0.762791
vt 0.734159 0.762791
vt 0.740417 0.762791
vt 0.746675 0.762791
s 0
usemtl M_LedgerCloth
f 1/1/1 4/2/1 5/3/1 7/4/1
f 2/5/2 6/6/2 5/7/2 4/8/2
f 3/9/3 7/10/3 5/11/3 6/12/3
f 8/13/4 11/14/4 12/15/4 14/16/4
f 9/17/5 13/18/5 12/19/5 11/20/5
f 10/21/6 14/22/6 12/23/6 13/24/6
f 15/25/7 18/26/7 19/27/7 21/28/7
f 16/29/8 20/30/8 19/31/8 18/32/8
f 17/33/9 21/34/9 19/35/9 20/36/9
f 22/37/10 25/38/10 26/39/10 28/40/10
f 23/41/11 27/42/11 26/43/11 25/44/11
f 24/45/12 28/46/12 26/47/12 27/48/12
f 29/49/13 32/50/13 33/51/13 35/52/13
f 30/53/14 34/54/14 33/55/14 32/56/14
f 31/57/15 35/58/15 33/59/15 34/60/15
f 36/61/16 39/62/16 40/63/16 42/64/16
f 37/65/17 41/66/17 40/67/17 39/68/17
f 38/69/18 42/70/18 40/71/18 41/72/18
f 43/73/19 46/74/19 47/75/19 49/76/19
f 44/77/20 48/78/20 47/79/20 46/80/20
f 45/81/21 49/82/21 47/83/21 48/84/21
f 50/85/22 53/86/22 54/87/22 56/88/22
f 51/89/23 55/90/23 54/91/23 53/92/23
f 52/93/24 56/94/24 54/95/24 55/96/24
f 15/25/25 1/1/25 7/4/25 18/26/25
f 18/32/26 7/10/26 3/9/26 16/29/26
f 2/5/27 8/13/27 14/16/27 6/6/27
f 6/12/28 14/22/28 10/21/28 3/9/28
f 9/17/29 22/37/29 28/40/29 13/18/29
f 13/24/30 28/46/30 24/45/30 10/21/30
f 23/41/31 17/33/31 20/36/31 27/42/31
f 27/48/32 20/30/32 16/29/32 24/45/32
f 43/73/33 15/25/33 21/28/33 46/74/33
f 46/80/34 21/34/34 17/33/34 44/77/34
f 22/37/35 50/85/35 56/88/35 25/38/35
f 25/44/36 56/94/36 52/93/36 23/41/36
f 51/89/37 45/81/37 48/84/37 55/90/37
f 55/96/38 48/78/38 44/77/38 52/93/38
f 29/49/39 43/73/39 49/76/39 32/50/39
f 32/56/40 49/82/40 45/81/40 30/53/40
f 50/85/41 36/61/41 42/64/41 53/86/41
f 53/92/42 42/70/42 38/69/42 51/89/42
f 37/65/43 31/57/43 34/60/43 41/66/43
f 41/72/44 34/54/44 30/53/44 38/69/44
f 1/1/45 29/49/45 35/52/45 4/2/45
f 4/8/46 35/58/46 31/57/46 2/5/46
f 36/61/47 9/17/47 11/20/47 39/62/47
f 39/68/48 11/14/48 8/13/48 37/65/48
f 15/25/49 43/73/49 29/49/49 1/1/49
f 3/9/50 10/21/50 24/45/50 16/29/50
f 31/57/51 37/65/51 8/13/51 2/5/51
f 50/85/52 22/37/52 9/17/52 36/61/52
f 17/33/53 23/41/53 52/93/53 44/77/53
f 45/81/54 51/89/54 38/69/54 30/53/54
f 57/97/1 60/98/1 61/99/1 63/100/1
f 58/101/2 62/102/2 61/103/2 60/104/2
f 59/105/3 63/106/3 61/107/3 62/108/3
f 64/109/4 67/110/4 68/111/4 70/112/4
f 65/113/5 69/114/5 68/115/5 67/116/5
f 66/117/6 70/118/6 68/119/6 69/120/6
f 71/121/7 74/122/7 75/123/7 77/124/7
f 72/125/8 76/126/8 75/127/8 74/128/8
f 73/129/9 77/130/9 75/131/9 76/132/9
f 78/133/10 81/134/10 82/135/10 84/136/10
f 79/137/11 83/138/11 82/139/11 81/140/11
f 80/141/12 84/142/12 82/143/12 83/144/12
f 85/145/13 88/146/13 89/147/13 91/148/13
f 86/149/14 90/150/14 89/151/14 88/152/14
f 87/153/15 91/154/15 89/155/15 90/156/15
f 92/157/16 95/158/16 96/159/16 98/160/16
f 93/161/17 97/162/17 96/163/17 95/164/17
f 94/165/18 98/166/18 96/167/18 97/168/18
f 99/169/19 102/170/19 103/171/19 105/172/19
f 100/173/20 104/174/20 103/175/20 102/176/20
f 101/177/21 105/178/21 103/179/21 104/180/21
f 106/181/22 109/182/22 110/183/22 112/184/22
f 107/185/23 111/186/23 110/187/23 109/188/23
f 108/189/24 112/190/24 110/191/24 111/192/24
f 71/121/25 57/97/25 63/100/25 74/122/25
f 74/128/26 63/106/26 59/105/26 72/125/26
f 58/101/27 64/109/27 70/112/27 62/102/27
f 62/108/28 70/118/28 66/117/28 59/105/28
f 65/113/29 78/133/29 84/136/29 69/114/29
f 69/120/30 84/142/30 80/141/30 66/117/30
f 79/137/31 73/129/31 76/132/31 83/138/31
f 83/144/32 76/126/32 72/125/32 80/141/32
f 99/169/33 71/121/33 77/124/33 102/170/33
f 102/176/34 77/130/34 73/129/34 100/173/34
f 78/133/35 106/181/35 112/184/35 81/134/35
f 81/140/36 112/190/36 108/189/36 79/137/36
f 107/185/37 101/177/37 104/180/37 111/186/37
f 111/192/38 104/174/38 100/173/38 108/189/38
f 85/145/39 99/169/39 105/172/39 88/146/39
f 88/152/40 105/178/40 101/177/40 86/149/40
f 106/181/41 92/157/41 98/160/41 109/182/41
f 109/188/42 98/166/42 94/165/42 107/185/42
f 93/161/43 87/153/43 90/156/43 97/162/43
f 97/168/44 90/150/44 86/149/44 94/165/44
f 57/97/45 85/145/45 91/148/45 60/98/45
f 60/104/46 91/154/46 87/153/46 58/101/46
f 92/157/47 65/113/47 67/116/47 95/158/47
f 95/164/48 67/110/48 64/109/48 93/161/48
f 71/121/49 99/169/49 85/145/49 57/97/49
f 59/105/50 66/117/50 80/141/50 72/125/50
f 87/153/51 93/161/51 64/109/51 58/101/51
f 106/181/52 78/133/52 65/113/52 92/157/52
f 73/129/53 79/137/53 108/189/53 100/173/53
f 101/177/54 107/185/54 94/165/54 86/149/54
f 113/193/1 116/194/1 117/195/1 119/196/1
f 114/197/2 118/198/2 117/199/2 116/200/2
f 115/201/55 119/202/55 117/203/55 118/204/55
f 120/205/4 123/206/4 124/207/4 126/208/4
f 121/209/5 125/210/5 124/211/5 123/212/5
f 122/213/56 126/214/56 124/215/56 125/216/56
f 127/217/7 130/218/7 131/219/7 133/220/7
f 128/221/8 132/222/8 131/223/8 130/224/8
f 129/225/9 133/226/9 131/227/9 132/228/9
f 134/229/10 137/230/10 138/231/10 140/232/10
f 135/233/11 139/234/11 138/235/11 137/236/11
f 136/237/57 140/238/57 138/239/57 139/240/57
f 141/241/13 144/242/13 145/243/13 147/244/13
f 142/245/14 146/246/14 145/247/14 144/248/14
f 143/249/15 147/250/15 145/251/15 146/252/15
f 148/253/16 151/254/16 152/255/16 154/256/16
f 149/257/17 153/258/17 152/259/17 151/260/17
f 150/261/58 154/262/58 152/263/58 153/264/58
f 155/265/19 158/266/19 159/267/19 161/268/19
f 156/269/20 160/270/20 159/271/20 158/272/20
f 157/273/59 161/274/59 159/275/59 160/276/59
f 162/277/22 165/278/22 166/279/22 168/280/22
f 163/281/60 167/282/60 166/283/60 165/284/60
f 164/285/24 168/286/24 166/287/24 167/288/24
f 127/217/25 113/193/25 119/196/25 130/218/25
f 130/224/26 119/202/26 115/201/26 128/221/26
f 114/197/27 120/205/27 126/208/27 118/198/27
f 118/204/28 126/214/28 122/213/28 115/201/28
f 121/209/29 134/229/29 140/232/29 125/210/29
f 125/216/30 140/238/30 136/237/30 122/213/30
f 135/233/31 129/225/31 132/228/31 139/234/31
f 139/240/32 132/222/32 128/221/32 136/237/32
f 155/265/33 127/217/33 133/220/33 158/266/33
f 158/272/34 133/226/34 129/225/34 156/269/34
f 134/229/35 162/277/35 168/280/35 137/230/35
f 137/236/36 168/286/36 164/285/36 135/233/36
f 163/281/37 157/273/37 160/276/37 167/282/37
f 167/288/38 160/270/38 156/269/38 164/285/38
f 141/241/39 155/265/39 161/268/39 144/242/39
f 144/248/40 161/274/40 157/273/40 142/245/40
f 162/277/41 148/253/41 154/256/41 165/278/41
f 165/284/42 154/262/42 150/261/42 163/281/42
f 149/257/43 143/249/43 146/252/43 153/258/43
f 153/264/44 146/246/44 142/245/44 150/261/44
f 113/193/45 141/241/45 147/244/45 116/194/45
f 116/200/46 147/250/46 143/249/46 114/197/46
f 148/253/47 121/209/47 123/212/47 151/254/47
f 151/260/48 123/206/48 120/205/48 149/257/48
f 127/217/49 155/265/49 141/241/49 113/193/49
f 115/201/50 122/213/50 136/237/50 128/221/50
f 143/249/51 149/257/51 120/205/51 114/197/51
f 162/277/52 134/229/52 121/209/52 148/253/52
f 129/225/53 135/233/53 164/285/53 156/269/53
f 157/273/54 163/281/54 150/261/54 142/245/54
usemtl M_Pages
f 169/289/1 172/290/1 173/291/1 175/292/1
f 170/293/2 174/294/2 173/295/2 172/296/2
f 171/297/3 175/298/3 173/299/3 174/300/3
f 176/301/4 179/302/4 180/303/4 182/304/4
f 177/305/5 181/306/5 180/307/5 179/308/5
f 178/309/6 182/310/6 180/311/6 181/312/6
f 183/313/7 186/314/7 187/315/7 189/316/7
f 184/317/8 188/318/8 187/319/8 186/320/8
f 185/321/9 189/322/9 187/323/9 188/324/9
f 190/325/10 193/326/10 194/327/10 196/328/10
f 191/329/11 195/330/11 194/331/11 193/332/11
f 192/333/12 196/334/12 194/335/12 195/336/12
f 197/337/13 200/338/13 201/339/13 203/340/13
f 198/341/14 202/342/14 201/343/14 200/344/14
f 199/345/15 203/346/15 201/347/15 202/348/15
f 204/349/16 207/350/16 208/351/16 210/352/16
f 205/353/17 209/354/17 208/355/17 207/356/17
f 206/357/18 210/358/18 208/359/18 209/360/18
f 211/361/19 214/362/19 215/363/19 217/364/19
f 212/365/20 216/366/20 215/367/20 214/368/20
f 213/369/21 217/370/21 215/371/21 216/372/21
f 218/373/22 221/374/22 222/375/22 224/376/22
f 219/377/23 223/378/23 222/379/23 221/380/23
f 220/381/24 224/382/24 222/383/24 223/384/24
f 183/313/25 169/289/25 175/292/25 186/314/25
f 186/320/26 175/298/26 171/297/26 184/317/26
f 170/293/27 176/301/27 182/304/27 174/294/27
f 174/300/28 182/310/28 178/309/28 171/297/28
f 177/305/29 190/325/29 196/328/29 181/306/29
f 181/312/30 196/334/30 192/333/30 178/309/30
f 191/329/31 185/321/31 188/324/31 195/330/31
f 195/336/32 188/318/32 184/317/32 192/333/32
f 211/361/33 183/313/33 189/316/33 214/362/33
f 214/368/34 189/322/34 185/321/34 212/365/34
f 190/325/35 218/373/35 224/376/35 193/326/35
f 193/332/36 224/382/36 220/381/36 191/329/36
f 219/377/37 213/369/37 216/372/37 223/378/37
f 223/384/38 216/366/38 212/365/38 220/381/38
f 197/337/39 211/361/39 217/364/39 200/338/39
f 200/344/40 217/370/40 213/369/40 198/341/40
f 218/373/41 204/349/41 210/352/41 221/374/41
f 221/380/42 210/358/42 206/357/42 219/377/42
f 205/353/43 199/345/43 202/348/43 209/354/43
f 209/360/44 202/342/44 198/341/44 206/357/44
f 169/289/45 197/337/45 203/340/45 172/290/45
f 172/296/46 203/346/46 199/345/46 170/293/46
f 204/349/47 177/305/47 179/308/47 207/350/47
f 207/356/48 179/302/48 176/301/48 205/353/48
f 183/313/49 211/361/49 197/337/49 169/289/49
f 171/297/50 178/309/50 192/333/50 184/317/50
f 199/345/51 205/353/51 176/301/51 170/293/51
f 218/373/52 190/325/52 177/305/52 204/349/52
f 185/321/53 191/329/53 220/381/53 212/365/53
f 213/369/54 219/377/54 206/357/54 198/341/54
usemtl M_Ribbon
f 225/385/1 228/386/1 229/387/1 231/388/1
f 226/389/2 230/390/2 229/391/2 228/392/2
f 227/393/3 231/394/3 229/395/3 230/396/3
f 232/397/4 235/398/4 236/399/4 238/400/4
f 233/401/5 237/402/5 236/403/5 235/404/5
f 234/405/56 238/406/56 236/407/56 237/408/56
f 239/385/7 242/409/7 243/410/7 245/411/7
f 240/412/61 244/413/61 243/414/61 242/415/61
f 241/416/62 245/417/62 243/418/62 244/419/62
f 246/420/10 249/421/10 250/422/10 252/423/10
f 247/424/11 251/425/11 250/426/11 249/427/11
f 248/428/12 252/429/12 250/430/12 251/431/12
f 253/432/13 256/433/13 257/434/13 259/435/13
f 254/436/14 258/437/14 257/438/14 256/439/14
f 255/440/15 259/441/15 257/442/15 258/443/15
f 260/444/16 263/445/16 264/446/16 266/447/16
f 261/448/17 265/449/17 264/450/17 263/451/17
f 262/452/18 266/453/18 264/454/18 265/455/18
f 267/432/19 270/456/19 271/457/19 273/433/19
f 268/458/63 272/459/63 271/460/63 270/461/63
f 269/436/59 273/439/59 271/462/59 272/463/59
f 274/464/22 277/465/22 278/466/22 280/467/22
f 275/452/60 279/468/60 278/469/60 277/453/60
f 276/470/24 280/471/24 278/472/24 279/473/24
f 239/474/64 225/474/64 231/475/64 242/475/64
f 242/476/65 231/476/65 227/477/65 240/477/65
f 226/389/27 232/397/27 238/400/27 230/390/27
f 230/396/28 238/406/28 234/405/28 227/393/28
f 233/478/66 246/478/66 252/479/66 237/480/66
f 237/481/67 252/481/67 248/482/67 234/482/67
f 247/424/31 241/416/31 244/419/31 251/425/31
f 251/431/32 244/413/32 240/412/32 248/428/32
f 267/432/33 239/385/33 245/411/33 270/456/33
f 270/461/34 245/417/34 241/416/34 268/458/34
f 246/420/35 274/464/35 280/467/35 249/421/35
f 249/427/36 280/471/36 276/470/36 247/424/36
f 275/452/37 269/436/37 272/463/37 279/468/37
f 279/473/38 272/459/38 268/458/38 276/470/38
f 253/432/49 267/432/49 273/433/49 256/433/49
f 256/439/68 273/439/68 269/436/68 254/436/68
f 274/483/69 260/483/69 266/484/69 277/484/69
f 277/485/70 266/485/70 262/486/70 275/486/70
f 261/448/43 255/440/43 258/443/43 265/449/43
f 265/455/44 258/437/44 254/436/44 262/452/44
f 225/385/45 253/432/45 259/435/45 228/386/45
f 228/392/46 259/441/46 255/440/46 226/389/46
f 260/444/47 233/401/47 235/404/47 263/445/47
f 263/451/48 235/398/48 232/397/48 261/448/48
f 239/487/53 267/487/53 253/487/53 225/487/53
f 227/488/53 234/488/53 248/488/53 240/488/53
f 255/440/51 261/448/51 232/397/51 226/389/51
f 274/489/53 246/489/53 233/489/53 260/489/53
f 241/416/53 247/424/53 276/470/53 268/458/53
f 269/490/53 275/490/53 262/490/53 254/490/53
