# Blender 5.0.1
# www.blender.org
mtllib med_cart.mtl
o SM_MedCart
v -28.000000 47.600002 -20.499998
v -28.000000 47.599998 56.500000
v -27.579048 47.516270 -20.499998
v -27.579048 47.516266 56.500000
v -27.222183 47.277821 -20.499998
v -27.222183 47.277817 56.500000
v -26.983732 46.920956 -20.499998
v -26.983732 46.920948 56.500000
v -26.900000 46.500004 -20.499998
v -26.900000 46.499996 56.500000
v -26.983732 46.079052 -20.499998
v -26.983732 46.079044 56.500000
v -27.222183 45.722183 -20.499998
v -27.222183 45.722179 56.500000
v -27.579048 45.483734 -20.499998
v -27.579048 45.483734 56.500000
v -28.000000 45.400002 -20.499998
v -28.000000 45.400002 56.500000
v -28.420952 45.483734 -20.499998
v -28.420952 45.483734 56.500000
v -28.777817 45.722183 -20.499998
v -28.777817 45.722179 56.500000
v -29.016268 46.079052 -20.499998
v -29.016268 46.079044 56.500000
v -29.100000 46.500004 -20.499998
v -29.100000 46.499996 56.500000
v -29.016268 46.920956 -20.499998
v -29.016268 46.920948 56.500000
v -28.777817 47.277821 -20.499998
v -28.777817 47.277817 56.500000
v -28.420952 47.516270 -20.499998
v -28.420952 47.516266 56.500000
v -28.000000 47.750004 -21.500000
v -28.000000 45.250000 -21.500000
v -26.918442 47.750004 -21.671301
v -26.918442 45.250000 -21.671301
v -25.942751 47.750004 -22.168440
v -25.942751 45.250000 -22.168440
v -25.168440 47.750004 -22.942751
v -25.168440 45.250000 -22.942751
v -24.671303 47.750004 -23.918442
v -24.671303 45.250000 -23.918442
v -24.500000 47.750004 -25.000000
v -24.500000 45.250000 -25.000000
v -24.671303 47.750004 -26.081558
v -24.671303 45.250000 -26.081558
v -25.168440 47.750004 -27.057249
v -25.168440 45.250000 -27.057249
v -25.942751 47.750004 -27.831560
v -25.942751 45.250000 -27.831560
v -26.918442 47.750004 -28.328699
v -26.918442 45.250000 -28.328699
v -28.000000 47.750004 -28.500000
v -28.000000 45.250000 -28.500000
v -29.081558 47.750004 -28.328699
v -29.081558 45.250000 -28.328699
v -30.057249 47.750004 -27.831560
v -30.057249 45.250000 -27.831560
v -30.831560 47.750004 -27.057249
v -30.831560 45.250000 -27.057249
v -31.328699 47.750004 -26.081558
v -31.328699 45.250000 -26.081558
v -31.500000 47.750004 -25.000000
v -31.500000 45.250000 -25.000000
v -31.328699 47.750004 -23.918442
v -31.328699 45.250000 -23.918442
v -30.831560 47.750004 -22.942751
v -30.831560 45.250000 -22.942751
v -30.057249 47.750004 -22.168440
v -30.057249 45.250000 -22.168440
v -29.081558 47.750004 -21.671301
v -29.081558 45.250000 -21.671301
v -28.000000 83.600006 -20.499996
v -28.000000 83.599998 56.500008
v -27.579048 83.516273 -20.499996
v -27.579048 83.516266 56.500008
v -27.222183 83.277824 -20.499996
v -27.222183 83.277817 56.500008
v -26.983732 82.920959 -20.499996
v -26.983732 82.920952 56.500008
v -26.900000 82.500008 -20.499996
v -26.900000 82.500000 56.500008
v -26.983732 82.079056 -20.499996
v -26.983732 82.079048 56.500008
v -27.222183 81.722191 -20.499996
v -27.222183 81.722183 56.500008
v -27.579048 81.483734 -20.499996
v -27.579048 81.483734 56.500008
v -28.000000 81.400002 -20.499996
v -28.000000 81.400002 56.500008
v -28.420952 81.483734 -20.499996
v -28.420952 81.483734 56.500008
v -28.777817 81.722191 -20.499996
v -28.777817 81.722183 56.500008
v -29.016268 82.079056 -20.499996
v -29.016268 82.079048 56.500008
v -29.100000 82.500008 -20.499996
v -29.100000 82.500000 56.500008
v -29.016268 82.920959 -20.499996
v -29.016268 82.920952 56.500008
v -28.777817 83.277824 -20.499996
v -28.777817 83.277817 56.500008
v -28.420952 83.516273 -20.499996
v -28.420952 83.516266 56.500008
v -28.000000 83.750000 -21.499998
v -28.000000 81.250008 -21.499998
v -26.918442 83.750000 -21.671299
v -26.918442 81.250008 -21.671299
v -25.942751 83.750000 -22.168436
v -25.942751 81.250008 -22.168436
v -25.168440 83.750000 -22.942749
v -25.168440 81.250008 -22.942749
v -24.671303 83.750000 -23.918438
v -24.671303 81.250008 -23.918438
v -24.500000 83.750000 -24.999996
v -24.500000 81.250008 -24.999996
v -24.671303 83.750000 -26.081556
v -24.671303 81.250008 -26.081556
v -25.168440 83.750000 -27.057245
v -25.168440 81.250008 -27.057245
v -25.942751 83.750000 -27.831558
v -25.942751 81.250008 -27.831558
v -26.918442 83.750000 -28.328695
v -26.918442 81.250008 -28.328695
v -28.000000 83.750000 -28.499996
v -28.000000 81.250008 -28.499996
v -29.081558 83.750000 -28.328695
v -29.081558 81.250008 -28.328695
v -30.057249 83.750000 -27.831558
v -30.057249 81.250008 -27.831558
v -30.831560 83.750000 -27.057245
v -30.831560 81.250008 -27.057245
v -31.328699 83.750000 -26.081556
v -31.328699 81.250008 -26.081556
v -31.500000 83.750000 -24.999996
v -31.500000 81.250008 -24.999996
v -31.328699 83.750000 -23.918438
v -31.328699 81.250008 -23.918438
v -30.831560 83.750000 -22.942749
v -30.831560 81.250008 -22.942749
v -30.057249 83.750000 -22.168436
v -30.057249 81.250008 -22.168436
v -29.081558 83.750000 -21.671299
v -29.081558 81.250008 -21.671299
v 28.000000 47.600002 -20.499998
v 28.000000 47.599998 56.500000
v 28.420952 47.516270 -20.499998
v 28.420952 47.516266 56.500000
v 28.777817 47.277821 -20.499998
v 28.777817 47.277817 56.500000
v 29.016266 46.920956 -20.499998
v 29.016266 46.920948 56.500000
v 29.099998 46.500004 -20.499998
v 29.099998 46.499996 56.500000
v 29.016266 46.079052 -20.499998
v 29.016266 46.079044 56.500000
v 28.777817 45.722183 -20.499998
v 28.777817 45.722179 56.500000
v 28.420952 45.483734 -20.499998
v 28.420952 45.483734 56.500000
v 28.000000 45.400002 -20.499998
v 28.000000 45.400002 56.500000
v 27.579048 45.483734 -20.499998
v 27.579048 45.483734 56.500000
v 27.222183 45.722183 -20.499998
v 27.222183 45.722179 56.500000
v 26.983734 46.079052 -20.499998
v 26.983734 46.079044 56.500000
v 26.900002 46.500004 -20.499998
v 26.900002 46.499996 56.500000
v 26.983734 46.920956 -20.499998
v 26.983734 46.920948 56.500000
v 27.222183 47.277821 -20.499998
v 27.222183 47.277817 56.500000
v 27.579048 47.516270 -20.499998
v 27.579048 47.516266 56.500000
v 28.000000 47.750004 -21.500000
v 28.000000 45.250000 -21.500000
v 29.081562 47.750004 -21.671301
v 29.081562 45.250000 -21.671301
v 30.057249 47.750004 -22.168440
v 30.057249 45.250000 -22.168440
v 30.831560 47.750004 -22.942751
v 30.831560 45.250000 -22.942751
v 31.328699 47.750004 -23.918442
v 31.328699 45.250000 -23.918442
v 31.500002 47.750004 -25.000000
v 31.500002 45.250000 -25.000000
v 31.328699 47.750004 -26.081558
v 31.328699 45.250000 -26.081558
v 30.831560 47.750004 -27.057249
v 30.831560 45.250000 -27.057249
v 30.057249 47.750004 -27.831560
v 30.057249 45.250000 -27.831560
v 29.081562 47.750004 -28.328699
v 29.081562 45.250000 -28.328699
v 28.000000 47.750004 -28.500000
v 28.000000 45.250000 -28.500000
v 26.918438 47.750004 -28.328699
v 26.918438 45.250000 -28.328699
v 25.942751 47.750004 -27.831560
v 25.942751 45.250000 -27.831560
v 25.168440 47.750004 -27.057249
v 25.168440 45.250000 -27.057249
v 24.671301 47.750004 -26.081558
v 24.671301 45.250000 -26.081558
v 24.499998 47.750004 -25.000000
v 24.499998 45.250000 -25.000000
v 24.671301 47.750004 -23.918442
v 24.671301 45.250000 -23.918442
v 25.168440 47.750004 -22.942751
v 25.168440 45.250000 -22.942751
v 25.942751 47.750004 -22.168440
v 25.942751 45.250000 -22.168440
v 26.918438 47.750004 -21.671301
v 26.918438 45.250000 -21.671301
v 28.000000 83.600006 -20.499996
v 28.000000 83.599998 56.500008
v 28.420952 83.516273 -20.499996
v 28.420952 83.516266 56.500008
v 28.777817 83.277824 -20.499996
v 28.777817 83.277817 56.500008
v 29.016266 82.920959 -20.499996
v 29.016266 82.920952 56.500008
v 29.099998 82.500008 -20.499996
v 29.099998 82.500000 56.500008
v 29.016266 82.079056 -20.499996
v 29.016266 82.079048 56.500008
v 28.777817 81.722191 -20.499996
v 28.777817 81.722183 56.500008
v 28.420952 81.483734 -20.499996
v 28.420952 81.483734 56.500008
v 28.000000 81.400002 -20.499996
v 28.000000 81.400002 56.500008
v 27.579048 81.483734 -20.499996
v 27.579048 81.483734 56.500008
v 27.222183 81.722191 -20.499996
v 27.222183 81.722183 56.500008
v 26.983734 82.079056 -20.499996
v 26.983734 82.079048 56.500008
v 26.900002 82.500008 -20.499996
v 26.900002 82.500000 56.500008
v 26.983734 82.920959 -20.499996
v 26.983734 82.920952 56.500008
v 27.222183 83.277824 -20.499996
v 27.222183 83.277817 56.500008
v 27.579048 83.516273 -20.499996
v 27.579048 83.516266 56.500008
v 28.000000 83.750000 -21.499998
v 28.000000 81.250008 -21.499998
v 29.081562 83.750000 -21.671299
v 29.081562 81.250008 -21.671299
v 30.057249 83.750000 -22.168436
v 30.057249 81.250008 -22.168436
v 30.831560 83.750000 -22.942749
v 30.831560 81.250008 -22.942749
v 31.328699 83.750000 -23.918438
v 31.328699 81.250008 -23.918438
v 31.500002 83.750000 -24.999996
v 31.500002 81.250008 -24.999996
v 31.328699 83.750000 -26.081556
v 31.328699 81.250008 -26.081556
v 30.831560 83.750000 -27.057245
v 30.831560 81.250008 -27.057245
v 30.057249 83.750000 -27.831558
v 30.057249 81.250008 -27.831558
v 29.081562 83.750000 -28.328695
v 29.081562 81.250008 -28.328695
v 28.000000 83.750000 -28.499996
v 28.000000 81.250008 -28.499996
v 26.918438 83.750000 -28.328695
v 26.918438 81.250008 -28.328695
v 25.942751 83.750000 -27.831558
v 25.942751 81.250008 -27.831558
v 25.168440 83.750000 -27.057245
v 25.168440 81.250008 -27.057245
v 24.671301 83.750000 -26.081556
v 24.671301 81.250008 -26.081556
v 24.499998 83.750000 -24.999996
v 24.499998 81.250008 -24.999996
v 24.671301 83.750000 -23.918438
v 24.671301 81.250008 -23.918438
v 25.168440 83.750000 -22.942749
v 25.168440 81.250008 -22.942749
v 25.942751 83.750000 -22.168436
v 25.942751 81.250008 -22.168436
v 26.918438 83.750000 -21.671299
v 26.918438 81.250008 -21.671299
v -30.000002 44.500004 -4.099999
v -30.000002 44.500004 -2.899998
v -30.000002 84.500000 -4.099998
v -30.000002 84.500000 -2.899997
v 30.000004 44.500004 -4.099999
v 30.000004 44.500004 -2.899998
v 30.000004 84.500000 -4.099998
v 30.000004 84.500000 -2.899997
v -30.000002 84.300003 -3.499998
v -30.000002 84.300003 0.500004
v -30.000002 84.699997 -3.499998
v -30.000002 84.699997 0.500004
v 30.000004 84.300003 -3.499998
v 30.000004 84.300003 0.500004
v 30.000004 84.699997 -3.499998
v 30.000004 84.699997 0.500004
v -30.000002 44.300003 -3.500000
v -30.000002 44.300003 0.500003
v -30.000002 44.700005 -3.500000
v -30.000002 44.700005 0.500003
v 30.000004 44.300003 -3.500000
v 30.000004 44.300003 0.500003
v 30.000004 44.700005 -3.500000
v 30.000004 44.700005 0.500003
v 29.800001 44.500004 -3.500000
v 29.800001 44.500004 0.500003
v 29.800001 84.500000 -3.499998
v 29.800001 84.500000 0.500004
v 30.200001 44.500004 -3.500000
v 30.200001 44.500004 0.500003
v 30.200001 84.500000 -3.499998
v 30.200001 84.500000 0.500004
v -30.200001 44.500004 -3.500000
v -30.200001 44.500004 0.500003
v -30.200001 84.500000 -3.499998
v -30.200001 84.500000 0.500004
v -29.800001 44.500004 -3.500000
v -29.800001 44.500004 0.500003
v -29.800001 84.500000 -3.499998
v -29.800001 84.500000 0.500004
v -30.000002 44.500000 53.900002
v -30.000002 44.500000 55.099998
v -30.000002 84.500000 53.900002
v -30.000002 84.500000 55.099998
v 30.000004 44.500000 53.900002
v 30.000004 44.500000 55.099998
v 30.000004 84.500000 53.900002
v 30.000004 84.500000 55.099998
v -30.000002 84.300003 54.500008
v -30.000002 84.300003 58.500004
v -30.000002 84.699997 54.500008
v -30.000002 84.699997 58.500004
v 30.000004 84.300003 54.500008
v 30.000004 84.300003 58.500004
v 30.000004 84.699997 54.500008
v 30.000004 84.699997 58.500004
v -30.000002 44.299999 54.500008
v -30.000002 44.299999 58.500004
v -30.000002 44.700001 54.500008
v -30.000002 44.700001 58.500004
v 30.000004 44.299999 54.500008
v 30.000004 44.299999 58.500004
v 30.000004 44.700001 54.500008
v 30.000004 44.700001 58.500004
v 29.800001 44.500000 54.500008
v 29.800001 44.500000 58.500004
v 29.800001 84.500000 54.500008
v 29.800001 84.500000 58.500004
v 30.200001 44.500000 54.500008
v 30.200001 44.500000 58.500004
v 30.200001 84.500000 54.500008
v 30.200001 84.500000 58.500004
v -30.200001 44.500000 54.500008
v -30.200001 44.500000 58.500004
v -30.200001 84.500000 54.500008
v -30.200001 84.500000 58.500004
v -29.800001 44.500000 54.500008
v -29.800001 44.500000 58.500004
v -29.800001 84.500000 54.500008
v -29.800001 84.500000 58.500004
v -33.000000 77.388779 53.196846
v -32.500000 77.255951 53.179359
v -32.133976 76.893059 53.131580
v -32.000004 76.397339 53.066315
v -32.133976 75.901619 53.001057
v -32.500000 75.538719 52.953278
v -33.000000 75.405891 52.935791
v -33.500000 75.538719 52.953278
v -33.866028 75.901619 53.001057
v -34.000000 76.397339 53.066315
v -33.866028 76.893059 53.131580
v -33.500000 77.255951 53.179359
v -33.000000 77.057037 54.864647
v -32.500000 76.927628 54.829971
v -32.133976 76.574074 54.735237
v -32.000004 76.091110 54.605831
v -32.133976 75.608147 54.476418
v -32.500000 75.254593 54.381680
v -33.000000 75.125183 54.347008
v -33.500000 75.254593 54.381680
v -33.866028 75.608147 54.476418
v -34.000000 76.091110 54.605831
v -33.866028 76.574074 54.735237
v -33.500000 76.927628 54.829971
v -33.000000 76.510429 56.474888
v -32.500000 76.386658 56.423615
v -32.133976 76.048492 56.283546
v -32.000004 75.586548 56.092201
v -32.133976 75.124611 55.900860
v -32.500000 74.786446 55.760788
v -33.000000 74.662674 55.709518
v -33.500000 74.786446 55.760788
v -33.866028 75.124611 55.900860
v -34.000004 75.586548 56.092201
v -33.866028 76.048492 56.283546
v -33.500000 76.386658 56.423615
v -33.000000 75.758324 58.000000
v -32.500000 75.642303 57.933010
v -32.133976 75.325317 57.750000
v -32.000004 74.892303 57.500000
v -32.133976 74.459290 57.250000
v -32.500000 74.142303 57.066990
v -33.000000 74.026276 57.000000
v -33.500000 74.142303 57.066990
v -33.866028 74.459290 57.250000
v -34.000004 74.892303 57.500000
v -33.866028 75.325317 57.750000
v -33.500000 75.642303 57.933010
v -33.000000 74.813591 59.413898
v -32.500000 74.707306 59.332340
v -32.133976 74.416908 59.109520
v -32.000004 74.020233 58.805138
v -32.133976 73.623566 58.500755
v -32.500000 73.333176 58.277935
v -33.000000 73.226883 58.196377
v -33.500000 73.333176 58.277935
v -33.866028 73.623566 58.500755
v -34.000004 74.020233 58.805138
v -33.866028 74.416908 59.109520
v -33.500000 74.707306 59.332340
v -33.000000 73.692383 60.692394
v -32.500000 73.597649 60.597656
v -32.133976 73.338829 60.338837
v -32.000004 72.985283 59.985287
v -32.133976 72.631721 59.631729
v -32.500000 72.372902 59.372913
v -33.000000 72.278175 59.278179
v -33.500000 72.372902 59.372913
v -33.866028 72.631721 59.631729
v -34.000004 72.985283 59.985287
v -33.866028 73.338829 60.338837
v -33.500000 73.597649 60.597656
v -33.000000 72.413895 61.813591
v -32.500000 72.332336 61.707306
v -32.133976 72.109512 61.416920
v -32.000004 71.805130 61.020245
v -32.133976 71.500755 60.623562
v -32.500000 71.277931 60.333179
v -33.000000 71.196381 60.226887
v -33.500000 71.277931 60.333179
v -33.866028 71.500755 60.623562
v -34.000004 71.805130 61.020245
v -33.866028 72.109512 61.416920
v -33.500000 72.332336 61.707306
v -33.000000 71.000000 62.758327
v -32.500000 70.933014 62.642300
v -32.133976 70.750008 62.325317
v -32.000004 70.500008 61.892307
v -32.133976 70.250000 61.459290
v -32.500000 70.066986 61.142303
v -33.000000 70.000008 61.026279
v -33.500000 70.066986 61.142303
v -33.866028 70.250000 61.459290
v -34.000004 70.500008 61.892307
v -33.866028 70.750008 62.325317
v -33.500004 70.933014 62.642300
v -33.000000 69.474884 63.510437
v -32.500000 69.423615 63.386654
v -32.133976 69.283546 63.048492
v -32.000004 69.092201 62.586559
v -32.133976 68.900856 62.124615
v -32.500000 68.760788 61.786449
v -33.000000 68.709518 61.662674
v -33.500000 68.760788 61.786449
v -33.866028 68.900856 62.124615
v -34.000004 69.092201 62.586559
v -33.866028 69.283546 63.048492
v -33.500004 69.423615 63.386654
v -33.000000 67.864647 64.057037
v -32.500000 67.829971 63.927628
v -32.133976 67.735237 63.574074
v -32.000004 67.605827 63.091110
v -32.133976 67.476418 62.608147
v -32.500000 67.381683 62.254597
v -33.000000 67.347008 62.125183
v -33.500000 67.381683 62.254597
v -33.866028 67.476418 62.608147
v -34.000004 67.605827 63.091110
v -33.866028 67.735237 63.574074
v -33.500004 67.829971 63.927628
v -33.000000 66.196838 64.388779
v -32.500000 66.179352 64.255951
v -32.133976 66.131577 63.893063
v -32.000004 66.066315 63.397335
v -32.133976 66.001053 62.901615
v -32.500000 65.953278 62.538719
v -33.000000 65.935791 62.405895
v -33.500004 65.953278 62.538719
v -33.866028 66.001053 62.901615
v -34.000004 66.066315 63.397335
v -33.866028 66.131577 63.893063
v -33.500004 66.179352 64.255951
v -33.000000 64.500000 64.500000
v -32.500000 64.500000 64.366028
v -32.133976 64.500000 64.000000
v -32.000004 64.500000 63.500000
v -32.133976 64.500000 63.000000
v -32.500000 64.500000 62.633980
v -33.000000 64.500000 62.500000
v -33.500004 64.500000 62.633980
v -33.866028 64.500000 63.000000
v -34.000004 64.500000 63.500000
v -33.866028 64.500000 64.000000
v -33.500004 64.500000 64.366028
v -33.000000 62.803154 64.388779
v -32.500000 62.820644 64.255951
v -32.133976 62.868423 63.893063
v -32.000004 62.933685 63.397335
v -32.133976 62.998951 62.901615
v -32.500000 63.046722 62.538719
v -33.000000 63.064213 62.405895
v -33.500004 63.046722 62.538719
v -33.866028 62.998951 62.901615
v -34.000004 62.933685 63.397335
v -33.866028 62.868423 63.893063
v -33.500004 62.820644 64.255951
v -33.000000 61.135353 64.057037
v -32.500000 61.170029 63.927628
v -32.133976 61.264767 63.574074
v -32.000004 61.394173 63.091110
v -32.133976 61.523582 62.608147
v -32.500000 61.618317 62.254597
v -33.000000 61.652992 62.125183
v -33.500000 61.618317 62.254597
v -33.866028 61.523582 62.608147
v -34.000004 61.394173 63.091110
v -33.866028 61.264767 63.574074
v -33.500004 61.170029 63.927628
v -33.000000 59.525120 63.510437
v -32.500000 59.576393 63.386662
v -32.133976 59.716461 63.048492
v -32.000004 59.907806 62.586559
v -32.133976 60.099144 62.124615
v -32.500000 60.239220 61.786453
v -33.000000 60.290485 61.662674
v -33.500000 60.239220 61.786453
v -33.866028 60.099144 62.124615
v -34.000004 59.907806 62.586559
v -33.866028 59.716461 63.048492
v -33.500004 59.576393 63.386662
v -33.000000 58.000004 62.758331
v -32.500000 58.066986 62.642307
v -32.133976 58.250000 62.325321
v -32.000004 58.500004 61.892307
v -32.133976 58.750004 61.459290
v -32.500000 58.933014 61.142307
v -33.000000 59.000004 61.026279
v -33.500000 58.933014 61.142307
v -33.866028 58.750004 61.459290
v -34.000004 58.500004 61.892307
v -33.866028 58.250000 62.325321
v -33.500004 58.066986 62.642307
v -33.000000 56.586098 61.813591
v -32.500000 56.667664 61.707306
v -32.133976 56.890480 61.416920
v -32.000004 57.194866 61.020245
v -32.133976 57.499241 60.623562
v -32.500000 57.722069 60.333179
v -33.000000 57.803623 60.226887
v -33.500000 57.722069 60.333179
v -33.866028 57.499241 60.623562
v -34.000004 57.194866 61.020245
v -33.866028 56.890480 61.416920
v -33.500000 56.667664 61.707306
v -33.000000 55.307613 60.692394
v -32.500000 55.402351 60.597656
v -32.133976 55.661167 60.338837
v -32.000004 56.014721 59.985287
v -32.133976 56.368275 59.631729
v -32.500000 56.627094 59.372913
v -33.000000 56.721832 59.278179
v -33.500000 56.627094 59.372913
v -33.866028 56.368275 59.631729
v -34.000004 56.014721 59.985287
v -33.866028 55.661167 60.338837
v -33.500000 55.402351 60.597656
v -33.000000 54.186409 59.413902
v -32.500000 54.292702 59.332348
v -32.133976 54.583084 59.109520
v -32.000004 54.979767 58.805145
v -32.133976 55.376442 58.500759
v -32.500000 55.666828 58.277939
v -33.000000 55.773117 58.196377
v -33.500000 55.666828 58.277939
v -33.866028 55.376442 58.500759
v -34.000004 54.979767 58.805145
v -33.866028 54.583084 59.109520
v -33.500000 54.292702 59.332348
v -33.000000 53.241669 58.000000
v -32.500000 53.357697 57.933010
v -32.133976 53.674679 57.750000
v -32.000004 54.107697 57.500000
v -32.133976 54.540707 57.250000
v -32.500000 54.857697 57.066990
v -33.000000 54.973721 57.000000
v -33.500000 54.857697 57.066990
v -33.866028 54.540707 57.250000
v -34.000004 54.107697 57.500000
v -33.866028 53.674679 57.750000
v -33.500000 53.357697 57.933010
v -33.000000 52.489567 56.474888
v -32.500000 52.613342 56.423615
v -32.133976 52.951504 56.283546
v -32.000004 53.413445 56.092201
v -32.133976 53.875385 55.900860
v -32.500000 54.213547 55.760788
v -33.000000 54.337322 55.709518
v -33.500000 54.213547 55.760788
v -33.866028 53.875385 55.900860
v -34.000004 53.413445 56.092201
v -33.866028 52.951504 56.283546
v -33.500000 52.613342 56.423615
v -33.000000 51.942970 54.864658
v -32.500000 52.072376 54.829979
v -32.133976 52.425926 54.735245
v -32.000004 52.908890 54.605831
v -32.133976 53.391857 54.476429
v -32.500000 53.745407 54.381691
v -33.000000 53.874813 54.347015
v -33.500000 53.745407 54.381691
v -33.866028 53.391857 54.476429
v -34.000000 52.908890 54.605831
v -33.866028 52.425926 54.735245
v -33.500000 52.072376 54.829979
v -33.000000 51.611221 53.196846
v -32.500000 51.744045 53.179359
v -32.133976 52.106941 53.131588
v -32.000004 52.602661 53.066326
v -32.133976 53.098385 53.001057
v -32.500000 53.461277 52.953285
v -33.000000 53.594105 52.935799
v -33.500000 53.461277 52.953285
v -33.866028 53.098385 53.001057
v -34.000000 52.602661 53.066326
v -33.866028 52.106941 53.131588
v -33.500000 51.744045 53.179359
vn 0.1951 0.9808 -0.0000
vn 0.5556 0.8315 -0.0000
vn 0.8315 0.5556 -0.0000
vn 0.9808 0.1951 -0.0000
vn 0.9808 -0.1951 -0.0000
vn 0.8315 -0.5556 -0.0000
vn 0.5556 -0.8315 -0.0000
vn 0.1951 -0.9808 -0.0000
vn -0.1951 -0.9808 -0.0000
vn -0.5556 -0.8315 -0.0000
vn -0.8315 -0.5556 -0.0000
vn -0.9808 -0.1951 -0.0000
vn -0.9808 0.1951 -0.0000
vn -0.8315 0.5556 -0.0000
vn -0.0000 -0.0000 1.0000
vn -0.5556 0.8315 -0.0000
vn -0.1951 0.9808 -0.0000
vn -0.0000 -0.0000 -1.0000
vn 0.1564 -0.0000 0.9877
vn 0.4540 -0.0000 0.8910
vn 0.7071 -0.0000 0.7071
vn 0.8910 -0.0000 0.4540
vn 0.9877 -0.0000 0.1564
vn 0.9877 -0.0000 -0.1564
vn 0.8910 -0.0000 -0.4540
vn 0.7071 -0.0000 -0.7071
vn 0.4540 -0.0000 -0.8910
vn 0.1564 -0.0000 -0.9877
vn -0.1564 -0.0000 -0.9877
vn -0.4540 -0.0000 -0.8910
vn -0.7071 -0.0000 -0.7071
vn -0.8910 -0.0000 -0.4540
vn -0.9877 -0.0000 -0.1564
vn -0.9877 -0.0000 0.1564
vn -0.8910 -0.0000 0.4540
vn -0.7071 -0.0000 0.7071
vn -0.0000 -1.0000 -0.0000
vn -0.4540 -0.0000 0.8910
vn -0.1564 -0.0000 0.9877
vn -0.0000 1.0000 -0.0000
vn -1.0000 -0.0000 -0.0000
vn 1.0000 -0.0000 -0.0000
vn 0.2583 0.9475 0.1885
vn 0.7064 0.6943 0.1381
vn 0.9658 0.2544 0.0506
vn 0.9658 -0.2544 -0.0506
vn 0.7063 -0.6943 -0.1381
vn 0.2583 -0.9475 -0.1885
vn -0.2583 -0.9475 -0.1885
vn -0.7063 -0.6943 -0.1381
vn -0.9658 -0.2544 -0.0506
vn -0.9658 0.2544 0.0506
vn -0.7064 0.6943 0.1381
vn -0.2583 0.9475 0.1885
vn 0.2583 0.9148 0.3105
vn 0.7063 0.6703 0.2275
vn 0.9658 0.2456 0.0834
vn 0.9658 -0.2456 -0.0834
vn 0.7063 -0.6703 -0.2275
vn 0.2583 -0.9148 -0.3105
vn -0.2583 -0.9148 -0.3105
vn -0.7063 -0.6703 -0.2275
vn -0.9658 -0.2456 -0.0834
vn -0.9658 0.2456 0.0834
vn -0.7063 0.6703 0.2275
vn -0.2583 0.9148 0.3105
vn 0.2583 0.8664 0.4273
vn 0.7063 0.6349 0.3131
vn 0.9658 0.2326 0.1147
vn 0.9658 -0.2326 -0.1147
vn 0.7063 -0.6349 -0.3131
vn 0.2583 -0.8664 -0.4273
vn -0.2583 -0.8664 -0.4273
vn -0.7063 -0.6349 -0.3131
vn -0.9658 -0.2326 -0.1147
vn -0.9658 0.2326 0.1147
vn -0.7063 0.6349 0.3131
vn -0.2583 0.8664 0.4273
vn 0.2583 0.8033 0.5367
vn 0.7063 0.5886 0.3933
vn 0.9658 0.2156 0.1441
vn 0.9658 -0.2156 -0.1441
vn 0.7063 -0.5886 -0.3933
vn 0.2583 -0.8033 -0.5367
vn -0.2583 -0.8033 -0.5367
vn -0.7063 -0.5886 -0.3933
vn -0.9658 -0.2156 -0.1441
vn -0.9658 0.2156 0.1441
vn -0.7063 0.5886 0.3933
vn -0.2583 0.8033 0.5367
vn 0.2583 0.7263 0.6370
vn 0.7063 0.5322 0.4667
vn 0.9658 0.1950 0.1710
vn 0.9658 -0.1950 -0.1710
vn 0.7063 -0.5322 -0.4667
vn 0.2583 -0.7263 -0.6370
vn -0.2583 -0.7263 -0.6370
vn -0.7063 -0.5322 -0.4667
vn -0.9658 -0.1950 -0.1710
vn -0.9658 0.1950 0.1710
vn -0.7063 0.5322 0.4667
vn -0.2583 0.7263 0.6370
vn 0.2583 0.6370 0.7263
vn 0.7063 0.4667 0.5322
vn 0.9658 0.1710 0.1950
vn 0.9658 -0.1710 -0.1950
vn 0.7063 -0.4667 -0.5322
vn 0.2583 -0.6370 -0.7263
vn -0.2583 -0.6370 -0.7263
vn -0.7063 -0.4667 -0.5322
vn -0.9658 -0.1710 -0.1950
vn -0.9658 0.1710 0.1950
vn -0.7063 0.4667 0.5322
vn -0.2583 0.6370 0.7263
vn 0.2583 0.5367 0.8033
vn 0.7063 0.3933 0.5886
vn 0.9658 0.1441 0.2156
vn 0.9658 -0.1441 -0.2156
vn 0.7064 -0.3933 -0.5886
vn 0.2583 -0.5367 -0.8033
vn -0.2583 -0.5367 -0.8033
vn -0.7063 -0.3933 -0.5886
vn -0.9658 -0.1441 -0.2156
vn -0.9658 0.1441 0.2156
vn -0.7063 0.3933 0.5886
vn -0.2583 0.5367 0.8033
vn 0.2583 0.4273 0.8664
vn 0.7063 0.3131 0.6349
vn 0.9658 0.1147 0.2326
vn 0.9658 -0.1147 -0.2326
vn 0.7063 -0.3131 -0.6349
vn 0.2583 -0.4273 -0.8664
vn -0.2583 -0.4273 -0.8664
vn -0.7063 -0.3131 -0.6349
vn -0.9658 -0.1147 -0.2326
vn -0.9658 0.1147 0.2326
vn -0.7063 0.3131 0.6349
vn -0.2583 0.4273 0.8664
vn 0.2583 0.3105 0.9148
vn 0.7063 0.2275 0.6703
vn 0.9658 0.0834 0.2456
vn 0.9658 -0.0834 -0.2456
vn 0.7063 -0.2275 -0.6703
vn 0.2583 -0.3105 -0.9148
vn -0.2583 -0.3105 -0.9148
vn -0.7063 -0.2275 -0.6703
vn -0.9658 -0.0834 -0.2456
vn -0.9658 0.0834 0.2456
vn -0.7064 0.2275 0.6703
vn -0.2583 0.3105 0.9148
vn 0.2583 0.1885 0.9475
vn 0.7063 0.1381 0.6943
vn 0.9658 0.0506 0.2544
vn 0.9658 -0.0506 -0.2544
vn 0.7063 -0.1381 -0.6943
vn 0.2583 -0.1885 -0.9475
vn -0.2583 -0.1885 -0.9475
vn -0.7064 -0.1381 -0.6943
vn -0.9658 -0.0506 -0.2544
vn -0.9658 0.0506 0.2544
vn -0.7064 0.1381 0.6943
vn -0.2583 0.1885 0.9475
vn 0.2583 0.0632 0.9640
vn 0.7063 0.0463 0.7064
vn 0.9658 0.0170 0.2588
vn 0.9658 -0.0170 -0.2588
vn 0.7063 -0.0463 -0.7064
vn 0.2583 -0.0632 -0.9640
vn -0.2583 -0.0632 -0.9640
vn -0.7064 -0.0463 -0.7063
vn -0.9658 -0.0170 -0.2588
vn -0.9658 0.0170 0.2588
vn -0.7063 0.0463 0.7063
vn -0.2583 0.0632 0.9640
vn 0.2583 -0.0632 0.9640
vn 0.7063 -0.0463 0.7063
vn 0.9658 -0.0170 0.2588
vn 0.9658 0.0170 -0.2588
vn 0.7063 0.0463 -0.7064
vn 0.2583 0.0632 -0.9640
vn -0.2583 0.0632 -0.9640
vn -0.7064 0.0463 -0.7063
vn -0.9658 0.0170 -0.2588
vn -0.9658 -0.0170 0.2588
vn -0.7063 -0.0463 0.7063
vn -0.2583 -0.0632 0.9640
vn 0.2583 -0.1885 0.9475
vn 0.7063 -0.1381 0.6943
vn 0.9658 -0.0506 0.2544
vn 0.9658 0.0506 -0.2544
vn 0.7063 0.1381 -0.6943
vn 0.2583 0.1885 -0.9475
vn -0.2583 0.1885 -0.9475
vn -0.7064 0.1381 -0.6943
vn -0.9658 0.0506 -0.2544
vn -0.9658 -0.0506 0.2544
vn -0.7063 -0.1381 0.6943
vn -0.2583 -0.1885 0.9475
vn 0.2583 -0.3105 0.9148
vn 0.7064 -0.2275 0.6703
vn 0.9658 -0.0834 0.2456
vn 0.9658 0.0834 -0.2456
vn 0.7063 0.2275 -0.6703
vn 0.2583 0.3105 -0.9148
vn -0.2583 0.3105 -0.9148
vn -0.7063 0.2275 -0.6703
vn -0.9658 0.0834 -0.2456
vn -0.9658 -0.0834 0.2456
vn -0.7064 -0.2275 0.6703
vn -0.2583 -0.3105 0.9148
vn 0.2583 -0.4273 0.8664
vn 0.7063 -0.3131 0.6349
vn 0.9658 -0.1147 0.2326
vn 0.9658 0.1147 -0.2326
vn 0.7063 0.3131 -0.6349
vn 0.2583 0.4273 -0.8664
vn -0.2583 0.4273 -0.8664
vn -0.7064 0.3131 -0.6349
vn -0.9658 0.1147 -0.2326
vn -0.9658 -0.1147 0.2326
vn -0.7064 -0.3131 0.6349
vn -0.2583 -0.4273 0.8664
vn 0.2583 -0.5367 0.8033
vn 0.7063 -0.3933 0.5886
vn 0.9658 -0.1441 0.2156
vn 0.9658 0.1441 -0.2156
vn 0.7063 0.3933 -0.5886
vn 0.2583 0.5367 -0.8033
vn -0.2583 0.5367 -0.8033
vn -0.7063 0.3933 -0.5886
vn -0.9658 0.1441 -0.2156
vn -0.9658 -0.1441 0.2156
vn -0.7064 -0.3933 0.5886
vn -0.2583 -0.5367 0.8033
vn 0.2583 -0.6370 0.7263
vn 0.7063 -0.4667 0.5322
vn 0.9658 -0.1710 0.1950
vn 0.9658 0.1710 -0.1950
vn 0.7063 0.4667 -0.5322
vn 0.2583 0.6370 -0.7263
vn -0.2583 0.6370 -0.7263
vn -0.7063 0.4667 -0.5322
vn -0.9658 0.1710 -0.1950
vn -0.9658 -0.1710 0.1950
vn -0.7063 -0.4667 0.5322
vn -0.2583 -0.6370 0.7263
vn 0.2583 -0.7263 0.6370
vn 0.7063 -0.5322 0.4667
vn 0.9658 -0.1950 0.1710
vn 0.9658 0.1950 -0.1710
vn 0.7063 0.5322 -0.4667
vn 0.2583 0.7263 -0.6370
vn -0.2583 0.7263 -0.6370
vn -0.7063 0.5322 -0.4667
vn -0.9658 0.1950 -0.1710
vn -0.9658 -0.1950 0.1710
vn -0.7063 -0.5322 0.4667
vn -0.2583 -0.7263 0.6370
vn 0.2583 -0.8033 0.5367
vn 0.7063 -0.5886 0.3933
vn 0.9658 -0.2156 0.1441
vn 0.9658 0.2156 -0.1441
vn 0.7063 0.5886 -0.3933
vn 0.2583 0.8033 -0.5367
vn -0.2583 0.8033 -0.5367
vn -0.7063 0.5886 -0.3933
vn -0.9658 0.2156 -0.1441
vn -0.9658 -0.2156 0.1441
vn -0.7063 -0.5886 0.3933
vn -0.2583 -0.8033 0.5367
vn 0.2583 -0.8664 0.4273
vn 0.7063 -0.6349 0.3131
vn 0.9658 -0.2326 0.1147
vn 0.9658 0.2326 -0.1147
vn 0.7063 0.6349 -0.3131
vn 0.2583 0.8664 -0.4273
vn -0.2583 0.8664 -0.4273
vn -0.7063 0.6349 -0.3131
vn -0.9658 0.2326 -0.1147
vn -0.9658 -0.2326 0.1147
vn -0.7063 -0.6349 0.3131
vn -0.2583 -0.8664 0.4273
vn 0.2583 -0.9148 0.3105
vn 0.7064 -0.6703 0.2275
vn 0.9658 -0.2456 0.0834
vn 0.9658 0.2456 -0.0834
vn 0.7064 0.6703 -0.2275
vn 0.2583 0.9148 -0.3105
vn -0.2583 0.9148 -0.3105
vn -0.7064 0.6703 -0.2275
vn -0.9658 0.2456 -0.0834
vn -0.9658 -0.2456 0.0834
vn -0.7064 -0.6703 0.2275
vn -0.2583 -0.9148 0.3105
vn 0.2583 -0.9475 0.1885
vn 0.7063 -0.6943 0.1381
vn 0.9658 -0.2544 0.0506
vn 0.9658 0.2544 -0.0506
vn 0.7063 0.6943 -0.1381
vn 0.2583 0.9475 -0.1885
vn -0.2583 0.9475 -0.1885
vn -0.7063 0.6943 -0.1381
vn -0.9658 0.2543 -0.0506
vn -0.9658 -0.2544 0.0506
vn -0.7063 -0.6943 0.1381
vn -0.2583 -0.9475 0.1885
vt 0.567782 0.796785
vt 0.567782 0.357924
vt 0.570181 0.357924
vt 0.570181 0.796785
vt 0.572215 0.357924
vt 0.572215 0.796785
vt 0.543846 0.796785
vt 0.543846 0.357924
vt 0.545880 0.357924
vt 0.545880 0.796785
vt 0.548280 0.357924
vt 0.548280 0.796785
vt 0.550679 0.357924
vt 0.550679 0.796785
vt 0.552713 0.357924
vt 0.552713 0.796785
vt 0.524344 0.796785
vt 0.524344 0.357924
vt 0.526378 0.357924
vt 0.526378 0.796785
vt 0.528777 0.357924
vt 0.528777 0.796785
vt 0.531177 0.357924
vt 0.531177 0.796785
vt 0.533211 0.357924
vt 0.533211 0.796785
vt 0.691340 0.796785
vt 0.691340 0.357924
vt 0.693374 0.357924
vt 0.693374 0.796785
vt 0.695773 0.357924
vt 0.695773 0.796785
vt 0.698172 0.357924
vt 0.698172 0.796785
vt 0.700206 0.357924
vt 0.700206 0.796785
vt 0.756366 0.341121
vt 0.754637 0.339391
vt 0.753701 0.337131
vt 0.753701 0.334685
vt 0.754637 0.332425
vt 0.756366 0.330695
vt 0.758627 0.329759
vt 0.761073 0.329759
vt 0.763333 0.330695
vt 0.765063 0.332425
vt 0.765999 0.334685
vt 0.765999 0.337131
vt 0.765063 0.339391
vt 0.763333 0.341121
vt 0.761073 0.342057
vt 0.758627 0.342057
vt 0.563349 0.796785
vt 0.563349 0.357924
vt 0.565382 0.357924
vt 0.565382 0.796785
vt 0.777570 0.339391
vt 0.776634 0.337131
vt 0.776634 0.334685
vt 0.777570 0.332425
vt 0.779300 0.330695
vt 0.781560 0.329759
vt 0.784006 0.329759
vt 0.786266 0.330695
vt 0.787996 0.332425
vt 0.788932 0.334685
vt 0.788932 0.337131
vt 0.787996 0.339391
vt 0.786266 0.341121
vt 0.784006 0.342057
vt 0.781560 0.342057
vt 0.779300 0.341121
vt 0.325001 0.772296
vt 0.310752 0.772296
vt 0.310752 0.766131
vt 0.325001 0.766131
vt 0.310752 0.760570
vt 0.325001 0.760570
vt 0.582851 0.710529
vt 0.597099 0.710529
vt 0.597099 0.714942
vt 0.582851 0.714942
vt 0.597099 0.720503
vt 0.582851 0.720503
vt 0.597099 0.726668
vt 0.582851 0.726668
vt 0.597099 0.732832
vt 0.582851 0.732832
vt 0.597099 0.738393
vt 0.582851 0.738393
vt 0.597099 0.742806
vt 0.582851 0.742806
vt 0.349885 0.784021
vt 0.335636 0.784021
vt 0.335636 0.778460
vt 0.349885 0.778460
vt 0.335636 0.772296
vt 0.349885 0.772296
vt 0.335636 0.766131
vt 0.349885 0.766131
vt 0.335636 0.760570
vt 0.349885 0.760570
vt 0.767949 0.276210
vt 0.753701 0.276210
vt 0.753701 0.271797
vt 0.767949 0.271797
vt 0.753701 0.266236
vt 0.767949 0.266236
vt 0.753701 0.260072
vt 0.767949 0.260072
vt 0.753701 0.253908
vt 0.767949 0.253908
vt 0.753701 0.248347
vt 0.767949 0.248347
vt 0.753701 0.243934
vt 0.767949 0.243934
vt 0.331451 0.721176
vt 0.333380 0.727111
vt 0.333380 0.733353
vt 0.331451 0.739288
vt 0.327783 0.744337
vt 0.322734 0.748006
vt 0.316798 0.749935
vt 0.310557 0.749935
vt 0.304621 0.748006
vt 0.299572 0.744337
vt 0.295903 0.739288
vt 0.293975 0.733352
vt 0.293975 0.727111
vt 0.295903 0.721176
vt 0.299572 0.716126
vt 0.304621 0.712458
vt 0.310557 0.710529
vt 0.316798 0.710529
vt 0.322734 0.712458
vt 0.327783 0.716126
vt 0.325001 0.784021
vt 0.310752 0.784021
vt 0.310752 0.778460
vt 0.325001 0.778460
vt 0.383421 0.727111
vt 0.383421 0.733352
vt 0.381492 0.739288
vt 0.377824 0.744337
vt 0.372775 0.748006
vt 0.366839 0.749934
vt 0.360598 0.749934
vt 0.354662 0.748006
vt 0.349613 0.744337
vt 0.345944 0.739288
vt 0.344016 0.733352
vt 0.344016 0.727111
vt 0.345944 0.721175
vt 0.349613 0.716126
vt 0.354662 0.712458
vt 0.360598 0.710529
vt 0.366839 0.710529
vt 0.372775 0.712458
vt 0.377824 0.716126
vt 0.381492 0.721176
vt 0.715275 0.796785
vt 0.715275 0.357924
vt 0.717674 0.357924
vt 0.717674 0.796785
vt 0.719708 0.357924
vt 0.719708 0.796785
vt 0.788850 0.796785
vt 0.788850 0.357924
vt 0.790884 0.357924
vt 0.790884 0.796785
vt 0.793283 0.357924
vt 0.793283 0.796785
vt 0.795683 0.357924
vt 0.795683 0.796785
vt 0.797717 0.357924
vt 0.797717 0.796785
vt 0.730344 0.796785
vt 0.730344 0.357924
vt 0.732378 0.357924
vt 0.732378 0.796785
vt 0.734777 0.357924
vt 0.734777 0.796785
vt 0.737176 0.357924
vt 0.737176 0.796785
vt 0.739210 0.357924
vt 0.739210 0.796785
vt 0.808352 0.796785
vt 0.808352 0.357924
vt 0.810386 0.357924
vt 0.810386 0.796785
vt 0.812786 0.357924
vt 0.812786 0.796785
vt 0.815185 0.357924
vt 0.815185 0.796785
vt 0.817219 0.357924
vt 0.817219 0.796785
vt 0.313418 0.806018
vt 0.311688 0.804289
vt 0.310752 0.802029
vt 0.310752 0.799582
vt 0.311688 0.797322
vt 0.313418 0.795593
vt 0.315678 0.794657
vt 0.318124 0.794657
vt 0.320384 0.795593
vt 0.322114 0.797322
vt 0.323050 0.799582
vt 0.323050 0.802029
vt 0.322114 0.804289
vt 0.320384 0.806018
vt 0.318124 0.806955
vt 0.315678 0.806955
vt 0.710842 0.796785
vt 0.710842 0.357924
vt 0.712876 0.357924
vt 0.712876 0.796785
vt 0.334622 0.804289
vt 0.333686 0.802029
vt 0.333686 0.799582
vt 0.334622 0.797322
vt 0.336351 0.795593
vt 0.338611 0.794657
vt 0.341058 0.794657
vt 0.343318 0.795593
vt 0.345047 0.797322
vt 0.345984 0.799582
vt 0.345984 0.802029
vt 0.345047 0.804289
vt 0.343318 0.806018
vt 0.341058 0.806955
vt 0.338611 0.806955
vt 0.336351 0.806018
vt 0.399654 0.772296
vt 0.385405 0.772296
vt 0.385405 0.766131
vt 0.399654 0.766131
vt 0.385405 0.760570
vt 0.399654 0.760570
vt 0.582851 0.753442
vt 0.597099 0.753442
vt 0.597099 0.757855
vt 0.582851 0.757855
vt 0.597099 0.763416
vt 0.582851 0.763416
vt 0.597099 0.769580
vt 0.582851 0.769580
vt 0.597099 0.775745
vt 0.582851 0.775745
vt 0.597099 0.781306
vt 0.582851 0.781306
vt 0.597099 0.785719
vt 0.582851 0.785719
vt 0.424539 0.784021
vt 0.410290 0.784021
vt 0.410290 0.778460
vt 0.424539 0.778460
vt 0.410290 0.772296
vt 0.424539 0.772296
vt 0.410290 0.766131
vt 0.424539 0.766131
vt 0.410290 0.760570
vt 0.424539 0.760570
vt 0.792834 0.276210
vt 0.778585 0.276210
vt 0.778585 0.271797
vt 0.792834 0.271797
vt 0.778585 0.266236
vt 0.792834 0.266236
vt 0.778585 0.260072
vt 0.792834 0.260072
vt 0.778585 0.253908
vt 0.792834 0.253908
vt 0.778585 0.248347
vt 0.792834 0.248347
vt 0.778585 0.243934
vt 0.792834 0.243934
vt 0.431533 0.721176
vt 0.433462 0.727111
vt 0.433462 0.733352
vt 0.431533 0.739288
vt 0.427865 0.744337
vt 0.422816 0.748006
vt 0.416880 0.749934
vt 0.410639 0.749934
vt 0.404703 0.748006
vt 0.399654 0.744337
vt 0.395985 0.739288
vt 0.394057 0.733352
vt 0.394057 0.727111
vt 0.395985 0.721176
vt 0.399654 0.716126
vt 0.404703 0.712458
vt 0.410639 0.710529
vt 0.416880 0.710529
vt 0.422816 0.712458
vt 0.427865 0.716126
vt 0.399654 0.784021
vt 0.385405 0.784021
vt 0.385405 0.778460
vt 0.399654 0.778460
vt 0.483503 0.727111
vt 0.483503 0.733352
vt 0.481575 0.739288
vt 0.477906 0.744337
vt 0.472857 0.748006
vt 0.466921 0.749934
vt 0.460680 0.749934
vt 0.454744 0.748006
vt 0.449695 0.744337
vt 0.446026 0.739288
vt 0.444098 0.733352
vt 0.444098 0.727111
vt 0.446027 0.721175
vt 0.449695 0.716126
vt 0.454744 0.712458
vt 0.460680 0.710529
vt 0.466921 0.710529
vt 0.472857 0.712458
vt 0.477906 0.716126
vt 0.481575 0.721176
vt 0.832288 0.796785
vt 0.832288 0.357924
vt 0.834687 0.357924
vt 0.834687 0.796785
vt 0.836721 0.357924
vt 0.836721 0.796785
vt 0.749846 0.796785
vt 0.749846 0.357924
vt 0.751880 0.357924
vt 0.751880 0.796785
vt 0.754279 0.357924
vt 0.754279 0.796785
vt 0.756678 0.357924
vt 0.756678 0.796785
vt 0.758712 0.357924
vt 0.758712 0.796785
vt 0.847357 0.796785
vt 0.847357 0.357924
vt 0.849391 0.357924
vt 0.849391 0.796785
vt 0.851790 0.357924
vt 0.851790 0.796785
vt 0.854189 0.357924
vt 0.854189 0.796785
vt 0.856223 0.357924
vt 0.856223 0.796785
vt 0.769348 0.796785
vt 0.769348 0.357924
vt 0.771382 0.357924
vt 0.771382 0.796785
vt 0.773781 0.357924
vt 0.773781 0.796785
vt 0.776181 0.357924
vt 0.776181 0.796785
vt 0.778215 0.357924
vt 0.778215 0.796785
vt 0.366251 0.806018
vt 0.363991 0.806954
vt 0.361545 0.806954
vt 0.359285 0.806018
vt 0.357555 0.804289
vt 0.356619 0.802029
vt 0.356619 0.799582
vt 0.357555 0.797322
vt 0.359285 0.795593
vt 0.361545 0.794657
vt 0.363991 0.794657
vt 0.366251 0.795593
vt 0.367981 0.797322
vt 0.368917 0.799582
vt 0.368917 0.802029
vt 0.367981 0.804289
vt 0.827854 0.796785
vt 0.827854 0.357924
vt 0.829888 0.357924
vt 0.829888 0.796785
vt 0.417662 0.806955
vt 0.415216 0.806955
vt 0.412956 0.806018
vt 0.411226 0.804289
vt 0.410290 0.802029
vt 0.410290 0.799582
vt 0.411226 0.797322
vt 0.412956 0.795593
vt 0.415216 0.794657
vt 0.417662 0.794657
vt 0.419922 0.795593
vt 0.421652 0.797322
vt 0.422588 0.799582
vt 0.422588 0.802029
vt 0.421652 0.804289
vt 0.419922 0.806018
vt 0.767949 0.302985
vt 0.753701 0.302985
vt 0.753701 0.296820
vt 0.767949 0.296820
vt 0.753701 0.291259
vt 0.767949 0.291259
vt 0.753701 0.286846
vt 0.767949 0.286846
vt 0.360521 0.760570
vt 0.374770 0.760570
vt 0.374770 0.766131
vt 0.360521 0.766131
vt 0.374770 0.772295
vt 0.360521 0.772295
vt 0.374770 0.778460
vt 0.360521 0.778460
vt 0.374770 0.784021
vt 0.360521 0.784021
vt 0.192792 0.788434
vt 0.178543 0.788434
vt 0.178543 0.784021
vt 0.192792 0.784021
vt 0.178543 0.778460
vt 0.192792 0.778460
vt 0.178543 0.772296
vt 0.192792 0.772296
vt 0.178543 0.766131
vt 0.192792 0.766131
vt 0.178543 0.760570
vt 0.192792 0.760570
vt 0.217676 0.788434
vt 0.203428 0.788434
vt 0.203428 0.784021
vt 0.217676 0.784021
vt 0.203428 0.778460
vt 0.217676 0.778460
vt 0.203428 0.772295
vt 0.217676 0.772295
vt 0.203428 0.766131
vt 0.217676 0.766131
vt 0.203428 0.760570
vt 0.217676 0.760570
vt 0.767949 0.319123
vt 0.753701 0.319123
vt 0.753701 0.314710
vt 0.767949 0.314710
vt 0.683152 0.260516
vt 0.685081 0.254580
vt 0.688749 0.249531
vt 0.693798 0.245862
vt 0.699734 0.243934
vt 0.705975 0.243934
vt 0.711911 0.245862
vt 0.716960 0.249531
vt 0.720629 0.254580
vt 0.722557 0.260516
vt 0.722557 0.266757
vt 0.720629 0.272693
vt 0.716960 0.277742
vt 0.711911 0.281410
vt 0.705975 0.283339
vt 0.699734 0.283339
vt 0.693798 0.281410
vt 0.688749 0.277742
vt 0.685081 0.272693
vt 0.683152 0.266757
vt 0.753701 0.309149
vt 0.767949 0.309149
vt 0.722557 0.310557
vt 0.722557 0.316798
vt 0.720629 0.322734
vt 0.716960 0.327783
vt 0.711911 0.331451
vt 0.705975 0.333380
vt 0.699734 0.333380
vt 0.693798 0.331451
vt 0.688749 0.327783
vt 0.685081 0.322734
vt 0.683152 0.316798
vt 0.683152 0.310557
vt 0.685081 0.304621
vt 0.688749 0.299572
vt 0.693798 0.295903
vt 0.699734 0.293975
vt 0.705975 0.293975
vt 0.711911 0.295903
vt 0.716960 0.299572
vt 0.720629 0.304621
vt 0.871292 0.796785
vt 0.871292 0.357924
vt 0.873691 0.357924
vt 0.873691 0.796785
vt 0.875725 0.357924
vt 0.875725 0.796785
vt 0.886361 0.796785
vt 0.886361 0.357924
vt 0.888395 0.357924
vt 0.888395 0.796785
vt 0.890794 0.357924
vt 0.890794 0.796785
vt 0.893193 0.357924
vt 0.893193 0.796785
vt 0.895227 0.357924
vt 0.895227 0.796785
vt 0.905863 0.796785
vt 0.905863 0.357924
vt 0.907897 0.357924
vt 0.907897 0.796785
vt 0.910296 0.357924
vt 0.910296 0.796785
vt 0.912695 0.357924
vt 0.912695 0.796785
vt 0.914729 0.357924
vt 0.914729 0.796785
vt 0.925365 0.796785
vt 0.925365 0.357924
vt 0.927399 0.357924
vt 0.927399 0.796785
vt 0.929798 0.357924
vt 0.929798 0.796785
vt 0.932197 0.357924
vt 0.932197 0.796785
vt 0.934231 0.357924
vt 0.934231 0.796785
vt 0.390331 0.806955
vt 0.388071 0.806018
vt 0.386341 0.804289
vt 0.385405 0.802029
vt 0.385405 0.799582
vt 0.386341 0.797322
vt 0.388071 0.795593
vt 0.390331 0.794657
vt 0.392777 0.794657
vt 0.395037 0.795593
vt 0.396767 0.797322
vt 0.397703 0.799582
vt 0.397703 0.802029
vt 0.396767 0.804289
vt 0.395037 0.806018
vt 0.392777 0.806955
vt 0.866859 0.796785
vt 0.866859 0.357924
vt 0.868893 0.357924
vt 0.868893 0.796785
vt 0.444806 0.806018
vt 0.442546 0.806954
vt 0.440100 0.806954
vt 0.437840 0.806018
vt 0.436110 0.804289
vt 0.435174 0.802029
vt 0.435174 0.799582
vt 0.436110 0.797322
vt 0.437840 0.795593
vt 0.440100 0.794657
vt 0.442546 0.794657
vt 0.444806 0.795593
vt 0.446536 0.797322
vt 0.447472 0.799582
vt 0.447472 0.802029
vt 0.446536 0.804289
vt 0.792834 0.302985
vt 0.778585 0.302985
vt 0.778585 0.296820
vt 0.792834 0.296820
vt 0.778585 0.291259
vt 0.792834 0.291259
vt 0.778585 0.286846
vt 0.792834 0.286846
vt 0.435174 0.760570
vt 0.449423 0.760570
vt 0.449423 0.766131
vt 0.435174 0.766131
vt 0.449423 0.772295
vt 0.435174 0.772295
vt 0.449423 0.778460
vt 0.435174 0.778460
vt 0.449423 0.784021
vt 0.435174 0.784021
vt 0.242561 0.788434
vt 0.228312 0.788434
vt 0.228312 0.784021
vt 0.242561 0.784021
vt 0.228312 0.778460
vt 0.242561 0.778460
vt 0.228312 0.772296
vt 0.242561 0.772296
vt 0.228312 0.766131
vt 0.242561 0.766131
vt 0.228312 0.760570
vt 0.242561 0.760570
vt 0.267446 0.788434
vt 0.253197 0.788434
vt 0.253197 0.784021
vt 0.267446 0.784021
vt 0.253197 0.778460
vt 0.267446 0.778460
vt 0.253197 0.772295
vt 0.267446 0.772295
vt 0.253197 0.766131
vt 0.267446 0.766131
vt 0.253197 0.760570
vt 0.267446 0.760570
vt 0.792834 0.319123
vt 0.778585 0.319123
vt 0.778585 0.314710
vt 0.792834 0.314710
vt 0.216020 0.721175
vt 0.217949 0.727111
vt 0.217949 0.733352
vt 0.216020 0.739288
vt 0.212351 0.744337
vt 0.207302 0.748006
vt 0.201366 0.749934
vt 0.195125 0.749934
vt 0.189190 0.748006
vt 0.184140 0.744337
vt 0.180472 0.739288
vt 0.178543 0.733352
vt 0.178543 0.727111
vt 0.180472 0.721175
vt 0.184140 0.716126
vt 0.189190 0.712458
vt 0.195125 0.710529
vt 0.201366 0.710529
vt 0.207302 0.712458
vt 0.212351 0.716126
vt 0.778585 0.309149
vt 0.792834 0.309149
vt 0.283339 0.727111
vt 0.283339 0.733352
vt 0.281410 0.739288
vt 0.277742 0.744337
vt 0.272693 0.748006
vt 0.266757 0.749934
vt 0.260516 0.749934
vt 0.254580 0.748006
vt 0.249531 0.744337
vt 0.245862 0.739288
vt 0.243934 0.733352
vt 0.243934 0.727111
vt 0.245862 0.721175
vt 0.249531 0.716126
vt 0.254580 0.712458
vt 0.260516 0.710529
vt 0.266757 0.710529
vt 0.272693 0.712458
vt 0.277742 0.716126
vt 0.281410 0.721175
vt 0.029632 0.938509
vt 0.022793 0.938509
vt 0.022793 0.710529
vt 0.029632 0.710529
vt 0.890594 0.347288
vt 0.883755 0.347288
vt 0.883755 0.005318
vt 0.890594 0.005318
vt 0.012157 0.938509
vt 0.005318 0.938509
vt 0.005318 0.710529
vt 0.012157 0.710529
vt 0.908069 0.347288
vt 0.901230 0.347288
vt 0.901230 0.005318
vt 0.908069 0.005318
vt 0.233298 0.005318
vt 0.233298 0.347288
vt 0.005318 0.347288
vt 0.005318 0.005318
vt 0.471913 0.005318
vt 0.471913 0.347288
vt 0.243934 0.347288
vt 0.243934 0.005318
vt 0.231018 0.733327
vt 0.231018 0.710529
vt 0.233298 0.710529
vt 0.233298 0.733327
vt 0.505347 0.347288
vt 0.482549 0.347288
vt 0.482549 0.005318
vt 0.505347 0.005318
vt 0.803470 0.266732
vt 0.803470 0.243934
vt 0.805749 0.243934
vt 0.805749 0.266732
vt 0.572215 0.347288
vt 0.549417 0.347288
vt 0.549417 0.005318
vt 0.572215 0.005318
vt 0.985894 0.357923
vt 0.985894 0.699893
vt 0.983614 0.699893
vt 0.983614 0.357923
vt 0.972978 0.357923
vt 0.972978 0.699893
vt 0.970698 0.699893
vt 0.970698 0.357923
vt 0.803470 0.309644
vt 0.803470 0.286846
vt 0.805749 0.286846
vt 0.805749 0.309644
vt 0.538781 0.347288
vt 0.515983 0.347288
vt 0.515983 0.005318
vt 0.538781 0.005318
vt 0.803470 0.343078
vt 0.803470 0.320280
vt 0.805749 0.320280
vt 0.805749 0.343078
vt 0.605649 0.347288
vt 0.582851 0.347288
vt 0.582851 0.005318
vt 0.605649 0.005318
vt 0.947147 0.357924
vt 0.947147 0.699893
vt 0.944867 0.699893
vt 0.944867 0.357924
vt 0.960063 0.357923
vt 0.960063 0.699893
vt 0.957783 0.699893
vt 0.957783 0.357923
vt 0.705950 0.233298
vt 0.683152 0.233298
vt 0.683152 0.005318
vt 0.705950 0.005318
vt 0.816385 0.266732
vt 0.816385 0.243934
vt 0.818665 0.243934
vt 0.818665 0.266732
vt 0.739384 0.233298
vt 0.716586 0.233298
vt 0.716586 0.005318
vt 0.739384 0.005318
vt 0.816385 0.309644
vt 0.816385 0.286846
vt 0.818665 0.286846
vt 0.818665 0.309644
vt 0.077498 0.938509
vt 0.075219 0.938509
vt 0.075219 0.710529
vt 0.077498 0.710529
vt 0.090414 0.938509
vt 0.088134 0.938509
vt 0.088134 0.710529
vt 0.090414 0.710529
vt 0.772818 0.233298
vt 0.750020 0.233298
vt 0.750020 0.005318
vt 0.772818 0.005318
vt 0.816385 0.343078
vt 0.816385 0.320280
vt 0.818665 0.320280
vt 0.818665 0.343078
vt 0.806251 0.233298
vt 0.783453 0.233298
vt 0.783453 0.005318
vt 0.806251 0.005318
vt 0.582851 0.819153
vt 0.582851 0.796355
vt 0.585131 0.796355
vt 0.585131 0.819153
vt 0.103330 0.938509
vt 0.101050 0.938509
vt 0.101050 0.710529
vt 0.103330 0.710529
vt 0.116245 0.938509
vt 0.113965 0.938509
vt 0.113965 0.710529
vt 0.116245 0.710529
vt 0.047108 0.938509
vt 0.040268 0.938509
vt 0.040268 0.710529
vt 0.047108 0.710529
vt 0.943020 0.347288
vt 0.936180 0.347288
vt 0.936180 0.005318
vt 0.943020 0.005318
vt 0.064583 0.938509
vt 0.057743 0.938509
vt 0.057743 0.710529
vt 0.064583 0.710529
vt 0.925545 0.347288
vt 0.918705 0.347288
vt 0.918705 0.005318
vt 0.925545 0.005318
vt 0.233298 0.357924
vt 0.233298 0.699893
vt 0.005318 0.699893
vt 0.005318 0.357924
vt 0.471913 0.357924
vt 0.471913 0.699893
vt 0.243934 0.699893
vt 0.243934 0.357924
vt 0.595766 0.819152
vt 0.595766 0.796354
vt 0.598046 0.796354
vt 0.598046 0.819152
vt 0.639082 0.347288
vt 0.616284 0.347288
vt 0.616284 0.005318
vt 0.639082 0.005318
vt 0.178543 0.821868
vt 0.178543 0.799070
vt 0.180823 0.799070
vt 0.180823 0.821868
vt 0.672516 0.347288
vt 0.649718 0.347288
vt 0.649718 0.005318
vt 0.672516 0.005318
vt 0.994682 0.005318
vt 0.994682 0.347288
vt 0.992402 0.347288
vt 0.992402 0.005318
vt 0.981766 0.005318
vt 0.981766 0.347288
vt 0.979487 0.347288
vt 0.979487 0.005318
vt 0.191459 0.821868
vt 0.191459 0.799070
vt 0.193739 0.799070
vt 0.193739 0.821868
vt 0.505347 0.699893
vt 0.482549 0.699893
vt 0.482549 0.357924
vt 0.505347 0.357924
vt 0.204374 0.821868
vt 0.204374 0.799070
vt 0.206654 0.799070
vt 0.206654 0.821868
vt 0.605649 0.699893
vt 0.582851 0.699893
vt 0.582851 0.357923
vt 0.605649 0.357923
vt 0.955935 0.005318
vt 0.955935 0.347288
vt 0.953655 0.347288
vt 0.953655 0.005318
vt 0.968851 0.005318
vt 0.968851 0.347288
vt 0.966571 0.347288
vt 0.966571 0.005318
vt 0.839685 0.233298
vt 0.816887 0.233298
vt 0.816887 0.005318
vt 0.839685 0.005318
vt 0.217290 0.821868
vt 0.217290 0.799070
vt 0.219570 0.799070
vt 0.219570 0.821868
vt 0.639082 0.897985
vt 0.616284 0.897985
vt 0.616284 0.670005
vt 0.639082 0.670005
vt 0.253197 0.821868
vt 0.253197 0.799070
vt 0.255477 0.799070
vt 0.255477 0.821868
vt 0.129161 0.938509
vt 0.126881 0.938509
vt 0.126881 0.710529
vt 0.129161 0.710529
vt 0.142076 0.938509
vt 0.139796 0.938509
vt 0.139796 0.710529
vt 0.142076 0.710529
vt 0.672516 0.897985
vt 0.649718 0.897985
vt 0.649718 0.670005
vt 0.672516 0.670005
vt 0.240281 0.821868
vt 0.240281 0.799070
vt 0.242561 0.799070
vt 0.242561 0.821868
vt 0.873119 0.233298
vt 0.850321 0.233298
vt 0.850321 0.005318
vt 0.873119 0.005318
vt 0.543846 0.830218
vt 0.543846 0.807420
vt 0.546126 0.807420
vt 0.546126 0.830218
vt 0.154992 0.938509
vt 0.152712 0.938509
vt 0.152712 0.710529
vt 0.154992 0.710529
vt 0.167907 0.938509
vt 0.165628 0.938509
vt 0.165628 0.710529
vt 0.167907 0.710529
vt 0.280931 0.803291
vt 0.280931 0.793785
vt 0.283781 0.793983
vt 0.283781 0.803391
vt 0.679415 0.503329
vt 0.670008 0.501457
vt 0.670548 0.499442
vt 0.679688 0.501260
vt 0.671285 0.496689
vt 0.680060 0.498435
vt 0.672023 0.493937
vt 0.680432 0.495609
vt 0.672563 0.491922
vt 0.680704 0.493541
vt 0.460059 0.797159
vt 0.460059 0.789018
vt 0.462909 0.789215
vt 0.462909 0.797258
vt 0.465758 0.789018
vt 0.465758 0.797159
vt 0.616284 0.649582
vt 0.624426 0.647963
vt 0.624966 0.649978
vt 0.616557 0.651650
vt 0.625703 0.652730
vt 0.616929 0.654476
vt 0.626441 0.655483
vt 0.617301 0.657301
vt 0.626981 0.657498
vt 0.617573 0.659369
vt 0.278081 0.803391
vt 0.278081 0.793983
vt 0.280931 0.784608
vt 0.283781 0.784900
vt 0.660925 0.498374
vt 0.661723 0.496447
vt 0.662814 0.493814
vt 0.663904 0.491181
vt 0.664703 0.489254
vt 0.460059 0.781157
vt 0.462909 0.781450
vt 0.465758 0.781157
vt 0.632286 0.645294
vt 0.633084 0.647222
vt 0.634175 0.649855
vt 0.635265 0.652487
vt 0.636064 0.654415
vt 0.278081 0.784900
vt 0.280931 0.775916
vt 0.283781 0.776297
vt 0.652322 0.494132
vt 0.653365 0.492325
vt 0.654790 0.489857
vt 0.656215 0.487389
vt 0.657258 0.485582
vt 0.460059 0.773713
vt 0.462909 0.774095
vt 0.465758 0.773713
vt 0.639730 0.641623
vt 0.640774 0.643430
vt 0.642198 0.645898
vt 0.643623 0.648366
vt 0.644666 0.650172
vt 0.278081 0.776297
vt 0.280931 0.767857
vt 0.283781 0.768322
vt 0.644347 0.488803
vt 0.645617 0.487147
vt 0.647351 0.484887
vt 0.649086 0.482626
vt 0.650356 0.480971
vt 0.460059 0.766811
vt 0.462909 0.767276
vt 0.465758 0.766811
vt 0.646632 0.637011
vt 0.647902 0.638667
vt 0.649637 0.640927
vt 0.651372 0.643188
vt 0.652642 0.644843
vt 0.278081 0.768322
vt 0.280931 0.760570
vt 0.283781 0.761110
vt 0.637135 0.482478
vt 0.638610 0.481003
vt 0.640625 0.478988
vt 0.642640 0.476973
vt 0.644115 0.475498
vt 0.460059 0.760570
vt 0.462909 0.761110
vt 0.465758 0.760570
vt 0.652873 0.631538
vt 0.654348 0.633014
vt 0.656363 0.635029
vt 0.658378 0.637044
vt 0.659854 0.638519
vt 0.278081 0.761110
vt 0.500411 0.815313
vt 0.500411 0.808026
vt 0.503261 0.807562
vt 0.503261 0.814773
vt 0.630810 0.475266
vt 0.632466 0.473996
vt 0.634726 0.472262
vt 0.636987 0.470527
vt 0.638642 0.469257
vt 0.735279 0.333677
vt 0.735279 0.327436
vt 0.738129 0.326971
vt 0.738129 0.333137
vt 0.740979 0.327436
vt 0.740979 0.333677
vt 0.658346 0.625298
vt 0.660001 0.626568
vt 0.662262 0.628302
vt 0.664523 0.630037
vt 0.666178 0.631307
vt 0.497562 0.814773
vt 0.497562 0.807562
vt 0.500411 0.799968
vt 0.503261 0.799586
vt 0.625481 0.467291
vt 0.627288 0.466248
vt 0.629756 0.464823
vt 0.632224 0.463398
vt 0.634031 0.462355
vt 0.735279 0.320534
vt 0.738129 0.320152
vt 0.740979 0.320534
vt 0.662958 0.618396
vt 0.664764 0.619439
vt 0.667232 0.620864
vt 0.669700 0.622289
vt 0.671507 0.623332
vt 0.497562 0.799586
vt 0.500411 0.791275
vt 0.503261 0.790983
vt 0.621239 0.458688
vt 0.623166 0.457890
vt 0.625799 0.456799
vt 0.628432 0.455709
vt 0.630359 0.454910
vt 0.735279 0.313089
vt 0.738129 0.312797
vt 0.740979 0.313089
vt 0.666629 0.610951
vt 0.668556 0.611749
vt 0.671189 0.612840
vt 0.673822 0.613931
vt 0.675749 0.614729
vt 0.497562 0.790983
vt 0.500411 0.782098
vt 0.503261 0.781900
vt 0.618156 0.449605
vt 0.620171 0.449065
vt 0.622923 0.448328
vt 0.625676 0.447590
vt 0.627691 0.447050
vt 0.735279 0.305229
vt 0.738129 0.305032
vt 0.740979 0.305229
vt 0.669297 0.603091
vt 0.671312 0.603631
vt 0.674065 0.604368
vt 0.676818 0.605106
vt 0.678833 0.605646
vt 0.497562 0.781900
vt 0.500411 0.772592
vt 0.503261 0.772493
vt 0.616284 0.440197
vt 0.618353 0.439925
vt 0.621178 0.439553
vt 0.624004 0.439181
vt 0.626072 0.438909
vt 0.735279 0.297088
vt 0.738129 0.296988
vt 0.740979 0.297088
vt 0.670917 0.594950
vt 0.672985 0.595222
vt 0.675810 0.595594
vt 0.678636 0.595966
vt 0.680704 0.596238
vt 0.497562 0.772493
vt 0.500411 0.762921
vt 0.503261 0.762921
vt 0.505347 0.762921
vt 0.505347 0.772220
vt 0.617743 0.430626
vt 0.620593 0.430626
vt 0.623443 0.430626
vt 0.733193 0.297360
vt 0.733193 0.288805
vt 0.735279 0.288805
vt 0.738129 0.288805
vt 0.740979 0.288805
vt 0.743065 0.288805
vt 0.743065 0.297360
vt 0.673546 0.586667
vt 0.676395 0.586667
vt 0.679245 0.586667
vt 0.495475 0.772220
vt 0.495475 0.762921
vt 0.497562 0.762921
vt 0.500411 0.753250
vt 0.503261 0.753350
vt 0.505347 0.753622
vt 0.618353 0.421327
vt 0.621178 0.421699
vt 0.624004 0.422071
vt 0.733193 0.280250
vt 0.735279 0.280522
vt 0.738129 0.280622
vt 0.740979 0.280522
vt 0.743065 0.280250
vt 0.672985 0.578112
vt 0.675810 0.577740
vt 0.678636 0.577368
vt 0.495475 0.753622
vt 0.497562 0.753350
vt 0.500411 0.743744
vt 0.503261 0.743942
vt 0.616284 0.421055
vt 0.618156 0.411647
vt 0.620171 0.412187
vt 0.622923 0.412924
vt 0.625676 0.413662
vt 0.627691 0.414202
vt 0.626072 0.422343
vt 0.735279 0.272381
vt 0.738129 0.272579
vt 0.740979 0.272381
vt 0.670917 0.578384
vt 0.669297 0.570243
vt 0.671312 0.569703
vt 0.674065 0.568965
vt 0.676818 0.568228
vt 0.678833 0.567688
vt 0.680704 0.577095
vt 0.497562 0.743942
vt 0.500411 0.734567
vt 0.503261 0.734859
vt 0.621239 0.402564
vt 0.623166 0.403362
vt 0.625799 0.404453
vt 0.628432 0.405543
vt 0.630359 0.406342
vt 0.735279 0.264521
vt 0.738129 0.264813
vt 0.740979 0.264521
vt 0.666629 0.562382
vt 0.668556 0.561584
vt 0.671189 0.560494
vt 0.673822 0.559403
vt 0.675749 0.558605
vt 0.497562 0.734859
vt 0.500411 0.725874
vt 0.503261 0.726256
vt 0.625481 0.393961
vt 0.627288 0.395004
vt 0.629756 0.396429
vt 0.632224 0.397854
vt 0.634031 0.398897
vt 0.735279 0.257076
vt 0.738129 0.257458
vt 0.740979 0.257076
vt 0.662958 0.554938
vt 0.664764 0.553895
vt 0.667232 0.552470
vt 0.669700 0.551045
vt 0.671507 0.550002
vt 0.497562 0.726256
vt 0.500411 0.717816
vt 0.503261 0.718281
vt 0.630810 0.385986
vt 0.632466 0.387256
vt 0.634726 0.388990
vt 0.636987 0.390725
vt 0.638642 0.391995
vt 0.735279 0.250174
vt 0.738129 0.250639
vt 0.740979 0.250174
vt 0.658346 0.548036
vt 0.660001 0.546766
vt 0.662262 0.545031
vt 0.664523 0.543296
vt 0.666178 0.542026
vt 0.497562 0.718281
vt 0.500411 0.710529
vt 0.503261 0.711069
vt 0.637135 0.378774
vt 0.638610 0.380249
vt 0.640625 0.382264
vt 0.642640 0.384279
vt 0.644115 0.385754
vt 0.735279 0.243934
vt 0.738129 0.244473
vt 0.740979 0.243934
vt 0.652873 0.541795
vt 0.654348 0.540320
vt 0.656363 0.538305
vt 0.658378 0.536290
vt 0.659853 0.534815
vt 0.497562 0.711069
vt 0.297266 0.760570
vt 0.297266 0.767857
vt 0.294417 0.768322
vt 0.294417 0.761110
vt 0.644347 0.372450
vt 0.645617 0.374105
vt 0.647351 0.376365
vt 0.649086 0.378626
vt 0.650356 0.380281
vt 0.482094 0.760570
vt 0.482094 0.766811
vt 0.479244 0.767276
vt 0.479244 0.761110
vt 0.476394 0.766811
vt 0.476394 0.760570
vt 0.646632 0.536322
vt 0.647902 0.534667
vt 0.649637 0.532406
vt 0.651372 0.530145
vt 0.652642 0.528490
vt 0.300116 0.761110
vt 0.300116 0.768322
vt 0.297266 0.775916
vt 0.294417 0.776297
vt 0.652322 0.367120
vt 0.653365 0.368927
vt 0.654790 0.371395
vt 0.656215 0.373863
vt 0.657258 0.375670
vt 0.482094 0.773713
vt 0.479244 0.774095
vt 0.476394 0.773713
vt 0.639730 0.531711
vt 0.640773 0.529904
vt 0.642198 0.527436
vt 0.643623 0.524968
vt 0.644666 0.523161
vt 0.300116 0.776297
vt 0.297266 0.784608
vt 0.294417 0.784900
vt 0.660925 0.362878
vt 0.661723 0.364805
vt 0.662814 0.367438
vt 0.663904 0.370071
vt 0.664703 0.371998
vt 0.482094 0.781157
vt 0.479244 0.781450
vt 0.476394 0.781157
vt 0.632286 0.528039
vt 0.633084 0.526112
vt 0.634175 0.523479
vt 0.635265 0.520846
vt 0.636064 0.518919
vt 0.300116 0.784900
vt 0.297266 0.793785
vt 0.294417 0.793983
vt 0.670008 0.359795
vt 0.670548 0.361810
vt 0.671285 0.364563
vt 0.672023 0.367315
vt 0.672563 0.369330
vt 0.482094 0.789018
vt 0.479244 0.789215
vt 0.476394 0.789018
vt 0.624426 0.525371
vt 0.624966 0.523356
vt 0.625703 0.520603
vt 0.626441 0.517851
vt 0.626981 0.515836
vt 0.300116 0.793983
vt 0.297266 0.803291
vt 0.294417 0.803391
vt 0.679415 0.357924
vt 0.679688 0.359992
vt 0.680060 0.362817
vt 0.680432 0.365643
vt 0.680704 0.367711
vt 0.482094 0.797159
vt 0.479244 0.797258
vt 0.476394 0.797159
vt 0.616284 0.523752
vt 0.616557 0.521683
vt 0.616929 0.518858
vt 0.617301 0.516033
vt 0.617573 0.513964
vt 0.300116 0.803391
s 0
usemtl M_CartSteel
f 1/1/1 2/2/1 4/3/1 3/4/1
f 3/4/2 4/3/2 6/5/2 5/6/2
f 5/7/3 6/8/3 8/9/3 7/10/3
f 7/10/4 8/9/4 10/11/4 9/12/4
f 9/12/5 10/11/5 12/13/5 11/14/5
f 11/14/6 12/13/6 14/15/6 13/16/6
f 13/17/7 14/18/7 16/19/7 15/20/7
f 15/20/8 16/19/8 18/21/8 17/22/8
f 17/22/9 18/21/9 20/23/9 19/24/9
f 19/24/10 20/23/10 22/25/10 21/26/10
f 21/27/11 22/28/11 24/29/11 23/30/11
f 23/30/12 24/29/12 26/31/12 25/32/12
f 25/32/13 26/31/13 28/33/13 27/34/13
f 27/34/14 28/33/14 30/35/14 29/36/14
f 4/37/15 2/38/15 32/39/15 30/40/15 28/41/15 26/42/15 24/43/15 22/44/15 20/45/15 18/46/15 16/47/15 14/48/15 12/49/15 10/50/15 8/51/15 6/52/15
f 29/53/16 30/54/16 32/55/16 31/56/16
f 31/56/17 32/55/17 2/2/17 1/1/17
f 1/57/18 3/58/18 5/59/18 7/60/18 9/61/18 11/62/18 13/63/18 15/64/18 17/65/18 19/66/18 21/67/18 23/68/18 25/69/18 27/70/18 29/71/18 31/72/18
f 73/161/1 74/162/1 76/163/1 75/164/1
f 75/164/2 76/163/2 78/165/2 77/166/2
f 77/167/3 78/168/3 80/169/3 79/170/3
f 79/170/4 80/169/4 82/171/4 81/172/4
f 81/172/5 82/171/5 84/173/5 83/174/5
f 83/174/6 84/173/6 86/175/6 85/176/6
f 85/177/7 86/178/7 88/179/7 87/180/7
f 87/180/8 88/179/8 90/181/8 89/182/8
f 89/182/9 90/181/9 92/183/9 91/184/9
f 91/184/10 92/183/10 94/185/10 93/186/10
f 93/187/11 94/188/11 96/189/11 95/190/11
f 95/190/12 96/189/12 98/191/12 97/192/12
f 97/192/13 98/191/13 100/193/13 99/194/13
f 99/194/14 100/193/14 102/195/14 101/196/14
f 76/197/15 74/198/15 104/199/15 102/200/15 100/201/15 98/202/15 96/203/15 94/204/15 92/205/15 90/206/15 88/207/15 86/208/15 84/209/15 82/210/15 80/211/15 78/212/15
f 101/213/16 102/214/16 104/215/16 103/216/16
f 103/216/17 104/215/17 74/162/17 73/161/17
f 73/217/18 75/218/18 77/219/18 79/220/18 81/221/18 83/222/18 85/223/18 87/224/18 89/225/18 91/226/18 93/227/18 95/228/18 97/229/18 99/230/18 101/231/18 103/232/18
f 145/321/1 146/322/1 148/323/1 147/324/1
f 147/324/2 148/323/2 150/325/2 149/326/2
f 149/327/3 150/328/3 152/329/3 151/330/3
f 151/330/4 152/329/4 154/331/4 153/332/4
f 153/332/5 154/331/5 156/333/5 155/334/5
f 155/334/6 156/333/6 158/335/6 157/336/6
f 157/337/7 158/338/7 160/339/7 159/340/7
f 159/340/8 160/339/8 162/341/8 161/342/8
f 161/342/9 162/341/9 164/343/9 163/344/9
f 163/344/10 164/343/10 166/345/10 165/346/10
f 165/347/11 166/348/11 168/349/11 167/350/11
f 167/350/12 168/349/12 170/351/12 169/352/12
f 169/352/13 170/351/13 172/353/13 171/354/13
f 171/354/14 172/353/14 174/355/14 173/356/14
f 148/357/15 146/358/15 176/359/15 174/360/15 172/361/15 170/362/15 168/363/15 166/364/15 164/365/15 162/366/15 160/367/15 158/368/15 156/369/15 154/370/15 152/371/15 150/372/15
f 173/373/16 174/374/16 176/375/16 175/376/16
f 175/376/17 176/375/17 146/322/17 145/321/17
f 145/377/18 147/378/18 149/379/18 151/380/18 153/381/18 155/382/18 157/383/18 159/384/18 161/385/18 163/386/18 165/387/18 167/388/18 169/389/18 171/390/18 173/391/18 175/392/18
f 217/481/1 218/482/1 220/483/1 219/484/1
f 219/484/2 220/483/2 222/485/2 221/486/2
f 221/487/3 222/488/3 224/489/3 223/490/3
f 223/490/4 224/489/4 226/491/4 225/492/4
f 225/492/5 226/491/5 228/493/5 227/494/5
f 227/494/6 228/493/6 230/495/6 229/496/6
f 229/497/7 230/498/7 232/499/7 231/500/7
f 231/500/8 232/499/8 234/501/8 233/502/8
f 233/502/9 234/501/9 236/503/9 235/504/9
f 235/504/10 236/503/10 238/505/10 237/506/10
f 237/507/11 238/508/11 240/509/11 239/510/11
f 239/510/12 240/509/12 242/511/12 241/512/12
f 241/512/13 242/511/13 244/513/13 243/514/13
f 243/514/14 244/513/14 246/515/14 245/516/14
f 220/517/15 218/518/15 248/519/15 246/520/15 244/521/15 242/522/15 240/523/15 238/524/15 236/525/15 234/526/15 232/527/15 230/528/15 228/529/15 226/530/15 224/531/15 222/532/15
f 245/533/16 246/534/16 248/535/16 247/536/16
f 247/536/17 248/535/17 218/482/17 217/481/17
f 217/537/18 219/538/18 221/539/18 223/540/18 225/541/18 227/542/18 229/543/18 231/544/18 233/545/18 235/546/18 237/547/18 239/548/18 241/549/18 243/550/18 245/551/18 247/552/18
f 289/641/41 290/642/41 292/643/41 291/644/41
f 291/645/40 292/646/40 296/647/40 295/648/40
f 295/649/42 296/650/42 294/651/42 293/652/42
f 293/653/37 294/654/37 290/655/37 289/656/37
f 291/657/18 295/658/18 293/659/18 289/660/18
f 296/661/15 292/662/15 290/663/15 294/664/15
f 297/665/41 298/666/41 300/667/41 299/668/41
f 299/669/40 300/670/40 304/671/40 303/672/40
f 303/673/42 304/674/42 302/675/42 301/676/42
f 301/677/37 302/678/37 298/679/37 297/680/37
f 299/681/18 303/682/18 301/683/18 297/684/18
f 304/685/15 300/686/15 298/687/15 302/688/15
f 305/689/41 306/690/41 308/691/41 307/692/41
f 307/693/40 308/694/40 312/695/40 311/696/40
f 311/697/42 312/698/42 310/699/42 309/700/42
f 309/701/37 310/702/37 306/703/37 305/704/37
f 307/705/18 311/706/18 309/707/18 305/708/18
f 312/709/15 308/710/15 306/711/15 310/712/15
f 313/713/41 314/714/41 316/715/41 315/716/41
f 315/717/40 316/718/40 320/719/40 319/720/40
f 319/721/42 320/722/42 318/723/42 317/724/42
f 317/725/37 318/726/37 314/727/37 313/728/37
f 315/729/18 319/730/18 317/731/18 313/732/18
f 320/733/15 316/734/15 314/735/15 318/736/15
f 321/737/41 322/738/41 324/739/41 323/740/41
f 323/741/40 324/742/40 328/743/40 327/744/40
f 327/745/42 328/746/42 326/747/42 325/748/42
f 325/749/37 326/750/37 322/751/37 321/752/37
f 323/753/18 327/754/18 325/755/18 321/756/18
f 328/757/15 324/758/15 322/759/15 326/760/15
f 329/761/41 330/762/41 332/763/41 331/764/41
f 331/765/40 332/766/40 336/767/40 335/768/40
f 335/769/42 336/770/42 334/771/42 333/772/42
f 333/773/37 334/774/37 330/775/37 329/776/37
f 331/777/18 335/778/18 333/779/18 329/780/18
f 336/781/15 332/782/15 330/783/15 334/784/15
f 337/785/41 338/786/41 340/787/41 339/788/41
f 339/789/40 340/790/40 344/791/40 343/792/40
f 343/793/42 344/794/42 342/795/42 341/796/42
f 341/797/37 342/798/37 338/799/37 337/800/37
f 339/801/18 343/802/18 341/803/18 337/804/18
f 344/805/15 340/806/15 338/807/15 342/808/15
f 345/809/41 346/810/41 348/811/41 347/812/41
f 347/813/40 348/814/40 352/815/40 351/816/40
f 351/817/42 352/818/42 350/819/42 349/820/42
f 349/821/37 350/822/37 346/823/37 345/824/37
f 347/825/18 351/826/18 349/827/18 345/828/18
f 352/829/15 348/830/15 346/831/15 350/832/15
f 353/833/41 354/834/41 356/835/41 355/836/41
f 355/837/40 356/838/40 360/839/40 359/840/40
f 359/841/42 360/842/42 358/843/42 357/844/42
f 357/845/37 358/846/37 354/847/37 353/848/37
f 355/849/18 359/850/18 357/851/18 353/852/18
f 360/853/15 356/854/15 354/855/15 358/856/15
f 361/857/41 362/858/41 364/859/41 363/860/41
f 363/861/40 364/862/40 368/863/40 367/864/40
f 367/865/42 368/866/42 366/867/42 365/868/42
f 365/869/37 366/870/37 362/871/37 361/872/37
f 363/873/18 367/874/18 365/875/18 361/876/18
f 368/877/15 364/878/15 362/879/15 366/880/15
f 369/881/43 381/882/43 382/883/43 370/884/43
f 370/885/44 382/886/44 383/887/44 371/888/44
f 371/888/45 383/887/45 384/889/45 372/890/45
f 372/890/46 384/889/46 385/891/46 373/892/46
f 373/892/47 385/891/47 386/893/47 374/894/47
f 374/895/48 386/896/48 387/897/48 375/898/48
f 375/898/49 387/897/49 388/899/49 376/900/49
f 376/901/50 388/902/50 389/903/50 377/904/50
f 377/904/51 389/903/51 390/905/51 378/906/51
f 378/906/52 390/905/52 391/907/52 379/908/52
f 379/908/53 391/907/53 392/909/53 380/910/53
f 380/911/54 392/912/54 381/882/54 369/881/54
f 381/882/55 393/913/55 394/914/55 382/883/55
f 382/886/56 394/915/56 395/916/56 383/887/56
f 383/887/57 395/916/57 396/917/57 384/889/57
f 384/889/58 396/917/58 397/918/58 385/891/58
f 385/891/59 397/918/59 398/919/59 386/893/59
f 386/896/60 398/920/60 399/921/60 387/897/60
f 387/897/61 399/921/61 400/922/61 388/899/61
f 388/902/62 400/923/62 401/924/62 389/903/62
f 389/903/63 401/924/63 402/925/63 390/905/63
f 390/905/64 402/925/64 403/926/64 391/907/64
f 391/907/65 403/926/65 404/927/65 392/909/65
f 392/912/66 404/928/66 393/913/66 381/882/66
f 393/913/67 405/929/67 406/930/67 394/914/67
f 394/915/68 406/931/68 407/932/68 395/916/68
f 395/916/69 407/932/69 408/933/69 396/917/69
f 396/917/70 408/933/70 409/934/70 397/918/70
f 397/918/71 409/934/71 410/935/71 398/919/71
f 398/920/72 410/936/72 411/937/72 399/921/72
f 399/921/73 411/937/73 412/938/73 400/922/73
f 400/923/74 412/939/74 413/940/74 401/924/74
f 401/924/75 413/940/75 414/941/75 402/925/75
f 402/925/76 414/941/76 415/942/76 403/926/76
f 403/926/77 415/942/77 416/943/77 404/927/77
f 404/928/78 416/944/78 405/929/78 393/913/78
f 405/929/79 417/945/79 418/946/79 406/930/79
f 406/931/80 418/947/80 419/948/80 407/932/80
f 407/932/81 419/948/81 420/949/81 408/933/81
f 408/933/82 420/949/82 421/950/82 409/934/82
f 409/934/83 421/950/83 422/951/83 410/935/83
f 410/936/84 422/952/84 423/953/84 411/937/84
f 411/937/85 423/953/85 424/954/85 412/938/85
f 412/939/86 424/955/86 425/956/86 413/940/86
f 413/940/87 425/956/87 426/957/87 414/941/87
f 414/941/88 426/957/88 427/958/88 415/942/88
f 415/942/89 427/958/89 428/959/89 416/943/89
f 416/944/90 428/960/90 417/945/90 405/929/90
f 417/945/91 429/961/91 430/962/91 418/946/91
f 418/947/92 430/963/92 431/964/92 419/948/92
f 419/948/93 431/964/93 432/965/93 420/949/93
f 420/949/94 432/965/94 433/966/94 421/950/94
f 421/950/95 433/966/95 434/967/95 422/951/95
f 422/952/96 434/968/96 435/969/96 423/953/96
f 423/953/97 435/969/97 436/970/97 424/954/97
f 424/955/98 436/971/98 437/972/98 425/956/98
f 425/956/99 437/972/99 438/973/99 426/957/99
f 426/957/100 438/973/100 439/974/100 427/958/100
f 427/958/101 439/974/101 440/975/101 428/959/101
f 428/960/102 440/976/102 429/961/102 417/945/102
f 429/977/103 441/978/103 442/979/103 430/980/103
f 430/963/104 442/981/104 443/982/104 431/964/104
f 431/964/105 443/982/105 444/983/105 432/965/105
f 432/965/106 444/983/106 445/984/106 433/966/106
f 433/966/107 445/984/107 446/985/107 434/967/107
f 434/986/108 446/987/108 447/988/108 435/989/108
f 435/989/109 447/988/109 448/990/109 436/991/109
f 436/971/110 448/992/110 449/993/110 437/972/110
f 437/972/111 449/993/111 450/994/111 438/973/111
f 438/973/112 450/994/112 451/995/112 439/974/112
f 439/974/113 451/995/113 452/996/113 440/975/113
f 440/997/114 452/998/114 441/978/114 429/977/114
f 441/978/115 453/999/115 454/1000/115 442/979/115
f 442/981/116 454/1001/116 455/1002/116 443/982/116
f 443/982/117 455/1002/117 456/1003/117 444/983/117
f 444/983/118 456/1003/118 457/1004/118 445/984/118
f 445/984/119 457/1004/119 458/1005/119 446/985/119
f 446/987/120 458/1006/120 459/1007/120 447/988/120
f 447/988/121 459/1007/121 460/1008/121 448/990/121
f 448/992/122 460/1009/122 461/1010/122 449/993/122
f 449/993/123 461/1010/123 462/1011/123 450/994/123
f 450/994/124 462/1011/124 463/1012/124 451/995/124
f 451/995/125 463/1012/125 464/1013/125 452/996/125
f 452/998/126 464/1014/126 453/999/126 441/978/126
f 453/999/127 465/1015/127 466/1016/127 454/1000/127
f 454/1001/128 466/1017/128 467/1018/128 455/1002/128
f 455/1002/129 467/1018/129 468/1019/129 456/1003/129
f 456/1003/130 468/1019/130 469/1020/130 457/1004/130
f 457/1004/131 469/1020/131 470/1021/131 458/1005/131
f 458/1006/132 470/1022/132 471/1023/132 459/1007/132
f 459/1007/133 471/1023/133 472/1024/133 460/1008/133
f 460/1009/134 472/1025/134 473/1026/134 461/1010/134
f 461/1010/135 473/1026/135 474/1027/135 462/1011/135
f 462/1011/136 474/1027/136 475/1028/136 463/1012/136
f 463/1012/137 475/1028/137 476/1029/137 464/1013/137
f 464/1014/138 476/1030/138 465/1015/138 453/999/138
f 465/1015/139 477/1031/139 478/1032/139 466/1016/139
f 466/1017/140 478/1033/140 479/1034/140 467/1018/140
f 467/1018/141 479/1034/141 480/1035/141 468/1019/141
f 468/1019/142 480/1035/142 481/1036/142 469/1020/142
f 469/1020/143 481/1036/143 482/1037/143 470/1021/143
f 470/1022/144 482/1038/144 483/1039/144 471/1023/144
f 471/1023/145 483/1039/145 484/1040/145 472/1024/145
f 472/1025/146 484/1041/146 485/1042/146 473/1026/146
f 473/1026/147 485/1042/147 486/1043/147 474/1027/147
f 474/1027/148 486/1043/148 487/1044/148 475/1028/148
f 475/1028/149 487/1044/149 488/1045/149 476/1029/149
f 476/1030/150 488/1046/150 477/1031/150 465/1015/150
f 477/1031/151 489/1047/151 490/1048/151 478/1032/151
f 478/1033/152 490/1049/152 491/1050/152 479/1034/152
f 479/1034/153 491/1050/153 492/1051/153 480/1035/153
f 480/1035/154 492/1051/154 493/1052/154 481/1036/154
f 481/1036/155 493/1052/155 494/1053/155 482/1037/155
f 482/1038/156 494/1054/156 495/1055/156 483/1039/156
f 483/1039/157 495/1055/157 496/1056/157 484/1040/157
f 484/1041/158 496/1057/158 497/1058/158 485/1042/158
f 485/1042/159 497/1058/159 498/1059/159 486/1043/159
f 486/1043/160 498/1059/160 499/1060/160 487/1044/160
f 487/1044/161 499/1060/161 500/1061/161 488/1045/161
f 488/1046/162 500/1062/162 489/1047/162 477/1031/162
f 489/1047/163 501/1063/163 502/1064/163 490/1048/163
f 490/1048/164 502/1064/164 503/1065/164 491/1066/164
f 491/1050/165 503/1067/165 504/1068/165 492/1051/165
f 492/1051/166 504/1068/166 505/1069/166 493/1052/166
f 493/1070/167 505/1071/167 506/1072/167 494/1054/167
f 494/1054/168 506/1072/168 507/1073/168 495/1055/168
f 495/1055/169 507/1073/169 508/1074/169 496/1056/169
f 496/1056/170 508/1074/170 509/1075/170 497/1076/170
f 497/1058/171 509/1077/171 510/1078/171 498/1059/171
f 498/1059/172 510/1078/172 511/1079/172 499/1060/172
f 499/1080/173 511/1081/173 512/1082/173 500/1062/173
f 500/1062/174 512/1082/174 501/1063/174 489/1047/174
f 501/1063/175 513/1083/175 514/1084/175 502/1064/175
f 502/1064/176 514/1084/176 515/1085/176 503/1065/176
f 503/1067/177 515/1086/177 516/1087/177 504/1068/177
f 504/1068/178 516/1087/178 517/1088/178 505/1069/178
f 505/1071/179 517/1089/179 518/1090/179 506/1072/179
f 506/1072/180 518/1090/180 519/1091/180 507/1073/180
f 507/1073/181 519/1091/181 520/1092/181 508/1074/181
f 508/1074/182 520/1092/182 521/1093/182 509/1075/182
f 509/1077/183 521/1094/183 522/1095/183 510/1078/183
f 510/1078/184 522/1095/184 523/1096/184 511/1079/184
f 511/1081/185 523/1097/185 524/1098/185 512/1082/185
f 512/1082/186 524/1098/186 513/1083/186 501/1063/186
f 513/1083/187 525/1099/187 526/1100/187 514/1084/187
f 514/1101/188 526/1102/188 527/1103/188 515/1086/188
f 515/1086/189 527/1103/189 528/1104/189 516/1087/189
f 516/1087/190 528/1104/190 529/1105/190 517/1088/190
f 517/1088/191 529/1105/191 530/1106/191 518/1107/191
f 518/1090/192 530/1108/192 531/1109/192 519/1091/192
f 519/1091/193 531/1109/193 532/1110/193 520/1092/193
f 520/1111/194 532/1112/194 533/1113/194 521/1094/194
f 521/1094/195 533/1113/195 534/1114/195 522/1095/195
f 522/1095/196 534/1114/196 535/1115/196 523/1096/196
f 523/1096/197 535/1115/197 536/1116/197 524/1117/197
f 524/1098/198 536/1118/198 525/1099/198 513/1083/198
f 525/1099/199 537/1119/199 538/1120/199 526/1100/199
f 526/1102/200 538/1121/200 539/1122/200 527/1103/200
f 527/1103/201 539/1122/201 540/1123/201 528/1104/201
f 528/1104/202 540/1123/202 541/1124/202 529/1105/202
f 529/1105/203 541/1124/203 542/1125/203 530/1106/203
f 530/1108/204 542/1126/204 543/1127/204 531/1109/204
f 531/1109/205 543/1127/205 544/1128/205 532/1110/205
f 532/1112/206 544/1129/206 545/1130/206 533/1113/206
f 533/1113/207 545/1130/207 546/1131/207 534/1114/207
f 534/1114/208 546/1131/208 547/1132/208 535/1115/208
f 535/1115/209 547/1132/209 548/1133/209 536/1116/209
f 536/1118/210 548/1134/210 537/1119/210 525/1099/210
f 537/1119/211 549/1135/211 550/1136/211 538/1120/211
f 538/1121/212 550/1137/212 551/1138/212 539/1122/212
f 539/1122/213 551/1138/213 552/1139/213 540/1123/213
f 540/1123/214 552/1139/214 553/1140/214 541/1124/214
f 541/1124/215 553/1140/215 554/1141/215 542/1125/215
f 542/1126/216 554/1142/216 555/1143/216 543/1127/216
f 543/1127/217 555/1143/217 556/1144/217 544/1128/217
f 544/1129/218 556/1145/218 557/1146/218 545/1130/218
f 545/1130/219 557/1146/219 558/1147/219 546/1131/219
f 546/1131/220 558/1147/220 559/1148/220 547/1132/220
f 547/1132/221 559/1148/221 560/1149/221 548/1133/221
f 548/1134/222 560/1150/222 549/1135/222 537/1119/222
f 549/1135/223 561/1151/223 562/1152/223 550/1136/223
f 550/1137/224 562/1153/224 563/1154/224 551/1138/224
f 551/1138/225 563/1154/225 564/1155/225 552/1139/225
f 552/1139/226 564/1155/226 565/1156/226 553/1140/226
f 553/1140/227 565/1156/227 566/1157/227 554/1141/227
f 554/1142/228 566/1158/228 567/1159/228 555/1143/228
f 555/1143/229 567/1159/229 568/1160/229 556/1144/229
f 556/1145/230 568/1161/230 569/1162/230 557/1146/230
f 557/1146/231 569/1162/231 570/1163/231 558/1147/231
f 558/1147/232 570/1163/232 571/1164/232 559/1148/232
f 559/1148/233 571/1164/233 572/1165/233 560/1149/233
f 560/1150/234 572/1166/234 561/1151/234 549/1135/234
f 561/1151/235 573/1167/235 574/1168/235 562/1152/235
f 562/1153/236 574/1169/236 575/1170/236 563/1154/236
f 563/1154/237 575/1170/237 576/1171/237 564/1155/237
f 564/1155/238 576/1171/238 577/1172/238 565/1156/238
f 565/1156/239 577/1172/239 578/1173/239 566/1157/239
f 566/1158/240 578/1174/240 579/1175/240 567/1159/240
f 567/1159/241 579/1175/241 580/1176/241 568/1160/241
f 568/1161/242 580/1177/242 581/1178/242 569/1162/242
f 569/1162/243 581/1178/243 582/1179/243 570/1163/243
f 570/1163/244 582/1179/244 583/1180/244 571/1164/244
f 571/1164/245 583/1180/245 584/1181/245 572/1165/245
f 572/1166/246 584/1182/246 573/1167/246 561/1151/246
f 573/1183/247 585/1184/247 586/1185/247 574/1186/247
f 574/1169/248 586/1187/248 587/1188/248 575/1170/248
f 575/1170/249 587/1188/249 588/1189/249 576/1171/249
f 576/1171/250 588/1189/250 589/1190/250 577/1172/250
f 577/1172/251 589/1190/251 590/1191/251 578/1173/251
f 578/1192/252 590/1193/252 591/1194/252 579/1195/252
f 579/1195/253 591/1194/253 592/1196/253 580/1197/253
f 580/1177/254 592/1198/254 593/1199/254 581/1178/254
f 581/1178/255 593/1199/255 594/1200/255 582/1179/255
f 582/1179/256 594/1200/256 595/1201/256 583/1180/256
f 583/1180/257 595/1201/257 596/1202/257 584/1181/257
f 584/1203/258 596/1204/258 585/1184/258 573/1183/258
f 585/1184/259 597/1205/259 598/1206/259 586/1185/259
f 586/1187/260 598/1207/260 599/1208/260 587/1188/260
f 587/1188/261 599/1208/261 600/1209/261 588/1189/261
f 588/1189/262 600/1209/262 601/1210/262 589/1190/262
f 589/1190/263 601/1210/263 602/1211/263 590/1191/263
f 590/1193/264 602/1212/264 603/1213/264 591/1194/264
f 591/1194/265 603/1213/265 604/1214/265 592/1196/265
f 592/1198/266 604/1215/266 605/1216/266 593/1199/266
f 593/1199/267 605/1216/267 606/1217/267 594/1200/267
f 594/1200/268 606/1217/268 607/1218/268 595/1201/268
f 595/1201/269 607/1218/269 608/1219/269 596/1202/269
f 596/1204/270 608/1220/270 597/1205/270 585/1184/270
f 597/1205/271 609/1221/271 610/1222/271 598/1206/271
f 598/1207/272 610/1223/272 611/1224/272 599/1208/272
f 599/1208/273 611/1224/273 612/1225/273 600/1209/273
f 600/1209/274 612/1225/274 613/1226/274 601/1210/274
f 601/1210/275 613/1226/275 614/1227/275 602/1211/275
f 602/1212/276 614/1228/276 615/1229/276 603/1213/276
f 603/1213/277 615/1229/277 616/1230/277 604/1214/277
f 604/1215/278 616/1231/278 617/1232/278 605/1216/278
f 605/1216/279 617/1232/279 618/1233/279 606/1217/279
f 606/1217/280 618/1233/280 619/1234/280 607/1218/280
f 607/1218/281 619/1234/281 620/1235/281 608/1219/281
f 608/1220/282 620/1236/282 609/1221/282 597/1205/282
f 609/1221/283 621/1237/283 622/1238/283 610/1222/283
f 610/1223/284 622/1239/284 623/1240/284 611/1224/284
f 611/1224/285 623/1240/285 624/1241/285 612/1225/285
f 612/1225/286 624/1241/286 625/1242/286 613/1226/286
f 613/1226/287 625/1242/287 626/1243/287 614/1227/287
f 614/1228/288 626/1244/288 627/1245/288 615/1229/288
f 615/1229/289 627/1245/289 628/1246/289 616/1230/289
f 616/1231/290 628/1247/290 629/1248/290 617/1232/290
f 617/1232/291 629/1248/291 630/1249/291 618/1233/291
f 618/1233/292 630/1249/292 631/1250/292 619/1234/292
f 619/1234/293 631/1250/293 632/1251/293 620/1235/293
f 620/1236/294 632/1252/294 621/1237/294 609/1221/294
f 621/1237/295 633/1253/295 634/1254/295 622/1238/295
f 622/1239/296 634/1255/296 635/1256/296 623/1240/296
f 623/1240/297 635/1256/297 636/1257/297 624/1241/297
f 624/1241/298 636/1257/298 637/1258/298 625/1242/298
f 625/1242/299 637/1258/299 638/1259/299 626/1243/299
f 626/1244/300 638/1260/300 639/1261/300 627/1245/300
f 627/1245/301 639/1261/301 640/1262/301 628/1246/301
f 628/1247/302 640/1263/302 641/1264/302 629/1248/302
f 629/1248/303 641/1264/303 642/1265/303 630/1249/303
f 630/1249/304 642/1265/304 643/1266/304 631/1250/304
f 631/1250/305 643/1266/305 644/1267/305 632/1251/305
f 632/1252/306 644/1268/306 633/1253/306 621/1237/306
usemtl M_Rubber
f 33/73/19 34/74/19 36/75/19 35/76/19
f 35/76/20 36/75/20 38/77/20 37/78/20
f 37/79/21 38/80/21 40/81/21 39/82/21
f 39/82/22 40/81/22 42/83/22 41/84/22
f 41/84/23 42/83/23 44/85/23 43/86/23
f 43/86/24 44/85/24 46/87/24 45/88/24
f 45/88/25 46/87/25 48/89/25 47/90/25
f 47/90/26 48/89/26 50/91/26 49/92/26
f 49/93/27 50/94/27 52/95/27 51/96/27
f 51/96/28 52/95/28 54/97/28 53/98/28
f 53/98/29 54/97/29 56/99/29 55/100/29
f 55/100/30 56/99/30 58/101/30 57/102/30
f 57/103/31 58/104/31 60/105/31 59/106/31
f 59/106/32 60/105/32 62/107/32 61/108/32
f 61/108/33 62/107/33 64/109/33 63/110/33
f 63/110/34 64/109/34 66/111/34 65/112/34
f 65/112/35 66/111/35 68/113/35 67/114/35
f 67/114/36 68/113/36 70/115/36 69/116/36
f 36/117/37 34/118/37 72/119/37 70/120/37 68/121/37 66/122/37 64/123/37 62/124/37 60/125/37 58/126/37 56/127/37 54/128/37 52/129/37 50/130/37 48/131/37 46/132/37 44/133/37 42/134/37 40/135/37 38/136/37
f 69/137/38 70/138/38 72/139/38 71/140/38
f 71/140/39 72/139/39 34/74/39 33/73/39
f 33/141/40 35/142/40 37/143/40 39/144/40 41/145/40 43/146/40 45/147/40 47/148/40 49/149/40 51/150/40 53/151/40 55/152/40 57/153/40 59/154/40 61/155/40 63/156/40 65/157/40 67/158/40 69/159/40 71/160/40
f 105/233/19 106/234/19 108/235/19 107/236/19
f 107/236/20 108/235/20 110/237/20 109/238/20
f 109/239/21 110/240/21 112/241/21 111/242/21
f 111/242/22 112/241/22 114/243/22 113/244/22
f 113/244/23 114/243/23 116/245/23 115/246/23
f 115/246/24 116/245/24 118/247/24 117/248/24
f 117/248/25 118/247/25 120/249/25 119/250/25
f 119/250/26 120/249/26 122/251/26 121/252/26
f 121/253/27 122/254/27 124/255/27 123/256/27
f 123/256/28 124/255/28 126/257/28 125/258/28
f 125/258/29 126/257/29 128/259/29 127/260/29
f 127/260/30 128/259/30 130/261/30 129/262/30
f 129/263/31 130/264/31 132/265/31 131/266/31
f 131/266/32 132/265/32 134/267/32 133/268/32
f 133/268/33 134/267/33 136/269/33 135/270/33
f 135/270/34 136/269/34 138/271/34 137/272/34
f 137/272/35 138/271/35 140/273/35 139/274/35
f 139/274/36 140/273/36 142/275/36 141/276/36
f 108/277/37 106/278/37 144/279/37 142/280/37 140/281/37 138/282/37 136/283/37 134/284/37 132/285/37 130/286/37 128/287/37 126/288/37 124/289/37 122/290/37 120/291/37 118/292/37 116/293/37 114/294/37 112/295/37 110/296/37
f 141/297/38 142/298/38 144/299/38 143/300/38
f 143/300/39 144/299/39 106/234/39 105/233/39
f 105/301/40 107/302/40 109/303/40 111/304/40 113/305/40 115/306/40 117/307/40 119/308/40 121/309/40 123/310/40 125/311/40 127/312/40 129/313/40 131/314/40 133/315/40 135/316/40 137/317/40 139/318/40 141/319/40 143/320/40
f 177/393/19 178/394/19 180/395/19 179/396/19
f 179/396/20 180/395/20 182/397/20 181/398/20
f 181/398/21 182/397/21 184/399/21 183/400/21
f 183/401/22 184/402/22 186/403/22 185/404/22
f 185/404/23 186/403/23 188/405/23 187/406/23
f 187/406/24 188/405/24 190/407/24 189/408/24
f 189/408/25 190/407/25 192/409/25 191/410/25
f 191/411/26 192/412/26 194/413/26 193/414/26
f 193/414/27 194/413/27 196/415/27 195/416/27
f 195/416/28 196/415/28 198/417/28 197/418/28
f 197/418/29 198/417/29 200/419/29 199/420/29
f 199/420/30 200/419/30 202/421/30 201/422/30
f 201/423/31 202/424/31 204/425/31 203/426/31
f 203/426/32 204/425/32 206/427/32 205/428/32
f 205/428/33 206/427/33 208/429/33 207/430/33
f 207/430/34 208/429/34 210/431/34 209/432/34
f 209/432/35 210/431/35 212/433/35 211/434/35
f 211/435/36 212/436/36 214/437/36 213/438/36
f 180/439/37 178/440/37 216/441/37 214/442/37 212/443/37 210/444/37 208/445/37 206/446/37 204/447/37 202/448/37 200/449/37 198/450/37 196/451/37 194/452/37 192/453/37 190/454/37 188/455/37 186/456/37 184/457/37 182/458/37
f 213/438/38 214/437/38 216/459/38 215/460/38
f 215/460/39 216/459/39 178/394/39 177/393/39
f 177/461/40 179/462/40 181/463/40 183/464/40 185/465/40 187/466/40 189/467/40 191/468/40 193/469/40 195/470/40 197/471/40 199/472/40 201/473/40 203/474/40 205/475/40 207/476/40 209/477/40 211/478/40 213/479/40 215/480/40
f 249/553/19 250/554/19 252/555/19 251/556/19
f 251/556/20 252/555/20 254/557/20 253/558/20
f 253/558/21 254/557/21 256/559/21 255/560/21
f 255/561/22 256/562/22 258/563/22 257/564/22
f 257/564/23 258/563/23 260/565/23 259/566/23
f 259/566/24 260/565/24 262/567/24 261/568/24
f 261/568/25 262/567/25 264/569/25 263/570/25
f 263/571/26 264/572/26 266/573/26 265/574/26
f 265/574/27 266/573/27 268/575/27 267/576/27
f 267/576/28 268/575/28 270/577/28 269/578/28
f 269/578/29 270/577/29 272/579/29 271/580/29
f 271/580/30 272/579/30 274/581/30 273/582/30
f 273/583/31 274/584/31 276/585/31 275/586/31
f 275/586/32 276/585/32 278/587/32 277/588/32
f 277/588/33 278/587/33 280/589/33 279/590/33
f 279/590/34 280/589/34 282/591/34 281/592/34
f 281/592/35 282/591/35 284/593/35 283/594/35
f 283/595/36 284/596/36 286/597/36 285/598/36
f 252/599/37 250/600/37 288/601/37 286/602/37 284/603/37 282/604/37 280/605/37 278/606/37 276/607/37 274/608/37 272/609/37 270/610/37 268/611/37 266/612/37 264/613/37 262/614/37 260/615/37 258/616/37 256/617/37 254/618/37
f 285/598/38 286/597/38 288/619/38 287/620/38
f 287/620/39 288/619/39 250/554/39 249/553/39
f 249/621/40 251/622/40 253/623/40 255/624/40 257/625/40 259/626/40 261/627/40 263/628/40 265/629/40 267/630/40 269/631/40 271/632/40 273/633/40 275/634/40 277/635/40 279/636/40 281/637/40 283/638/40 285/639/40 287/640/40
