# Blender 5.0.1
# www.blender.org
mtllib oversleeve.mtl
o SM_Oversleeve
v 3.999023 3.607049 0.003245
v 19.999023 3.144387 -0.001490
v 3.999114 3.499464 -0.693682
v 19.999115 3.099690 -0.616072
v 3.999104 3.288740 -1.362918
v 19.999105 2.907501 -1.202131
v 3.999002 2.984143 -1.997613
v 19.999002 2.590690 -1.728919
v 3.998898 2.567069 -2.570982
v 19.998901 2.187467 -2.187557
v 3.998885 2.027184 -3.033932
v 19.998886 1.721774 -2.580125
v 3.998974 1.389463 -3.347292
v 19.998976 1.196751 -2.894388
v 3.999086 0.701652 -3.511711
v 19.999088 0.615610 -3.096731
v 3.999121 0.000668 -3.557872
v 19.999123 0.001578 -3.155236
v 3.999048 -0.699759 -3.505991
v 19.999050 -0.608097 -3.067945
v 3.998933 -1.387395 -3.340965
v 19.998936 -1.185243 -2.863444
v 3.998876 -2.027493 -3.032041
v 19.998877 -1.720477 -2.572613
v 3.998930 -2.571327 -2.573906
v 19.998932 -2.206900 -2.203833
v 3.999046 -2.989860 -2.001746
v 19.999048 -2.619475 -1.748891
v 3.999121 -3.290812 -1.365111
v 19.999123 -2.919014 -1.210057
v 3.999089 -3.495327 -0.693991
v 19.999090 -3.079715 -0.614775
v 3.998978 -3.599863 0.003247
v 19.998980 -3.108674 -0.001488
v 3.998888 -3.568975 0.712317
v 19.998888 -3.033225 0.603840
v 3.998898 -3.369578 1.395047
v 19.998896 -2.869574 1.190811
v 3.998999 -3.008185 2.006333
v 19.999001 -2.608538 1.745097
v 3.999103 -2.528991 2.525078
v 19.999105 -2.234118 2.234028
v 3.999116 -1.976763 2.958396
v 19.999119 -1.752241 2.619105
v 3.999027 -1.368502 3.311025
v 19.999027 -1.196189 2.882686
v 3.998915 -0.704347 3.556726
v 19.998919 -0.604302 3.036183
v 3.998880 0.000666 3.649041
v 19.998880 0.001578 3.097827
v 3.998953 0.706240 3.562439
v 19.998955 0.611816 3.064962
v 3.999069 1.370572 3.317357
v 19.999071 1.207702 2.913634
v 3.999125 1.976454 2.960290
v 19.999126 1.753539 2.626620
v 3.999071 2.524728 2.522149
v 19.999071 2.214680 2.217747
v 3.998956 3.002470 2.002201
v 19.998957 2.579757 1.725124
v 3.998880 3.367511 1.392858
v 19.998880 2.858065 1.182888
v 3.998913 3.573104 0.712008
v 19.998915 3.053193 0.605137
v 3.995115 3.474751 0.004610
v 19.995115 3.012089 -0.000124
v 3.995570 3.370019 -0.665665
v 19.995571 2.970247 -0.588053
v 3.995520 3.166707 -1.311175
v 19.995522 2.785468 -1.150386
v 3.995011 2.873384 -1.924812
v 19.995014 2.479932 -1.656117
v 3.994494 2.471880 -2.478922
v 19.994495 2.092276 -2.095499
v 3.994429 1.952478 -2.924751
v 19.994431 1.647063 -2.470946
v 3.994874 1.339387 -3.224864
v 19.994875 1.146674 -2.771960
v 3.995433 0.677903 -3.381476
v 19.995436 0.591863 -2.966496
v 3.995608 0.002431 -3.425366
v 19.995611 0.003344 -3.022730
v 3.995245 -0.674056 -3.375946
v 19.995247 -0.582393 -2.937899
v 3.994666 -1.338495 -3.217841
v 19.994669 -1.136345 -2.740319
v 3.994385 -1.955634 -2.920912
v 19.994389 -1.648622 -2.461482
v 3.994652 -2.477999 -2.480184
v 19.994652 -2.113575 -2.110109
v 3.995232 -2.878907 -1.929633
v 19.995232 -2.508522 -1.676779
v 3.995606 -3.167619 -1.316412
v 19.995609 -2.795820 -1.161361
v 3.995444 -3.365180 -0.668821
v 19.995447 -2.949567 -0.589606
v 3.994890 -3.467345 0.004618
v 19.994894 -2.976156 -0.000116
v 3.994437 -3.438710 0.688672
v 19.994436 -2.902958 0.580199
v 3.994485 -3.246951 1.345447
v 19.994488 -2.746945 1.141214
v 3.994995 -2.898748 1.932013
v 19.994997 -2.499101 1.670777
v 3.995512 -2.436939 2.429897
v 19.995514 -2.142068 2.138846
v 3.995576 -1.904350 2.847391
v 19.995579 -1.679830 2.508099
v 3.995132 -1.317227 3.188790
v 19.995134 -1.144916 2.760450
v 3.994574 -0.676434 3.427249
v 19.994576 -0.576387 2.906706
v 3.994397 0.002425 3.516739
v 19.994398 0.003341 2.965524
v 3.994760 0.680282 3.432745
v 19.994761 0.585860 2.935268
v 3.995340 1.318139 3.195831
v 19.995340 1.155268 2.792109
v 3.995620 1.901192 2.851246
v 19.995625 1.678275 2.517577
v 3.995352 2.430796 2.428609
v 19.995352 2.120748 2.124207
v 3.994776 2.893245 1.927188
v 19.994778 2.470532 1.650110
v 3.994401 3.246060 1.340226
v 19.994398 2.736615 1.130252
v 3.994560 3.443516 0.685513
v 19.994562 2.923607 0.578639
v 3.999078 3.568254 -0.348141
v 19.999077 3.140431 -0.309925
v 11.999756 3.400525 0.000622
v 11.999779 3.323848 -0.660131
v 3.999123 3.405663 -1.032049
v 19.999125 3.021215 -0.914947
v 11.999777 3.121002 -1.292227
v 3.999060 3.149080 -1.685683
v 19.999060 2.762267 -1.473923
v 11.999752 2.808183 -1.876916
v 3.998944 2.790873 -2.294830
v 19.998947 2.397909 -1.966584
v 11.999724 2.395117 -2.396530
v 3.998878 2.311654 -2.819315
v 19.998880 1.961961 -2.392388
v 11.999722 1.888487 -2.827500
v 3.998920 1.717691 -3.210151
v 19.998922 1.466748 -2.748863
v 11.999745 1.302496 -3.143795
v 3.999034 1.049034 -3.446439
v 19.999037 0.912193 -3.011921
v 11.999772 0.663084 -3.328640
v 3.999117 0.351611 -3.547704
v 19.999121 0.310437 -3.144838
v 11.999783 0.000792 -3.381399
v 3.999096 -0.350094 -3.544459
v 19.999098 -0.305942 -3.128425
v 11.999763 -0.658747 -3.311352
v 3.998990 -1.046840 -3.439656
v 19.998993 -0.901612 -2.978130
v 11.999735 -1.295488 -3.125290
v 3.998892 -1.716470 -3.205656
v 19.998894 -1.458323 -2.727777
v 11.999721 -1.887458 -2.823165
v 3.998890 -2.313969 -2.820102
v 19.998894 -1.970913 -2.398399
v 11.999734 -2.406612 -2.406443
v 3.998987 -2.796418 -2.298873
v 19.998987 -2.424825 -1.987452
v 11.999763 -2.825472 -1.888839
v 3.999095 -3.153561 -1.689049
v 19.999100 -2.785555 -1.488705
v 11.999783 -3.128011 -1.296715
v 3.999119 -3.404600 -1.033132
v 19.999121 -3.016939 -0.917028
v 11.999773 -3.311924 -0.659102
v 3.999038 -3.561904 -0.348154
v 19.999037 -3.109052 -0.308371
v 11.999745 -3.379116 0.000622
v 3.998924 -3.603930 0.358258
v 19.998924 -3.082499 0.302981
v 11.999724 -3.325525 0.662512
v 3.998878 -3.490898 1.059998
v 19.998880 -2.962571 0.900214
v 11.999726 -3.142569 1.302229
v 3.998942 -3.206822 1.711619
v 19.998941 -2.752416 1.473738
v 11.999752 -2.828881 1.889650
v 3.999058 -2.780126 2.277171
v 19.999060 -2.435755 2.000302
v 11.999778 -2.398814 2.397400
v 3.999124 -2.260348 2.751683
v 19.999126 -2.004927 2.441277
v 11.999781 -1.878079 2.809564
v 3.999080 -1.679610 3.145752
v 19.999083 -1.480912 2.765821
v 11.999759 -1.291959 3.119774
v 3.998967 -1.043013 3.450121
v 19.998968 -0.902966 2.971863
v 11.999730 -0.659559 3.320732
v 3.998884 -0.354789 3.624481
v 19.998886 -0.302469 3.078093
v 11.999722 0.000792 3.398241
v 3.998906 0.356303 3.627722
v 19.998907 0.306962 3.094501
v 11.999739 0.663895 3.338018
v 3.999012 1.045210 3.456901
v 19.999012 0.913550 3.005651
v 11.999769 1.298969 3.138281
v 3.999109 1.680833 3.150253
v 19.999111 1.489340 2.786913
v 11.999783 1.879108 2.813901
v 3.999111 2.258029 2.750895
v 19.999111 1.995971 2.435264
v 11.999770 2.387316 2.387487
v 3.999015 2.774579 2.273125
v 19.999018 2.408838 1.979430
v 11.999741 2.811594 1.877728
v 3.998907 3.202347 1.708255
v 19.998909 2.729135 1.458958
v 11.999722 3.135560 1.297742
v 3.998883 3.491959 1.058918
v 19.998884 2.966845 0.898134
v 11.999730 3.337447 0.663540
v 3.998964 3.610275 0.358243
v 19.998962 3.113873 0.304532
v 3.995387 3.436740 -0.333151
v 19.995390 3.008917 -0.294933
v 11.994384 3.218614 0.002499
v 11.994905 3.145862 -0.621605
v 3.995616 3.279417 -0.991787
v 19.995617 2.894971 -0.874682
v 11.994848 2.953206 -1.221078
v 3.995299 3.032193 -1.623140
v 19.995300 2.645381 -1.411379
v 11.994263 2.655891 -1.776814
v 3.994720 2.687310 -2.212188
v 19.994722 2.294345 -1.883944
v 11.993670 2.264230 -2.269949
v 3.994391 2.226101 -2.718335
v 19.994396 1.876404 -2.291410
v 11.993594 1.785763 -2.677377
v 3.994605 1.654911 -3.093741
v 19.994610 1.403965 -2.632455
v 11.994104 1.233641 -2.975456
v 3.995173 1.012088 -3.319390
v 19.995174 0.875248 -2.884873
v 11.994748 0.630430 -3.149567
v 3.995588 0.340810 -3.415689
v 19.995592 0.299639 -3.012822
v 11.994950 0.003218 -3.199204
v 3.995481 -0.336201 -3.412629
v 19.995481 -0.292047 -2.996595
v 11.994533 -0.623405 -3.132539
v 3.994949 -1.009504 -3.312486
v 19.994951 -0.864277 -2.850959
v 11.993868 -1.228252 -2.955994
v 3.994464 -1.656020 -3.087851
v 19.994467 -1.397876 -2.609970
v 11.993544 -1.788655 -2.670359
v 3.994456 -2.231046 -2.717040
v 19.994457 -1.887993 -2.295334
v 11.993851 -2.278288 -2.277573
v 3.994934 -2.693668 -2.215573
v 19.994936 -2.322076 -1.904152
v 11.994516 -2.672911 -1.789685
v 3.995473 -3.035794 -1.628556
v 19.995476 -2.667786 -1.428215
v 11.994948 -2.958620 -1.229756
v 3.995593 -3.277316 -0.996208
v 19.995596 -2.889655 -0.880106
v 11.994761 -3.132971 -0.624494
v 3.995188 -3.430017 -0.334785
v 19.995190 -2.977165 -0.295003
v 11.994125 -3.196903 0.002508
v 3.994619 -3.471916 0.347296
v 19.994621 -2.950485 0.292022
v 11.993602 -3.146409 0.630003
v 3.994390 -3.363742 1.023387
v 19.994392 -2.835412 0.863607
v 11.993658 -2.973955 1.234031
v 3.994706 -3.090153 1.649326
v 19.994707 -2.635746 1.411449
v 11.994245 -2.678405 1.787460
v 3.995286 -2.678986 2.191825
v 19.995291 -2.334616 1.914956
v 11.994841 -2.272244 2.266525
v 3.995615 -2.177916 2.647967
v 19.995617 -1.922498 2.337559
v 11.994912 -1.778513 2.656931
v 3.995399 -1.617552 3.028608
v 19.995401 -1.418855 2.648677
v 11.994401 -1.221458 2.951700
v 3.994833 -1.003082 3.323761
v 19.994835 -0.863034 2.845504
v 11.993760 -0.621176 3.142701
v 3.994418 -0.339638 3.492973
v 19.994419 -0.287314 2.946584
v 11.993556 0.003213 3.216325
v 3.994523 0.344238 3.496006
v 19.994528 0.294902 2.962785
v 11.993974 0.628204 3.159689
v 3.995056 1.005679 3.330655
v 19.995060 0.874020 2.879406
v 11.994641 1.226872 2.971184
v 3.995542 1.616457 3.034527
v 19.995546 1.424962 2.671188
v 11.994964 1.775621 2.663966
v 3.995549 2.172952 2.649254
v 19.995552 1.910893 2.333624
v 11.994656 2.258160 2.258869
v 3.995071 2.672622 2.188418
v 19.995073 2.306882 1.894724
v 11.993992 2.661409 1.774584
v 3.994534 3.086583 1.643921
v 19.994535 2.613373 1.394621
v 11.993561 2.968565 1.225370
v 3.994412 3.365833 1.018976
v 19.994415 2.840720 0.858188
v 11.993745 3.159264 0.627108
v 3.994816 3.478613 0.345650
v 19.994816 2.982211 0.291937
v 0.997069 3.627649 0.004815
v 22.997070 2.991489 -0.001695
v 0.997342 3.509698 -0.694225
v 22.997341 2.960012 -0.587510
v 0.997312 3.299206 -1.367194
v 22.997313 2.775002 -1.146111
v 0.997006 3.002536 -2.011593
v 22.997007 2.461539 -1.642138
v 0.996696 2.590651 -2.596844
v 22.996702 2.068696 -2.069636
v 0.996656 2.047096 -3.064430
v 22.996660 1.627154 -2.440447
v 0.996923 1.400558 -3.370997
v 22.996925 1.135579 -2.748254
v 0.997259 0.705911 -3.524402
v 22.997261 0.587603 -2.953804
v 0.997364 0.001378 -3.567114
v 22.997366 0.002632 -3.013489
v 0.997146 -0.704095 -3.523103
v 22.997149 -0.578058 -2.920789
v 0.996799 -1.400849 -3.368938
v 22.996801 -1.122890 -2.712346
v 0.996630 -2.049129 -3.062620
v 22.996632 -1.626984 -2.430904
v 0.996791 -2.592993 -2.596433
v 22.996792 -2.091908 -2.087582
v 0.997139 -3.003831 -2.013099
v 22.997143 -2.494551 -1.665425
v 0.997364 -3.298927 -1.369834
v 22.997364 -2.787704 -1.156636
v 0.997266 -3.508181 -0.696259
v 22.997269 -2.936713 -0.587337
v 0.996934 -3.625702 0.004820
v 22.996935 -2.950316 -0.001690
v 0.996662 -3.604296 0.720834
v 22.996662 -2.867638 0.571681
v 0.996692 -3.402016 1.408541
v 22.996695 -2.714509 1.127719
v 0.996997 -3.028400 2.018155
v 22.996998 -2.478885 1.658955
v 0.997308 -2.538254 2.532059
v 22.997311 -2.132804 2.131865
v 0.997346 -1.982654 2.966510
v 22.997347 -1.673938 2.499985
v 0.997079 -1.375173 3.330221
v 22.997082 -1.138244 2.741254
v 0.996744 -0.709149 3.589590
v 22.996748 -0.571586 2.873843
v 0.996639 0.001374 3.686243
v 22.996639 0.002631 2.928323
v 0.996856 0.710965 3.590869
v 22.996859 0.581133 2.906838
v 0.997204 1.374894 3.332292
v 22.997208 1.150947 2.777173
v 0.997372 1.980620 2.968332
v 22.997375 1.674110 2.509536
v 0.997212 2.535896 2.532454
v 22.997213 2.109580 2.113901
v 0.996865 3.027116 2.016646
v 22.996866 2.445886 1.635665
v 0.996641 3.402306 1.405912
v 22.996641 2.701819 1.117200
v 0.996736 3.605793 0.718799
v 22.996735 2.890917 0.571849
v 11.999769 3.379002 -0.331844
v 11.999783 3.237110 -0.981048
v 11.999765 2.977590 -1.591530
v 11.999736 2.613809 -2.146202
v 11.999719 2.152849 -2.624785
v 11.999730 1.603991 -3.001333
v 11.999759 0.987541 -3.253002
v 11.999779 0.333049 -3.371024
v 11.999774 -0.330624 -3.361160
v 11.999748 -0.981226 -3.232738
v 11.999722 -1.598731 -2.988804
v 11.999723 -2.157989 -2.628575
v 11.999746 -2.629886 -2.158781
v 11.999774 -2.991640 -1.600219
v 11.999779 -3.234635 -0.982003
v 11.999760 -3.360207 -0.330769
v 11.999731 -3.367967 0.332675
v 11.999722 -3.250576 0.986970
v 11.999736 -3.001495 1.604358
v 11.999765 -2.626904 2.154739
v 11.999783 -2.148093 2.615927
v 11.999771 -1.591897 2.977751
v 11.999743 -0.980477 3.234684
v 11.999722 -0.331470 3.375945
v 11.999728 0.333894 3.385808
v 11.999754 0.986792 3.254947
v 11.999779 1.597157 2.990282
v 11.999779 2.142952 2.612137
v 11.999755 2.610825 2.142160
v 11.999728 2.987447 1.595670
v 11.999722 3.253051 0.986016
v 11.999742 3.386760 0.333749
v 11.994696 3.198170 -0.311231
v 11.994958 3.063524 -0.925685
v 11.994595 2.816871 -1.505533
v 11.993929 2.471409 -2.032570
v 11.993551 2.035211 -2.485939
v 11.993797 1.517667 -2.841272
v 11.994450 0.936741 -3.078310
v 11.994927 0.318199 -3.189502
v 11.994805 -0.311518 -3.179894
v 11.994193 -0.929890 -3.057878
v 11.993635 -1.515614 -2.826822
v 11.993626 -2.043972 -2.486862
v 11.994176 -2.488607 -2.044244
v 11.994795 -2.829708 -1.517043
v 11.994932 -3.059620 -0.931234
v 11.994468 -3.178862 -0.312387
v 11.993813 -3.186448 0.317604
v 11.993549 -3.075735 0.936633
v 11.993911 -2.841074 1.518708
v 11.994579 -2.487837 2.037388
v 11.994958 -2.034751 2.473316
v 11.994709 -1.506568 2.816678
v 11.994058 -0.925571 3.060940
v 11.993582 -0.310635 3.195121
v 11.993702 0.317308 3.204699
v 11.994315 0.932438 3.081359
v 11.994875 1.508639 2.831159
v 11.994882 2.025970 2.472381
v 11.994333 2.470635 2.025688
v 11.993715 2.828273 1.507208
v 11.993575 3.079628 0.931092
v 11.994040 3.205726 0.316432
v 0.997232 3.582714 -0.347811
v 22.997234 2.994457 -0.295263
v 0.997369 3.414624 -1.033875
v 22.997370 2.886009 -0.872858
v 0.997179 3.163164 -1.694117
v 22.997181 2.631297 -1.402946
v 0.996832 2.812772 -2.315054
v 22.996834 2.272446 -1.863718
v 0.996634 2.334445 -2.848873
v 22.996635 1.853614 -2.261850
v 0.996762 1.733353 -3.238437
v 22.996765 1.388305 -2.604168
v 0.997103 1.056219 -3.464386
v 22.997105 0.868063 -2.866925
v 0.997352 0.353930 -3.557234
v 22.997356 0.297318 -3.003292
v 0.997288 -0.351426 -3.556550
v 22.997292 -0.290716 -2.984504
v 0.996969 -1.055402 -3.462607
v 22.996971 -0.855714 -2.828009
v 0.996678 -1.734648 -3.236356
v 22.996681 -1.379698 -2.579271
v 0.996673 -2.336830 -2.847641
v 22.996674 -1.865130 -2.267797
v 0.996960 -2.814717 -2.315614
v 22.996960 -2.303777 -1.887411
v 0.997284 -3.163679 -1.696367
v 22.997286 -2.657669 -1.420895
v 0.997356 -3.413645 -1.036439
v 22.997358 -2.880611 -0.876798
v 0.997113 -3.580870 -0.348928
v 22.997116 -2.958199 -0.294228
v 0.996772 -3.635691 0.363142
v 22.996773 -2.918723 0.287137
v 0.996634 -3.526381 1.071652
v 22.996635 -2.799930 0.851951
v 0.996824 -3.233689 1.725075
v 22.996824 -2.608880 1.397991
v 0.997172 -2.794125 2.286411
v 22.997175 -2.320616 1.905716
v 0.997369 -2.267024 2.758026
v 22.997370 -1.915821 2.331217
v 0.997240 -1.685837 3.158417
v 22.997240 -1.412628 2.636012
v 0.996900 -1.049307 3.476614
v 22.996901 -0.856741 2.819010
v 0.996651 -0.357024 3.661175
v 22.996653 -0.285081 2.909891
v 0.996714 0.359522 3.661842
v 22.996716 0.291681 2.928663
v 0.997034 1.050131 3.478387
v 22.997036 0.869099 2.857919
v 0.997326 1.684550 3.160516
v 22.997328 1.421246 2.660925
v 0.997330 2.264627 2.759255
v 22.997330 1.904296 2.325263
v 0.997043 2.792177 2.285840
v 22.997046 2.289284 1.882009
v 0.996720 3.233192 1.722832
v 22.996721 2.582527 1.380046
v 0.996647 3.527355 1.069094
v 22.996647 2.805324 0.848013
v 0.996890 3.637519 0.362018
v 22.996891 2.954966 0.288164
vn 0.0247 0.9958 -0.0878
vn 0.0309 0.9987 -0.0397
vn 0.0292 0.9883 -0.1494
vn 0.0230 0.9832 -0.1809
vn 0.0221 0.9643 -0.2641
vn 0.0283 0.9659 -0.2575
vn 0.0285 0.9331 -0.3584
vn 0.0223 0.9398 -0.3411
vn 0.0236 0.9099 -0.4141
vn 0.0298 0.8921 -0.4509
vn 0.0317 0.8453 -0.5334
vn 0.0255 0.8723 -0.4883
vn 0.0277 0.8250 -0.5645
vn 0.0339 0.7943 -0.6066
vn 0.0359 0.7389 -0.6728
vn 0.0297 0.7652 -0.6431
vn 0.0309 0.6913 -0.7219
vn 0.0371 0.6789 -0.7333
vn 0.0374 0.6116 -0.7903
vn 0.0312 0.6050 -0.7956
vn 0.0304 0.5075 -0.8611
vn 0.0365 0.5357 -0.8436
vn 0.0348 0.4497 -0.8925
vn 0.0286 0.4056 -0.9136
vn 0.0264 0.3029 -0.9527
vn 0.0327 0.3536 -0.9348
vn 0.0305 0.2500 -0.9678
vn 0.0243 0.2052 -0.9784
vn 0.0227 0.1145 -0.9932
vn 0.0290 0.1410 -0.9896
vn 0.0283 0.0324 -0.9991
vn 0.0221 0.0300 -0.9993
vn 0.0225 -0.0493 -0.9985
vn 0.0287 -0.0734 -0.9969
vn 0.0301 -0.1723 -0.9846
vn 0.0239 -0.1291 -0.9913
vn 0.0259 -0.2115 -0.9770
vn 0.0322 -0.2636 -0.9641
vn 0.0344 -0.3481 -0.9368
vn 0.0281 -0.3002 -0.9535
vn 0.0300 -0.3947 -0.9183
vn 0.0362 -0.4267 -0.9037
vn 0.0373 -0.5029 -0.8635
vn 0.0311 -0.4921 -0.8700
vn 0.0311 -0.5892 -0.8074
vn 0.0373 -0.5774 -0.8156
vn 0.0363 -0.6515 -0.7577
vn 0.0301 -0.6790 -0.7336
vn 0.0282 -0.7587 -0.6508
vn 0.0344 -0.7243 -0.6886
vn 0.0322 -0.7929 -0.6085
vn 0.0260 -0.8243 -0.5655
vn 0.0239 -0.8765 -0.4808
vn 0.0302 -0.8551 -0.5177
vn 0.0287 -0.9069 -0.4204
vn 0.0225 -0.9164 -0.3996
vn 0.0221 -0.9463 -0.3225
vn 0.0283 -0.9474 -0.3189
vn 0.0289 -0.9754 -0.2185
vn 0.0227 -0.9690 -0.2459
vn 0.0243 -0.9855 -0.1679
vn 0.0305 -0.9921 -0.1213
vn 0.0326 -0.9990 -0.0290
vn 0.0264 -0.9962 -0.0830
vn 0.0285 -0.9995 0.0103
vn 0.0348 -0.9977 0.0585
vn 0.0365 -0.9889 0.1438
vn 0.0303 -0.9932 0.1124
vn 0.0312 -0.9746 0.2219
vn 0.0374 -0.9729 0.2282
vn 0.0372 -0.9485 0.3147
vn 0.0310 -0.9426 0.3324
vn 0.0298 -0.8972 0.4406
vn 0.0359 -0.9143 0.4035
vn 0.0340 -0.8688 0.4940
vn 0.0278 -0.8419 0.5389
vn 0.0256 -0.7797 0.6256
vn 0.0318 -0.8110 0.5842
vn 0.0298 -0.7422 0.6695
vn 0.0236 -0.7151 0.6986
vn 0.0224 -0.6506 0.7591
vn 0.0286 -0.6634 0.7477
vn 0.0283 -0.5791 0.8148
vn 0.0221 -0.5859 0.8101
vn 0.0230 -0.5203 0.8537
vn 0.0292 -0.4916 0.8703
vn 0.0309 -0.4047 0.9139
vn 0.0247 -0.4491 0.8931
vn 0.0268 -0.3703 0.9285
vn 0.0331 -0.3196 0.9470
vn 0.0352 -0.2357 0.9712
vn 0.0289 -0.2802 0.9595
vn 0.0305 -0.1785 0.9835
vn 0.0368 -0.1523 0.9877
vn 0.0374 -0.0659 0.9971
vn 0.0312 -0.0679 0.9972
vn 0.0308 0.0489 0.9983
vn 0.0370 0.0247 0.9990
vn 0.0356 0.1208 0.9920
vn 0.0294 0.1640 0.9860
vn 0.0273 0.2740 0.9614
vn 0.0336 0.2221 0.9744
vn 0.0313 0.3253 0.9451
vn 0.0251 0.3728 0.9276
vn 0.0233 0.4597 0.8877
vn 0.0295 0.4280 0.9033
vn 0.0284 0.5245 0.8509
vn 0.0222 0.5355 0.8442
vn 0.0222 0.6018 0.7983
vn 0.0284 0.6131 0.7895
vn 0.0295 0.6903 0.7229
vn 0.0232 0.6635 0.7478
vn 0.0251 0.7221 0.6914
vn 0.0313 0.7565 0.6533
vn 0.0335 0.8124 0.5821
vn 0.0273 0.7803 0.6248
vn 0.0293 0.8372 0.5461
vn 0.0356 0.8595 0.5099
vn 0.0370 0.9000 0.4344
vn 0.0308 0.8901 0.4547
vn 0.0312 0.9360 0.3507
vn 0.0374 0.9343 0.3544
vn 0.0368 0.9630 0.2671
vn 0.0306 0.9703 0.2400
vn 0.0290 0.9917 0.1255
vn 0.0352 0.9845 0.1718
vn 0.0331 0.9971 0.0691
vn 0.0269 0.9995 0.0153
vn -0.0309 -0.9955 0.0893
vn -0.0292 -0.9829 0.1820
vn -0.0230 -0.9886 0.1490
vn -0.0247 -0.9989 0.0387
vn -0.0283 -0.9640 0.2645
vn -0.0285 -0.9397 0.3409
vn -0.0223 -0.9330 0.3591
vn -0.0221 -0.9660 0.2577
vn -0.0298 -0.9101 0.4133
vn -0.0317 -0.8727 0.4871
vn -0.0255 -0.8448 0.5345
vn -0.0236 -0.8917 0.4519
vn -0.0339 -0.8256 0.5633
vn -0.0359 -0.7658 0.6420
vn -0.0297 -0.7387 0.6734
vn -0.0277 -0.7938 0.6075
vn -0.0371 -0.6917 0.7212
vn -0.0374 -0.6050 0.7954
vn -0.0312 -0.6122 0.7901
vn -0.0309 -0.6790 0.7334
vn -0.0365 -0.5069 0.8613
vn -0.0348 -0.4044 0.9139
vn -0.0286 -0.4510 0.8920
vn -0.0303 -0.5368 0.8432
vn -0.0326 -0.3014 0.9529
vn -0.0305 -0.2037 0.9785
vn -0.0243 -0.2509 0.9677
vn -0.0265 -0.3548 0.9346
vn -0.0289 -0.1134 0.9931
vn -0.0283 -0.0296 0.9992
vn -0.0221 -0.0321 0.9992
vn -0.0228 -0.1413 0.9897
vn -0.0287 0.0490 0.9984
vn -0.0301 0.1282 0.9913
vn -0.0239 0.1734 0.9846
vn -0.0225 0.0743 0.9970
vn -0.0321 0.2103 0.9771
vn -0.0343 0.2988 0.9537
vn -0.0282 0.3490 0.9367
vn -0.0260 0.2648 0.9640
vn -0.0362 0.3936 0.9186
vn -0.0373 0.4914 0.8701
vn -0.0311 0.5029 0.8638
vn -0.0300 0.4273 0.9036
vn -0.0373 0.5891 0.8072
vn -0.0363 0.6794 0.7329
vn -0.0301 0.6508 0.7587
vn -0.0311 0.5769 0.8162
vn -0.0344 0.7594 0.6497
vn -0.0322 0.8251 0.5641
vn -0.0260 0.7923 0.6096
vn -0.0282 0.7235 0.6898
vn -0.0301 0.8770 0.4795
vn -0.0287 0.9166 0.3987
vn -0.0225 0.9070 0.4206
vn -0.0240 0.8548 0.5184
vn -0.0283 0.9462 0.3222
vn -0.0289 0.9688 0.2463
vn -0.0227 0.9757 0.2177
vn -0.0221 0.9477 0.3185
vn -0.0305 0.9852 0.1688
vn -0.0326 0.9959 0.0842
vn -0.0264 0.9993 0.0279
vn -0.0243 0.9925 0.1202
vn -0.0347 0.9994 -0.0090
vn -0.0365 0.9931 -0.1113
vn -0.0303 0.9891 -0.1442
vn -0.0286 0.9978 -0.0594
vn -0.0374 0.9745 -0.2213
vn -0.0372 0.9424 -0.3325
vn -0.0310 0.9489 -0.3140
vn -0.0312 0.9732 -0.2280
vn -0.0359 0.8966 -0.4413
vn -0.0340 0.8410 -0.5400
vn -0.0278 0.8697 -0.4929
vn -0.0298 0.9150 -0.4024
vn -0.0317 0.7786 -0.6267
vn -0.0298 0.7141 -0.6994
vn -0.0236 0.7428 -0.6691
vn -0.0256 0.8118 -0.5833
vn -0.0286 0.6499 -0.7595
vn -0.0283 0.5857 -0.8101
vn -0.0221 0.5787 -0.8152
vn -0.0224 0.6635 -0.7478
vn -0.0292 0.5207 -0.8533
vn -0.0309 0.4500 -0.8925
vn -0.0247 0.4037 -0.9146
vn -0.0230 0.4908 -0.8710
vn -0.0330 0.3714 -0.9279
vn -0.0351 0.2815 -0.9589
vn -0.0290 0.2350 -0.9716
vn -0.0269 0.3186 -0.9475
vn -0.0367 0.1794 -0.9831
vn -0.0374 0.0684 -0.9970
vn -0.0312 0.0662 -0.9973
vn -0.0306 0.1521 -0.9879
vn -0.0370 -0.0492 -0.9981
vn -0.0356 -0.1649 -0.9857
vn -0.0294 -0.1196 -0.9924
vn -0.0308 -0.0237 -0.9992
vn -0.0335 -0.2753 -0.9608
vn -0.0313 -0.3741 -0.9268
vn -0.0252 -0.3243 -0.9456
vn -0.0274 -0.2208 -0.9749
vn -0.0295 -0.4608 -0.8870
vn -0.0284 -0.5360 -0.8438
vn -0.0222 -0.5247 -0.8510
vn -0.0233 -0.4276 -0.9037
vn -0.0284 -0.6017 -0.7982
vn -0.0295 -0.6629 -0.7482
vn -0.0232 -0.6911 -0.7224
vn -0.0222 -0.6137 -0.7892
vn -0.0313 -0.7212 -0.6921
vn -0.0335 -0.7793 -0.6257
vn -0.0273 -0.8132 -0.5814
vn -0.0251 -0.7574 -0.6525
vn -0.0355 -0.8363 -0.5471
vn -0.0370 -0.8895 -0.4554
vn -0.0308 -0.9002 -0.4343
vn -0.0294 -0.8600 -0.5094
vn -0.0374 -0.9357 -0.3509
vn -0.0368 -0.9702 -0.2395
vn -0.0306 -0.9629 -0.2682
vn -0.0312 -0.9344 -0.3550
vn -0.0352 -0.9916 -0.1244
vn -0.0331 -0.9994 -0.0138
vn -0.0269 -0.9972 -0.0704
vn -0.0290 -0.9845 -0.1732
vn 0.0058 0.9930 -0.1181
vn 0.0040 0.9796 -0.2008
vn -0.0481 -0.9783 0.2013
vn -0.0497 -0.9916 0.1191
vn 0.0481 0.9911 -0.1245
vn 0.0498 0.9988 -0.0016
vn -0.0058 -1.0000 0.0003
vn -0.0041 -0.9923 0.1239
vn 0.0032 0.9633 -0.2684
vn 0.0034 0.9439 -0.3302
vn -0.0475 -0.9429 0.3296
vn -0.0473 -0.9622 0.2683
vn 0.0475 0.9271 -0.3718
vn 0.0473 0.9665 -0.2522
vn -0.0032 -0.9676 0.2525
vn -0.0034 -0.9279 0.3727
vn 0.0046 0.9205 -0.3906
vn 0.0065 0.8882 -0.4594
vn -0.0506 -0.8875 0.4579
vn -0.0487 -0.9197 0.3895
vn 0.0506 0.8217 -0.5676
vn 0.0487 0.8764 -0.4791
vn -0.0046 -0.8769 0.4806
vn -0.0066 -0.8220 0.5694
vn 0.0087 0.8431 -0.5376
vn 0.0107 0.7811 -0.6243
vn -0.0547 -0.7806 0.6227
vn -0.0527 -0.8426 0.5360
vn 0.0548 0.7166 -0.6953
vn 0.0528 0.7678 -0.6385
vn -0.0088 -0.7680 0.6403
vn -0.0108 -0.7170 0.6970
vn 0.0120 0.6991 -0.7149
vn 0.0123 0.6011 -0.7991
vn -0.0563 -0.6002 0.7979
vn -0.0560 -0.6985 0.7135
vn 0.0563 0.6165 -0.7853
vn 0.0561 0.6684 -0.7417
vn -0.0120 -0.6692 0.7430
vn -0.0123 -0.6178 0.7863
vn 0.0114 0.4899 -0.8717
vn 0.0097 0.3778 -0.9259
vn -0.0536 -0.3762 0.9250
vn -0.0554 -0.4886 0.8708
vn 0.0536 0.4840 -0.8734
vn 0.0554 0.5576 -0.8283
vn -0.0114 -0.5593 0.8289
vn -0.0097 -0.4860 0.8739
vn 0.0075 0.2707 -0.9626
vn 0.0054 0.1767 -0.9842
vn -0.0493 -0.1754 0.9833
vn -0.0514 -0.2691 0.9617
vn 0.0494 0.2848 -0.9573
vn 0.0515 0.3929 -0.9182
vn -0.0076 -0.3948 0.9187
vn -0.0054 -0.2863 0.9581
vn 0.0038 0.0976 -0.9952
vn 0.0031 0.0285 -0.9996
vn -0.0472 -0.0283 0.9985
vn -0.0478 -0.0967 0.9942
vn 0.0472 0.0341 -0.9983
vn 0.0479 0.1616 -0.9857
vn -0.0038 -0.1623 0.9867
vn -0.0031 -0.0340 0.9994
vn 0.0036 -0.0341 -0.9994
vn 0.0049 -0.1019 -0.9948
vn -0.0490 0.1009 0.9937
vn -0.0476 0.0337 0.9983
vn 0.0490 -0.2059 -0.9773
vn 0.0476 -0.0924 -0.9946
vn -0.0035 0.0932 0.9956
vn -0.0050 0.2073 0.9783
vn 0.0069 -0.1787 -0.9839
vn 0.0092 -0.2700 -0.9628
vn -0.0532 0.2686 0.9618
vn -0.0510 0.1774 0.9828
vn 0.0532 -0.3853 -0.9213
vn 0.0510 -0.3041 -0.9513
vn -0.0070 0.3058 0.9521
vn -0.0092 0.3870 0.9220
vn 0.0110 -0.3747 -0.9271
vn 0.0121 -0.4854 -0.8742
vn -0.0562 0.4844 0.8731
vn -0.0551 0.3734 0.9261
vn 0.0562 -0.5110 -0.8577
vn 0.0551 -0.4516 -0.8905
vn -0.0111 0.4530 0.8914
vn -0.0122 0.5120 0.8589
vn 0.0122 -0.5966 -0.8024
vn 0.0111 -0.6957 -0.7182
vn -0.0551 0.6952 0.7167
vn -0.0562 0.5959 0.8011
vn 0.0551 -0.6284 -0.7759
vn 0.0562 -0.5673 -0.8216
vn -0.0122 0.5676 0.8232
vn -0.0111 0.6284 0.7778
vn 0.0093 -0.7794 -0.6265
vn 0.0070 -0.8430 -0.5378
vn -0.0510 0.8426 0.5361
vn -0.0532 0.7790 0.6247
vn 0.0510 -0.7659 -0.6410
vn 0.0532 -0.6950 -0.7171
vn -0.0093 0.6948 0.7192
vn -0.0071 0.7659 0.6429
vn 0.0050 -0.8894 -0.4572
vn 0.0036 -0.9223 -0.3864
vn -0.0476 0.9215 0.3854
vn -0.0490 0.8888 0.4557
vn 0.0477 -0.8986 -0.4361
vn 0.0490 -0.8366 -0.5457
vn -0.0051 0.8370 0.5472
vn -0.0036 0.8994 0.4370
vn 0.0031 -0.9458 -0.3248
vn 0.0038 -0.9648 -0.2631
vn -0.0479 0.9635 0.2633
vn -0.0472 0.9447 0.3244
vn 0.0478 -0.9793 -0.1967
vn 0.0472 -0.9477 -0.3157
vn -0.0031 0.9488 0.3158
vn -0.0038 0.9806 0.1961
vn 0.0053 -0.9804 -0.1970
vn 0.0074 -0.9932 -0.1166
vn -0.0514 0.9917 0.1175
vn -0.0493 0.9790 0.1976
vn 0.0515 -0.9986 0.0138
vn 0.0494 -0.9952 -0.0843
vn -0.0053 0.9965 0.0832
vn -0.0075 0.9999 -0.0151
vn 0.0096 -0.9998 -0.0197
vn 0.0113 -0.9956 0.0928
vn -0.0554 0.9942 -0.0919
vn -0.0536 0.9983 0.0207
vn 0.0554 -0.9841 0.1687
vn 0.0537 -0.9939 0.0968
vn -0.0097 0.9951 -0.0981
vn -0.0114 0.9854 -0.1697
vn 0.0122 -0.9759 0.2179
vn 0.0121 -0.9391 0.3434
vn -0.0561 0.9376 -0.3431
vn -0.0563 0.9745 -0.2173
vn 0.0560 -0.9523 0.3000
vn 0.0563 -0.9709 0.2330
vn -0.0122 0.9723 -0.2333
vn -0.0120 0.9539 -0.2998
vn 0.0108 -0.8861 0.4634
vn 0.0088 -0.8241 0.5663
vn -0.0528 0.8223 -0.5665
vn -0.0548 0.8844 -0.4634
vn 0.0528 -0.8880 0.4568
vn 0.0548 -0.9262 0.3730
vn -0.0108 0.9281 -0.3723
vn -0.0089 0.8899 -0.4561
vn 0.0066 -0.7591 0.6510
vn 0.0046 -0.6975 0.7165
vn -0.0486 0.6960 -0.7164
vn -0.0505 0.7573 -0.6511
vn 0.0487 -0.7622 0.6455
vn 0.0506 -0.8337 0.5498
vn -0.0067 0.8356 -0.5493
vn -0.0047 0.7638 -0.6455
vn 0.0034 -0.6424 0.7663
vn 0.0032 -0.5902 0.8073
vn -0.0473 0.5895 -0.8064
vn -0.0475 0.6413 -0.7658
vn 0.0473 -0.5733 0.8180
vn 0.0475 -0.6728 0.7383
vn -0.0034 0.6738 -0.7389
vn -0.0032 0.5736 -0.8191
vn 0.0040 -0.5382 0.8428
vn 0.0057 -0.4766 0.8791
vn -0.0497 0.4768 -0.8776
vn -0.0481 0.5380 -0.8416
vn 0.0497 -0.3687 0.9282
vn 0.0481 -0.4683 0.8823
vn -0.0040 0.4680 -0.8837
vn -0.0057 0.3680 -0.9298
vn 0.0078 -0.4014 0.9159
vn 0.0100 -0.3078 0.9514
vn -0.0540 0.3083 -0.9498
vn -0.0519 0.4019 -0.9142
vn 0.0541 -0.1997 0.9784
vn 0.0519 -0.2785 0.9590
vn -0.0079 0.2776 -0.9607
vn -0.0101 0.1989 -0.9800
vn 0.0116 -0.1948 0.9808
vn 0.0123 -0.0693 0.9975
vn -0.0563 0.0694 -0.9960
vn -0.0556 0.1951 -0.9792
vn 0.0563 -0.0643 0.9963
vn 0.0557 -0.1311 0.9898
vn -0.0116 0.1308 -0.9913
vn -0.0123 0.0645 -0.9978
vn 0.0119 0.0639 0.9979
vn 0.0105 0.1907 0.9816
vn -0.0544 -0.1913 -0.9800
vn -0.0559 -0.0642 -0.9964
vn 0.0544 0.0860 0.9948
vn 0.0559 0.0050 0.9984
vn -0.0119 -0.0041 -0.9999
vn -0.0105 -0.0847 -0.9964
vn 0.0084 0.3061 0.9520
vn 0.0062 0.4022 0.9155
vn -0.0501 -0.4029 -0.9139
vn -0.0523 -0.3068 -0.9503
vn 0.0502 0.2869 0.9566
vn 0.0524 0.1803 0.9822
vn -0.0085 -0.1789 -0.9838
vn -0.0063 -0.2860 -0.9582
vn 0.0043 0.4797 0.8774
vn 0.0033 0.5425 0.8400
vn -0.0473 -0.5423 -0.8389
vn -0.0483 -0.4799 -0.8760
vn 0.0474 0.5157 0.8555
vn 0.0484 0.4024 0.9142
vn -0.0044 -0.4021 -0.9156
vn -0.0033 -0.5161 -0.8565
vn 0.0033 0.5948 0.8039
vn 0.0043 0.6462 0.7631
vn -0.0484 -0.6450 -0.7627
vn -0.0474 -0.5940 -0.8031
vn 0.0484 0.7103 0.7022
vn 0.0473 0.6215 0.7820
vn -0.0033 -0.6226 -0.7825
vn -0.0043 -0.7119 -0.7023
vn 0.0061 0.6997 0.7145
vn 0.0083 0.7593 0.6507
vn -0.0523 -0.7576 -0.6506
vn -0.0501 -0.6981 -0.7143
vn 0.0524 0.8357 0.5467
vn 0.0502 0.7818 0.6216
vn -0.0061 -0.7836 -0.6213
vn -0.0084 -0.8375 -0.5463
vn 0.0104 0.8228 0.5683
vn 0.0118 0.8840 0.4673
vn -0.0558 -0.8824 -0.4672
vn -0.0544 -0.8211 -0.5682
vn 0.0559 0.9069 0.4177
vn 0.0544 0.8756 0.4799
vn -0.0104 -0.8773 -0.4797
vn -0.0119 -0.9084 -0.4179
vn 0.0123 0.9372 0.3486
vn 0.0117 0.9747 0.2231
vn -0.0557 -0.9734 -0.2223
vn -0.0563 -0.9358 -0.3481
vn 0.0556 0.9558 0.2888
vn 0.0563 0.9323 0.3573
vn -0.0123 -0.9336 -0.3581
vn -0.0117 -0.9569 -0.2901
vn 0.0101 0.9953 0.0965
vn 0.0080 0.9998 -0.0184
vn -0.0519 -0.9985 0.0196
vn -0.0540 -0.9940 -0.0954
vn 0.0519 0.9924 0.1117
vn 0.0540 0.9765 0.2085
vn -0.0101 -0.9776 -0.2102
vn -0.0080 -0.9935 -0.1134
vt 0.618888 0.072723
vt 0.615955 0.261176
vt 0.609336 0.261177
vt 0.611669 0.072725
vt 0.612341 0.449594
vt 0.606424 0.449596
vt 0.600038 0.449598
vt 0.602329 0.261178
vt 0.604145 0.072727
vt 0.595023 0.261179
vt 0.596408 0.072728
vt 0.593266 0.449599
vt 0.586225 0.449598
vt 0.587493 0.261179
vt 0.588493 0.072727
vt 0.579809 0.261179
vt 0.580415 0.072726
vt 0.579039 0.449597
vt 0.571805 0.449595
vt 0.572028 0.261178
vt 0.572192 0.072725
vt 0.564205 0.261177
vt 0.563854 0.072723
vt 0.564606 0.449594
vt 0.557478 0.449592
vt 0.556405 0.261176
vt 0.555491 0.072722
vt 0.548696 0.261176
vt 0.547218 0.072720
vt 0.550447 0.449591
vt 0.543538 0.449590
vt 0.541165 0.261175
vt 0.539181 0.072719
vt 0.533903 0.261174
vt 0.531525 0.072719
vt 0.536782 0.449590
vt 0.530260 0.449590
vt 0.527000 0.261172
vt 0.524352 0.072719
vt 0.520543 0.261171
vt 0.517731 0.072718
vt 0.524067 0.449590
vt 0.518329 0.449589
vt 0.514591 0.261170
vt 0.511658 0.072717
vt 0.002259 0.449503
vt 0.005520 0.261048
vt 0.011235 0.261052
vt 0.008444 0.449507
vt 0.009625 0.072624
vt 0.014787 0.072628
vt 0.020538 0.072631
vt 0.017434 0.261056
vt 0.015002 0.449511
vt 0.024039 0.261059
vt 0.021883 0.449515
vt 0.026778 0.072635
vt 0.033381 0.072638
vt 0.030990 0.261063
vt 0.029088 0.449520
vt 0.038230 0.261065
vt 0.036628 0.449524
vt 0.040223 0.072641
vt 0.047219 0.072644
vt 0.045712 0.261067
vt 0.044491 0.449527
vt 0.053383 0.261069
vt 0.052640 0.449530
vt 0.054304 0.072646
vt 0.061450 0.072647
vt 0.061181 0.261069
vt 0.060973 0.449531
vt 0.069030 0.261069
vt 0.069366 0.449530
vt 0.068634 0.072646
vt 0.075824 0.072645
vt 0.076842 0.261068
vt 0.077676 0.449529
vt 0.084521 0.261067
vt 0.085768 0.449525
vt 0.082970 0.072643
vt 0.089978 0.072640
vt 0.091980 0.261064
vt 0.093561 0.449522
vt 0.099135 0.261061
vt 0.101002 0.449517
vt 0.096739 0.072636
vt 0.103132 0.072633
vt 0.105927 0.261058
vt 0.108092 0.449513
vt 0.112306 0.261054
vt 0.114846 0.449509
vt 0.109045 0.072630
vt 0.114415 0.072626
vt 0.118237 0.261050
vt 0.121258 0.449506
vt 0.123691 0.261046
vt 0.127302 0.449502
vt 0.382394 0.262193
vt 0.376756 0.450574
vt 0.371341 0.450527
vt 0.376826 0.262145
vt 0.365503 0.450476
vt 0.370791 0.262094
vt 0.381528 0.073723
vt 0.375378 0.073670
vt 0.364325 0.262039
vt 0.368688 0.073612
vt 0.359352 0.450423
vt 0.352949 0.450368
vt 0.357466 0.261981
vt 0.361472 0.073550
vt 0.350257 0.261920
vt 0.353778 0.073485
vt 0.346333 0.450313
vt 0.339516 0.450256
vt 0.342762 0.261858
vt 0.345722 0.073418
vt 0.335058 0.261793
vt 0.337441 0.073350
vt 0.332509 0.450198
vt 0.325350 0.450140
vt 0.327234 0.261729
vt 0.329077 0.073282
vt 0.319386 0.261664
vt 0.320756 0.073214
vt 0.318096 0.450081
vt 0.310848 0.450022
vt 0.311600 0.261600
vt 0.312551 0.073147
vt 0.303959 0.261537
vt 0.304506 0.073081
vt 0.303721 0.449964
vt 0.296825 0.449907
vt 0.296522 0.261475
vt 0.296632 0.073016
vt 0.289344 0.261416
vt 0.288937 0.072952
vt 0.290262 0.449852
vt 0.284080 0.449800
vt 0.282471 0.261360
vt 0.281467 0.072890
vt 0.275954 0.261306
vt 0.274295 0.072830
vt 0.278305 0.449752
vt 0.272927 0.449707
vt 0.269853 0.261256
vt 0.267557 0.072774
vt 0.264239 0.261211
vt 0.261406 0.072723
vt 0.267931 0.449666
vt 0.874514 0.261198
vt 0.870702 0.449639
vt 0.865228 0.449663
vt 0.868542 0.261224
vt 0.877527 0.072722
vt 0.871148 0.072750
vt 0.862067 0.261253
vt 0.864121 0.072782
vt 0.859405 0.449689
vt 0.853224 0.449719
vt 0.855154 0.261285
vt 0.856586 0.072818
vt 0.847880 0.261319
vt 0.848693 0.072856
vt 0.846684 0.449750
vt 0.839828 0.449783
vt 0.840338 0.261355
vt 0.840580 0.072896
vt 0.832620 0.261392
vt 0.832366 0.072937
vt 0.832722 0.449818
vt 0.825475 0.449853
vt 0.824811 0.261430
vt 0.824107 0.072977
vt 0.816989 0.261468
vt 0.815842 0.073017
vt 0.818203 0.449889
vt 0.811013 0.449923
vt 0.809213 0.261506
vt 0.807587 0.073056
vt 0.801542 0.261544
vt 0.799365 0.073096
vt 0.803996 0.449957
vt 0.797193 0.449990
vt 0.794033 0.261581
vt 0.791252 0.073135
vt 0.786747 0.261618
vt 0.783345 0.073174
vt 0.790632 0.450022
vt 0.784318 0.450054
vt 0.779764 0.261654
vt 0.775794 0.073212
vt 0.773166 0.261688
vt 0.768753 0.073248
vt 0.778264 0.450086
vt 0.772518 0.450117
vt 0.767044 0.261721
vt 0.762349 0.073283
vt 0.631886 0.072718
vt 0.627677 0.261173
vt 0.622095 0.261175
vt 0.625680 0.072721
vt 0.767151 0.450147
vt 0.761482 0.261751
vt 0.617733 0.449592
vt 0.651880 0.072630
vt 0.658829 0.072637
vt 0.661738 0.261057
vt 0.655491 0.261049
vt 0.666077 0.072642
vt 0.668365 0.261062
vt 0.670177 0.449514
vt 0.664068 0.449509
vt 0.658420 0.449502
vt 0.673536 0.072643
vt 0.675290 0.261064
vt 0.681174 0.072641
vt 0.682439 0.261061
vt 0.683435 0.449513
vt 0.676672 0.449515
vt 0.688975 0.072636
vt 0.689742 0.261055
vt 0.696918 0.072630
vt 0.697138 0.261047
vt 0.697298 0.449501
vt 0.690345 0.449508
vt 0.704969 0.072623
vt 0.704565 0.261039
vt 0.713036 0.072617
vt 0.711960 0.261033
vt 0.711043 0.449488
vt 0.704211 0.449494
vt 0.721006 0.072614
vt 0.719251 0.261029
vt 0.728736 0.072614
vt 0.726361 0.261030
vt 0.724373 0.449485
vt 0.717770 0.449485
vt 0.736088 0.072617
vt 0.733206 0.261034
vt 0.742970 0.072622
vt 0.739708 0.261040
vt 0.737057 0.449494
vt 0.730825 0.449489
vt 0.749321 0.072628
vt 0.745794 0.261047
vt 0.755151 0.072633
vt 0.751410 0.261053
vt 0.748474 0.449505
vt 0.742979 0.449500
vt 0.134195 0.072623
vt 0.140091 0.072630
vt 0.143689 0.261049
vt 0.138343 0.261042
vt 0.146356 0.072633
vt 0.149511 0.261052
vt 0.151980 0.449503
vt 0.146515 0.449500
vt 0.141637 0.449493
vt 0.152940 0.072633
vt 0.155735 0.261051
vt 0.159846 0.072630
vt 0.162299 0.261047
vt 0.164251 0.449498
vt 0.157935 0.449502
vt 0.167082 0.072625
vt 0.169145 0.261041
vt 0.174634 0.072620
vt 0.176218 0.261034
vt 0.177502 0.449487
vt 0.170803 0.449493
vt 0.182464 0.072616
vt 0.183467 0.261030
vt 0.190475 0.072615
vt 0.190828 0.261028
vt 0.191106 0.449482
vt 0.184279 0.449483
vt 0.198546 0.072617
vt 0.198233 0.261031
vt 0.206542 0.072621
vt 0.205603 0.261036
vt 0.204833 0.449488
vt 0.197966 0.449484
vt 0.214336 0.072627
vt 0.212857 0.261043
vt 0.221853 0.072633
vt 0.219916 0.261050
vt 0.218386 0.449501
vt 0.211668 0.449495
vt 0.229047 0.072637
vt 0.226709 0.261055
vt 0.235922 0.072638
vt 0.233179 0.261057
vt 0.231055 0.449507
vt 0.224887 0.449506
vt 0.242491 0.072635
vt 0.239280 0.261054
vt 0.248748 0.072629
vt 0.244973 0.261048
vt 0.241988 0.449499
vt 0.236778 0.449505
vt 0.254663 0.072621
vt 0.250222 0.261038
vt 0.388765 0.072638
vt 0.394697 0.072630
vt 0.398410 0.261050
vt 0.392676 0.261060
vt 0.401423 0.449507
vt 0.395804 0.449515
vt 0.387383 0.261068
vt 0.390588 0.449522
vt 0.401146 0.072622
vt 0.404545 0.261042
vt 0.408097 0.072617
vt 0.411039 0.261036
vt 0.413471 0.449495
vt 0.407332 0.449499
vt 0.415502 0.072616
vt 0.417851 0.261035
vt 0.423248 0.072617
vt 0.424919 0.261037
vt 0.426304 0.449495
vt 0.419797 0.449493
vt 0.431205 0.072623
vt 0.432179 0.261043
vt 0.439241 0.072630
vt 0.439550 0.261051
vt 0.439818 0.449507
vt 0.432988 0.449500
vt 0.447237 0.072637
vt 0.446952 0.261059
vt 0.455129 0.072643
vt 0.454306 0.261066
vt 0.453682 0.449520
vt 0.446747 0.449514
vt 0.462878 0.072647
vt 0.461541 0.261069
vt 0.470474 0.072647
vt 0.468596 0.261069
vt 0.467131 0.449523
vt 0.460513 0.449523
vt 0.477909 0.072644
vt 0.475416 0.261066
vt 0.485132 0.072639
vt 0.481949 0.261060
vt 0.479369 0.449515
vt 0.473434 0.449520
vt 0.492068 0.072633
vt 0.488142 0.261053
vt 0.498579 0.072629
vt 0.493931 0.261048
vt 0.490059 0.449505
vt 0.484908 0.449509
vt 0.504514 0.072627
vt 0.499247 0.261045
vt 0.995343 0.449617
vt 0.989142 0.449614
vt 0.984979 0.261201
vt 0.990677 0.261205
vt 0.981514 0.072749
vt 0.986801 0.072752
vt 0.995881 0.261205
vt 0.991768 0.072752
vt 0.982331 0.449607
vt 0.978823 0.261195
vt 0.975044 0.449599
vt 0.972268 0.261186
vt 0.969977 0.072734
vt 0.975911 0.072742
vt 0.967424 0.449590
vt 0.965380 0.261175
vt 0.959599 0.449582
vt 0.958239 0.261166
vt 0.957133 0.072716
vt 0.963706 0.072725
vt 0.951678 0.449576
vt 0.950928 0.261160
vt 0.943714 0.449574
vt 0.943525 0.261157
vt 0.943361 0.072708
vt 0.950316 0.072711
vt 0.935739 0.449576
vt 0.936102 0.261159
vt 0.927772 0.449581
vt 0.928723 0.261165
vt 0.929486 0.072716
vt 0.936382 0.072710
vt 0.919841 0.449589
vt 0.921449 0.261174
vt 0.912024 0.449598
vt 0.914342 0.261184
vt 0.916266 0.072733
vt 0.922766 0.072724
vt 0.904425 0.449606
vt 0.907467 0.261193
vt 0.897189 0.449612
vt 0.900899 0.261200
vt 0.904013 0.072747
vt 0.910014 0.072741
vt 0.890469 0.449615
vt 0.894718 0.261203
vt 0.884384 0.449616
vt 0.889003 0.261202
vt 0.892830 0.072750
vt 0.898271 0.072750
vt 0.639374 0.072615
vt 0.645345 0.072622
vt 0.649703 0.261040
vt 0.644445 0.261032
vt 0.653285 0.449494
vt 0.883828 0.261200
vt 0.887755 0.072748
vt 0.611880 0.002018
vt 0.619208 0.002014
vt 0.604280 0.002021
vt 0.657074 0.002018
vt 0.664674 0.002021
vt 0.649747 0.002013
vt 0.604668 0.520216
vt 0.598634 0.520219
vt 0.610207 0.520211
vt 0.664277 0.520216
vt 0.658739 0.520212
vt 0.670311 0.520219
vt 0.596502 0.002022
vt 0.588561 0.002021
vt 0.672452 0.002022
vt 0.680393 0.002021
vt 0.592181 0.520220
vt 0.585443 0.520219
vt 0.676764 0.520220
vt 0.683502 0.520219
vt 0.580454 0.002018
vt 0.572186 0.002014
vt 0.688499 0.002018
vt 0.696768 0.002014
vt 0.578562 0.520216
vt 0.571654 0.520211
vt 0.690383 0.520216
vt 0.697291 0.520212
vt 0.563778 0.002010
vt 0.555331 0.002006
vt 0.705176 0.002009
vt 0.713622 0.002006
vt 0.564812 0.520207
vt 0.558063 0.520203
vt 0.704133 0.520207
vt 0.710882 0.520204
vt 0.546977 0.002004
vt 0.538882 0.002003
vt 0.721977 0.002004
vt 0.730072 0.002003
vt 0.551418 0.520201
vt 0.544872 0.520200
vt 0.717528 0.520201
vt 0.724073 0.520201
vt 0.531209 0.002004
vt 0.524060 0.002007
vt 0.737745 0.002005
vt 0.744894 0.002007
vt 0.538437 0.520202
vt 0.532183 0.520204
vt 0.730508 0.520203
vt 0.736763 0.520206
vt 0.517494 0.002009
vt 0.511479 0.002011
vt 0.751460 0.002010
vt 0.757475 0.002012
vt 0.526205 0.520207
vt 0.520652 0.520210
vt 0.742741 0.520209
vt 0.748294 0.520212
vt 0.008269 0.520213
vt 0.002003 0.520210
vt 0.014862 0.520216
vt 0.137858 0.002009
vt 0.144388 0.002012
vt 0.131661 0.002003
vt 0.016990 0.002003
vt 0.022474 0.002007
vt 0.513168 0.449588
vt 0.515673 0.520210
vt 0.753274 0.520213
vt 0.753420 0.449508
vt 0.152121 0.520208
vt 0.146690 0.520205
vt 0.021742 0.520222
vt 0.028935 0.520229
vt 0.151210 0.002013
vt 0.158351 0.002012
vt 0.028473 0.002011
vt 0.034837 0.002017
vt 0.158077 0.520208
vt 0.164407 0.520207
vt 0.036476 0.520236
vt 0.044362 0.520242
vt 0.165845 0.002010
vt 0.173694 0.002008
vt 0.041418 0.002022
vt 0.048114 0.002028
vt 0.170961 0.520204
vt 0.177638 0.520201
vt 0.052564 0.520247
vt 0.060964 0.520248
vt 0.181869 0.002007
vt 0.190256 0.002006
vt 0.054852 0.002031
vt 0.061620 0.002033
vt 0.184364 0.520199
vt 0.191124 0.520198
vt 0.069423 0.520247
vt 0.077779 0.520243
vt 0.198716 0.002008
vt 0.207087 0.002010
vt 0.068417 0.002032
vt 0.075233 0.002029
vt 0.197918 0.520199
vt 0.204737 0.520202
vt 0.085887 0.520237
vt 0.093672 0.520231
vt 0.215223 0.002013
vt 0.223046 0.002016
vt 0.082040 0.002024
vt 0.088745 0.002018
vt 0.211555 0.520206
vt 0.218279 0.520210
vt 0.101095 0.520224
vt 0.108183 0.520218
vt 0.230516 0.002017
vt 0.237657 0.002017
vt 0.095233 0.002013
vt 0.101362 0.002008
vt 0.224797 0.520212
vt 0.230966 0.520212
vt 0.114974 0.520215
vt 0.121473 0.520213
vt 0.244507 0.002015
vt 0.251070 0.002010
vt 0.106998 0.002005
vt 0.112064 0.002003
vt 0.236651 0.520210
vt 0.241775 0.520206
vt 0.127654 0.520212
vt 0.376295 0.002963
vt 0.382394 0.003019
vt 0.386401 0.002019
vt 0.392501 0.002013
vt 0.257320 0.002003
vt 0.368386 0.521124
vt 0.362717 0.521072
vt 0.373658 0.521173
vt 0.396079 0.520224
vt 0.390807 0.520229
vt 0.401749 0.520219
vt 0.369624 0.002902
vt 0.362389 0.002839
vt 0.399172 0.002008
vt 0.406408 0.002005
vt 0.356788 0.521018
vt 0.350670 0.520964
vt 0.407678 0.520214
vt 0.413797 0.520211
vt 0.354638 0.002773
vt 0.346505 0.002706
vt 0.414160 0.002003
vt 0.422293 0.002004
vt 0.344401 0.520911
vt 0.337971 0.520858
vt 0.420066 0.520210
vt 0.426496 0.520211
vt 0.338147 0.002640
vt 0.329721 0.002574
vt 0.430651 0.002008
vt 0.439078 0.002012
vt 0.331365 0.520806
vt 0.324597 0.520754
vt 0.433102 0.520214
vt 0.439871 0.520218
vt 0.321363 0.002508
vt 0.313134 0.002444
vt 0.447436 0.002017
vt 0.455665 0.002021
vt 0.317705 0.520701
vt 0.310794 0.520646
vt 0.446763 0.520222
vt 0.453674 0.520226
vt 0.305066 0.002378
vt 0.297147 0.002313
vt 0.463733 0.002023
vt 0.471652 0.002024
vt 0.303986 0.520592
vt 0.297413 0.520537
vt 0.460482 0.520228
vt 0.467055 0.520229
vt 0.289370 0.002246
vt 0.281783 0.002180
vt 0.479429 0.002023
vt 0.487017 0.002020
vt 0.291192 0.520483
vt 0.285375 0.520432
vt 0.473276 0.520227
vt 0.479094 0.520225
vt 0.274466 0.002116
vt 0.267587 0.002056
vt 0.494333 0.002017
vt 0.501213 0.002016
vt 0.279980 0.520384
vt 0.274971 0.520340
vt 0.484488 0.520222
vt 0.489498 0.520220
vt 0.261327 0.002003
vt 0.871312 0.002031
vt 0.877740 0.002003
vt 0.997997 0.520226
vt 0.991502 0.520222
vt 0.507473 0.002015
vt 0.868356 0.520264
vt 0.863173 0.520286
vt 0.875823 0.449617
vt 0.873270 0.520245
vt 0.986251 0.002036
vt 0.991222 0.002037
vt 0.981014 0.002033
vt 0.864195 0.002065
vt 0.856551 0.002104
vt 0.984329 0.520217
vt 0.976641 0.520211
vt 0.857710 0.520312
vt 0.851928 0.520342
vt 0.975501 0.002028
vt 0.969675 0.002021
vt 0.848557 0.002146
vt 0.840363 0.002189
vt 0.968614 0.520204
vt 0.960399 0.520199
vt 0.845795 0.520374
vt 0.839330 0.520409
vt 0.963503 0.002015
vt 0.957009 0.002009
vt 0.832095 0.002231
vt 0.823797 0.002272
vt 0.952118 0.520196
vt 0.943814 0.520194
vt 0.832586 0.520443
vt 0.825678 0.520478
vt 0.950245 0.002005
vt 0.943329 0.002003
vt 0.815491 0.002312
vt 0.807176 0.002350
vt 0.935507 0.520195
vt 0.927199 0.520199
vt 0.818737 0.520510
vt 0.811887 0.520542
vt 0.936392 0.002005
vt 0.929557 0.002009
vt 0.798867 0.002387
vt 0.790644 0.002423
vt 0.918904 0.520204
vt 0.910704 0.520209
vt 0.805233 0.520571
vt 0.798813 0.520600
vt 0.922926 0.002014
vt 0.916537 0.002020
vt 0.782622 0.002461
vt 0.774975 0.002498
vt 0.902716 0.520215
vt 0.895114 0.520220
vt 0.792641 0.520628
vt 0.786695 0.520657
vt 0.910401 0.002026
vt 0.904496 0.002031
vt 0.767882 0.002535
vt 0.761482 0.002571
vt 0.888078 0.520224
vt 0.881747 0.520226
vt 0.780959 0.520687
vt 0.775464 0.520718
vt 0.898805 0.002034
vt 0.893360 0.002035
vt 0.626134 0.002008
vt 0.632474 0.002003
vt 0.642820 0.002008
vt 0.636481 0.002003
vt 0.615208 0.520206
vt 0.770270 0.520749
vt 0.888222 0.002035
vt 0.653738 0.520206
s 0
usemtl M_Duck
f 1/1/1 131/2/1 385/3/1 129/4/1
f 131/2/2 2/5/2 130/6/2 385/3/2
f 385/3/3 130/6/3 4/7/3 132/8/3
f 129/4/4 385/3/4 132/8/4 3/9/4
f 3/9/5 132/8/5 386/10/5 133/11/5
f 132/8/6 4/7/6 134/12/6 386/10/6
f 386/10/7 134/12/7 6/13/7 135/14/7
f 133/11/8 386/10/8 135/14/8 5/15/8
f 5/15/9 135/14/9 387/16/9 136/17/9
f 135/14/10 6/13/10 137/18/10 387/16/10
f 387/16/11 137/18/11 8/19/11 138/20/11
f 136/17/12 387/16/12 138/20/12 7/21/12
f 7/21/13 138/20/13 388/22/13 139/23/13
f 138/20/14 8/19/14 140/24/14 388/22/14
f 388/22/15 140/24/15 10/25/15 141/26/15
f 139/23/16 388/22/16 141/26/16 9/27/16
f 9/27/17 141/26/17 389/28/17 142/29/17
f 141/26/18 10/25/18 143/30/18 389/28/18
f 389/28/19 143/30/19 12/31/19 144/32/19
f 142/29/20 389/28/20 144/32/20 11/33/20
f 11/33/21 144/32/21 390/34/21 145/35/21
f 144/32/22 12/31/22 146/36/22 390/34/22
f 390/34/23 146/36/23 14/37/23 147/38/23
f 145/35/24 390/34/24 147/38/24 13/39/24
f 13/39/25 147/38/25 391/40/25 148/41/25
f 147/38/26 14/37/26 149/42/26 391/40/26
f 391/40/27 149/42/27 16/43/27 150/44/27
f 148/41/28 391/40/28 150/44/28 15/45/28
f 15/46/29 150/47/29 392/48/29 151/49/29
f 150/47/30 16/50/30 152/51/30 392/48/30
f 392/48/31 152/51/31 18/52/31 153/53/31
f 151/49/32 392/48/32 153/53/32 17/54/32
f 17/54/33 153/53/33 393/55/33 154/56/33
f 153/53/34 18/52/34 155/57/34 393/55/34
f 393/55/35 155/57/35 20/58/35 156/59/35
f 154/56/36 393/55/36 156/59/36 19/60/36
f 19/60/37 156/59/37 394/61/37 157/62/37
f 156/59/38 20/58/38 158/63/38 394/61/38
f 394/61/39 158/63/39 22/64/39 159/65/39
f 157/62/40 394/61/40 159/65/40 21/66/40
f 21/66/41 159/65/41 395/67/41 160/68/41
f 159/65/42 22/64/42 161/69/42 395/67/42
f 395/67/43 161/69/43 24/70/43 162/71/43
f 160/68/44 395/67/44 162/71/44 23/72/44
f 23/72/45 162/71/45 396/73/45 163/74/45
f 162/71/46 24/70/46 164/75/46 396/73/46
f 396/73/47 164/75/47 26/76/47 165/77/47
f 163/74/48 396/73/48 165/77/48 25/78/48
f 25/78/49 165/77/49 397/79/49 166/80/49
f 165/77/50 26/76/50 167/81/50 397/79/50
f 397/79/51 167/81/51 28/82/51 168/83/51
f 166/80/52 397/79/52 168/83/52 27/84/52
f 27/84/53 168/83/53 398/85/53 169/86/53
f 168/83/54 28/82/54 170/87/54 398/85/54
f 398/85/55 170/87/55 30/88/55 171/89/55
f 169/86/56 398/85/56 171/89/56 29/90/56
f 29/90/57 171/89/57 399/91/57 172/92/57
f 171/89/58 30/88/58 173/93/58 399/91/58
f 399/91/59 173/93/59 32/94/59 174/95/59
f 172/92/60 399/91/60 174/95/60 31/96/60
f 31/96/61 174/95/61 400/97/61 175/98/61
f 174/99/62 32/100/62 176/101/62 400/102/62
f 400/102/63 176/101/63 34/103/63 177/104/63
f 175/105/64 400/102/64 177/104/64 33/106/64
f 33/106/65 177/104/65 401/107/65 178/108/65
f 177/104/66 34/103/66 179/109/66 401/107/66
f 401/107/67 179/109/67 36/110/67 180/111/67
f 178/108/68 401/107/68 180/111/68 35/112/68
f 35/112/69 180/111/69 402/113/69 181/114/69
f 180/111/70 36/110/70 182/115/70 402/113/70
f 402/113/71 182/115/71 38/116/71 183/117/71
f 181/114/72 402/113/72 183/117/72 37/118/72
f 37/118/73 183/117/73 403/119/73 184/120/73
f 183/117/74 38/116/74 185/121/74 403/119/74
f 403/119/75 185/121/75 40/122/75 186/123/75
f 184/120/76 403/119/76 186/123/76 39/124/76
f 39/124/77 186/123/77 404/125/77 187/126/77
f 186/123/78 40/122/78 188/127/78 404/125/78
f 404/125/79 188/127/79 42/128/79 189/129/79
f 187/126/80 404/125/80 189/129/80 41/130/80
f 41/130/81 189/129/81 405/131/81 190/132/81
f 189/129/82 42/128/82 191/133/82 405/131/82
f 405/131/83 191/133/83 44/134/83 192/135/83
f 190/132/84 405/131/84 192/135/84 43/136/84
f 43/136/85 192/135/85 406/137/85 193/138/85
f 192/135/86 44/134/86 194/139/86 406/137/86
f 406/137/87 194/139/87 46/140/87 195/141/87
f 193/138/88 406/137/88 195/141/88 45/142/88
f 45/142/89 195/141/89 407/143/89 196/144/89
f 195/141/90 46/140/90 197/145/90 407/143/90
f 407/143/91 197/145/91 48/146/91 198/147/91
f 196/144/92 407/143/92 198/147/92 47/148/92
f 47/148/93 198/147/93 408/149/93 199/150/93
f 198/147/94 48/146/94 200/151/94 408/149/94
f 408/152/95 200/153/95 50/154/95 201/155/95
f 199/156/96 408/152/96 201/155/96 49/157/96
f 49/157/97 201/155/97 409/158/97 202/159/97
f 201/155/98 50/154/98 203/160/98 409/158/98
f 409/158/99 203/160/99 52/161/99 204/162/99
f 202/159/100 409/158/100 204/162/100 51/163/100
f 51/163/101 204/162/101 410/164/101 205/165/101
f 204/162/102 52/161/102 206/166/102 410/164/102
f 410/164/103 206/166/103 54/167/103 207/168/103
f 205/165/104 410/164/104 207/168/104 53/169/104
f 53/169/105 207/168/105 411/170/105 208/171/105
f 207/168/106 54/167/106 209/172/106 411/170/106
f 411/170/107 209/172/107 56/173/107 210/174/107
f 208/171/108 411/170/108 210/174/108 55/175/108
f 55/175/109 210/174/109 412/176/109 211/177/109
f 210/174/110 56/173/110 212/178/110 412/176/110
f 412/176/111 212/178/111 58/179/111 213/180/111
f 211/177/112 412/176/112 213/180/112 57/181/112
f 57/181/113 213/180/113 413/182/113 214/183/113
f 213/180/114 58/179/114 215/184/114 413/182/114
f 413/182/115 215/184/115 60/185/115 216/186/115
f 214/183/116 413/182/116 216/186/116 59/187/116
f 59/187/117 216/186/117 414/188/117 217/189/117
f 216/186/118 60/185/118 218/190/118 414/188/118
f 414/188/119 218/190/119 62/191/119 219/192/119
f 217/189/120 414/188/120 219/192/120 61/193/120
f 61/193/121 219/192/121 415/194/121 220/195/121
f 219/192/122 62/191/122 221/196/122 415/194/122
f 415/194/123 221/196/123 64/197/123 222/198/123
f 220/195/124 415/194/124 222/198/124 63/199/124
f 63/200/125 222/201/125 416/202/125 223/203/125
f 222/198/126 64/197/126 224/204/126 416/205/126
f 416/202/127 224/206/127 2/5/127 131/2/127
f 223/203/128 416/202/128 131/2/128 1/1/128
f 65/207/129 225/208/129 417/209/129 227/210/129
f 225/208/130 67/211/130 228/212/130 417/209/130
f 417/209/131 228/212/131 68/213/131 226/214/131
f 227/210/132 417/209/132 226/214/132 66/215/132
f 67/211/133 229/216/133 418/217/133 228/212/133
f 229/216/134 69/218/134 231/219/134 418/217/134
f 418/217/135 231/219/135 70/220/135 230/221/135
f 228/212/136 418/217/136 230/221/136 68/213/136
f 69/218/137 232/222/137 419/223/137 231/219/137
f 232/222/138 71/224/138 234/225/138 419/223/138
f 419/223/139 234/225/139 72/226/139 233/227/139
f 231/219/140 419/223/140 233/227/140 70/220/140
f 71/224/141 235/228/141 420/229/141 234/225/141
f 235/228/142 73/230/142 237/231/142 420/229/142
f 420/229/143 237/231/143 74/232/143 236/233/143
f 234/225/144 420/229/144 236/233/144 72/226/144
f 73/230/145 238/234/145 421/235/145 237/231/145
f 238/234/146 75/236/146 240/237/146 421/235/146
f 421/235/147 240/237/147 76/238/147 239/239/147
f 237/231/148 421/235/148 239/239/148 74/232/148
f 75/236/149 241/240/149 422/241/149 240/237/149
f 241/240/150 77/242/150 243/243/150 422/241/150
f 422/241/151 243/243/151 78/244/151 242/245/151
f 240/237/152 422/241/152 242/245/152 76/238/152
f 77/242/153 244/246/153 423/247/153 243/243/153
f 244/246/154 79/248/154 246/249/154 423/247/154
f 423/247/155 246/249/155 80/250/155 245/251/155
f 243/243/156 423/247/156 245/251/156 78/244/156
f 79/252/157 247/253/157 424/254/157 246/255/157
f 247/253/158 81/256/158 249/257/158 424/254/158
f 424/254/159 249/257/159 82/258/159 248/259/159
f 246/255/160 424/254/160 248/259/160 80/260/160
f 81/256/161 250/261/161 425/262/161 249/257/161
f 250/261/162 83/263/162 252/264/162 425/262/162
f 425/262/163 252/264/163 84/265/163 251/266/163
f 249/257/164 425/262/164 251/266/164 82/258/164
f 83/263/165 253/267/165 426/268/165 252/264/165
f 253/267/166 85/269/166 255/270/166 426/268/166
f 426/268/167 255/270/167 86/271/167 254/272/167
f 252/264/168 426/268/168 254/272/168 84/265/168
f 85/269/169 256/273/169 427/274/169 255/270/169
f 256/273/170 87/275/170 258/276/170 427/274/170
f 427/274/171 258/276/171 88/277/171 257/278/171
f 255/270/172 427/274/172 257/278/172 86/271/172
f 87/275/173 259/279/173 428/280/173 258/276/173
f 259/279/174 89/281/174 261/282/174 428/280/174
f 428/280/175 261/282/175 90/283/175 260/284/175
f 258/276/176 428/280/176 260/284/176 88/277/176
f 89/281/177 262/285/177 429/286/177 261/282/177
f 262/285/178 91/287/178 264/288/178 429/286/178
f 429/286/179 264/288/179 92/289/179 263/290/179
f 261/282/180 429/286/180 263/290/180 90/283/180
f 91/287/181 265/291/181 430/292/181 264/288/181
f 265/291/182 93/293/182 267/294/182 430/292/182
f 430/292/183 267/294/183 94/295/183 266/296/183
f 264/288/184 430/292/184 266/296/184 92/289/184
f 93/293/185 268/297/185 431/298/185 267/294/185
f 268/297/186 95/299/186 270/300/186 431/298/186
f 431/298/187 270/300/187 96/301/187 269/302/187
f 267/294/188 431/298/188 269/302/188 94/295/188
f 95/299/189 271/303/189 432/304/189 270/300/189
f 271/305/190 97/306/190 273/307/190 432/308/190
f 432/308/191 273/307/191 98/309/191 272/310/191
f 270/311/192 432/308/192 272/310/192 96/312/192
f 97/306/193 274/313/193 433/314/193 273/307/193
f 274/313/194 99/315/194 276/316/194 433/314/194
f 433/314/195 276/316/195 100/317/195 275/318/195
f 273/307/196 433/314/196 275/318/196 98/309/196
f 99/315/197 277/319/197 434/320/197 276/316/197
f 277/319/198 101/321/198 279/322/198 434/320/198
f 434/320/199 279/322/199 102/323/199 278/324/199
f 276/316/200 434/320/200 278/324/200 100/317/200
f 101/321/201 280/325/201 435/326/201 279/322/201
f 280/325/202 103/327/202 282/328/202 435/326/202
f 435/326/203 282/328/203 104/329/203 281/330/203
f 279/322/204 435/326/204 281/330/204 102/323/204
f 103/327/205 283/331/205 436/332/205 282/328/205
f 283/331/206 105/333/206 285/334/206 436/332/206
f 436/332/207 285/334/207 106/335/207 284/336/207
f 282/328/208 436/332/208 284/336/208 104/329/208
f 105/333/209 286/337/209 437/338/209 285/334/209
f 286/337/210 107/339/210 288/340/210 437/338/210
f 437/338/211 288/340/211 108/341/211 287/342/211
f 285/334/212 437/338/212 287/342/212 106/335/212
f 107/339/213 289/343/213 438/344/213 288/340/213
f 289/343/214 109/345/214 291/346/214 438/344/214
f 438/344/215 291/346/215 110/347/215 290/348/215
f 288/340/216 438/344/216 290/348/216 108/341/216
f 109/345/217 292/349/217 439/350/217 291/346/217
f 292/349/218 111/351/218 294/352/218 439/350/218
f 439/350/219 294/352/219 112/353/219 293/354/219
f 291/346/220 439/350/220 293/354/220 110/347/220
f 111/351/221 295/355/221 440/356/221 294/352/221
f 295/357/222 113/358/222 297/359/222 440/360/222
f 440/360/223 297/359/223 114/361/223 296/362/223
f 294/363/224 440/360/224 296/362/224 112/364/224
f 113/358/225 298/365/225 441/366/225 297/359/225
f 298/365/226 115/367/226 300/368/226 441/366/226
f 441/366/227 300/368/227 116/369/227 299/370/227
f 297/359/228 441/366/228 299/370/228 114/361/228
f 115/367/229 301/371/229 442/372/229 300/368/229
f 301/371/230 117/373/230 303/374/230 442/372/230
f 442/372/231 303/374/231 118/375/231 302/376/231
f 300/368/232 442/372/232 302/376/232 116/369/232
f 117/373/233 304/377/233 443/378/233 303/374/233
f 304/377/234 119/379/234 306/380/234 443/378/234
f 443/378/235 306/380/235 120/381/235 305/382/235
f 303/374/236 443/378/236 305/382/236 118/375/236
f 119/379/237 307/383/237 444/384/237 306/380/237
f 307/383/238 121/385/238 309/386/238 444/384/238
f 444/384/239 309/386/239 122/387/239 308/388/239
f 306/380/240 444/384/240 308/388/240 120/381/240
f 121/385/241 310/389/241 445/390/241 309/386/241
f 310/389/242 123/391/242 312/392/242 445/390/242
f 445/390/243 312/392/243 124/393/243 311/394/243
f 309/386/244 445/390/244 311/394/244 122/387/244
f 123/391/245 313/395/245 446/396/245 312/392/245
f 313/395/246 125/397/246 315/398/246 446/396/246
f 446/396/247 315/398/247 126/399/247 314/400/247
f 312/392/248 446/396/248 314/400/248 124/393/248
f 125/397/249 316/401/249 447/402/249 315/398/249
f 316/401/250 127/403/250 318/404/250 447/402/250
f 447/402/251 318/404/251 128/405/251 317/406/251
f 315/398/252 447/402/252 317/406/252 126/399/252
f 127/407/253 319/408/253 448/409/253 318/410/253
f 319/408/254 65/207/254 227/210/254 448/409/254
f 448/409/255 227/210/255 66/215/255 320/411/255
f 318/404/256 448/412/256 320/413/256 128/405/256
f 1/1/257 129/4/257 449/414/257 321/415/257
f 129/4/258 3/9/258 323/416/258 449/414/258
f 449/417/259 323/418/259 67/211/259 225/208/259
f 321/419/260 449/417/260 225/208/260 65/207/260
f 4/7/261 130/6/261 450/420/261 324/421/261
f 130/6/262 2/5/262 322/422/262 450/420/262
f 450/423/263 322/424/263 66/215/263 226/214/263
f 324/425/264 450/423/264 226/214/264 68/213/264
f 3/9/265 133/11/265 451/426/265 323/416/265
f 133/11/266 5/15/266 325/427/266 451/426/266
f 451/428/267 325/429/267 69/218/267 229/216/267
f 323/418/268 451/428/268 229/216/268 67/211/268
f 6/13/269 134/12/269 452/430/269 326/431/269
f 134/12/270 4/7/270 324/421/270 452/430/270
f 452/432/271 324/425/271 68/213/271 230/221/271
f 326/433/272 452/432/272 230/221/272 70/220/272
f 5/15/273 136/17/273 453/434/273 325/427/273
f 136/17/274 7/21/274 327/435/274 453/434/274
f 453/436/275 327/437/275 71/224/275 232/222/275
f 325/429/276 453/436/276 232/222/276 69/218/276
f 8/19/277 137/18/277 454/438/277 328/439/277
f 137/18/278 6/13/278 326/431/278 454/438/278
f 454/440/279 326/433/279 70/220/279 233/227/279
f 328/441/280 454/440/280 233/227/280 72/226/280
f 7/21/281 139/23/281 455/442/281 327/435/281
f 139/23/282 9/27/282 329/443/282 455/442/282
f 455/444/283 329/445/283 73/230/283 235/228/283
f 327/437/284 455/444/284 235/228/284 71/224/284
f 10/25/285 140/24/285 456/446/285 330/447/285
f 140/24/286 8/19/286 328/439/286 456/446/286
f 456/448/287 328/441/287 72/226/287 236/233/287
f 330/449/288 456/448/288 236/233/288 74/232/288
f 9/27/289 142/29/289 457/450/289 329/443/289
f 142/29/290 11/33/290 331/451/290 457/450/290
f 457/452/291 331/453/291 75/236/291 238/234/291
f 329/445/292 457/452/292 238/234/292 73/230/292
f 12/31/293 143/30/293 458/454/293 332/455/293
f 143/30/294 10/25/294 330/447/294 458/454/294
f 458/456/295 330/449/295 74/232/295 239/239/295
f 332/457/296 458/456/296 239/239/296 76/238/296
f 11/33/297 145/35/297 459/458/297 331/451/297
f 145/35/298 13/39/298 333/459/298 459/458/298
f 459/460/299 333/461/299 77/242/299 241/240/299
f 331/453/300 459/460/300 241/240/300 75/236/300
f 14/37/301 146/36/301 460/462/301 334/463/301
f 146/36/302 12/31/302 332/455/302 460/462/302
f 460/464/303 332/457/303 76/238/303 242/245/303
f 334/465/304 460/464/304 242/245/304 78/244/304
f 13/39/305 148/41/305 461/466/305 333/459/305
f 148/41/306 15/45/306 335/467/306 461/466/306
f 461/468/307 335/469/307 79/248/307 244/246/307
f 333/461/308 461/468/308 244/246/308 77/242/308
f 16/43/309 149/42/309 462/470/309 336/471/309
f 149/42/310 14/37/310 334/463/310 462/470/310
f 462/472/311 334/465/311 78/244/311 245/251/311
f 336/473/312 462/472/312 245/251/312 80/250/312
f 15/46/313 151/49/313 463/474/313 335/475/313
f 151/49/314 17/54/314 337/476/314 463/474/314
f 463/477/315 337/478/315 81/256/315 247/253/315
f 335/479/316 463/477/316 247/253/316 79/252/316
f 18/52/317 152/51/317 464/480/317 338/481/317
f 152/482/318 16/43/318 336/471/318 464/483/318
f 464/484/319 336/473/319 80/250/319 248/485/319
f 338/486/320 464/487/320 248/259/320 82/258/320
f 17/54/321 154/56/321 465/488/321 337/476/321
f 154/56/322 19/60/322 339/489/322 465/488/322
f 465/490/323 339/491/323 83/263/323 250/261/323
f 337/478/324 465/490/324 250/261/324 81/256/324
f 20/58/325 155/57/325 466/492/325 340/493/325
f 155/57/326 18/52/326 338/481/326 466/492/326
f 466/494/327 338/486/327 82/258/327 251/266/327
f 340/495/328 466/494/328 251/266/328 84/265/328
f 19/60/329 157/62/329 467/496/329 339/489/329
f 157/62/330 21/66/330 341/497/330 467/496/330
f 467/498/331 341/499/331 85/269/331 253/267/331
f 339/491/332 467/498/332 253/267/332 83/263/332
f 22/64/333 158/63/333 468/500/333 342/501/333
f 158/63/334 20/58/334 340/493/334 468/500/334
f 468/502/335 340/495/335 84/265/335 254/272/335
f 342/503/336 468/502/336 254/272/336 86/271/336
f 21/66/337 160/68/337 469/504/337 341/497/337
f 160/68/338 23/72/338 343/505/338 469/504/338
f 469/506/339 343/507/339 87/275/339 256/273/339
f 341/499/340 469/506/340 256/273/340 85/269/340
f 24/70/341 161/69/341 470/508/341 344/509/341
f 161/69/342 22/64/342 342/501/342 470/508/342
f 470/510/343 342/503/343 86/271/343 257/278/343
f 344/511/344 470/510/344 257/278/344 88/277/344
f 23/72/345 163/74/345 471/512/345 343/505/345
f 163/74/346 25/78/346 345/513/346 471/512/346
f 471/514/347 345/515/347 89/281/347 259/279/347
f 343/507/348 471/514/348 259/279/348 87/275/348
f 26/76/349 164/75/349 472/516/349 346/517/349
f 164/75/350 24/70/350 344/509/350 472/516/350
f 472/518/351 344/511/351 88/277/351 260/284/351
f 346/519/352 472/518/352 260/284/352 90/283/352
f 25/78/353 166/80/353 473/520/353 345/513/353
f 166/80/354 27/84/354 347/521/354 473/520/354
f 473/522/355 347/523/355 91/287/355 262/285/355
f 345/515/356 473/522/356 262/285/356 89/281/356
f 28/82/357 167/81/357 474/524/357 348/525/357
f 167/81/358 26/76/358 346/517/358 474/524/358
f 474/526/359 346/519/359 90/283/359 263/290/359
f 348/527/360 474/526/360 263/290/360 92/289/360
f 27/84/361 169/86/361 475/528/361 347/521/361
f 169/86/362 29/90/362 349/529/362 475/528/362
f 475/530/363 349/531/363 93/293/363 265/291/363
f 347/523/364 475/530/364 265/291/364 91/287/364
f 30/88/365 170/87/365 476/532/365 350/533/365
f 170/87/366 28/82/366 348/525/366 476/532/366
f 476/534/367 348/527/367 92/289/367 266/296/367
f 350/535/368 476/534/368 266/296/368 94/295/368
f 29/90/369 172/92/369 477/536/369 349/529/369
f 172/92/370 31/96/370 351/537/370 477/536/370
f 477/538/371 351/539/371 95/299/371 268/297/371
f 349/531/372 477/538/372 268/297/372 93/293/372
f 32/94/373 173/93/373 478/540/373 352/541/373
f 173/93/374 30/88/374 350/533/374 478/540/374
f 478/542/375 350/535/375 94/295/375 269/302/375
f 352/543/376 478/542/376 269/302/376 96/301/376
f 31/96/377 175/98/377 479/544/377 351/537/377
f 175/105/378 33/106/378 353/545/378 479/546/378
f 479/547/379 353/548/379 97/306/379 271/305/379
f 351/539/380 479/549/380 271/303/380 95/299/380
f 34/103/381 176/101/381 480/550/381 354/551/381
f 176/101/382 32/100/382 352/552/382 480/550/382
f 480/553/383 352/554/383 96/312/383 272/310/383
f 354/555/384 480/553/384 272/310/384 98/309/384
f 33/106/385 178/108/385 481/556/385 353/545/385
f 178/108/386 35/112/386 355/557/386 481/556/386
f 481/558/387 355/559/387 99/315/387 274/313/387
f 353/548/388 481/558/388 274/313/388 97/306/388
f 36/110/389 179/109/389 482/560/389 356/561/389
f 179/109/390 34/103/390 354/551/390 482/560/390
f 482/562/391 354/555/391 98/309/391 275/318/391
f 356/563/392 482/562/392 275/318/392 100/317/392
f 35/112/393 181/114/393 483/564/393 355/557/393
f 181/114/394 37/118/394 357/565/394 483/564/394
f 483/566/395 357/567/395 101/321/395 277/319/395
f 355/559/396 483/566/396 277/319/396 99/315/396
f 38/116/397 182/115/397 484/568/397 358/569/397
f 182/115/398 36/110/398 356/561/398 484/568/398
f 484/570/399 356/563/399 100/317/399 278/324/399
f 358/571/400 484/570/400 278/324/400 102/323/400
f 37/118/401 184/120/401 485/572/401 357/565/401
f 184/120/402 39/124/402 359/573/402 485/572/402
f 485/574/403 359/575/403 103/327/403 280/325/403
f 357/567/404 485/574/404 280/325/404 101/321/404
f 40/122/405 185/121/405 486/576/405 360/577/405
f 185/121/406 38/116/406 358/569/406 486/576/406
f 486/578/407 358/571/407 102/323/407 281/330/407
f 360/579/408 486/578/408 281/330/408 104/329/408
f 39/124/409 187/126/409 487/580/409 359/573/409
f 187/126/410 41/130/410 361/581/410 487/580/410
f 487/582/411 361/583/411 105/333/411 283/331/411
f 359/575/412 487/582/412 283/331/412 103/327/412
f 42/128/413 188/127/413 488/584/413 362/585/413
f 188/127/414 40/122/414 360/577/414 488/584/414
f 488/586/415 360/579/415 104/329/415 284/336/415
f 362/587/416 488/586/416 284/336/416 106/335/416
f 41/130/417 190/132/417 489/588/417 361/581/417
f 190/132/418 43/136/418 363/589/418 489/588/418
f 489/590/419 363/591/419 107/339/419 286/337/419
f 361/583/420 489/590/420 286/337/420 105/333/420
f 44/134/421 191/133/421 490/592/421 364/593/421
f 191/133/422 42/128/422 362/585/422 490/592/422
f 490/594/423 362/587/423 106/335/423 287/342/423
f 364/595/424 490/594/424 287/342/424 108/341/424
f 43/136/425 193/138/425 491/596/425 363/589/425
f 193/138/426 45/142/426 365/597/426 491/596/426
f 491/598/427 365/599/427 109/345/427 289/343/427
f 363/591/428 491/598/428 289/343/428 107/339/428
f 46/140/429 194/139/429 492/600/429 366/601/429
f 194/139/430 44/134/430 364/593/430 492/600/430
f 492/602/431 364/595/431 108/341/431 290/348/431
f 366/603/432 492/602/432 290/348/432 110/347/432
f 45/142/433 196/144/433 493/604/433 365/597/433
f 196/144/434 47/148/434 367/605/434 493/604/434
f 493/606/435 367/607/435 111/351/435 292/349/435
f 365/599/436 493/606/436 292/349/436 109/345/436
f 48/146/437 197/145/437 494/608/437 368/609/437
f 197/145/438 46/140/438 366/601/438 494/608/438
f 494/610/439 366/603/439 110/347/439 293/354/439
f 368/611/440 494/610/440 293/354/440 112/353/440
f 47/148/441 199/150/441 495/612/441 367/605/441
f 199/156/442 49/157/442 369/613/442 495/614/442
f 495/615/443 369/616/443 113/358/443 295/357/443
f 367/607/444 495/617/444 295/355/444 111/351/444
f 50/154/445 200/153/445 496/618/445 370/619/445
f 200/153/446 48/620/446 368/621/446 496/618/446
f 496/622/447 368/623/447 112/364/447 296/362/447
f 370/624/448 496/622/448 296/362/448 114/361/448
f 49/157/449 202/159/449 497/625/449 369/613/449
f 202/159/450 51/163/450 371/626/450 497/625/450
f 497/627/451 371/628/451 115/367/451 298/365/451
f 369/616/452 497/627/452 298/365/452 113/358/452
f 52/161/453 203/160/453 498/629/453 372/630/453
f 203/160/454 50/154/454 370/619/454 498/629/454
f 498/631/455 370/624/455 114/361/455 299/370/455
f 372/632/456 498/631/456 299/370/456 116/369/456
f 51/163/457 205/165/457 499/633/457 371/626/457
f 205/165/458 53/169/458 373/634/458 499/633/458
f 499/635/459 373/636/459 117/373/459 301/371/459
f 371/628/460 499/635/460 301/371/460 115/367/460
f 54/167/461 206/166/461 500/637/461 374/638/461
f 206/166/462 52/161/462 372/630/462 500/637/462
f 500/639/463 372/632/463 116/369/463 302/376/463
f 374/640/464 500/639/464 302/376/464 118/375/464
f 53/169/465 208/171/465 501/641/465 373/634/465
f 208/171/466 55/175/466 375/642/466 501/641/466
f 501/643/467 375/644/467 119/379/467 304/377/467
f 373/636/468 501/643/468 304/377/468 117/373/468
f 56/173/469 209/172/469 502/645/469 376/646/469
f 209/172/470 54/167/470 374/638/470 502/645/470
f 502/647/471 374/640/471 118/375/471 305/382/471
f 376/648/472 502/647/472 305/382/472 120/381/472
f 55/175/473 211/177/473 503/649/473 375/642/473
f 211/177/474 57/181/474 377/650/474 503/649/474
f 503/651/475 377/652/475 121/385/475 307/383/475
f 375/644/476 503/651/476 307/383/476 119/379/476
f 58/179/477 212/178/477 504/653/477 378/654/477
f 212/178/478 56/173/478 376/646/478 504/653/478
f 504/655/479 376/648/479 120/381/479 308/388/479
f 378/656/480 504/655/480 308/388/480 122/387/480
f 57/181/481 214/183/481 505/657/481 377/650/481
f 214/183/482 59/187/482 379/658/482 505/657/482
f 505/659/483 379/660/483 123/391/483 310/389/483
f 377/652/484 505/659/484 310/389/484 121/385/484
f 60/185/485 215/184/485 506/661/485 380/662/485
f 215/184/486 58/179/486 378/654/486 506/661/486
f 506/663/487 378/656/487 122/387/487 311/394/487
f 380/664/488 506/663/488 311/394/488 124/393/488
f 59/187/489 217/189/489 507/665/489 379/658/489
f 217/189/490 61/193/490 381/666/490 507/665/490
f 507/667/491 381/668/491 125/397/491 313/395/491
f 379/660/492 507/667/492 313/395/492 123/391/492
f 62/191/493 218/190/493 508/669/493 382/670/493
f 218/190/494 60/185/494 380/662/494 508/669/494
f 508/671/495 380/664/495 124/393/495 314/400/495
f 382/672/496 508/671/496 314/400/496 126/399/496
f 61/193/497 220/195/497 509/673/497 381/666/497
f 220/195/498 63/199/498 383/674/498 509/673/498
f 509/675/499 383/676/499 127/403/499 316/401/499
f 381/668/500 509/675/500 316/401/500 125/397/500
f 64/197/501 221/196/501 510/677/501 384/678/501
f 221/196/502 62/191/502 382/670/502 510/677/502
f 510/679/503 382/672/503 126/399/503 317/406/503
f 384/680/504 510/679/504 317/406/504 128/405/504
f 63/200/505 223/203/505 511/681/505 383/682/505
f 223/203/506 1/1/506 321/415/506 511/681/506
f 511/683/507 321/419/507 65/207/507 319/408/507
f 383/684/508 511/683/508 319/408/508 127/407/508
f 2/5/509 224/206/509 512/685/509 322/422/509
f 224/204/510 64/197/510 384/678/510 512/686/510
f 512/687/511 384/680/511 128/405/511 320/413/511
f 322/424/512 512/688/512 320/411/512 66/215/512
