# Blender 5.0.1
# www.blender.org
mtllib pencil.mtl
o SM_Pencil
v 5.110000 -0.000000 -4.750000
v 5.110000 -0.000000 4.750000
v 4.930000 -0.311769 -4.750000
v 4.930000 -0.311769 4.750000
v 4.570000 -0.311769 -4.750000
v 4.570000 -0.311769 4.750000
v 4.390000 0.000000 -4.750000
v 4.390000 0.000000 4.750000
v 4.570000 0.311769 -4.750000
v 4.570000 0.311769 4.750000
v 4.930000 0.311769 -4.750000
v 4.930000 0.311769 4.750000
v 5.110000 -0.000000 -4.750000
v 4.810000 -0.000000 -5.950000
v 5.061769 0.180000 -4.750000
v 4.801962 0.030000 -5.950000
v 4.930000 0.311769 -4.750000
v 4.780000 0.051961 -5.950000
v 4.750000 0.360000 -4.750000
v 4.750000 0.060000 -5.950000
v 4.570000 0.311769 -4.750000
v 4.720000 0.051961 -5.950000
v 4.438231 0.180000 -4.750000
v 4.698039 0.030000 -5.950000
v 4.390000 -0.000000 -4.750000
v 4.690000 -0.000000 -5.950000
v 4.438231 -0.180000 -4.750000
v 4.698039 -0.030000 -5.950000
v 4.570000 -0.311769 -4.750000
v 4.720000 -0.051962 -5.950000
v 4.750000 -0.360000 -4.750000
v 4.750000 -0.060000 -5.950000
v 4.930000 -0.311769 -4.750000
v 4.780000 -0.051962 -5.950000
v 5.061769 -0.180000 -4.750000
v 4.801962 -0.030000 -5.950000
v 5.140000 0.000000 4.750000
v 5.140000 0.000000 5.550000
v 5.110312 -0.149246 4.750000
v 5.110312 -0.149246 5.550000
v 5.025771 -0.275771 4.750000
v 5.025771 -0.275771 5.550000
v 4.899246 -0.360313 4.750000
v 4.899246 -0.360313 5.550000
v 4.750000 -0.390000 4.750000
v 4.750000 -0.390000 5.550000
v 4.600753 -0.360313 4.750000
v 4.600753 -0.360313 5.550000
v 4.474228 -0.275771 4.750000
v 4.474228 -0.275771 5.550000
v 4.389687 -0.149246 4.750000
v 4.389687 -0.149246 5.550000
v 4.360000 0.000000 4.750000
v 4.360000 0.000000 5.550000
v 4.389687 0.149247 4.750000
v 4.389687 0.149247 5.550000
v 4.474228 0.275772 4.750000
v 4.474228 0.275772 5.550000
v 4.600753 0.360313 4.750000
v 4.600753 0.360313 5.550000
v 4.750000 0.390000 4.750000
v 4.750000 0.390000 5.550000
v 4.899246 0.360313 4.750000
v 4.899246 0.360313 5.550000
v 5.025771 0.275772 4.750000
v 5.025771 0.275772 5.550000
v 5.110312 0.149247 4.750000
v 5.110312 0.149247 5.550000
v 5.100000 0.000000 5.550000
v 5.099999 0.000000 6.150000
v 5.073358 -0.133939 5.550000
v 5.073358 -0.133939 6.150000
v 4.997487 -0.247487 5.550000
v 4.997487 -0.247487 6.150000
v 4.883939 -0.323358 5.550000
v 4.883939 -0.323358 6.150000
v 4.750000 -0.350000 5.550000
v 4.750000 -0.350000 6.150000
v 4.616060 -0.323358 5.550000
v 4.616060 -0.323358 6.150000
v 4.502512 -0.247487 5.550000
v 4.502512 -0.247487 6.150000
v 4.426642 -0.133939 5.550000
v 4.426642 -0.133939 6.150000
v 4.400000 0.000000 5.550000
v 4.400000 0.000000 6.150000
v 4.426642 0.133939 5.550000
v 4.426642 0.133939 6.150000
v 4.502512 0.247488 5.550000
v 4.502512 0.247488 6.150000
v 4.616060 0.323358 5.550000
v 4.616060 0.323358 6.150000
v 4.750000 0.350000 5.550000
v 4.750000 0.350000 6.150000
v 4.883939 0.323358 5.550000
v 4.883939 0.323358 6.150000
v 4.997487 0.247488 5.550000
v 4.997487 0.247488 6.150000
v 5.073358 0.133939 5.550000
v 5.073358 0.133939 6.150000
vn 0.8660 -0.5000 -0.0000
vn -0.0000 -1.0000 -0.0000
vn -0.8660 -0.5000 -0.0000
vn -0.8660 0.5000 -0.0000
vn -0.0000 -0.0000 1.0000
vn -0.0000 1.0000 -0.0000
vn 0.8660 0.5000 -0.0000
vn -0.0000 -0.0000 -1.0000
vn 0.9389 0.2516 -0.2347
vn 0.6873 0.6874 -0.2347
vn 0.2516 0.9389 -0.2347
vn -0.2516 0.9389 -0.2347
vn -0.6874 0.6873 -0.2347
vn -0.9389 0.2516 -0.2347
vn -0.9389 -0.2516 -0.2347
vn -0.6874 -0.6873 -0.2347
vn -0.2516 -0.9389 -0.2347
vn 0.2516 -0.9389 -0.2347
vn 0.6873 -0.6874 -0.2347
vn 0.9389 -0.2516 -0.2347
vn 0.9808 -0.1951 -0.0000
vn 0.8315 -0.5556 -0.0000
vn 0.5556 -0.8315 -0.0000
vn 0.1951 -0.9808 -0.0000
vn -0.1951 -0.9808 -0.0000
vn -0.5556 -0.8315 -0.0000
vn -0.8315 -0.5556 -0.0000
vn -0.9808 -0.1951 -0.0000
vn -0.9808 0.1951 -0.0000
vn -0.8315 0.5556 -0.0000
vn -0.5556 0.8315 -0.0000
vn -0.1951 0.9808 -0.0000
vn 0.1951 0.9808 -0.0000
vn 0.5556 0.8315 -0.0000
vn 0.8315 0.5556 -0.0000
vn 0.9808 0.1951 -0.0000
vt 0.037918 0.996379
vt 0.037918 0.002255
vt 0.066416 0.003621
vt 0.066416 0.997745
vt 0.139596 0.995536
vt 0.139596 0.002255
vt 0.177325 0.002255
vt 0.177325 0.995536
vt 0.070925 0.997745
vt 0.070925 0.003621
vt 0.099423 0.002255
vt 0.099423 0.996379
vt 0.135086 0.002935
vt 0.135086 0.997060
vt 0.256749 0.873480
vt 0.224075 0.854615
vt 0.224075 0.816885
vt 0.256749 0.798021
vt 0.289424 0.816885
vt 0.289424 0.854615
vt 0.181835 0.995536
vt 0.181835 0.002255
vt 0.219565 0.002255
vt 0.219565 0.995536
vt 0.002255 0.997060
vt 0.002255 0.002935
vt 0.224075 0.934584
vt 0.224075 0.896855
vt 0.256749 0.877990
vt 0.289424 0.896855
vt 0.289424 0.934584
vt 0.256749 0.953449
vt 0.259740 0.134613
vt 0.253271 0.261868
vt 0.250024 0.261868
vt 0.240258 0.134613
vt 0.247327 0.261958
vt 0.224075 0.135154
vt 0.346491 0.002603
vt 0.330770 0.129945
vt 0.327626 0.129887
vt 0.327626 0.002255
vt 0.324482 0.129945
vt 0.308761 0.002603
vt 0.277299 0.267009
vt 0.254047 0.393813
vt 0.251350 0.393723
vt 0.261116 0.266468
vt 0.248103 0.393723
vt 0.241634 0.266468
vt 0.245176 0.393813
vt 0.224075 0.267009
vt 0.289424 0.003554
vt 0.262195 0.130104
vt 0.259894 0.129945
vt 0.275614 0.002603
vt 0.256749 0.129887
vt 0.256749 0.002255
vt 0.253605 0.129945
vt 0.237885 0.002603
vt 0.310389 0.773558
vt 0.308761 0.770739
vt 0.308761 0.767484
vt 0.310389 0.764665
vt 0.313208 0.763038
vt 0.316463 0.763038
vt 0.319282 0.764665
vt 0.320909 0.767484
vt 0.320909 0.770739
vt 0.319282 0.773558
vt 0.316463 0.775186
vt 0.313208 0.775186
vt 0.251304 0.130104
vt 0.224075 0.003554
vt 0.277299 0.135154
vt 0.256198 0.261958
vt 0.233840 0.630819
vt 0.224075 0.613905
vt 0.224075 0.594375
vt 0.233840 0.577461
vt 0.250753 0.567696
vt 0.270284 0.567696
vt 0.287198 0.577461
vt 0.296963 0.594375
vt 0.296963 0.613905
vt 0.287198 0.630819
vt 0.270284 0.640584
vt 0.250753 0.640584
vt 0.339411 0.396128
vt 0.339411 0.312413
vt 0.354177 0.312746
vt 0.354177 0.396461
vt 0.365514 0.313365
vt 0.365514 0.397081
vt 0.308761 0.218924
vt 0.308761 0.135279
vt 0.322022 0.134669
vt 0.322022 0.218314
vt 0.337663 0.134455
vt 0.337663 0.218100
vt 0.353305 0.134669
vt 0.353305 0.218314
vt 0.366566 0.135279
vt 0.366566 0.218924
vt 0.308761 0.486259
vt 0.308761 0.402544
vt 0.320098 0.401924
vt 0.320098 0.485639
vt 0.334864 0.401591
vt 0.334864 0.485307
vt 0.350812 0.401596
vt 0.350812 0.485311
vt 0.365514 0.401937
vt 0.365514 0.485653
vt 0.308761 0.307903
vt 0.308761 0.224258
vt 0.322022 0.223648
vt 0.322022 0.307293
vt 0.337663 0.223434
vt 0.337663 0.307079
vt 0.353305 0.223648
vt 0.353305 0.307293
vt 0.366566 0.224258
vt 0.366566 0.307903
vt 0.230178 0.461119
vt 0.224075 0.446385
vt 0.224075 0.430437
vt 0.230178 0.415703
vt 0.241455 0.404426
vt 0.256189 0.398323
vt 0.272137 0.398323
vt 0.286871 0.404426
vt 0.298148 0.415703
vt 0.304251 0.430437
vt 0.304251 0.446385
vt 0.298148 0.461119
vt 0.286871 0.472396
vt 0.272137 0.478500
vt 0.256189 0.478500
vt 0.241455 0.472396
vt 0.308761 0.396475
vt 0.308761 0.312759
vt 0.323463 0.312417
vt 0.323463 0.396133
vt 0.224075 0.531072
vt 0.224075 0.515124
vt 0.230178 0.500389
vt 0.241455 0.489112
vt 0.256189 0.483009
vt 0.272137 0.483009
vt 0.286871 0.489112
vt 0.298148 0.500389
vt 0.304251 0.515124
vt 0.304251 0.531072
vt 0.298148 0.545806
vt 0.286871 0.557083
vt 0.272137 0.563186
vt 0.256189 0.563186
vt 0.241455 0.557083
vt 0.230178 0.545806
vt 0.336267 0.689522
vt 0.336267 0.626735
vt 0.349519 0.627034
vt 0.349519 0.689821
vt 0.359693 0.627590
vt 0.359693 0.690377
vt 0.308761 0.554242
vt 0.308761 0.491509
vt 0.320662 0.490961
vt 0.320662 0.553695
vt 0.334699 0.490769
vt 0.334699 0.553503
vt 0.348736 0.490961
vt 0.348736 0.553695
vt 0.360637 0.491509
vt 0.360637 0.554242
vt 0.308761 0.758528
vt 0.308761 0.695741
vt 0.318935 0.695185
vt 0.318935 0.757972
vt 0.332187 0.694887
vt 0.332187 0.757673
vt 0.346499 0.694891
vt 0.346499 0.757677
vt 0.359693 0.695197
vt 0.359693 0.757984
vt 0.308761 0.622225
vt 0.308761 0.559492
vt 0.320662 0.558944
vt 0.320662 0.621678
vt 0.334699 0.558752
vt 0.334699 0.621486
vt 0.348736 0.558944
vt 0.348736 0.621678
vt 0.360637 0.559492
vt 0.360637 0.622225
vt 0.229552 0.701450
vt 0.224075 0.688227
vt 0.224075 0.673914
vt 0.229552 0.660691
vt 0.239672 0.650571
vt 0.252895 0.645094
vt 0.267208 0.645094
vt 0.280431 0.650571
vt 0.290551 0.660691
vt 0.296028 0.673914
vt 0.296028 0.688227
vt 0.290551 0.701450
vt 0.280431 0.711570
vt 0.267208 0.717048
vt 0.252895 0.717048
vt 0.239672 0.711570
vt 0.308761 0.689833
vt 0.308761 0.627046
vt 0.321955 0.626739
vt 0.321955 0.689526
vt 0.224075 0.764690
vt 0.224075 0.750378
vt 0.229552 0.737155
vt 0.239672 0.727034
vt 0.252895 0.721557
vt 0.267208 0.721557
vt 0.280431 0.727034
vt 0.290551 0.737155
vt 0.296028 0.750378
vt 0.296028 0.764690
vt 0.290551 0.777913
vt 0.280431 0.788034
vt 0.267208 0.793511
vt 0.252895 0.793511
vt 0.239672 0.788034
vt 0.229552 0.777913
s 0
usemtl M_PencilPaint
f 1/1/1 2/2/1 4/3/1 3/4/1
f 3/5/2 4/6/2 6/7/2 5/8/2
f 5/9/3 6/10/3 8/11/3 7/12/3
f 7/12/4 8/11/4 10/13/4 9/14/4
f 4/15/5 2/16/5 12/17/5 10/18/5 8/19/5 6/20/5
f 9/21/6 10/22/6 12/23/6 11/24/6
f 11/25/7 12/26/7 2/2/7 1/1/7
f 1/27/8 3/28/8 5/29/8 7/30/8 9/31/8 11/32/8
usemtl M_PencilWood
f 13/33/9 14/34/9 16/35/9 15/36/9
f 15/36/10 16/35/10 18/37/10 17/38/10
f 17/39/11 18/40/11 20/41/11 19/42/11
f 19/42/12 20/41/12 22/43/12 21/44/12
f 21/45/13 22/46/13 24/47/13 23/48/13
f 23/48/14 24/47/14 26/49/14 25/50/14
f 25/50/15 26/49/15 28/51/15 27/52/15
f 27/53/16 28/54/16 30/55/16 29/56/16
f 29/56/17 30/55/17 32/57/17 31/58/17
f 31/58/18 32/57/18 34/59/18 33/60/18
f 16/61/8 14/62/8 36/63/8 34/64/8 32/65/8 30/66/8 28/67/8 26/68/8 24/69/8 22/70/8 20/71/8 18/72/8
f 33/60/19 34/59/19 36/73/19 35/74/19
f 35/75/20 36/76/20 14/34/20 13/33/20
f 13/77/5 15/78/5 17/79/5 19/80/5 21/81/5 23/82/5 25/83/5 27/84/5 29/85/5 31/86/5 33/87/5 35/88/5
usemtl M_Ferrule
f 37/89/21 38/90/21 40/91/21 39/92/21
f 39/92/22 40/91/22 42/93/22 41/94/22
f 41/95/23 42/96/23 44/97/23 43/98/23
f 43/98/24 44/97/24 46/99/24 45/100/24
f 45/100/25 46/99/25 48/101/25 47/102/25
f 47/102/26 48/101/26 50/103/26 49/104/26
f 49/105/27 50/106/27 52/107/27 51/108/27
f 51/108/28 52/107/28 54/109/28 53/110/28
f 53/110/29 54/109/29 56/111/29 55/112/29
f 55/112/30 56/111/30 58/113/30 57/114/30
f 57/115/31 58/116/31 60/117/31 59/118/31
f 59/118/32 60/117/32 62/119/32 61/120/32
f 61/120/33 62/119/33 64/121/33 63/122/33
f 63/122/34 64/121/34 66/123/34 65/124/34
f 40/125/5 38/126/5 68/127/5 66/128/5 64/129/5 62/130/5 60/131/5 58/132/5 56/133/5 54/134/5 52/135/5 50/136/5 48/137/5 46/138/5 44/139/5 42/140/5
f 65/141/35 66/142/35 68/143/35 67/144/35
f 67/144/36 68/143/36 38/90/36 37/89/36
f 37/145/8 39/146/8 41/147/8 43/148/8 45/149/8 47/150/8 49/151/8 51/152/8 53/153/8 55/154/8 57/155/8 59/156/8 61/157/8 63/158/8 65/159/8 67/160/8
usemtl M_Eraser
f 69/161/21 70/162/21 72/163/21 71/164/21
f 71/164/22 72/163/22 74/165/22 73/166/22
f 73/167/23 74/168/23 76/169/23 75/170/23
f 75/170/24 76/169/24 78/171/24 77/172/24
f 77/172/25 78/171/25 80/173/25 79/174/25
f 79/174/26 80/173/26 82/175/26 81/176/26
f 81/177/27 82/178/27 84/179/27 83/180/27
f 83/180/28 84/179/28 86/181/28 85/182/28
f 85/182/29 86/181/29 88/183/29 87/184/29
f 87/184/30 88/183/30 90/185/30 89/186/30
f 89/187/31 90/188/31 92/189/31 91/190/31
f 91/190/32 92/189/32 94/191/32 93/192/32
f 93/192/33 94/191/33 96/193/33 95/194/33
f 95/194/34 96/193/34 98/195/34 97/196/34
f 72/197/5 70/198/5 100/199/5 98/200/5 96/201/5 94/202/5 92/203/5 90/204/5 88/205/5 86/206/5 84/207/5 82/208/5 80/209/5 78/210/5 76/211/5 74/212/5
f 97/213/35 98/214/35 100/215/35 99/216/35
f 99/216/36 100/215/36 70/162/36 69/161/36
f 69/217/8 71/218/8 73/219/8 75/220/8 77/221/8 79/222/8 81/223/8 83/224/8 85/225/8 87/226/8 89/227/8 91/228/8 93/229/8 95/230/8 97/231/8 99/232/8
