# Blender 5.0.1
# www.blender.org
mtllib pill_bottle.mtl
o SM_PillBottle
v 0.000000 5.948102 -4.000000
v 0.000000 6.250000 -3.700000
v 0.000000 6.099051 -3.959807
v 0.000000 6.209554 -3.850000
v 0.000000 5.948102 4.000000
v 0.000000 6.250000 3.700000
v 0.000000 6.099051 3.959807
v 0.000000 6.209553 3.850000
v 0.433493 5.899259 -4.000000
v 0.500672 6.193588 -3.700000
v 0.467083 6.046423 -3.959807
v 0.491672 6.154155 -3.850000
v 0.433493 5.899258 4.000000
v 0.500672 6.193588 3.700000
v 0.467083 6.046423 3.959807
v 0.491672 6.154155 3.850000
v 0.845250 5.755179 -4.000000
v 0.976238 6.027180 -3.700000
v 0.910744 5.891179 -3.959807
v 0.958689 5.990739 -3.850000
v 0.845250 5.755178 4.000000
v 0.976238 6.027180 3.700000
v 0.910744 5.891179 3.959807
v 0.958689 5.990738 3.850000
v 1.214621 5.523088 -4.000000
v 1.402852 5.759121 -3.700000
v 1.308737 5.641104 -3.959807
v 1.377634 5.727498 -3.850000
v 1.214622 5.523087 4.000000
v 1.402852 5.759121 3.700000
v 1.308737 5.641104 3.959807
v 1.377634 5.727498 3.850000
v 1.523088 5.214622 -4.000000
v 1.759121 5.402852 -3.700000
v 1.641104 5.308737 -3.959807
v 1.727498 5.377634 -3.850000
v 1.523088 5.214621 4.000000
v 1.759121 5.402852 3.700000
v 1.641104 5.308736 3.959807
v 1.727498 5.377634 3.850000
v 1.755179 4.845250 -4.000000
v 2.027180 4.976239 -3.700000
v 1.891179 4.910744 -3.959807
v 1.990739 4.958689 -3.850000
v 1.755179 4.845250 4.000000
v 2.027180 4.976238 3.700000
v 1.891179 4.910744 3.959807
v 1.990739 4.958689 3.850000
v 1.899259 4.433494 -4.000000
v 2.193588 4.500672 -3.700000
v 2.046423 4.467083 -3.959807
v 2.154155 4.491672 -3.850000
v 1.899259 4.433493 4.000000
v 2.193588 4.500672 3.700000
v 2.046423 4.467083 3.959807
v 2.154155 4.491672 3.850000
v 1.948102 4.000000 -4.000000
v 2.250000 4.000000 -3.700000
v 2.099051 4.000000 -3.959807
v 2.209554 4.000000 -3.850000
v 1.948102 4.000000 4.000000
v 2.250000 4.000000 3.700000
v 2.099051 4.000000 3.959807
v 2.209554 4.000000 3.850000
v 1.899259 3.566506 -4.000000
v 2.193588 3.499328 -3.700000
v 2.046423 3.532917 -3.959807
v 2.154155 3.508328 -3.850000
v 1.899259 3.566506 4.000000
v 2.193588 3.499328 3.700000
v 2.046423 3.532917 3.959807
v 2.154155 3.508328 3.850000
v 1.755179 3.154750 -4.000000
v 2.027180 3.023762 -3.700000
v 1.891179 3.089256 -3.959807
v 1.990739 3.041311 -3.850000
v 1.755179 3.154750 4.000000
v 2.027180 3.023761 3.700000
v 1.891179 3.089256 3.959807
v 1.990739 3.041310 3.850000
v 1.523088 2.785379 -4.000000
v 1.759121 2.597148 -3.700000
v 1.641104 2.691263 -3.959807
v 1.727498 2.622366 -3.850000
v 1.523088 2.785378 4.000000
v 1.759121 2.597148 3.700000
v 1.641104 2.691263 3.959807
v 1.727498 2.622365 3.850000
v 1.214622 2.476913 -4.000000
v 1.402852 2.240879 -3.700000
v 1.308737 2.358896 -3.959807
v 1.377634 2.272502 -3.850000
v 1.214621 2.476912 4.000000
v 1.402852 2.240879 3.700000
v 1.308737 2.358896 3.959807
v 1.377634 2.272501 3.850000
v 0.845250 2.244821 -4.000000
v 0.976238 1.972820 -3.700000
v 0.910744 2.108821 -3.959807
v 0.958689 2.009261 -3.850000
v 0.845250 2.244821 4.000000
v 0.976238 1.972820 3.700000
v 0.910744 2.108820 3.959807
v 0.958689 2.009261 3.850000
v 0.433493 2.100741 -4.000000
v 0.500672 1.806412 -3.700000
v 0.467083 1.953577 -3.959807
v 0.491672 1.845845 -3.850000
v 0.433493 2.100741 4.000000
v 0.500672 1.806412 3.700000
v 0.467083 1.953577 3.959807
v 0.491672 1.845845 3.850000
v 0.000000 2.051898 -4.000000
v 0.000000 1.750000 -3.700000
v 0.000000 1.900949 -3.959807
v 0.000000 1.790446 -3.850000
v 0.000000 2.051898 4.000000
v 0.000000 1.750000 3.700000
v 0.000000 1.900949 3.959807
v 0.000000 1.790446 3.850000
v -0.433493 2.100741 -4.000000
v -0.500672 1.806412 -3.700000
v -0.467083 1.953577 -3.959807
v -0.491672 1.845845 -3.850000
v -0.433493 2.100741 4.000000
v -0.500672 1.806412 3.700000
v -0.467083 1.953577 3.959807
v -0.491672 1.845845 3.850000
v -0.845250 2.244821 -4.000000
v -0.976238 1.972820 -3.700000
v -0.910744 2.108821 -3.959807
v -0.958689 2.009261 -3.850000
v -0.845250 2.244821 4.000000
v -0.976238 1.972820 3.700000
v -0.910744 2.108820 3.959807
v -0.958689 2.009261 3.850000
v -1.214621 2.476912 -4.000000
v -1.402852 2.240879 -3.700000
v -1.308737 2.358896 -3.959807
v -1.377634 2.272502 -3.850000
v -1.214622 2.476912 4.000000
v -1.402852 2.240879 3.700000
v -1.308737 2.358896 3.959807
v -1.377634 2.272501 3.850000
v -1.523088 2.785379 -4.000000
v -1.759121 2.597148 -3.700000
v -1.641104 2.691263 -3.959807
v -1.727498 2.622366 -3.850000
v -1.523088 2.785378 4.000000
v -1.759121 2.597148 3.700000
v -1.641104 2.691263 3.959807
v -1.727498 2.622366 3.850000
v -1.755179 3.154750 -4.000000
v -2.027180 3.023762 -3.700000
v -1.891179 3.089256 -3.959807
v -1.990739 3.041311 -3.850000
v -1.755179 3.154750 4.000000
v -2.027180 3.023761 3.700000
v -1.891179 3.089256 3.959807
v -1.990739 3.041310 3.850000
v -1.899259 3.566506 -4.000000
v -2.193588 3.499328 -3.700000
v -2.046423 3.532917 -3.959807
v -2.154155 3.508328 -3.850000
v -1.899259 3.566506 4.000000
v -2.193588 3.499328 3.700000
v -2.046423 3.532917 3.959807
v -2.154155 3.508328 3.850000
v -1.948102 4.000000 -4.000000
v -2.250000 4.000000 -3.700000
v -2.099051 4.000000 -3.959807
v -2.209554 4.000000 -3.850000
v -1.948102 4.000000 4.000000
v -2.250000 4.000000 3.700000
v -2.099051 4.000000 3.959807
v -2.209554 4.000000 3.850000
v -1.899259 4.433494 -4.000000
v -2.193588 4.500672 -3.700000
v -2.046423 4.467083 -3.959807
v -2.154155 4.491672 -3.850000
v -1.899259 4.433493 4.000000
v -2.193588 4.500672 3.700000
v -2.046423 4.467083 3.959807
v -2.154155 4.491672 3.850000
v -1.755179 4.845250 -4.000000
v -2.027180 4.976239 -3.700000
v -1.891179 4.910744 -3.959807
v -1.990739 4.958689 -3.850000
v -1.755179 4.845250 4.000000
v -2.027180 4.976238 3.700000
v -1.891179 4.910744 3.959807
v -1.990739 4.958689 3.850000
v -1.523088 5.214622 -4.000000
v -1.759121 5.402852 -3.700000
v -1.641104 5.308737 -3.959807
v -1.727498 5.377634 -3.850000
v -1.523088 5.214621 4.000000
v -1.759121 5.402852 3.700000
v -1.641104 5.308736 3.959807
v -1.727498 5.377634 3.850000
v -1.214622 5.523088 -4.000000
v -1.402852 5.759121 -3.700000
v -1.308737 5.641104 -3.959807
v -1.377634 5.727498 -3.850000
v -1.214621 5.523087 4.000000
v -1.402852 5.759121 3.700000
v -1.308737 5.641104 3.959807
v -1.377634 5.727498 3.850000
v -0.845250 5.755179 -4.000000
v -0.976238 6.027180 -3.700000
v -0.910744 5.891179 -3.959807
v -0.958689 5.990739 -3.850000
v -0.845250 5.755178 4.000000
v -0.976238 6.027180 3.700000
v -0.910744 5.891179 3.959807
v -0.958689 5.990738 3.850000
v -0.433493 5.899259 -4.000000
v -0.500672 6.193588 -3.700000
v -0.467083 6.046423 -3.959807
v -0.491672 6.154155 -3.850000
v -0.433493 5.899258 4.000000
v -0.500672 6.193588 3.700000
v -0.467083 6.046423 3.959807
v -0.491672 6.154155 3.850000
v 0.000000 6.280001 -2.250000
v 0.000000 6.280000 2.250000
v 0.507348 6.222836 -2.250000
v 0.507348 6.222835 2.250000
v 0.989255 6.054209 -2.250000
v 0.989255 6.054209 2.250000
v 1.421557 5.782576 -2.250000
v 1.421557 5.782576 2.250000
v 1.782576 5.421557 -2.250000
v 1.782576 5.421556 2.250000
v 2.054209 4.989255 -2.250000
v 2.054209 4.989255 2.250000
v 2.222836 4.507348 -2.250000
v 2.222836 4.507348 2.250000
v 2.280000 4.000000 -2.250000
v 2.280000 4.000000 2.250000
v 2.222836 3.492652 -2.250000
v 2.222836 3.492652 2.250000
v 2.054209 3.010745 -2.250000
v 2.054209 3.010745 2.250000
v 1.782576 2.578443 -2.250000
v 1.782576 2.578443 2.250000
v 1.421557 2.217424 -2.250000
v 1.421557 2.217424 2.250000
v 0.989255 1.945791 -2.250000
v 0.989255 1.945791 2.250000
v 0.507348 1.777164 -2.250000
v 0.507348 1.777164 2.250000
v 0.000000 1.720000 -2.250000
v 0.000000 1.720000 2.250000
v -0.507348 1.777164 -2.250000
v -0.507348 1.777164 2.250000
v -0.989255 1.945791 -2.250000
v -0.989255 1.945791 2.250000
v -1.421557 2.217424 -2.250000
v -1.421557 2.217424 2.250000
v -1.782576 2.578443 -2.250000
v -1.782576 2.578443 2.250000
v -2.054209 3.010745 -2.250000
v -2.054209 3.010745 2.250000
v -2.222836 3.492652 -2.250000
v -2.222836 3.492652 2.250000
v -2.280000 4.000000 -2.250000
v -2.280000 4.000000 2.250000
v -2.222836 4.507348 -2.250000
v -2.222836 4.507348 2.250000
v -2.054209 4.989255 -2.250000
v -2.054209 4.989255 2.250000
v -1.782576 5.421557 -2.250000
v -1.782576 5.421556 2.250000
v -1.421557 5.782576 -2.250000
v -1.421557 5.782576 2.250000
v -0.989255 6.054209 -2.250000
v -0.989255 6.054209 2.250000
v -0.507348 6.222836 -2.250000
v -0.507348 6.222835 2.250000
v 0.000000 6.198274 4.000000
v 0.000000 6.400000 4.200000
v 0.000000 6.340915 4.058578
v 0.000000 6.198274 5.600000
v 0.000000 6.400000 5.400000
v 0.000000 6.340915 5.541421
v 0.568955 6.123369 4.000000
v 0.621166 6.318222 4.200000
v 0.605874 6.261150 4.058578
v 0.568955 6.123369 5.600000
v 0.621166 6.318222 5.400000
v 0.605874 6.261150 5.541421
v 1.099137 5.903761 4.000000
v 1.200000 6.078461 4.200000
v 1.170458 6.027292 4.058578
v 1.099137 5.903761 5.600000
v 1.200000 6.078461 5.400000
v 1.170458 6.027292 5.541421
v 1.554414 5.554414 4.000000
v 1.697056 5.697056 4.200000
v 1.655277 5.655277 4.058578
v 1.554415 5.554414 5.600000
v 1.697056 5.697056 5.400000
v 1.655277 5.655277 5.541421
v 1.903761 5.099136 4.000000
v 2.078461 5.200000 4.200000
v 2.027292 5.170457 4.058578
v 1.903761 5.099136 5.600000
v 2.078461 5.200000 5.400000
v 2.027292 5.170457 5.541421
v 2.123370 4.568955 4.000000
v 2.318222 4.621165 4.200000
v 2.261151 4.605873 4.058578
v 2.123370 4.568955 5.600000
v 2.318222 4.621165 5.400000
v 2.261151 4.605873 5.541421
v 2.198274 4.000000 4.000000
v 2.400000 4.000000 4.200000
v 2.340916 4.000000 4.058578
v 2.198274 4.000000 5.600000
v 2.400000 4.000000 5.400000
v 2.340916 4.000000 5.541421
v 2.123370 3.431044 4.000000
v 2.318222 3.378834 4.200000
v 2.261151 3.394126 4.058578
v 2.123370 3.431044 5.600000
v 2.318222 3.378834 5.400000
v 2.261151 3.394126 5.541421
v 1.903761 2.900863 4.000000
v 2.078461 2.800000 4.200000
v 2.027292 2.829542 4.058578
v 1.903761 2.900863 5.600000
v 2.078461 2.800000 5.400000
v 2.027292 2.829542 5.541421
v 1.554415 2.445585 4.000000
v 1.697056 2.302943 4.200000
v 1.655277 2.344722 4.058578
v 1.554414 2.445585 5.600000
v 1.697056 2.302943 5.400000
v 1.655277 2.344722 5.541421
v 1.099137 2.096238 4.000000
v 1.200000 1.921539 4.200000
v 1.170458 1.972707 4.058578
v 1.099137 2.096238 5.600000
v 1.200000 1.921539 5.400000
v 1.170458 1.972707 5.541421
v 0.568955 1.876630 4.000000
v 0.621166 1.681778 4.200000
v 0.605874 1.738849 4.058578
v 0.568955 1.876630 5.600000
v 0.621166 1.681778 5.400000
v 0.605874 1.738849 5.541421
v 0.000000 1.801726 4.000000
v 0.000000 1.600000 4.200000
v 0.000000 1.659084 4.058578
v 0.000000 1.801726 5.600000
v 0.000000 1.600000 5.400000
v 0.000000 1.659084 5.541421
v -0.568955 1.876630 4.000000
v -0.621166 1.681778 4.200000
v -0.605874 1.738849 4.058578
v -0.568955 1.876630 5.600000
v -0.621166 1.681778 5.400000
v -0.605874 1.738849 5.541421
v -1.099137 2.096238 4.000000
v -1.200000 1.921539 4.200000
v -1.170458 1.972707 4.058578
v -1.099137 2.096238 5.600000
v -1.200000 1.921539 5.400000
v -1.170458 1.972707 5.541421
v -1.554414 2.445585 4.000000
v -1.697056 2.302943 4.200000
v -1.655277 2.344722 4.058578
v -1.554415 2.445585 5.600000
v -1.697056 2.302943 5.400000
v -1.655277 2.344722 5.541421
v -1.903761 2.900863 4.000000
v -2.078461 2.800000 4.200000
v -2.027292 2.829542 4.058578
v -1.903761 2.900863 5.600000
v -2.078461 2.800000 5.400000
v -2.027292 2.829542 5.541421
v -2.123370 3.431044 4.000000
v -2.318222 3.378834 4.200000
v -2.261151 3.394126 4.058578
v -2.123370 3.431044 5.600000
v -2.318222 3.378834 5.400000
v -2.261151 3.394126 5.541421
v -2.198274 4.000000 4.000000
v -2.400000 4.000000 4.200000
v -2.340916 4.000000 4.058578
v -2.198274 4.000000 5.600000
v -2.400000 4.000000 5.400000
v -2.340916 4.000000 5.541421
v -2.123370 4.568955 4.000000
v -2.318222 4.621165 4.200000
v -2.261151 4.605873 4.058578
v -2.123370 4.568955 5.600000
v -2.318222 4.621165 5.400000
v -2.261151 4.605873 5.541421
v -1.903761 5.099136 4.000000
v -2.078461 5.200000 4.200000
v -2.027292 5.170457 4.058578
v -1.903761 5.099136 5.600000
v -2.078461 5.200000 5.400000
v -2.027292 5.170457 5.541421
v -1.554415 5.554414 4.000000
v -1.697056 5.697056 4.200000
v -1.655277 5.655277 4.058578
v -1.554414 5.554414 5.600000
v -1.697056 5.697056 5.400000
v -1.655277 5.655277 5.541421
v -1.099137 5.903761 4.000000
v -1.200000 6.078461 4.200000
v -1.170458 6.027292 4.058578
v -1.099137 5.903761 5.600000
v -1.200000 6.078461 5.400000
v -1.170458 6.027292 5.541421
v -0.568955 6.123369 4.000000
v -0.621166 6.318222 4.200000
v -0.605874 6.261150 4.058578
v -0.568955 6.123369 5.600000
v -0.621166 6.318222 5.400000
v -0.605874 6.261150 5.541421
v 5.997839 5.439781 -3.672000
v 5.997839 5.786191 -3.756000
v 5.997839 5.786191 -3.924000
v 5.997839 5.439781 -4.008000
v 6.097839 5.612986 -3.694508
v 6.171044 5.739781 -3.756000
v 6.197839 5.786191 -3.840000
v 6.171044 5.739781 -3.924000
v 6.097839 5.612986 -3.985492
v 6.171044 5.539781 -3.694508
v 6.297840 5.612986 -3.756000
v 6.344249 5.639781 -3.840000
v 6.297840 5.612986 -3.924000
v 6.171044 5.539781 -3.985492
v 6.197839 5.439781 -3.694508
v 6.344249 5.439781 -3.756000
v 6.397839 5.439781 -3.840000
v 6.344249 5.439781 -3.924000
v 6.197839 5.439781 -3.985492
v 6.171044 5.339781 -3.694508
v 6.297840 5.266576 -3.756000
v 6.344249 5.239781 -3.840000
v 6.297840 5.266576 -3.924000
v 6.171044 5.339781 -3.985492
v 6.097839 5.266576 -3.694508
v 6.171044 5.139781 -3.756000
v 6.197839 5.093371 -3.840000
v 6.171044 5.139781 -3.924000
v 6.097839 5.266576 -3.985492
v 5.997839 5.239781 -3.694508
v 5.997839 5.093371 -3.756000
v 5.997839 5.039781 -3.840000
v 5.997839 5.093371 -3.924000
v 5.997839 5.239781 -3.985492
v 5.897840 5.266576 -3.694508
v 5.824634 5.139781 -3.756000
v 5.797839 5.093371 -3.840000
v 5.824634 5.139781 -3.924000
v 5.897840 5.266576 -3.985492
v 5.824634 5.339781 -3.694508
v 5.697839 5.266576 -3.756000
v 5.651429 5.239781 -3.840000
v 5.697839 5.266576 -3.924000
v 5.824634 5.339781 -3.985492
v 5.797839 5.439781 -3.694508
v 5.651429 5.439781 -3.756000
v 5.597839 5.439781 -3.840000
v 5.651429 5.439781 -3.924000
v 5.797839 5.439781 -3.985492
v 5.824634 5.539781 -3.694508
v 5.697839 5.612986 -3.756000
v 5.651429 5.639781 -3.840000
v 5.697839 5.612986 -3.924000
v 5.824634 5.539781 -3.985492
v 5.897840 5.612986 -3.694508
v 5.824634 5.739781 -3.756000
v 5.797839 5.786191 -3.840000
v 5.824634 5.739781 -3.924000
v 5.897840 5.612986 -3.985492
v 5.997839 5.639781 -3.694508
v 5.997839 5.839781 -3.840000
v 5.997839 5.639781 -3.985492
v 4.031427 5.892574 -3.672000
v 4.031427 6.238984 -3.756000
v 4.031427 6.238984 -3.924000
v 4.031427 5.892574 -4.008000
v 4.131427 6.065780 -3.694508
v 4.204632 6.192575 -3.756000
v 4.231427 6.238984 -3.840000
v 4.204632 6.192575 -3.924000
v 4.131427 6.065780 -3.985492
v 4.204632 5.992574 -3.694508
v 4.331427 6.065780 -3.756000
v 4.377838 6.092575 -3.840000
v 4.331427 6.065780 -3.924000
v 4.204632 5.992574 -3.985492
v 4.231427 5.892574 -3.694508
v 4.377838 5.892574 -3.756000
v 4.431427 5.892574 -3.840000
v 4.377838 5.892574 -3.924000
v 4.231427 5.892574 -3.985492
v 4.204632 5.792574 -3.694508
v 4.331427 5.719369 -3.756000
v 4.377838 5.692575 -3.840000
v 4.331427 5.719369 -3.924000
v 4.204632 5.792574 -3.985492
v 4.131427 5.719369 -3.694508
v 4.204632 5.592574 -3.756000
v 4.231427 5.546164 -3.840000
v 4.204632 5.592574 -3.924000
v 4.131427 5.719369 -3.985492
v 4.031427 5.692575 -3.694508
v 4.031427 5.546165 -3.756000
v 4.031427 5.492574 -3.840000
v 4.031427 5.546165 -3.924000
v 4.031427 5.692575 -3.985492
v 3.931427 5.719369 -3.694508
v 3.858222 5.592574 -3.756000
v 3.831427 5.546165 -3.840000
v 3.858222 5.592574 -3.924000
v 3.931427 5.719369 -3.985492
v 3.858222 5.792574 -3.694508
v 3.731427 5.719370 -3.756000
v 3.685017 5.692575 -3.840000
v 3.731427 5.719370 -3.924000
v 3.858222 5.792574 -3.985492
v 3.831427 5.892574 -3.694508
v 3.685017 5.892574 -3.756000
v 3.631427 5.892574 -3.840000
v 3.685017 5.892574 -3.924000
v 3.831427 5.892574 -3.985492
v 3.858222 5.992574 -3.694508
v 3.731427 6.065780 -3.756000
v 3.685017 6.092575 -3.840000
v 3.731427 6.065780 -3.924000
v 3.858222 5.992574 -3.985492
v 3.931427 6.065780 -3.694508
v 3.858222 6.192575 -3.756000
v 3.831427 6.238984 -3.840000
v 3.858222 6.192575 -3.924000
v 3.931427 6.065780 -3.985492
v 4.031427 6.092575 -3.694508
v 4.031427 6.292574 -3.840000
v 4.031427 6.092575 -3.985492
v -7.236490 7.714756 -3.672000
v -7.236490 8.061166 -3.756000
v -7.236490 8.061166 -3.924000
v -7.236490 7.714756 -4.008000
v -7.136489 7.887961 -3.694508
v -7.063284 8.014755 -3.756000
v -7.036490 8.061166 -3.840000
v -7.063284 8.014755 -3.924000
v -7.136489 7.887961 -3.985492
v -7.063284 7.814755 -3.694508
v -6.936490 7.887961 -3.756000
v -6.890079 7.914755 -3.840000
v -6.936490 7.887961 -3.924000
v -7.063284 7.814755 -3.985492
v -7.036490 7.714756 -3.694508
v -6.890079 7.714756 -3.756000
v -6.836490 7.714756 -3.840000
v -6.890079 7.714756 -3.924000
v -7.036490 7.714756 -3.985492
v -7.063284 7.614756 -3.694508
v -6.936490 7.541551 -3.756000
v -6.890079 7.514755 -3.840000
v -6.936490 7.541551 -3.924000
v -7.063284 7.614756 -3.985492
v -7.136489 7.541551 -3.694508
v -7.063284 7.414755 -3.756000
v -7.036490 7.368346 -3.840000
v -7.063284 7.414755 -3.924000
v -7.136489 7.541551 -3.985492
v -7.236490 7.514755 -3.694508
v -7.236490 7.368346 -3.756000
v -7.236490 7.314755 -3.840000
v -7.236490 7.368346 -3.924000
v -7.236490 7.514755 -3.985492
v -7.336490 7.541551 -3.694508
v -7.409695 7.414755 -3.756000
v -7.436489 7.368346 -3.840000
v -7.409695 7.414755 -3.924000
v -7.336490 7.541551 -3.985492
v -7.409695 7.614756 -3.694508
v -7.536489 7.541551 -3.756000
v -7.582900 7.514755 -3.840000
v -7.536489 7.541551 -3.924000
v -7.409695 7.614756 -3.985492
v -7.436489 7.714756 -3.694508
v -7.582900 7.714756 -3.756000
v -7.636490 7.714756 -3.840000
v -7.582900 7.714756 -3.924000
v -7.436489 7.714756 -3.985492
v -7.409695 7.814755 -3.694508
v -7.536489 7.887961 -3.756000
v -7.582900 7.914755 -3.840000
v -7.536489 7.887961 -3.924000
v -7.409695 7.814755 -3.985492
v -7.336490 7.887961 -3.694508
v -7.409695 8.014755 -3.756000
v -7.436489 8.061166 -3.840000
v -7.409695 8.014755 -3.924000
v -7.336490 7.887961 -3.985492
v -7.236490 7.914755 -3.694508
v -7.236490 8.114756 -3.840000
v -7.236490 7.914755 -3.985492
v 3.644825 7.590362 -3.672000
v 3.644825 7.936772 -3.756000
v 3.644825 7.936772 -3.924000
v 3.644825 7.590362 -4.008000
v 3.744825 7.763567 -3.694508
v 3.818031 7.890362 -3.756000
v 3.844826 7.936772 -3.840000
v 3.818031 7.890362 -3.924000
v 3.744825 7.763567 -3.985492
v 3.818031 7.690361 -3.694508
v 3.944825 7.763567 -3.756000
v 3.991236 7.790361 -3.840000
v 3.944825 7.763567 -3.924000
v 3.818031 7.690361 -3.985492
v 3.844826 7.590362 -3.694508
v 3.991236 7.590362 -3.756000
v 4.044826 7.590362 -3.840000
v 3.991236 7.590362 -3.924000
v 3.844826 7.590362 -3.985492
v 3.818031 7.490362 -3.694508
v 3.944825 7.417157 -3.756000
v 3.991236 7.390362 -3.840000
v 3.944825 7.417157 -3.924000
v 3.818031 7.490362 -3.985492
v 3.744825 7.417157 -3.694508
v 3.818031 7.290362 -3.756000
v 3.844826 7.243951 -3.840000
v 3.818031 7.290362 -3.924000
v 3.744825 7.417157 -3.985492
v 3.644825 7.390362 -3.694508
v 3.644825 7.243951 -3.756000
v 3.644825 7.190361 -3.840000
v 3.644825 7.243951 -3.924000
v 3.644825 7.390362 -3.985492
v 3.544826 7.417157 -3.694508
v 3.471620 7.290362 -3.756000
v 3.444825 7.243951 -3.840000
v 3.471620 7.290362 -3.924000
v 3.544826 7.417157 -3.985492
v 3.471620 7.490362 -3.694508
v 3.344826 7.417157 -3.756000
v 3.298415 7.390362 -3.840000
v 3.344826 7.417157 -3.924000
v 3.471620 7.490362 -3.985492
v 3.444825 7.590362 -3.694508
v 3.298415 7.590362 -3.756000
v 3.244825 7.590362 -3.840000
v 3.298415 7.590362 -3.924000
v 3.444825 7.590362 -3.985492
v 3.471620 7.690361 -3.694508
v 3.344826 7.763567 -3.756000
v 3.298415 7.790361 -3.840000
v 3.344826 7.763567 -3.924000
v 3.471620 7.690361 -3.985492
v 3.544826 7.763567 -3.694508
v 3.471620 7.890362 -3.756000
v 3.444825 7.936772 -3.840000
v 3.471620 7.890362 -3.924000
v 3.544826 7.763567 -3.985492
v 3.644825 7.790361 -3.694508
v 3.644825 7.990362 -3.840000
v 3.644825 7.790361 -3.985492
v -6.083898 -2.272826 -3.672000
v -6.083898 -1.926416 -3.756001
v -6.083898 -1.926416 -3.924000
v -6.083898 -2.272826 -4.008000
v -5.983898 -2.099621 -3.694508
v -5.910692 -1.972827 -3.756001
v -5.883897 -1.926416 -3.840000
v -5.910692 -1.972827 -3.924000
v -5.983898 -2.099621 -3.985492
v -5.910692 -2.172827 -3.694508
v -5.783897 -2.099621 -3.756001
v -5.737487 -2.072826 -3.840000
v -5.783897 -2.099621 -3.924000
v -5.910692 -2.172827 -3.985492
v -5.883897 -2.272826 -3.694508
v -5.737487 -2.272826 -3.756001
v -5.683897 -2.272826 -3.840000
v -5.737487 -2.272826 -3.924000
v -5.883897 -2.272826 -3.985492
v -5.910692 -2.372827 -3.694508
v -5.783897 -2.446032 -3.756001
v -5.737487 -2.472826 -3.840000
v -5.783897 -2.446032 -3.924000
v -5.910692 -2.372827 -3.985492
v -5.983898 -2.446032 -3.694508
v -5.910692 -2.572826 -3.756001
v -5.883897 -2.619237 -3.840000
v -5.910692 -2.572826 -3.924000
v -5.983898 -2.446032 -3.985492
v -6.083898 -2.472826 -3.694508
v -6.083898 -2.619237 -3.756001
v -6.083898 -2.672827 -3.840000
v -6.083898 -2.619237 -3.924000
v -6.083898 -2.472826 -3.985492
v -6.183897 -2.446032 -3.694508
v -6.257102 -2.572826 -3.756001
v -6.283897 -2.619237 -3.840000
v -6.257102 -2.572826 -3.924000
v -6.183897 -2.446032 -3.985492
v -6.257102 -2.372827 -3.694508
v -6.383897 -2.446032 -3.756001
v -6.430308 -2.472826 -3.840000
v -6.383897 -2.446032 -3.924000
v -6.257102 -2.372827 -3.985492
v -6.283897 -2.272826 -3.694508
v -6.430308 -2.272826 -3.756001
v -6.483898 -2.272826 -3.840000
v -6.430308 -2.272826 -3.924000
v -6.283897 -2.272826 -3.985492
v -6.257102 -2.172827 -3.694508
v -6.383897 -2.099621 -3.756001
v -6.430308 -2.072826 -3.840000
v -6.383897 -2.099621 -3.924000
v -6.257102 -2.172827 -3.985492
v -6.183897 -2.099621 -3.694508
v -6.257102 -1.972827 -3.756001
v -6.283897 -1.926416 -3.840000
v -6.257102 -1.972827 -3.924000
v -6.183897 -2.099621 -3.985492
v -6.083898 -2.072826 -3.694508
v -6.083898 -1.872826 -3.840000
v -6.083898 -2.072826 -3.985492
v -5.294894 1.213389 -3.672000
v -5.294894 1.559799 -3.756000
v -5.294894 1.559799 -3.924000
v -5.294894 1.213389 -4.008000
v -5.194894 1.386594 -3.694508
v -5.121688 1.513389 -3.756000
v -5.094893 1.559799 -3.840000
v -5.121688 1.513389 -3.924000
v -5.194894 1.386594 -3.985492
v -5.121688 1.313389 -3.694508
v -4.994894 1.386594 -3.756000
v -4.948483 1.413388 -3.840000
v -4.994894 1.386594 -3.924000
v -5.121688 1.313389 -3.985492
v -5.094893 1.213389 -3.694508
v -4.948483 1.213389 -3.756000
v -4.894894 1.213389 -3.840000
v -4.948483 1.213389 -3.924000
v -5.094893 1.213389 -3.985492
v -5.121688 1.113389 -3.694508
v -4.994894 1.040183 -3.756000
v -4.948483 1.013389 -3.840000
v -4.994894 1.040183 -3.924000
v -5.121688 1.113389 -3.985492
v -5.194894 1.040183 -3.694508
v -5.121688 0.913388 -3.756000
v -5.094893 0.866978 -3.840000
v -5.121688 0.913388 -3.924000
v -5.194894 1.040183 -3.985492
v -5.294894 1.013389 -3.694508
v -5.294894 0.866978 -3.756000
v -5.294894 0.813388 -3.840000
v -5.294894 0.866978 -3.924000
v -5.294894 1.013389 -3.985492
v -5.394894 1.040183 -3.694508
v -5.468099 0.913388 -3.756000
v -5.494894 0.866978 -3.840000
v -5.468099 0.913388 -3.924000
v -5.394894 1.040183 -3.985492
v -5.468099 1.113389 -3.694508
v -5.594893 1.040184 -3.756000
v -5.641304 1.013389 -3.840000
v -5.594893 1.040184 -3.924000
v -5.468099 1.113389 -3.985492
v -5.494894 1.213389 -3.694508
v -5.641304 1.213389 -3.756000
v -5.694894 1.213389 -3.840000
v -5.641304 1.213389 -3.924000
v -5.494894 1.213389 -3.985492
v -5.468099 1.313389 -3.694508
v -5.594893 1.386594 -3.756000
v -5.641304 1.413388 -3.840000
v -5.594893 1.386594 -3.924000
v -5.468099 1.313389 -3.985492
v -5.394894 1.386594 -3.694508
v -5.468099 1.513389 -3.756000
v -5.494894 1.559799 -3.840000
v -5.468099 1.513389 -3.924000
v -5.394894 1.386594 -3.985492
v -5.294894 1.413388 -3.694508
v -5.294894 1.613388 -3.840000
v -5.294894 1.413388 -3.985492
vn 0.1081 0.9599 -0.2588
vn 0.0792 0.7027 -0.7071
vn 0.0290 0.2572 -0.9659
vn 0.1081 0.9599 0.2588
vn 0.0792 0.7027 0.7071
vn 0.0290 0.2572 0.9659
vn 0.3190 0.9117 -0.2588
vn 0.2335 0.6674 -0.7071
vn 0.0855 0.2443 -0.9659
vn 0.3190 0.9117 0.2588
vn 0.2335 0.6674 0.7071
vn 0.0855 0.2443 0.9659
vn 0.5139 0.8179 -0.2588
vn 0.3762 0.5987 -0.7071
vn 0.1377 0.2192 -0.9659
vn 0.5139 0.8179 0.2588
vn 0.3762 0.5987 0.7071
vn 0.1377 0.2191 0.9659
vn 0.6830 0.6830 -0.2588
vn 0.5000 0.5000 -0.7071
vn 0.1830 0.1830 -0.9659
vn 0.6830 0.6830 0.2588
vn 0.5000 0.5000 0.7071
vn 0.1830 0.1830 0.9659
vn 0.8179 0.5139 -0.2588
vn 0.5987 0.3762 -0.7071
vn 0.2191 0.1377 -0.9659
vn 0.8179 0.5139 0.2588
vn 0.5987 0.3762 0.7071
vn 0.2191 0.1377 0.9659
vn 0.9117 0.3190 -0.2588
vn 0.6674 0.2335 -0.7071
vn 0.2443 0.0855 -0.9659
vn 0.9117 0.3190 0.2588
vn 0.6674 0.2335 0.7071
vn 0.2443 0.0855 0.9659
vn 0.9599 0.1082 -0.2588
vn 0.7027 0.0792 -0.7071
vn 0.2572 0.0290 -0.9659
vn 0.9599 0.1081 0.2588
vn 0.7027 0.0792 0.7071
vn 0.2572 0.0290 0.9659
vn 0.9599 -0.1081 -0.2588
vn 0.7027 -0.0792 -0.7071
vn 0.2572 -0.0290 -0.9659
vn 0.9599 -0.1082 0.2588
vn 0.7027 -0.0792 0.7071
vn 0.2572 -0.0290 0.9659
vn 0.9117 -0.3190 -0.2588
vn 0.6674 -0.2335 -0.7071
vn 0.2443 -0.0855 -0.9659
vn 0.9117 -0.3190 0.2588
vn 0.6674 -0.2335 0.7071
vn 0.2443 -0.0855 0.9659
vn 0.8179 -0.5139 -0.2588
vn 0.5987 -0.3762 -0.7071
vn 0.2191 -0.1377 -0.9659
vn 0.8179 -0.5139 0.2588
vn 0.5987 -0.3762 0.7071
vn 0.2191 -0.1377 0.9659
vn 0.6830 -0.6830 -0.2588
vn 0.5000 -0.5000 -0.7071
vn 0.1830 -0.1830 -0.9659
vn 0.6830 -0.6830 0.2588
vn 0.5000 -0.5000 0.7071
vn 0.1830 -0.1830 0.9659
vn 0.5139 -0.8179 -0.2588
vn 0.3762 -0.5987 -0.7071
vn 0.1377 -0.2191 -0.9659
vn 0.5139 -0.8179 0.2588
vn 0.3762 -0.5987 0.7071
vn 0.1377 -0.2192 0.9659
vn 0.3190 -0.9117 -0.2588
vn 0.2335 -0.6674 -0.7071
vn 0.0855 -0.2443 -0.9659
vn 0.3190 -0.9117 0.2588
vn 0.2335 -0.6674 0.7071
vn 0.0855 -0.2443 0.9659
vn 0.1081 -0.9599 -0.2588
vn 0.0792 -0.7027 -0.7071
vn 0.0290 -0.2572 -0.9659
vn 0.1081 -0.9599 0.2588
vn 0.0792 -0.7027 0.7071
vn 0.0290 -0.2572 0.9659
vn -0.1081 -0.9599 -0.2588
vn -0.0792 -0.7027 -0.7071
vn -0.0290 -0.2572 -0.9659
vn -0.1081 -0.9599 0.2588
vn -0.0792 -0.7027 0.7071
vn -0.0290 -0.2572 0.9659
vn -0.3190 -0.9117 -0.2588
vn -0.2335 -0.6674 -0.7071
vn -0.0855 -0.2443 -0.9659
vn -0.3190 -0.9117 0.2588
vn -0.2335 -0.6674 0.7071
vn -0.0855 -0.2443 0.9659
vn -0.5139 -0.8179 -0.2588
vn -0.3762 -0.5987 -0.7071
vn -0.1377 -0.2192 -0.9659
vn -0.5139 -0.8179 0.2588
vn -0.3762 -0.5987 0.7071
vn -0.1377 -0.2191 0.9659
vn -0.6830 -0.6830 -0.2588
vn -0.5000 -0.5000 -0.7071
vn -0.1830 -0.1830 -0.9659
vn -0.6830 -0.6830 0.2588
vn -0.5000 -0.5000 0.7071
vn -0.1830 -0.1830 0.9659
vn -0.8179 -0.5139 -0.2588
vn -0.5987 -0.3762 -0.7071
vn -0.2191 -0.1377 -0.9659
vn -0.8179 -0.5139 0.2588
vn -0.5987 -0.3762 0.7071
vn -0.2191 -0.1377 0.9659
vn -0.9117 -0.3190 -0.2588
vn -0.6674 -0.2335 -0.7071
vn -0.2443 -0.0855 -0.9659
vn -0.9117 -0.3190 0.2588
vn -0.6674 -0.2335 0.7071
vn -0.2443 -0.0855 0.9659
vn -0.9599 -0.1082 -0.2588
vn -0.7027 -0.0792 -0.7071
vn -0.2572 -0.0290 -0.9659
vn -0.9599 -0.1081 0.2588
vn -0.7027 -0.0792 0.7071
vn -0.2572 -0.0290 0.9659
vn -0.9599 0.1081 -0.2588
vn -0.7027 0.0792 -0.7071
vn -0.2572 0.0290 -0.9659
vn -0.9599 0.1082 0.2588
vn -0.7027 0.0792 0.7071
vn -0.2572 0.0290 0.9659
vn -0.9117 0.3190 -0.2588
vn -0.6674 0.2335 -0.7071
vn -0.2443 0.0855 -0.9659
vn -0.9117 0.3190 0.2588
vn -0.6674 0.2335 0.7071
vn -0.2443 0.0855 0.9659
vn -0.8179 0.5139 -0.2588
vn -0.5987 0.3762 -0.7071
vn -0.2191 0.1377 -0.9659
vn -0.8179 0.5139 0.2588
vn -0.5987 0.3762 0.7071
vn -0.2191 0.1377 0.9659
vn -0.6830 0.6830 -0.2588
vn -0.5000 0.5000 -0.7071
vn -0.1830 0.1830 -0.9659
vn -0.6830 0.6830 0.2588
vn -0.5000 0.5000 0.7071
vn -0.1830 0.1830 0.9659
vn -0.5139 0.8179 -0.2588
vn -0.3762 0.5987 -0.7071
vn -0.1377 0.2191 -0.9659
vn -0.5139 0.8179 0.2588
vn -0.3762 0.5987 0.7071
vn -0.1377 0.2192 0.9659
vn -0.3190 0.9117 -0.2588
vn -0.2335 0.6674 -0.7071
vn -0.0855 0.2443 -0.9659
vn -0.3190 0.9117 0.2588
vn -0.2335 0.6674 0.7071
vn -0.0855 0.2443 0.9659
vn -0.1081 0.9599 -0.2588
vn -0.0792 0.7027 -0.7071
vn -0.0290 0.2572 -0.9659
vn -0.1081 0.9599 0.2588
vn -0.0792 0.7027 0.7071
vn -0.0290 0.2572 0.9659
vn -0.0000 -0.0000 -1.0000
vn 0.1120 0.9937 -0.0000
vn -0.1120 0.9937 -0.0000
vn -0.0000 -0.0000 1.0000
vn 0.3303 0.9439 -0.0000
vn 0.5320 0.8467 -0.0000
vn 0.7071 0.7071 -0.0000
vn 0.8467 0.5320 -0.0000
vn 0.9439 0.3303 -0.0000
vn 0.9937 0.1120 -0.0000
vn 0.9937 -0.1120 -0.0000
vn 0.9439 -0.3303 -0.0000
vn 0.8467 -0.5320 -0.0000
vn 0.7071 -0.7071 -0.0000
vn 0.5320 -0.8467 -0.0000
vn 0.3303 -0.9439 -0.0000
vn 0.1120 -0.9937 -0.0000
vn -0.1120 -0.9937 -0.0000
vn -0.3303 -0.9439 -0.0000
vn -0.5320 -0.8467 -0.0000
vn -0.7071 -0.7071 -0.0000
vn -0.8467 -0.5320 -0.0000
vn -0.9439 -0.3303 -0.0000
vn -0.9937 -0.1120 -0.0000
vn -0.9937 0.1120 -0.0000
vn -0.9439 0.3303 -0.0000
vn -0.8467 0.5320 -0.0000
vn -0.7071 0.7071 -0.0000
vn -0.5320 0.8467 -0.0000
vn -0.3303 0.9439 -0.0000
vn 0.1206 0.9160 -0.3827
vn 0.0500 0.3794 -0.9239
vn 0.1206 0.9160 0.3827
vn 0.0500 0.3794 0.9239
vn 0.3536 0.8536 -0.3827
vn 0.1464 0.3536 -0.9239
vn 0.3536 0.8536 0.3827
vn 0.1464 0.3536 0.9239
vn 0.5624 0.7330 -0.3827
vn 0.2330 0.3036 -0.9239
vn 0.5624 0.7330 0.3827
vn 0.2330 0.3036 0.9239
vn 0.7330 0.5624 -0.3827
vn 0.3036 0.2330 -0.9239
vn 0.7330 0.5624 0.3827
vn 0.3036 0.2330 0.9239
vn 0.8536 0.3536 -0.3827
vn 0.3536 0.1464 -0.9239
vn 0.8536 0.3536 0.3827
vn 0.3536 0.1464 0.9239
vn 0.9160 0.1206 -0.3827
vn 0.3794 0.0500 -0.9239
vn 0.9160 0.1206 0.3827
vn 0.3794 0.0500 0.9239
vn 0.9160 -0.1206 -0.3827
vn 0.3794 -0.0500 -0.9239
vn 0.9160 -0.1206 0.3827
vn 0.3794 -0.0500 0.9239
vn 0.8536 -0.3536 -0.3827
vn 0.3536 -0.1464 -0.9239
vn 0.8536 -0.3536 0.3827
vn 0.3536 -0.1464 0.9239
vn 0.7330 -0.5624 -0.3827
vn 0.3036 -0.2330 -0.9239
vn 0.7330 -0.5624 0.3827
vn 0.3036 -0.2330 0.9239
vn 0.5624 -0.7330 -0.3827
vn 0.2330 -0.3036 -0.9239
vn 0.5624 -0.7330 0.3827
vn 0.2330 -0.3036 0.9239
vn 0.3536 -0.8536 -0.3827
vn 0.1464 -0.3536 -0.9239
vn 0.3536 -0.8536 0.3827
vn 0.1464 -0.3536 0.9239
vn 0.1206 -0.9160 -0.3827
vn 0.0500 -0.3794 -0.9239
vn 0.1206 -0.9160 0.3827
vn 0.0500 -0.3794 0.9239
vn -0.1206 -0.9160 -0.3827
vn -0.0500 -0.3794 -0.9239
vn -0.1206 -0.9160 0.3827
vn -0.0500 -0.3794 0.9239
vn -0.3536 -0.8536 -0.3827
vn -0.1464 -0.3536 -0.9239
vn -0.3536 -0.8536 0.3827
vn -0.1464 -0.3536 0.9239
vn -0.5624 -0.7330 -0.3827
vn -0.2330 -0.3036 -0.9239
vn -0.5624 -0.7330 0.3827
vn -0.2330 -0.3036 0.9239
vn -0.7330 -0.5624 -0.3827
vn -0.3036 -0.2330 -0.9239
vn -0.7330 -0.5624 0.3827
vn -0.3036 -0.2330 0.9239
vn -0.8536 -0.3536 -0.3827
vn -0.3536 -0.1464 -0.9239
vn -0.8536 -0.3536 0.3827
vn -0.3536 -0.1464 0.9239
vn -0.9160 -0.1206 -0.3827
vn -0.3794 -0.0500 -0.9239
vn -0.9160 -0.1206 0.3827
vn -0.3794 -0.0500 0.9239
vn -0.9160 0.1206 -0.3827
vn -0.3794 0.0500 -0.9239
vn -0.9160 0.1206 0.3827
vn -0.3794 0.0500 0.9239
vn -0.8536 0.3536 -0.3827
vn -0.3536 0.1464 -0.9239
vn -0.8536 0.3536 0.3827
vn -0.3536 0.1464 0.9239
vn -0.7330 0.5624 -0.3827
vn -0.3036 0.2330 -0.9239
vn -0.7330 0.5624 0.3827
vn -0.3036 0.2330 0.9239
vn -0.5624 0.7330 -0.3827
vn -0.2330 0.3036 -0.9239
vn -0.5624 0.7330 0.3827
vn -0.2330 0.3036 0.9239
vn -0.3536 0.8536 -0.3827
vn -0.1464 0.3536 -0.9239
vn -0.3536 0.8536 0.3827
vn -0.1464 0.3536 0.9239
vn -0.1206 0.9160 -0.3827
vn -0.0500 0.3794 -0.9239
vn -0.1206 0.9160 0.3827
vn -0.0500 0.3794 0.9239
vn 0.1305 0.9914 -0.0000
vn -0.1305 0.9914 -0.0000
vn 0.3827 0.9239 -0.0000
vn 0.6088 0.7934 -0.0000
vn 0.7934 0.6088 -0.0000
vn 0.9239 0.3827 -0.0000
vn 0.9914 0.1305 -0.0000
vn 0.9914 -0.1305 -0.0000
vn 0.9239 -0.3827 -0.0000
vn 0.7934 -0.6088 -0.0000
vn 0.6088 -0.7934 -0.0000
vn 0.3827 -0.9239 -0.0000
vn 0.1305 -0.9914 -0.0000
vn -0.1305 -0.9914 -0.0000
vn -0.3827 -0.9239 -0.0000
vn -0.6088 -0.7934 -0.0000
vn -0.7934 -0.6088 -0.0000
vn -0.9239 -0.3827 -0.0000
vn -0.9914 -0.1305 -0.0000
vn -0.9914 0.1305 -0.0000
vn -0.9239 0.3827 -0.0000
vn -0.7934 0.6088 -0.0000
vn -0.6088 0.7934 -0.0000
vn -0.3827 0.9239 -0.0000
vn 0.1032 0.3852 -0.9171
vn 0.2203 0.8223 0.5246
vn 0.0300 0.1118 0.9933
vn 0.0300 0.1118 -0.9933
vn 0.2203 0.8223 -0.5246
vn 0.1032 0.3852 0.9171
vn 0.0818 0.0818 -0.9933
vn 0.6020 0.6020 -0.5246
vn 0.2820 0.2820 0.9171
vn 0.2820 0.2820 -0.9171
vn 0.6020 0.6020 0.5246
vn 0.0818 0.0818 0.9933
vn 0.1118 0.0299 -0.9933
vn 0.8223 0.2203 -0.5246
vn 0.3852 0.1032 0.9171
vn 0.3852 0.1032 -0.9171
vn 0.8223 0.2203 0.5246
vn 0.1118 0.0299 0.9933
vn 0.1118 -0.0299 -0.9933
vn 0.8223 -0.2203 -0.5246
vn 0.3852 -0.1032 0.9171
vn 0.3852 -0.1032 -0.9171
vn 0.8223 -0.2203 0.5246
vn 0.1118 -0.0299 0.9933
vn 0.6020 -0.6020 -0.5246
vn 0.2820 -0.2820 0.9171
vn 0.2820 -0.2820 -0.9171
vn 0.6020 -0.6020 0.5246
vn 0.0818 -0.0818 0.9933
vn 0.0818 -0.0818 -0.9933
vn 0.1032 -0.3852 0.9171
vn 0.1032 -0.3852 -0.9171
vn 0.2203 -0.8223 0.5246
vn 0.0300 -0.1118 0.9933
vn 0.0300 -0.1118 -0.9933
vn 0.2203 -0.8223 -0.5246
vn -0.1032 -0.3852 -0.9171
vn -0.2203 -0.8223 0.5246
vn -0.0300 -0.1118 0.9933
vn -0.0300 -0.1118 -0.9933
vn -0.2203 -0.8223 -0.5246
vn -0.1032 -0.3852 0.9171
vn -0.2820 -0.2820 -0.9171
vn -0.6020 -0.6020 0.5246
vn -0.0818 -0.0818 0.9933
vn -0.0818 -0.0818 -0.9933
vn -0.6020 -0.6020 -0.5246
vn -0.2820 -0.2820 0.9171
vn -0.3852 -0.1032 -0.9171
vn -0.8223 -0.2203 0.5246
vn -0.1118 -0.0299 0.9933
vn -0.1118 -0.0299 -0.9933
vn -0.8223 -0.2203 -0.5246
vn -0.3852 -0.1032 0.9171
vn -0.3852 0.1032 -0.9171
vn -0.8223 0.2203 0.5246
vn -0.1118 0.0299 0.9933
vn -0.1118 0.0299 -0.9933
vn -0.8223 0.2203 -0.5246
vn -0.3852 0.1032 0.9171
vn -0.6020 0.6020 0.5246
vn -0.0818 0.0818 0.9933
vn -0.0818 0.0818 -0.9933
vn -0.6020 0.6020 -0.5246
vn -0.2820 0.2820 0.9171
vn -0.2820 0.2820 -0.9171
vn -0.0300 0.1118 0.9933
vn -0.0300 0.1118 -0.9933
vn -0.2203 0.8223 -0.5246
vn -0.1032 0.3852 0.9171
vn -0.1032 0.3852 -0.9171
vn -0.2203 0.8223 0.5246
vn 0.1118 0.0300 -0.9933
vn 0.1118 -0.0300 -0.9933
vn -0.1118 -0.0300 -0.9933
vn -0.1118 0.0300 -0.9933
vn 0.1118 0.0300 0.9933
vn 0.1118 -0.0300 0.9933
vt 0.004197 0.370200
vt 0.023293 0.370200
vt 0.024336 0.377472
vt 0.005583 0.377472
vt 0.730889 0.146014
vt 0.725552 0.122629
vt 0.730875 0.122029
vt 0.735945 0.144244
vt 0.738147 0.121210
vt 0.742852 0.141827
vt 0.023293 0.011468
vt 0.004197 0.011468
vt 0.005583 0.004197
vt 0.024336 0.004197
vt 0.741296 0.388897
vt 0.730889 0.367286
vt 0.735945 0.365517
vt 0.745832 0.386047
vt 0.742852 0.363100
vt 0.752028 0.382153
vt 0.045299 0.370200
vt 0.045946 0.377472
vt 0.725552 0.098643
vt 0.730875 0.099243
vt 0.738147 0.100063
vt 0.045299 0.011468
vt 0.045946 0.004197
vt 0.756251 0.407649
vt 0.760039 0.403862
vt 0.765213 0.398687
vt 0.069111 0.370200
vt 0.069331 0.377472
vt 0.730889 0.075259
vt 0.735945 0.077028
vt 0.742852 0.079445
vt 0.069111 0.011468
vt 0.069331 0.004197
vt 0.775004 0.422604
vt 0.777854 0.418068
vt 0.781747 0.411873
vt 0.093536 0.370200
vt 0.093316 0.377472
vt 0.741296 0.053649
vt 0.745832 0.056499
vt 0.752028 0.060392
vt 0.093536 0.011468
vt 0.093316 0.004197
vt 0.796614 0.433011
vt 0.798383 0.427955
vt 0.800800 0.421048
vt 0.117348 0.370200
vt 0.116701 0.377472
vt 0.756251 0.034896
vt 0.760039 0.038684
vt 0.765213 0.043858
vt 0.117348 0.011468
vt 0.116701 0.004197
vt 0.819999 0.438349
vt 0.820598 0.433025
vt 0.821418 0.425754
vt 0.139354 0.370200
vt 0.138311 0.377472
vt 0.775004 0.019941
vt 0.777854 0.024477
vt 0.781747 0.030673
vt 0.139354 0.011468
vt 0.138311 0.004197
vt 0.843984 0.438349
vt 0.843385 0.433025
vt 0.842565 0.425754
vt 0.158450 0.370200
vt 0.157064 0.377472
vt 0.796614 0.009534
vt 0.798383 0.014590
vt 0.800800 0.021497
vt 0.158450 0.011468
vt 0.157064 0.004197
vt 0.867369 0.433011
vt 0.865599 0.427955
vt 0.863183 0.421048
vt 0.166844 0.370200
vt 0.185940 0.370200
vt 0.186983 0.377472
vt 0.168230 0.377472
vt 0.819999 0.004197
vt 0.820598 0.009520
vt 0.821418 0.016791
vt 0.185940 0.011468
vt 0.166844 0.011468
vt 0.168230 0.004197
vt 0.186983 0.004197
vt 0.888979 0.422604
vt 0.886129 0.418068
vt 0.882236 0.411872
vt 0.207946 0.370200
vt 0.208593 0.377472
vt 0.843984 0.004197
vt 0.843385 0.009520
vt 0.842565 0.016791
vt 0.207946 0.011468
vt 0.208593 0.004197
vt 0.907732 0.407649
vt 0.903944 0.403861
vt 0.898770 0.398687
vt 0.231758 0.370200
vt 0.231978 0.377472
vt 0.867369 0.009534
vt 0.865599 0.014590
vt 0.863183 0.021497
vt 0.231758 0.011468
vt 0.231978 0.004197
vt 0.922687 0.388897
vt 0.918151 0.386047
vt 0.911955 0.382153
vt 0.256183 0.370200
vt 0.255963 0.377472
vt 0.888979 0.019941
vt 0.886129 0.024477
vt 0.882236 0.030673
vt 0.256183 0.011468
vt 0.255963 0.004197
vt 0.933094 0.367286
vt 0.928038 0.365517
vt 0.921131 0.363100
vt 0.279995 0.370200
vt 0.279348 0.377472
vt 0.907732 0.034896
vt 0.903944 0.038684
vt 0.898770 0.043858
vt 0.279995 0.011468
vt 0.279348 0.004197
vt 0.938431 0.343902
vt 0.933108 0.343302
vt 0.925836 0.342483
vt 0.302001 0.370200
vt 0.300958 0.377472
vt 0.922687 0.053649
vt 0.918151 0.056499
vt 0.911955 0.060392
vt 0.302001 0.011468
vt 0.300958 0.004197
vt 0.938431 0.319916
vt 0.933108 0.320516
vt 0.925836 0.321335
vt 0.321098 0.370200
vt 0.319711 0.377472
vt 0.933094 0.075259
vt 0.928038 0.077028
vt 0.921131 0.079445
vt 0.321098 0.011468
vt 0.319711 0.004197
vt 0.933094 0.296532
vt 0.928038 0.298301
vt 0.921131 0.300718
vt 0.004197 0.751869
vt 0.023293 0.751869
vt 0.024336 0.759140
vt 0.005583 0.759140
vt 0.938431 0.098643
vt 0.933108 0.099243
vt 0.925836 0.100062
vt 0.023293 0.393137
vt 0.004197 0.393137
vt 0.005583 0.385865
vt 0.024336 0.385865
vt 0.922687 0.274921
vt 0.918151 0.277771
vt 0.911955 0.281664
vt 0.045299 0.751869
vt 0.045946 0.759140
vt 0.938431 0.122629
vt 0.933108 0.122029
vt 0.925836 0.121210
vt 0.045299 0.393137
vt 0.045946 0.385865
vt 0.907732 0.256168
vt 0.903944 0.259956
vt 0.898770 0.265131
vt 0.069111 0.751869
vt 0.069331 0.759140
vt 0.933094 0.146014
vt 0.928038 0.144244
vt 0.921131 0.141827
vt 0.069111 0.393137
vt 0.069331 0.385865
vt 0.888979 0.241214
vt 0.886129 0.245749
vt 0.882236 0.251945
vt 0.093536 0.751869
vt 0.093316 0.759140
vt 0.922687 0.167624
vt 0.918151 0.164774
vt 0.911955 0.160881
vt 0.093536 0.393137
vt 0.093316 0.385865
vt 0.867369 0.230807
vt 0.865599 0.235863
vt 0.863183 0.242770
vt 0.117348 0.751869
vt 0.116701 0.759140
vt 0.907732 0.186377
vt 0.903944 0.182589
vt 0.898770 0.177415
vt 0.117348 0.393137
vt 0.116701 0.385865
vt 0.843984 0.225469
vt 0.843385 0.230792
vt 0.842565 0.238064
vt 0.139354 0.751869
vt 0.138311 0.759140
vt 0.888979 0.201332
vt 0.886129 0.196796
vt 0.882236 0.190600
vt 0.139354 0.393137
vt 0.138311 0.385865
vt 0.819999 0.225469
vt 0.820598 0.230792
vt 0.821418 0.238064
vt 0.158450 0.751869
vt 0.157064 0.759140
vt 0.867369 0.211739
vt 0.865600 0.206682
vt 0.863183 0.199775
vt 0.158450 0.393137
vt 0.157064 0.385865
vt 0.796614 0.230807
vt 0.798383 0.235863
vt 0.800800 0.242770
vt 0.329491 0.370200
vt 0.348587 0.370200
vt 0.349630 0.377472
vt 0.330877 0.377472
vt 0.843984 0.217076
vt 0.843385 0.211753
vt 0.842565 0.204481
vt 0.348587 0.011468
vt 0.329491 0.011468
vt 0.330877 0.004197
vt 0.349630 0.004197
vt 0.775004 0.241214
vt 0.777854 0.245749
vt 0.781747 0.251945
vt 0.370593 0.370200
vt 0.371240 0.377472
vt 0.819999 0.217076
vt 0.820598 0.211753
vt 0.821418 0.204481
vt 0.370593 0.011468
vt 0.371240 0.004197
vt 0.756251 0.256168
vt 0.760039 0.259956
vt 0.765213 0.265131
vt 0.394405 0.370200
vt 0.394625 0.377472
vt 0.796614 0.211739
vt 0.798384 0.206682
vt 0.800800 0.199775
vt 0.394405 0.011468
vt 0.394625 0.004197
vt 0.741296 0.274921
vt 0.745832 0.277771
vt 0.752028 0.281664
vt 0.418830 0.370200
vt 0.418610 0.377472
vt 0.775004 0.201332
vt 0.777854 0.196796
vt 0.781747 0.190600
vt 0.418830 0.011468
vt 0.418610 0.004197
vt 0.730889 0.296532
vt 0.735945 0.298301
vt 0.742852 0.300718
vt 0.442642 0.370200
vt 0.441995 0.377472
vt 0.756251 0.186377
vt 0.760039 0.182589
vt 0.765213 0.177415
vt 0.442642 0.011468
vt 0.441995 0.004197
vt 0.725552 0.319916
vt 0.730875 0.320516
vt 0.738147 0.321335
vt 0.464648 0.370200
vt 0.463605 0.377472
vt 0.741296 0.167624
vt 0.745832 0.164774
vt 0.752028 0.160881
vt 0.464648 0.011468
vt 0.463605 0.004197
vt 0.725552 0.343902
vt 0.730875 0.343302
vt 0.738147 0.342483
vt 0.483745 0.370200
vt 0.482358 0.377472
vt 0.483745 0.011468
vt 0.482358 0.004197
vt 0.725552 0.664890
vt 0.725552 0.446742
vt 0.744902 0.446742
vt 0.744902 0.664890
vt 0.767202 0.446742
vt 0.767202 0.664890
vt 0.791332 0.446742
vt 0.791332 0.664890
vt 0.816082 0.446742
vt 0.816082 0.664890
vt 0.840212 0.446742
vt 0.840212 0.664890
vt 0.862512 0.446742
vt 0.862512 0.664890
vt 0.881862 0.446742
vt 0.881862 0.664890
vt 0.004197 0.985682
vt 0.004197 0.767534
vt 0.023547 0.767534
vt 0.023547 0.985682
vt 0.045847 0.767534
vt 0.045847 0.985682
vt 0.069977 0.767534
vt 0.069977 0.985682
vt 0.094727 0.767534
vt 0.094727 0.985682
vt 0.118857 0.767534
vt 0.118857 0.985682
vt 0.141156 0.767534
vt 0.141156 0.985682
vt 0.160507 0.767534
vt 0.160507 0.985682
vt 0.168900 0.985682
vt 0.168900 0.767534
vt 0.188251 0.767534
vt 0.188251 0.985682
vt 0.210550 0.767534
vt 0.210550 0.985682
vt 0.234680 0.767534
vt 0.234680 0.985682
vt 0.259431 0.767534
vt 0.259431 0.985682
vt 0.283561 0.767534
vt 0.283561 0.985682
vt 0.305860 0.767534
vt 0.305860 0.985682
vt 0.325211 0.767534
vt 0.325211 0.985682
vt 0.333604 0.985682
vt 0.333604 0.767534
vt 0.352955 0.767534
vt 0.352955 0.985682
vt 0.375254 0.767534
vt 0.375254 0.985682
vt 0.399384 0.767534
vt 0.399384 0.985682
vt 0.424135 0.767534
vt 0.424135 0.985682
vt 0.448265 0.767534
vt 0.448265 0.985682
vt 0.523816 0.425599
vt 0.508384 0.406249
vt 0.497645 0.383949
vt 0.492138 0.359819
vt 0.492138 0.335069
vt 0.497645 0.310939
vt 0.508384 0.288639
vt 0.523816 0.269289
vt 0.543166 0.253857
vt 0.565466 0.243118
vt 0.589596 0.237611
vt 0.614346 0.237611
vt 0.638476 0.243118
vt 0.660776 0.253857
vt 0.680126 0.269289
vt 0.695558 0.288639
vt 0.706297 0.310939
vt 0.711804 0.335069
vt 0.711804 0.359819
vt 0.706297 0.383949
vt 0.695558 0.406249
vt 0.680126 0.425599
vt 0.660776 0.441031
vt 0.638476 0.451770
vt 0.614346 0.457277
vt 0.589596 0.457277
vt 0.565466 0.451770
vt 0.543166 0.441031
vt 0.470564 0.767534
vt 0.470564 0.985682
vt 0.489915 0.767534
vt 0.489915 0.985682
vt 0.508384 0.634308
vt 0.497645 0.612009
vt 0.492138 0.587879
vt 0.492138 0.563128
vt 0.497645 0.538999
vt 0.508384 0.516699
vt 0.523816 0.497348
vt 0.543167 0.481917
vt 0.565466 0.471178
vt 0.589596 0.465670
vt 0.614346 0.465670
vt 0.638476 0.471178
vt 0.660776 0.481917
vt 0.680126 0.497348
vt 0.695558 0.516699
vt 0.706297 0.538999
vt 0.711804 0.563128
vt 0.711804 0.587879
vt 0.706297 0.612009
vt 0.695558 0.634308
vt 0.680126 0.653659
vt 0.660776 0.669091
vt 0.638476 0.679830
vt 0.614346 0.685337
vt 0.589596 0.685337
vt 0.565466 0.679830
vt 0.543166 0.669091
vt 0.523816 0.653659
vt 0.563336 0.932071
vt 0.563336 0.907975
vt 0.570192 0.906543
vt 0.570192 0.930046
vt 0.166844 0.513188
vt 0.166844 0.483563
vt 0.173699 0.484466
vt 0.173699 0.512285
vt 0.505164 0.907975
vt 0.505164 0.932071
vt 0.498308 0.930046
vt 0.498308 0.906543
vt 0.499805 0.160134
vt 0.492138 0.131519
vt 0.498993 0.130617
vt 0.506194 0.157488
vt 0.563336 0.879915
vt 0.570192 0.879174
vt 0.174511 0.454948
vt 0.180900 0.457594
vt 0.505164 0.879915
vt 0.498308 0.879173
vt 0.514617 0.185790
vt 0.520103 0.181581
vt 0.563336 0.849802
vt 0.570192 0.849802
vt 0.189323 0.429293
vt 0.194809 0.433502
vt 0.505164 0.849802
vt 0.498308 0.849802
vt 0.535565 0.206738
vt 0.539775 0.201252
vt 0.563336 0.819690
vt 0.570192 0.820431
vt 0.210271 0.408345
vt 0.214481 0.413831
vt 0.505164 0.819690
vt 0.498308 0.820431
vt 0.561221 0.221550
vt 0.563867 0.215162
vt 0.563336 0.791630
vt 0.570192 0.793062
vt 0.235927 0.393532
vt 0.238573 0.399921
vt 0.505164 0.791630
vt 0.498308 0.793062
vt 0.589836 0.229218
vt 0.590738 0.222362
vt 0.563336 0.767534
vt 0.570192 0.769559
vt 0.264542 0.385865
vt 0.265444 0.392721
vt 0.505164 0.767534
vt 0.498308 0.769559
vt 0.619460 0.229218
vt 0.618558 0.222362
vt 0.643614 0.932071
vt 0.643614 0.907975
vt 0.650470 0.906543
vt 0.650470 0.930046
vt 0.294166 0.385865
vt 0.293264 0.392721
vt 0.585441 0.907975
vt 0.585441 0.932071
vt 0.578585 0.930046
vt 0.578585 0.906543
vt 0.648076 0.221550
vt 0.645429 0.215162
vt 0.643614 0.879915
vt 0.650470 0.879174
vt 0.322782 0.393532
vt 0.320135 0.399921
vt 0.585441 0.879915
vt 0.578585 0.879174
vt 0.673731 0.206738
vt 0.669522 0.201252
vt 0.643614 0.849802
vt 0.650470 0.849802
vt 0.348437 0.408345
vt 0.344228 0.413831
vt 0.585441 0.849802
vt 0.578585 0.849802
vt 0.694679 0.185790
vt 0.689193 0.181581
vt 0.643614 0.819690
vt 0.650470 0.820431
vt 0.369385 0.429293
vt 0.363899 0.433502
vt 0.585441 0.819690
vt 0.578585 0.820431
vt 0.709491 0.160134
vt 0.703103 0.157488
vt 0.643614 0.791630
vt 0.650470 0.793062
vt 0.384197 0.454948
vt 0.377809 0.457594
vt 0.585441 0.791630
vt 0.578585 0.793062
vt 0.717159 0.131519
vt 0.710303 0.130617
vt 0.643614 0.767534
vt 0.650470 0.769559
vt 0.391865 0.483563
vt 0.385009 0.484466
vt 0.585441 0.767534
vt 0.578585 0.769559
vt 0.717159 0.101895
vt 0.710303 0.102797
vt 0.723891 0.932071
vt 0.723891 0.907975
vt 0.730747 0.906543
vt 0.730747 0.930046
vt 0.391865 0.513188
vt 0.385009 0.512285
vt 0.665718 0.907975
vt 0.665718 0.932071
vt 0.658863 0.930046
vt 0.658863 0.906543
vt 0.709491 0.073280
vt 0.703103 0.075926
vt 0.723891 0.879915
vt 0.730747 0.879174
vt 0.384197 0.541803
vt 0.377809 0.539157
vt 0.665718 0.879915
vt 0.658863 0.879174
vt 0.694679 0.047624
vt 0.689193 0.051834
vt 0.723891 0.849802
vt 0.730747 0.849802
vt 0.369385 0.567459
vt 0.363899 0.563249
vt 0.665718 0.849802
vt 0.658863 0.849802
vt 0.673731 0.026676
vt 0.669522 0.032162
vt 0.723891 0.819690
vt 0.730747 0.820431
vt 0.348437 0.588406
vt 0.344228 0.582920
vt 0.665718 0.819690
vt 0.658863 0.820431
vt 0.648076 0.011864
vt 0.645429 0.018252
vt 0.723891 0.791630
vt 0.730747 0.793062
vt 0.322782 0.603219
vt 0.320135 0.596830
vt 0.665718 0.791630
vt 0.658863 0.793062
vt 0.619460 0.004197
vt 0.618558 0.011052
vt 0.723891 0.767534
vt 0.730747 0.769559
vt 0.294166 0.610886
vt 0.293264 0.604030
vt 0.665718 0.767534
vt 0.658863 0.769559
vt 0.589836 0.004197
vt 0.590738 0.011052
vt 0.804169 0.932071
vt 0.804169 0.907975
vt 0.811024 0.906543
vt 0.811024 0.930046
vt 0.264542 0.610886
vt 0.265444 0.604030
vt 0.745996 0.907975
vt 0.745996 0.932071
vt 0.739140 0.930046
vt 0.739140 0.906543
vt 0.561221 0.011864
vt 0.563867 0.018253
vt 0.804169 0.879915
vt 0.811024 0.879174
vt 0.235927 0.603219
vt 0.238573 0.596830
vt 0.745996 0.879915
vt 0.739140 0.879174
vt 0.535565 0.026676
vt 0.539775 0.032162
vt 0.804169 0.849802
vt 0.811024 0.849802
vt 0.210271 0.588406
vt 0.214481 0.582920
vt 0.745996 0.849802
vt 0.739140 0.849802
vt 0.514617 0.047624
vt 0.520103 0.051834
vt 0.804169 0.819690
vt 0.811024 0.820431
vt 0.189323 0.567459
vt 0.194809 0.563249
vt 0.745996 0.819690
vt 0.739140 0.820431
vt 0.499805 0.073280
vt 0.506194 0.075926
vt 0.804169 0.791630
vt 0.811024 0.793062
vt 0.174511 0.541803
vt 0.180900 0.539157
vt 0.745996 0.791630
vt 0.739140 0.793062
vt 0.492138 0.101895
vt 0.498993 0.102797
vt 0.804169 0.767534
vt 0.811024 0.769559
vt 0.745996 0.767534
vt 0.739140 0.769559
vt 0.956190 0.149778
vt 0.951171 0.154796
vt 0.946824 0.147268
vt 0.953680 0.145431
vt 0.950897 0.864742
vt 0.946824 0.862905
vt 0.946824 0.855377
vt 0.950897 0.856049
vt 0.867108 0.786264
vt 0.876473 0.783755
vt 0.869618 0.790610
vt 0.963045 0.142922
vt 0.954969 0.862905
vt 0.954969 0.855377
vt 0.860253 0.788101
vt 0.864599 0.795629
vt 0.953680 0.140413
vt 0.950897 0.846012
vt 0.954969 0.846684
vt 0.873964 0.793120
vt 0.872127 0.799975
vt 0.946824 0.138576
vt 0.946824 0.846684
vt 0.956190 0.136066
vt 0.950897 0.837319
vt 0.954969 0.839156
vt 0.878983 0.793120
vt 0.880820 0.799975
vt 0.951171 0.131047
vt 0.946824 0.839156
vt 0.960536 0.133557
vt 0.954969 0.898721
vt 0.950897 0.900558
vt 0.950897 0.891865
vt 0.954969 0.891193
vt 0.883329 0.790610
vt 0.888348 0.795629
vt 0.958699 0.126701
vt 0.946824 0.898721
vt 0.946824 0.891193
vt 0.950897 0.881828
vt 0.954969 0.882500
vt 0.885838 0.786264
vt 0.892694 0.788101
vt 0.967392 0.126701
vt 0.965555 0.133557
vt 0.946824 0.882500
vt 0.885838 0.781245
vt 0.892694 0.779408
vt 0.974920 0.131047
vt 0.969901 0.136066
vt 0.946824 0.874972
vt 0.950897 0.873135
vt 0.954969 0.874972
vt 0.979266 0.138576
vt 0.972410 0.140412
vt 0.950897 0.757294
vt 0.946824 0.755457
vt 0.946824 0.747929
vt 0.950897 0.748601
vt 0.883329 0.776899
vt 0.954969 0.755457
vt 0.954969 0.747929
vt 0.888348 0.771880
vt 0.979266 0.147268
vt 0.972410 0.145431
vt 0.946824 0.739236
vt 0.950897 0.738564
vt 0.878983 0.774389
vt 0.954969 0.739236
vt 0.880820 0.767534
vt 0.974920 0.154796
vt 0.969901 0.149778
vt 0.946824 0.731708
vt 0.950897 0.729871
vt 0.873964 0.774389
vt 0.954969 0.731708
vt 0.872127 0.767534
vt 0.967392 0.159143
vt 0.965555 0.152287
vt 0.950897 0.936374
vt 0.946824 0.934537
vt 0.946824 0.927009
vt 0.950897 0.927682
vt 0.869618 0.776899
vt 0.954969 0.934537
vt 0.954969 0.927009
vt 0.864599 0.771880
vt 0.946824 0.918317
vt 0.950897 0.917644
vt 0.867108 0.781245
vt 0.960536 0.152287
vt 0.954969 0.918317
vt 0.860253 0.779408
vt 0.958699 0.159143
vt 0.950897 0.908951
vt 0.954969 0.910788
vt 0.946824 0.910788
vt 0.953680 0.104596
vt 0.946824 0.106433
vt 0.946824 0.097741
vt 0.953680 0.099578
vt 0.950897 0.793110
vt 0.946824 0.791273
vt 0.946824 0.783745
vt 0.950897 0.784417
vt 0.956190 0.190612
vt 0.963045 0.183757
vt 0.960536 0.193122
vt 0.963045 0.102087
vt 0.954969 0.791273
vt 0.954969 0.783745
vt 0.951171 0.195631
vt 0.958699 0.199978
vt 0.946824 0.775052
vt 0.950897 0.774380
vt 0.965555 0.193122
vt 0.956189 0.095231
vt 0.954969 0.775052
vt 0.967392 0.199978
vt 0.951171 0.090213
vt 0.969901 0.190612
vt 0.960536 0.092722
vt 0.950897 0.765687
vt 0.954969 0.767524
vt 0.974920 0.195631
vt 0.958699 0.085866
vt 0.946824 0.767524
vt 0.965555 0.092722
vt 0.954969 0.576376
vt 0.950897 0.578213
vt 0.950897 0.569521
vt 0.954969 0.568848
vt 0.972410 0.186266
vt 0.979266 0.188103
vt 0.967392 0.085866
vt 0.946824 0.576376
vt 0.946824 0.568848
vt 0.969901 0.095231
vt 0.950897 0.559483
vt 0.954969 0.560156
vt 0.972410 0.181247
vt 0.979266 0.179410
vt 0.974920 0.090213
vt 0.946824 0.560156
vt 0.972410 0.099578
vt 0.950897 0.550790
vt 0.954969 0.552627
vt 0.969901 0.176901
vt 0.974920 0.171882
vt 0.979266 0.097741
vt 0.946824 0.552627
vt 0.954969 0.540560
vt 0.950896 0.542397
vt 0.950896 0.533705
vt 0.954969 0.533032
vt 0.965555 0.174392
vt 0.967392 0.167536
vt 0.979266 0.106433
vt 0.972410 0.104596
vt 0.946824 0.540560
vt 0.946824 0.533032
vt 0.960536 0.174392
vt 0.958699 0.167536
vt 0.974920 0.113962
vt 0.969901 0.108943
vt 0.946824 0.524339
vt 0.950896 0.523667
vt 0.954969 0.524339
vt 0.967392 0.118308
vt 0.965555 0.111452
vt 0.946824 0.516811
vt 0.950896 0.514974
vt 0.956190 0.176901
vt 0.954969 0.516811
vt 0.951171 0.171882
vt 0.958699 0.118308
vt 0.960536 0.111452
vt 0.950897 0.972190
vt 0.946824 0.970353
vt 0.946824 0.962825
vt 0.950897 0.963498
vt 0.953680 0.181247
vt 0.954969 0.970353
vt 0.954969 0.962825
vt 0.946824 0.179410
vt 0.951171 0.113962
vt 0.956189 0.108943
vt 0.946824 0.954133
vt 0.950897 0.953460
vt 0.953680 0.186266
vt 0.954969 0.954133
vt 0.946824 0.188103
vt 0.946824 0.946605
vt 0.950897 0.944768
vt 0.954969 0.946605
vt 0.950897 0.470765
vt 0.946824 0.468928
vt 0.946824 0.461400
vt 0.950897 0.462072
vt 0.826274 0.786264
vt 0.835639 0.783755
vt 0.828783 0.790610
vt 0.963045 0.224592
vt 0.972410 0.227101
vt 0.969901 0.231447
vt 0.954969 0.468928
vt 0.954969 0.461400
vt 0.819418 0.788101
vt 0.823764 0.795629
vt 0.979266 0.228938
vt 0.974920 0.236466
vt 0.965555 0.233957
vt 0.950897 0.452035
vt 0.954969 0.452707
vt 0.833129 0.793120
vt 0.831292 0.799975
vt 0.967392 0.240812
vt 0.946824 0.452707
vt 0.960536 0.233957
vt 0.950897 0.443342
vt 0.954969 0.445179
vt 0.838148 0.793120
vt 0.839985 0.799975
vt 0.958699 0.240812
vt 0.946824 0.445179
vt 0.954969 0.433112
vt 0.950897 0.434949
vt 0.950897 0.426256
vt 0.954969 0.425584
vt 0.842494 0.790610
vt 0.847513 0.795629
vt 0.951171 0.236466
vt 0.956190 0.231447
vt 0.946824 0.433112
vt 0.946824 0.425584
vt 0.845004 0.786264
vt 0.851859 0.788101
vt 0.946824 0.228938
vt 0.953680 0.227101
vt 0.946824 0.416891
vt 0.950897 0.416219
vt 0.954969 0.416891
vt 0.946824 0.220245
vt 0.953680 0.222082
vt 0.946824 0.409363
vt 0.950897 0.407526
vt 0.845004 0.781245
vt 0.954969 0.409363
vt 0.851859 0.779408
vt 0.951171 0.212717
vt 0.956190 0.217736
vt 0.991731 0.031620
vt 0.987659 0.029783
vt 0.987659 0.022254
vt 0.991731 0.022927
vt 0.842494 0.776899
vt 0.995803 0.029783
vt 0.995803 0.022254
vt 0.847513 0.771880
vt 0.958699 0.208371
vt 0.960536 0.215226
vt 0.987659 0.013562
vt 0.991731 0.012889
vt 0.838148 0.774389
vt 0.995803 0.013562
vt 0.839985 0.767534
vt 0.967392 0.208371
vt 0.965555 0.215227
vt 0.987659 0.006034
vt 0.991731 0.004197
vt 0.833129 0.774389
vt 0.995803 0.006034
vt 0.831292 0.767534
vt 0.950897 0.399133
vt 0.946824 0.397296
vt 0.946824 0.389768
vt 0.950897 0.390440
vt 0.828783 0.776899
vt 0.969901 0.217736
vt 0.954969 0.397296
vt 0.954969 0.389768
vt 0.823764 0.771880
vt 0.974920 0.212717
vt 0.826273 0.781245
vt 0.972410 0.222082
vt 0.950897 0.380403
vt 0.954969 0.381075
vt 0.819418 0.779408
vt 0.979266 0.220245
vt 0.946824 0.381075
vt 0.950897 0.371710
vt 0.954969 0.373547
vt 0.946824 0.373547
vt 0.954969 0.612192
vt 0.950897 0.614029
vt 0.950897 0.605337
vt 0.954969 0.604664
vt 0.974920 0.277301
vt 0.969901 0.272282
vt 0.972410 0.267936
vt 0.979266 0.269773
vt 0.956189 0.313117
vt 0.951171 0.318136
vt 0.946824 0.310608
vt 0.953680 0.308771
vt 0.946824 0.612192
vt 0.946824 0.604664
vt 0.963045 0.265426
vt 0.963045 0.306261
vt 0.946824 0.301915
vt 0.953680 0.303752
vt 0.946824 0.595972
vt 0.950897 0.595299
vt 0.972410 0.262917
vt 0.954969 0.595972
vt 0.979266 0.261080
vt 0.951171 0.294387
vt 0.956189 0.299405
vt 0.946824 0.588444
vt 0.950897 0.586607
vt 0.969901 0.258571
vt 0.954969 0.588444
vt 0.974920 0.253552
vt 0.958699 0.290040
vt 0.960536 0.296896
vt 0.991731 0.067436
vt 0.987659 0.065599
vt 0.987659 0.058070
vt 0.991731 0.058743
vt 0.965555 0.256061
vt 0.995803 0.065599
vt 0.995803 0.058070
vt 0.967392 0.249205
vt 0.987659 0.049378
vt 0.991731 0.048705
vt 0.960536 0.256061
vt 0.965555 0.296896
vt 0.995803 0.049378
vt 0.958699 0.249205
vt 0.967392 0.290040
vt 0.956190 0.258571
vt 0.969901 0.299405
vt 0.991731 0.040013
vt 0.995803 0.041850
vt 0.951171 0.253552
vt 0.974920 0.294387
vt 0.987659 0.041850
vt 0.972410 0.303752
vt 0.954969 0.648009
vt 0.950897 0.649845
vt 0.950897 0.641153
vt 0.954969 0.640480
vt 0.953680 0.262917
vt 0.946824 0.261080
vt 0.979266 0.301915
vt 0.946824 0.648009
vt 0.946824 0.640480
vt 0.972410 0.308771
vt 0.950897 0.631115
vt 0.954969 0.631788
vt 0.953680 0.267936
vt 0.946824 0.269773
vt 0.979266 0.310608
vt 0.946824 0.631788
vt 0.969901 0.313117
vt 0.950897 0.622423
vt 0.954969 0.624260
vt 0.956190 0.272282
vt 0.951171 0.277301
vt 0.974920 0.318136
vt 0.946824 0.624260
vt 0.995803 0.101415
vt 0.991731 0.103252
vt 0.991731 0.094559
vt 0.995803 0.093887
vt 0.960536 0.274791
vt 0.958699 0.281647
vt 0.967392 0.322482
vt 0.965555 0.315626
vt 0.987659 0.101415
vt 0.987659 0.093887
vt 0.965555 0.274791
vt 0.967392 0.281647
vt 0.958699 0.322482
vt 0.960536 0.315626
vt 0.987659 0.085194
vt 0.991731 0.084521
vt 0.995803 0.085194
vt 0.987659 0.077666
vt 0.991731 0.075829
vt 0.995803 0.077666
vt 0.956189 0.353952
vt 0.951171 0.358970
vt 0.946824 0.351442
vt 0.953680 0.349605
vt 0.950897 0.685662
vt 0.946824 0.683825
vt 0.946824 0.676296
vt 0.950897 0.676969
vt 0.907943 0.786264
vt 0.917308 0.783755
vt 0.910452 0.790610
vt 0.963045 0.347096
vt 0.954969 0.683825
vt 0.954969 0.676296
vt 0.901087 0.788101
vt 0.905434 0.795629
vt 0.946824 0.667604
vt 0.950897 0.666931
vt 0.914799 0.793120
vt 0.953680 0.344587
vt 0.954969 0.667604
vt 0.912962 0.799975
vt 0.946824 0.342750
vt 0.919818 0.793120
vt 0.956189 0.340240
vt 0.950897 0.658239
vt 0.954969 0.660076
vt 0.921655 0.799975
vt 0.951171 0.335222
vt 0.946824 0.660076
vt 0.960536 0.337731
vt 0.954969 0.504744
vt 0.950897 0.506581
vt 0.950897 0.497888
vt 0.954969 0.497216
vt 0.924164 0.790610
vt 0.929183 0.795629
vt 0.958699 0.330875
vt 0.946824 0.504744
vt 0.946824 0.497216
vt 0.965555 0.337731
vt 0.950897 0.487851
vt 0.954969 0.488523
vt 0.926673 0.786264
vt 0.933529 0.788101
vt 0.967392 0.330875
vt 0.946824 0.488523
vt 0.969901 0.340240
vt 0.950897 0.479158
vt 0.954969 0.480995
vt 0.926673 0.781245
vt 0.933529 0.779408
vt 0.974920 0.335222
vt 0.946824 0.480995
vt 0.954969 0.719641
vt 0.950897 0.721478
vt 0.950897 0.712785
vt 0.954969 0.712113
vt 0.924164 0.776899
vt 0.929183 0.771880
vt 0.979266 0.342750
vt 0.972410 0.344587
vt 0.946824 0.719641
vt 0.946824 0.712113
vt 0.919818 0.774389
vt 0.921654 0.767534
vt 0.979266 0.351442
vt 0.972410 0.349605
vt 0.946824 0.703420
vt 0.950897 0.702748
vt 0.954969 0.703420
vt 0.974920 0.358970
vt 0.969901 0.353952
vt 0.946824 0.695892
vt 0.950897 0.694055
vt 0.914799 0.774389
vt 0.954969 0.695892
vt 0.912962 0.767534
vt 0.967392 0.363317
vt 0.965555 0.356461
vt 0.991731 0.139068
vt 0.987659 0.137231
vt 0.987659 0.129703
vt 0.991731 0.130375
vt 0.910452 0.776899
vt 0.995803 0.137231
vt 0.995803 0.129703
vt 0.905434 0.771880
vt 0.958699 0.363317
vt 0.960536 0.356461
vt 0.987659 0.121010
vt 0.991731 0.120338
vt 0.907943 0.781245
vt 0.995803 0.121010
vt 0.901087 0.779408
vt 0.987659 0.113482
vt 0.991731 0.111645
vt 0.995803 0.113482
vt 0.963045 0.020417
vt 0.965555 0.029783
vt 0.960536 0.029783
vt 0.954969 0.827089
vt 0.950897 0.828926
vt 0.950897 0.820233
vt 0.954969 0.819561
vt 0.958699 0.077473
vt 0.960536 0.070617
vt 0.965555 0.070617
vt 0.967392 0.077473
vt 0.967392 0.036638
vt 0.958699 0.036638
vt 0.946824 0.827089
vt 0.946824 0.819561
vt 0.963045 0.061252
vt 0.951171 0.032292
vt 0.956190 0.027273
vt 0.946824 0.810868
vt 0.950897 0.810196
vt 0.969901 0.068108
vt 0.954969 0.810868
vt 0.974920 0.073127
vt 0.946824 0.024764
vt 0.953680 0.022927
vt 0.946824 0.803340
vt 0.950897 0.801503
vt 0.972410 0.063762
vt 0.954969 0.803340
vt 0.979266 0.065599
vt 0.946824 0.016071
vt 0.953680 0.017908
vt 0.991731 0.174884
vt 0.987659 0.173047
vt 0.987659 0.165519
vt 0.991731 0.166191
vt 0.972410 0.058743
vt 0.995803 0.173047
vt 0.995803 0.165519
vt 0.979266 0.056906
vt 0.951171 0.008543
vt 0.956190 0.013562
vt 0.987659 0.156826
vt 0.991731 0.156154
vt 0.969901 0.054397
vt 0.995803 0.156826
vt 0.974920 0.049378
vt 0.987659 0.149298
vt 0.991731 0.147461
vt 0.965555 0.051887
vt 0.960536 0.011052
vt 0.995803 0.149298
vt 0.967392 0.045031
vt 0.958699 0.004197
vt 0.960536 0.051887
vt 0.965555 0.011052
vt 0.995803 0.244679
vt 0.991731 0.246516
vt 0.991731 0.237823
vt 0.995803 0.237151
vt 0.958699 0.045031
vt 0.967392 0.004197
vt 0.987659 0.244679
vt 0.987659 0.237151
vt 0.969901 0.013562
vt 0.991731 0.227786
vt 0.995803 0.228458
vt 0.956190 0.054397
vt 0.951171 0.049378
vt 0.974920 0.008543
vt 0.987659 0.228458
vt 0.972410 0.017908
vt 0.991731 0.219093
vt 0.995803 0.220930
vt 0.953680 0.058743
vt 0.946824 0.056906
vt 0.979266 0.016071
vt 0.987659 0.220930
vt 0.972410 0.022927
vt 0.995803 0.208863
vt 0.991731 0.210700
vt 0.991731 0.202007
vt 0.995803 0.201335
vt 0.953680 0.063762
vt 0.946824 0.065599
vt 0.979266 0.024764
vt 0.987659 0.208863
vt 0.987659 0.201335
vt 0.991731 0.191970
vt 0.995803 0.192642
vt 0.956190 0.068108
vt 0.951171 0.073127
vt 0.974920 0.032292
vt 0.969901 0.027273
vt 0.987659 0.192642
vt 0.987659 0.185114
vt 0.991731 0.183277
vt 0.995803 0.185114
s 0
usemtl M_AmberBottle
f 2/1/1 10/2/1 12/3/1 4/4/1
f 4/5/2 12/6/2 11/7/2 3/8/2
f 3/8/3 11/7/3 9/9/3 1/10/3
f 14/11/4 6/12/4 8/13/4 16/14/4
f 16/15/5 8/16/5 7/17/5 15/18/5
f 15/18/6 7/17/6 5/19/6 13/20/6
f 10/2/7 18/21/7 20/22/7 12/3/7
f 12/6/8 20/23/8 19/24/8 11/7/8
f 11/7/9 19/24/9 17/25/9 9/9/9
f 22/26/10 14/11/10 16/14/10 24/27/10
f 24/28/11 16/15/11 15/18/11 23/29/11
f 23/29/12 15/18/12 13/20/12 21/30/12
f 18/21/13 26/31/13 28/32/13 20/22/13
f 20/23/14 28/33/14 27/34/14 19/24/14
f 19/24/15 27/34/15 25/35/15 17/25/15
f 30/36/16 22/26/16 24/27/16 32/37/16
f 32/38/17 24/28/17 23/29/17 31/39/17
f 31/39/18 23/29/18 21/30/18 29/40/18
f 26/31/19 34/41/19 36/42/19 28/32/19
f 28/33/20 36/43/20 35/44/20 27/34/20
f 27/34/21 35/44/21 33/45/21 25/35/21
f 38/46/22 30/36/22 32/37/22 40/47/22
f 40/48/23 32/38/23 31/39/23 39/49/23
f 39/49/24 31/39/24 29/40/24 37/50/24
f 34/41/25 42/51/25 44/52/25 36/42/25
f 36/43/26 44/53/26 43/54/26 35/44/26
f 35/44/27 43/54/27 41/55/27 33/45/27
f 46/56/28 38/46/28 40/47/28 48/57/28
f 48/58/29 40/48/29 39/49/29 47/59/29
f 47/59/30 39/49/30 37/50/30 45/60/30
f 42/51/31 50/61/31 52/62/31 44/52/31
f 44/53/32 52/63/32 51/64/32 43/54/32
f 43/54/33 51/64/33 49/65/33 41/55/33
f 54/66/34 46/56/34 48/57/34 56/67/34
f 56/68/35 48/58/35 47/59/35 55/69/35
f 55/69/36 47/59/36 45/60/36 53/70/36
f 50/61/37 58/71/37 60/72/37 52/62/37
f 52/63/38 60/73/38 59/74/38 51/64/38
f 51/64/39 59/74/39 57/75/39 49/65/39
f 62/76/40 54/66/40 56/67/40 64/77/40
f 64/78/41 56/68/41 55/69/41 63/79/41
f 63/79/42 55/69/42 53/70/42 61/80/42
f 58/81/43 66/82/43 68/83/43 60/84/43
f 60/73/44 68/85/44 67/86/44 59/74/44
f 59/74/45 67/86/45 65/87/45 57/75/45
f 70/88/46 62/89/46 64/90/46 72/91/46
f 72/92/47 64/78/47 63/79/47 71/93/47
f 71/93/48 63/79/48 61/80/48 69/94/48
f 66/82/49 74/95/49 76/96/49 68/83/49
f 68/85/50 76/97/50 75/98/50 67/86/50
f 67/86/51 75/98/51 73/99/51 65/87/51
f 78/100/52 70/88/52 72/91/52 80/101/52
f 80/102/53 72/92/53 71/93/53 79/103/53
f 79/103/54 71/93/54 69/94/54 77/104/54
f 74/95/55 82/105/55 84/106/55 76/96/55
f 76/97/56 84/107/56 83/108/56 75/98/56
f 75/98/57 83/108/57 81/109/57 73/99/57
f 86/110/58 78/100/58 80/101/58 88/111/58
f 88/112/59 80/102/59 79/103/59 87/113/59
f 87/113/60 79/103/60 77/104/60 85/114/60
f 82/105/61 90/115/61 92/116/61 84/106/61
f 84/107/62 92/117/62 91/118/62 83/108/62
f 83/108/63 91/118/63 89/119/63 81/109/63
f 94/120/64 86/110/64 88/111/64 96/121/64
f 96/122/65 88/112/65 87/113/65 95/123/65
f 95/123/66 87/113/66 85/114/66 93/124/66
f 90/115/67 98/125/67 100/126/67 92/116/67
f 92/117/68 100/127/68 99/128/68 91/118/68
f 91/118/69 99/128/69 97/129/69 89/119/69
f 102/130/70 94/120/70 96/121/70 104/131/70
f 104/132/71 96/122/71 95/123/71 103/133/71
f 103/133/72 95/123/72 93/124/72 101/134/72
f 98/125/73 106/135/73 108/136/73 100/126/73
f 100/127/74 108/137/74 107/138/74 99/128/74
f 99/128/75 107/138/75 105/139/75 97/129/75
f 110/140/76 102/130/76 104/131/76 112/141/76
f 112/142/77 104/132/77 103/133/77 111/143/77
f 111/143/78 103/133/78 101/134/78 109/144/78
f 106/135/79 114/145/79 116/146/79 108/136/79
f 108/137/80 116/147/80 115/148/80 107/138/80
f 107/138/81 115/148/81 113/149/81 105/139/81
f 118/150/82 110/140/82 112/141/82 120/151/82
f 120/152/83 112/142/83 111/143/83 119/153/83
f 119/153/84 111/143/84 109/144/84 117/154/84
f 114/155/85 122/156/85 124/157/85 116/158/85
f 116/147/86 124/159/86 123/160/86 115/148/86
f 115/148/87 123/160/87 121/161/87 113/149/87
f 126/162/88 118/163/88 120/164/88 128/165/88
f 128/166/89 120/152/89 119/153/89 127/167/89
f 127/167/90 119/153/90 117/154/90 125/168/90
f 122/156/91 130/169/91 132/170/91 124/157/91
f 124/159/92 132/171/92 131/172/92 123/160/92
f 123/160/93 131/172/93 129/173/93 121/161/93
f 134/174/94 126/162/94 128/165/94 136/175/94
f 136/176/95 128/166/95 127/167/95 135/177/95
f 135/177/96 127/167/96 125/168/96 133/178/96
f 130/169/97 138/179/97 140/180/97 132/170/97
f 132/171/98 140/181/98 139/182/98 131/172/98
f 131/172/99 139/182/99 137/183/99 129/173/99
f 142/184/100 134/174/100 136/175/100 144/185/100
f 144/186/101 136/176/101 135/177/101 143/187/101
f 143/187/102 135/177/102 133/178/102 141/188/102
f 138/179/103 146/189/103 148/190/103 140/180/103
f 140/181/104 148/191/104 147/192/104 139/182/104
f 139/182/105 147/192/105 145/193/105 137/183/105
f 150/194/106 142/184/106 144/185/106 152/195/106
f 152/196/107 144/186/107 143/187/107 151/197/107
f 151/197/108 143/187/108 141/188/108 149/198/108
f 146/189/109 154/199/109 156/200/109 148/190/109
f 148/191/110 156/201/110 155/202/110 147/192/110
f 147/192/111 155/202/111 153/203/111 145/193/111
f 158/204/112 150/194/112 152/195/112 160/205/112
f 160/206/113 152/196/113 151/197/113 159/207/113
f 159/207/114 151/197/114 149/198/114 157/208/114
f 154/199/115 162/209/115 164/210/115 156/200/115
f 156/201/116 164/211/116 163/212/116 155/202/116
f 155/202/117 163/212/117 161/213/117 153/203/117
f 166/214/118 158/204/118 160/205/118 168/215/118
f 168/216/119 160/206/119 159/207/119 167/217/119
f 167/217/120 159/207/120 157/208/120 165/218/120
f 162/209/121 170/219/121 172/220/121 164/210/121
f 164/211/122 172/221/122 171/222/122 163/212/122
f 163/212/123 171/222/123 169/223/123 161/213/123
f 174/224/124 166/214/124 168/215/124 176/225/124
f 176/226/125 168/216/125 167/217/125 175/227/125
f 175/227/126 167/217/126 165/218/126 173/228/126
f 170/229/127 178/230/127 180/231/127 172/232/127
f 172/221/128 180/233/128 179/234/128 171/222/128
f 171/222/129 179/234/129 177/235/129 169/223/129
f 182/236/130 174/237/130 176/238/130 184/239/130
f 184/240/131 176/226/131 175/227/131 183/241/131
f 183/241/132 175/227/132 173/228/132 181/242/132
f 178/230/133 186/243/133 188/244/133 180/231/133
f 180/233/134 188/245/134 187/246/134 179/234/134
f 179/234/135 187/246/135 185/247/135 177/235/135
f 190/248/136 182/236/136 184/239/136 192/249/136
f 192/250/137 184/240/137 183/241/137 191/251/137
f 191/251/138 183/241/138 181/242/138 189/252/138
f 186/243/139 194/253/139 196/254/139 188/244/139
f 188/245/140 196/255/140 195/256/140 187/246/140
f 187/246/141 195/256/141 193/257/141 185/247/141
f 198/258/142 190/248/142 192/249/142 200/259/142
f 200/260/143 192/250/143 191/251/143 199/261/143
f 199/261/144 191/251/144 189/252/144 197/262/144
f 194/253/145 202/263/145 204/264/145 196/254/145
f 196/255/146 204/265/146 203/266/146 195/256/146
f 195/256/147 203/266/147 201/267/147 193/257/147
f 206/268/148 198/258/148 200/259/148 208/269/148
f 208/270/149 200/260/149 199/261/149 207/271/149
f 207/271/150 199/261/150 197/262/150 205/272/150
f 202/263/151 210/273/151 212/274/151 204/264/151
f 204/265/152 212/275/152 211/276/152 203/266/152
f 203/266/153 211/276/153 209/277/153 201/267/153
f 214/278/154 206/268/154 208/269/154 216/279/154
f 216/280/155 208/270/155 207/271/155 215/281/155
f 215/281/156 207/271/156 205/272/156 213/282/156
f 210/273/157 218/283/157 220/284/157 212/274/157
f 212/275/158 220/285/158 219/286/158 211/276/158
f 211/276/159 219/286/159 217/287/159 209/277/159
f 222/288/160 214/278/160 216/279/160 224/289/160
f 224/290/161 216/280/161 215/281/161 223/291/161
f 223/291/162 215/281/162 213/282/162 221/292/162
f 218/283/163 2/293/163 4/294/163 220/284/163
f 220/285/164 4/5/164 3/8/164 219/286/164
f 219/286/165 3/8/165 1/10/165 217/287/165
f 6/295/166 222/288/166 224/289/166 8/296/166
f 8/16/167 224/290/167 223/291/167 7/17/167
f 7/17/168 223/291/168 221/292/168 5/19/168
f 1/10/169 9/9/169 17/25/169 25/35/169 33/45/169 41/55/169 49/65/169 57/75/169 65/87/169 73/99/169 81/109/169 89/119/169 97/129/169 105/139/169 113/149/169 121/161/169 129/173/169 137/183/169 145/193/169 153/203/169 161/213/169 169/223/169 177/235/169 185/247/169 193/257/169 201/267/169 209/277/169 217/287/169
f 2/1/170 6/12/170 14/11/170 10/2/170
f 218/283/171 222/288/171 6/295/171 2/293/171
f 13/20/172 5/19/172 221/292/172 213/282/172 205/272/172 197/262/172 189/252/172 181/242/172 173/228/172 165/218/172 157/208/172 149/198/172 141/188/172 133/178/172 125/168/172 117/154/172 109/144/172 101/134/172 93/124/172 85/114/172 77/104/172 69/94/172 61/80/172 53/70/172 45/60/172 37/50/172 29/40/172 21/30/172
f 10/2/173 14/11/173 22/26/173 18/21/173
f 18/21/174 22/26/174 30/36/174 26/31/174
f 26/31/175 30/36/175 38/46/175 34/41/175
f 34/41/176 38/46/176 46/56/176 42/51/176
f 42/51/177 46/56/177 54/66/177 50/61/177
f 50/61/178 54/66/178 62/76/178 58/71/178
f 58/81/179 62/89/179 70/88/179 66/82/179
f 66/82/180 70/88/180 78/100/180 74/95/180
f 74/95/181 78/100/181 86/110/181 82/105/181
f 82/105/182 86/110/182 94/120/182 90/115/182
f 90/115/183 94/120/183 102/130/183 98/125/183
f 98/125/184 102/130/184 110/140/184 106/135/184
f 106/135/185 110/140/185 118/150/185 114/145/185
f 114/155/186 118/163/186 126/162/186 122/156/186
f 122/156/187 126/162/187 134/174/187 130/169/187
f 130/169/188 134/174/188 142/184/188 138/179/188
f 138/179/189 142/184/189 150/194/189 146/189/189
f 146/189/190 150/194/190 158/204/190 154/199/190
f 154/199/191 158/204/191 166/214/191 162/209/191
f 162/209/192 166/214/192 174/224/192 170/219/192
f 170/229/193 174/237/193 182/236/193 178/230/193
f 178/230/194 182/236/194 190/248/194 186/243/194
f 186/243/195 190/248/195 198/258/195 194/253/195
f 194/253/196 198/258/196 206/268/196 202/263/196
f 202/263/197 206/268/197 214/278/197 210/273/197
f 210/273/198 214/278/198 222/288/198 218/283/198
usemtl M_Label
f 225/297/170 226/298/170 228/299/170 227/300/170
f 227/300/173 228/299/173 230/301/173 229/302/173
f 229/302/174 230/301/174 232/303/174 231/304/174
f 231/304/175 232/303/175 234/305/175 233/306/175
f 233/306/176 234/305/176 236/307/176 235/308/176
f 235/308/177 236/307/177 238/309/177 237/310/177
f 237/310/178 238/309/178 240/311/178 239/312/178
f 239/313/179 240/314/179 242/315/179 241/316/179
f 241/316/180 242/315/180 244/317/180 243/318/180
f 243/318/181 244/317/181 246/319/181 245/320/181
f 245/320/182 246/319/182 248/321/182 247/322/182
f 247/322/183 248/321/183 250/323/183 249/324/183
f 249/324/184 250/323/184 252/325/184 251/326/184
f 251/326/185 252/325/185 254/327/185 253/328/185
f 253/329/186 254/330/186 256/331/186 255/332/186
f 255/332/187 256/331/187 258/333/187 257/334/187
f 257/334/188 258/333/188 260/335/188 259/336/188
f 259/336/189 260/335/189 262/337/189 261/338/189
f 261/338/190 262/337/190 264/339/190 263/340/190
f 263/340/191 264/339/191 266/341/191 265/342/191
f 265/342/192 266/341/192 268/343/192 267/344/192
f 267/345/193 268/346/193 270/347/193 269/348/193
f 269/348/194 270/347/194 272/349/194 271/350/194
f 271/350/195 272/349/195 274/351/195 273/352/195
f 273/352/196 274/351/196 276/353/196 275/354/196
f 275/354/197 276/353/197 278/355/197 277/356/197
f 228/357/172 226/358/172 280/359/172 278/360/172 276/361/172 274/362/172 272/363/172 270/364/172 268/365/172 266/366/172 264/367/172 262/368/172 260/369/172 258/370/172 256/371/172 254/372/172 252/373/172 250/374/172 248/375/172 246/376/172 244/377/172 242/378/172 240/379/172 238/380/172 236/381/172 234/382/172 232/383/172 230/384/172
f 277/356/198 278/355/198 280/385/198 279/386/198
f 279/386/171 280/385/171 226/387/171 225/388/171
f 225/389/169 227/390/169 229/391/169 231/392/169 233/393/169 235/394/169 237/395/169 239/396/169 241/397/169 243/398/169 245/399/169 247/400/169 249/401/169 251/402/169 253/403/169 255/404/169 257/405/169 259/406/169 261/407/169 263/408/169 265/409/169 267/410/169 269/411/169 271/412/169 273/413/169 275/414/169 277/415/169 279/416/169
usemtl M_Cap
f 282/417/199 288/418/199 289/419/199 283/420/199
f 283/421/200 289/422/200 287/423/200 281/424/200
f 291/425/201 285/426/201 286/427/201 292/428/201
f 292/429/202 286/430/202 284/431/202 290/432/202
f 288/418/203 294/433/203 295/434/203 289/419/203
f 289/422/204 295/435/204 293/436/204 287/423/204
f 297/437/205 291/425/205 292/428/205 298/438/205
f 298/439/206 292/429/206 290/432/206 296/440/206
f 294/433/207 300/441/207 301/442/207 295/434/207
f 295/435/208 301/443/208 299/444/208 293/436/208
f 303/445/209 297/437/209 298/438/209 304/446/209
f 304/447/210 298/439/210 296/440/210 302/448/210
f 300/441/211 306/449/211 307/450/211 301/442/211
f 301/443/212 307/451/212 305/452/212 299/444/212
f 309/453/213 303/445/213 304/446/213 310/454/213
f 310/455/214 304/447/214 302/448/214 308/456/214
f 306/449/215 312/457/215 313/458/215 307/450/215
f 307/451/216 313/459/216 311/460/216 305/452/216
f 315/461/217 309/453/217 310/454/217 316/462/217
f 316/463/218 310/455/218 308/456/218 314/464/218
f 312/457/219 318/465/219 319/466/219 313/458/219
f 313/459/220 319/467/220 317/468/220 311/460/220
f 321/469/221 315/461/221 316/462/221 322/470/221
f 322/471/222 316/463/222 314/464/222 320/472/222
f 318/473/223 324/474/223 325/475/223 319/476/223
f 319/467/224 325/477/224 323/478/224 317/468/224
f 327/479/225 321/480/225 322/481/225 328/482/225
f 328/483/226 322/471/226 320/472/226 326/484/226
f 324/474/227 330/485/227 331/486/227 325/475/227
f 325/477/228 331/487/228 329/488/228 323/478/228
f 333/489/229 327/479/229 328/482/229 334/490/229
f 334/491/230 328/483/230 326/484/230 332/492/230
f 330/485/231 336/493/231 337/494/231 331/486/231
f 331/487/232 337/495/232 335/496/232 329/488/232
f 339/497/233 333/489/233 334/490/233 340/498/233
f 340/499/234 334/491/234 332/492/234 338/500/234
f 336/493/235 342/501/235 343/502/235 337/494/235
f 337/495/236 343/503/236 341/504/236 335/496/236
f 345/505/237 339/497/237 340/498/237 346/506/237
f 346/507/238 340/499/238 338/500/238 344/508/238
f 342/501/239 348/509/239 349/510/239 343/502/239
f 343/503/240 349/511/240 347/512/240 341/504/240
f 351/513/241 345/505/241 346/506/241 352/514/241
f 352/515/242 346/507/242 344/508/242 350/516/242
f 348/509/243 354/517/243 355/518/243 349/510/243
f 349/511/244 355/519/244 353/520/244 347/512/244
f 357/521/245 351/513/245 352/514/245 358/522/245
f 358/523/246 352/515/246 350/516/246 356/524/246
f 354/525/247 360/526/247 361/527/247 355/528/247
f 355/519/248 361/529/248 359/530/248 353/520/248
f 363/531/249 357/532/249 358/533/249 364/534/249
f 364/535/250 358/523/250 356/524/250 362/536/250
f 360/526/251 366/537/251 367/538/251 361/527/251
f 361/529/252 367/539/252 365/540/252 359/530/252
f 369/541/253 363/531/253 364/534/253 370/542/253
f 370/543/254 364/535/254 362/536/254 368/544/254
f 366/537/255 372/545/255 373/546/255 367/538/255
f 367/539/256 373/547/256 371/548/256 365/540/256
f 375/549/257 369/541/257 370/542/257 376/550/257
f 376/551/258 370/543/258 368/544/258 374/552/258
f 372/545/259 378/553/259 379/554/259 373/546/259
f 373/547/260 379/555/260 377/556/260 371/548/260
f 381/557/261 375/549/261 376/550/261 382/558/261
f 382/559/262 376/551/262 374/552/262 380/560/262
f 378/553/263 384/561/263 385/562/263 379/554/263
f 379/555/264 385/563/264 383/564/264 377/556/264
f 387/565/265 381/557/265 382/558/265 388/566/265
f 388/567/266 382/559/266 380/560/266 386/568/266
f 384/561/267 390/569/267 391/570/267 385/562/267
f 385/563/268 391/571/268 389/572/268 383/564/268
f 393/573/269 387/565/269 388/566/269 394/574/269
f 394/575/270 388/567/270 386/568/270 392/576/270
f 390/577/271 396/578/271 397/579/271 391/580/271
f 391/571/272 397/581/272 395/582/272 389/572/272
f 399/583/273 393/584/273 394/585/273 400/586/273
f 400/587/274 394/575/274 392/576/274 398/588/274
f 396/578/275 402/589/275 403/590/275 397/579/275
f 397/581/276 403/591/276 401/592/276 395/582/276
f 405/593/277 399/583/277 400/586/277 406/594/277
f 406/595/278 400/587/278 398/588/278 404/596/278
f 402/589/279 408/597/279 409/598/279 403/590/279
f 403/591/280 409/599/280 407/600/280 401/592/280
f 411/601/281 405/593/281 406/594/281 412/602/281
f 412/603/282 406/595/282 404/596/282 410/604/282
f 408/597/283 414/605/283 415/606/283 409/598/283
f 409/599/284 415/607/284 413/608/284 407/600/284
f 417/609/285 411/601/285 412/602/285 418/610/285
f 418/611/286 412/603/286 410/604/286 416/612/286
f 414/605/287 420/613/287 421/614/287 415/606/287
f 415/607/288 421/615/288 419/616/288 413/608/288
f 423/617/289 417/609/289 418/610/289 424/618/289
f 424/619/290 418/611/290 416/612/290 422/620/290
f 420/613/291 282/621/291 283/622/291 421/614/291
f 421/615/292 283/421/292 281/424/292 419/616/292
f 285/623/293 423/617/293 424/618/293 286/624/293
f 286/430/294 424/619/294 422/620/294 284/431/294
f 281/424/169 287/423/169 293/436/169 299/444/169 305/452/169 311/460/169 317/468/169 323/478/169 329/488/169 335/496/169 341/504/169 347/512/169 353/520/169 359/530/169 365/540/169 371/548/169 377/556/169 383/564/169 389/572/169 395/582/169 401/592/169 407/600/169 413/608/169 419/616/169
f 282/417/295 285/426/295 291/425/295 288/418/295
f 420/613/296 423/617/296 285/623/296 282/621/296
f 290/432/172 284/431/172 422/620/172 416/612/172 410/604/172 404/596/172 398/588/172 392/576/172 386/568/172 380/560/172 374/552/172 368/544/172 362/536/172 356/524/172 350/516/172 344/508/172 338/500/172 332/492/172 326/484/172 320/472/172 314/464/172 308/456/172 302/448/172 296/440/172
f 288/418/297 291/425/297 297/437/297 294/433/297
f 294/433/298 297/437/298 303/445/298 300/441/298
f 300/441/299 303/445/299 309/453/299 306/449/299
f 306/449/300 309/453/300 315/461/300 312/457/300
f 312/457/301 315/461/301 321/469/301 318/465/301
f 318/473/302 321/480/302 327/479/302 324/474/302
f 324/474/303 327/479/303 333/489/303 330/485/303
f 330/485/304 333/489/304 339/497/304 336/493/304
f 336/493/305 339/497/305 345/505/305 342/501/305
f 342/501/306 345/505/306 351/513/306 348/509/306
f 348/509/307 351/513/307 357/521/307 354/517/307
f 354/525/308 357/532/308 363/531/308 360/526/308
f 360/526/309 363/531/309 369/541/309 366/537/309
f 366/537/310 369/541/310 375/549/310 372/545/310
f 372/545/311 375/549/311 381/557/311 378/553/311
f 378/553/312 381/557/312 387/565/312 384/561/312
f 384/561/313 387/565/313 393/573/313 390/569/313
f 390/577/314 393/584/314 399/583/314 396/578/314
f 396/578/315 399/583/315 405/593/315 402/589/315
f 402/589/316 405/593/316 411/601/316 408/597/316
f 408/597/317 411/601/317 417/609/317 414/605/317
f 414/605/318 417/609/318 423/617/318 420/613/318
usemtl M_Tablet
f 486/625/319 427/626/319 432/627/319 433/628/319
f 485/629/320 426/630/320 430/631/320 431/632/320
f 484/633/321 425/634/321 429/635/321
f 428/636/322 486/625/322 433/628/322
f 427/637/323 485/629/323 431/632/323 432/638/323
f 426/639/324 484/633/324 429/635/324 430/640/324
f 428/636/325 433/628/325 438/641/325
f 432/638/326 431/632/326 436/642/326 437/643/326
f 430/640/327 429/635/327 434/644/327 435/645/327
f 433/628/328 432/627/328 437/646/328 438/641/328
f 431/632/329 430/631/329 435/647/329 436/642/329
f 429/635/330 425/634/330 434/644/330
f 428/636/331 438/641/331 443/648/331
f 437/643/332 436/642/332 441/649/332 442/650/332
f 435/645/333 434/644/333 439/651/333 440/652/333
f 438/641/334 437/646/334 442/653/334 443/648/334
f 436/642/335 435/647/335 440/654/335 441/649/335
f 434/644/336 425/634/336 439/651/336
f 428/636/337 443/648/337 448/655/337
f 442/656/338 441/657/338 446/658/338 447/659/338
f 440/652/339 439/651/339 444/660/339 445/661/339
f 443/648/340 442/653/340 447/662/340 448/655/340
f 441/657/341 440/663/341 445/664/341 446/658/341
f 439/651/342 425/634/342 444/660/342
f 447/659/343 446/658/343 451/665/343 452/666/343
f 445/661/344 444/660/344 449/667/344 450/668/344
f 448/655/345 447/662/345 452/669/345 453/670/345
f 446/658/346 445/664/346 450/671/346 451/665/346
f 444/660/347 425/634/347 449/667/347
f 428/636/348 448/655/348 453/670/348
f 450/668/349 449/667/349 454/672/349 455/673/349
f 453/670/350 452/669/350 457/674/350 458/675/350
f 451/665/351 450/671/351 455/676/351 456/677/351
f 449/667/352 425/634/352 454/672/352
f 428/636/353 453/670/353 458/675/353
f 452/666/354 451/665/354 456/677/354 457/678/354
f 458/675/355 457/674/355 462/679/355 463/680/355
f 456/681/356 455/682/356 460/683/356 461/684/356
f 454/672/357 425/634/357 459/685/357
f 428/636/358 458/675/358 463/680/358
f 457/686/359 456/681/359 461/684/359 462/687/359
f 455/673/360 454/672/360 459/685/360 460/688/360
f 463/680/361 462/679/361 467/689/361 468/690/361
f 461/684/362 460/683/362 465/691/362 466/692/362
f 459/685/363 425/634/363 464/693/363
f 428/636/364 463/680/364 468/690/364
f 462/687/365 461/684/365 466/692/365 467/694/365
f 460/688/366 459/685/366 464/693/366 465/695/366
f 468/690/367 467/689/367 472/696/367 473/697/367
f 466/692/368 465/691/368 470/698/368 471/699/368
f 464/693/369 425/634/369 469/700/369
f 428/636/370 468/690/370 473/697/370
f 467/694/371 466/692/371 471/699/371 472/701/371
f 465/695/372 464/693/372 469/700/372 470/702/372
f 473/697/373 472/696/373 477/703/373 478/704/373
f 471/705/374 470/706/374 475/707/374 476/708/374
f 469/700/375 425/634/375 474/709/375
f 428/636/376 473/697/376 478/704/376
f 472/710/377 471/705/377 476/708/377 477/711/377
f 470/702/378 469/700/378 474/709/378 475/712/378
f 476/708/379 475/707/379 480/713/379 481/714/379
f 474/709/380 425/634/380 479/715/380
f 428/636/381 478/704/381 483/716/381
f 477/711/382 476/708/382 481/714/382 482/717/382
f 475/712/383 474/709/383 479/715/383 480/718/383
f 478/704/384 477/703/384 482/719/384 483/716/384
f 479/715/385 425/634/385 484/633/385
f 428/636/386 483/716/386 486/625/386
f 482/717/387 481/714/387 485/720/387 427/721/387
f 480/718/388 479/715/388 484/633/388 426/639/388
f 483/716/389 482/719/389 427/626/389 486/625/389
f 481/714/390 480/713/390 426/722/390 485/720/390
f 548/723/319 489/724/319 494/725/319 495/726/319
f 547/727/320 488/728/320 492/729/320 493/730/320
f 546/731/321 487/732/321 491/733/321
f 490/734/322 548/723/322 495/726/322
f 489/735/323 547/727/323 493/730/323 494/736/323
f 488/737/324 546/731/324 491/733/324 492/738/324
f 493/730/329 492/729/329 497/739/329 498/740/329
f 491/733/330 487/732/330 496/741/330
f 490/734/325 495/726/325 500/742/325
f 494/736/326 493/730/326 498/740/326 499/743/326
f 492/738/327 491/733/327 496/741/327 497/744/327
f 495/726/328 494/725/328 499/745/328 500/742/328
f 496/741/336 487/732/336 501/746/336
f 490/734/331 500/742/331 505/747/331
f 499/743/332 498/740/332 503/748/332 504/749/332
f 497/744/333 496/741/333 501/746/333 502/750/333
f 500/742/334 499/745/334 504/751/334 505/747/334
f 498/740/335 497/739/335 502/752/335 503/748/335
f 490/734/337 505/747/337 510/753/337
f 504/754/338 503/755/338 508/756/338 509/757/338
f 502/750/339 501/746/339 506/758/339 507/759/339
f 505/747/340 504/751/340 509/760/340 510/753/340
f 503/755/341 502/761/341 507/762/341 508/756/341
f 501/746/342 487/732/342 506/758/342
f 490/734/348 510/753/348 515/763/348
f 509/757/343 508/756/343 513/764/343 514/765/343
f 507/759/344 506/758/344 511/766/344 512/767/344
f 510/753/345 509/760/345 514/768/345 515/763/345
f 508/756/346 507/762/346 512/769/346 513/764/346
f 506/758/347 487/732/347 511/766/347
f 490/734/353 515/763/353 520/770/353
f 514/765/354 513/764/354 518/771/354 519/772/354
f 512/767/349 511/766/349 516/773/349 517/774/349
f 515/763/350 514/768/350 519/775/350 520/770/350
f 513/764/351 512/769/351 517/776/351 518/771/351
f 511/766/352 487/732/352 516/773/352
f 519/777/359 518/778/359 523/779/359 524/780/359
f 517/774/360 516/773/360 521/781/360 522/782/360
f 520/770/355 519/775/355 524/783/355 525/784/355
f 518/778/356 517/785/356 522/786/356 523/779/356
f 516/773/357 487/732/357 521/781/357
f 490/734/358 520/770/358 525/784/358
f 522/782/366 521/781/366 526/787/366 527/788/366
f 525/784/361 524/783/361 529/789/361 530/790/361
f 523/779/362 522/786/362 527/791/362 528/792/362
f 521/781/363 487/732/363 526/787/363
f 490/734/364 525/784/364 530/790/364
f 524/780/365 523/779/365 528/792/365 529/793/365
f 530/790/367 529/789/367 534/794/367 535/795/367
f 528/792/368 527/791/368 532/796/368 533/797/368
f 526/787/369 487/732/369 531/798/369
f 490/734/370 530/790/370 535/795/370
f 529/793/371 528/792/371 533/797/371 534/799/371
f 527/788/372 526/787/372 531/798/372 532/800/372
f 535/795/373 534/794/373 539/801/373 540/802/373
f 533/803/374 532/804/374 537/805/374 538/806/374
f 531/798/375 487/732/375 536/807/375
f 490/734/376 535/795/376 540/802/376
f 534/808/377 533/803/377 538/806/377 539/809/377
f 532/800/378 531/798/378 536/807/378 537/810/378
f 540/802/384 539/801/384 544/811/384 545/812/384
f 538/806/379 537/805/379 542/813/379 543/814/379
f 536/807/380 487/732/380 541/815/380
f 490/734/381 540/802/381 545/812/381
f 539/809/382 538/806/382 543/814/382 544/816/382
f 537/810/383 536/807/383 541/815/383 542/817/383
f 545/812/389 544/811/389 489/724/389 548/723/389
f 543/814/390 542/813/390 488/818/390 547/819/390
f 541/815/385 487/732/385 546/731/385
f 490/734/386 545/812/386 548/723/386
f 544/816/387 543/814/387 547/819/387 489/820/387
f 542/817/388 541/815/388 546/731/388 488/737/388
f 609/821/320 550/822/320 554/823/320 555/824/320
f 608/825/321 549/826/321 553/827/321
f 552/828/322 610/829/322 557/830/322
f 551/831/323 609/821/323 555/824/323 556/832/323
f 550/833/324 608/825/324 553/827/324 554/834/324
f 610/829/319 551/835/319 556/836/319 557/830/319
f 552/828/325 557/830/325 562/837/325
f 556/832/326 555/824/326 560/838/326 561/839/326
f 554/834/327 553/827/327 558/840/327 559/841/327
f 557/830/328 556/836/328 561/842/328 562/837/328
f 555/824/329 554/823/329 559/843/329 560/838/329
f 553/827/330 549/826/330 558/840/330
f 552/828/391 562/837/391 567/844/391
f 561/839/332 560/838/332 565/845/332 566/846/332
f 559/841/333 558/840/333 563/847/333 564/848/333
f 562/837/334 561/842/334 566/849/334 567/844/334
f 560/838/335 559/843/335 564/850/335 565/845/335
f 558/840/336 549/826/336 563/847/336
f 566/851/338 565/852/338 570/853/338 571/854/338
f 564/848/339 563/847/339 568/855/339 569/856/339
f 567/844/340 566/849/340 571/857/340 572/858/340
f 565/852/341 564/859/341 569/860/341 570/853/341
f 563/847/342 549/826/342 568/855/342
f 552/828/392 567/844/392 572/858/392
f 569/856/344 568/855/344 573/861/344 574/862/344
f 572/858/345 571/857/345 576/863/345 577/864/345
f 570/853/346 569/860/346 574/865/346 575/866/346
f 568/855/347 549/826/347 573/861/347
f 552/828/348 572/858/348 577/864/348
f 571/854/343 570/853/343 575/866/343 576/867/343
f 577/864/350 576/863/350 581/868/350 582/869/350
f 575/866/351 574/865/351 579/870/351 580/871/351
f 573/861/352 549/826/352 578/872/352
f 552/828/353 577/864/353 582/869/353
f 576/867/354 575/866/354 580/871/354 581/873/354
f 574/862/349 573/861/349 578/872/349 579/874/349
f 582/869/355 581/868/355 586/875/355 587/876/355
f 580/877/356 579/878/356 584/879/356 585/880/356
f 578/872/357 549/826/357 583/881/357
f 552/828/358 582/869/358 587/876/358
f 581/882/359 580/877/359 585/880/359 586/883/359
f 579/874/360 578/872/360 583/881/360 584/884/360
f 587/876/361 586/875/361 591/885/361 592/886/361
f 585/880/362 584/879/362 589/887/362 590/888/362
f 583/881/363 549/826/363 588/889/363
f 552/828/364 587/876/364 592/886/364
f 586/883/365 585/880/365 590/888/365 591/890/365
f 584/884/366 583/881/366 588/889/366 589/891/366
f 592/886/367 591/885/367 596/892/367 597/893/367
f 590/888/368 589/887/368 594/894/368 595/895/368
f 588/889/369 549/826/369 593/896/369
f 552/828/393 592/886/393 597/893/393
f 591/890/371 590/888/371 595/895/371 596/897/371
f 589/891/372 588/889/372 593/896/372 594/898/372
f 595/899/374 594/900/374 599/901/374 600/902/374
f 593/896/375 549/826/375 598/903/375
f 552/828/394 597/893/394 602/904/394
f 596/905/377 595/899/377 600/902/377 601/906/377
f 594/898/378 593/896/378 598/903/378 599/907/378
f 597/893/373 596/892/373 601/908/373 602/904/373
f 598/903/380 549/826/380 603/909/380
f 552/828/381 602/904/381 607/910/381
f 601/906/382 600/902/382 605/911/382 606/912/382
f 599/907/383 598/903/383 603/909/383 604/913/383
f 602/904/384 601/908/384 606/914/384 607/910/384
f 600/902/379 599/901/379 604/915/379 605/911/379
f 552/828/386 607/910/386 610/829/386
f 606/912/387 605/911/387 609/916/387 551/917/387
f 604/913/388 603/909/388 608/825/388 550/833/388
f 607/910/389 606/914/389 551/835/389 610/829/389
f 605/911/390 604/915/390 550/918/390 609/916/390
f 603/909/385 549/826/385 608/825/385
f 613/919/323 671/920/323 617/921/323 618/922/323
f 612/923/324 670/924/324 615/925/324 616/926/324
f 672/927/319 613/928/319 618/929/319 619/930/319
f 671/920/320 612/931/320 616/932/320 617/921/320
f 670/924/321 611/933/321 615/925/321
f 614/934/322 672/927/322 619/930/322
f 619/930/328 618/929/328 623/935/328 624/936/328
f 617/921/329 616/932/329 621/937/329 622/938/329
f 615/925/330 611/933/330 620/939/330
f 614/934/325 619/930/325 624/936/325
f 618/922/326 617/921/326 622/938/326 623/940/326
f 616/926/327 615/925/327 620/939/327 621/941/327
f 624/936/334 623/935/334 628/942/334 629/943/334
f 622/938/335 621/937/335 626/944/335 627/945/335
f 620/939/336 611/933/336 625/946/336
f 614/934/331 624/936/331 629/943/331
f 623/940/332 622/938/332 627/945/332 628/947/332
f 621/941/333 620/939/333 625/946/333 626/948/333
f 629/943/340 628/942/340 633/949/340 634/950/340
f 627/951/341 626/952/341 631/953/341 632/954/341
f 625/946/342 611/933/342 630/955/342
f 614/934/337 629/943/337 634/950/337
f 628/956/338 627/951/338 632/954/338 633/957/338
f 626/948/339 625/946/339 630/955/339 631/958/339
f 632/954/346 631/953/346 636/959/346 637/960/346
f 630/955/347 611/933/347 635/961/347
f 614/934/348 634/950/348 639/962/348
f 633/957/343 632/954/343 637/960/343 638/963/343
f 631/958/344 630/955/344 635/961/344 636/964/344
f 634/950/345 633/949/345 638/965/345 639/962/345
f 635/961/352 611/933/352 640/966/352
f 614/934/353 639/962/353 644/967/353
f 638/963/354 637/960/354 642/968/354 643/969/354
f 636/964/349 635/961/349 640/966/349 641/970/349
f 639/962/350 638/965/350 643/971/350 644/967/350
f 637/960/351 636/959/351 641/972/351 642/968/351
f 614/934/358 644/967/358 649/973/358
f 643/974/359 642/975/359 647/976/359 648/977/359
f 641/970/360 640/966/360 645/978/360 646/979/360
f 644/967/355 643/971/355 648/980/355 649/973/355
f 642/975/356 641/981/356 646/982/356 647/976/356
f 640/966/357 611/933/357 645/978/357
f 614/934/364 649/973/364 654/983/364
f 648/977/365 647/976/365 652/984/365 653/985/365
f 646/979/366 645/978/366 650/986/366 651/987/366
f 649/973/361 648/980/361 653/988/361 654/983/361
f 647/976/362 646/982/362 651/989/362 652/984/362
f 645/978/363 611/933/363 650/986/363
f 614/934/370 654/983/370 659/990/370
f 653/985/371 652/984/371 657/991/371 658/992/371
f 651/987/372 650/986/372 655/993/372 656/994/372
f 654/983/367 653/988/367 658/995/367 659/990/367
f 652/984/368 651/989/368 656/996/368 657/991/368
f 650/986/369 611/933/369 655/993/369
f 658/997/377 657/998/377 662/999/377 663/1000/377
f 656/994/378 655/993/378 660/1001/378 661/1002/378
f 659/990/373 658/995/373 663/1003/373 664/1004/373
f 657/998/374 656/1005/374 661/1006/374 662/999/374
f 655/993/375 611/933/375 660/1001/375
f 614/934/376 659/990/376 664/1004/376
f 661/1002/383 660/1001/383 665/1007/383 666/1008/383
f 664/1004/384 663/1003/384 668/1009/384 669/1010/384
f 662/999/379 661/1006/379 666/1011/379 667/1012/379
f 660/1001/380 611/933/380 665/1007/380
f 614/934/381 664/1004/381 669/1010/381
f 663/1000/382 662/999/382 667/1012/382 668/1013/382
f 669/1010/389 668/1009/389 613/928/389 672/927/389
f 667/1012/390 666/1011/390 612/1014/390 671/1015/390
f 665/1007/385 611/933/385 670/924/385
f 614/934/386 669/1010/386 672/927/386
f 668/1013/387 667/1012/387 671/1015/387 613/1016/387
f 666/1008/388 665/1007/388 670/924/388 612/923/388
f 734/1017/319 675/1018/319 680/1019/319 681/1020/319
f 733/1021/320 674/1022/320 678/1023/320 679/1024/320
f 732/1025/321 673/1026/321 677/1027/321
f 676/1028/322 734/1017/322 681/1020/322
f 675/1029/323 733/1021/323 679/1024/323 680/1030/323
f 674/1031/324 732/1025/324 677/1027/324 678/1032/324
f 679/1024/329 678/1023/329 683/1033/329 684/1034/329
f 677/1027/330 673/1026/330 682/1035/330
f 676/1028/325 681/1020/325 686/1036/325
f 680/1030/326 679/1024/326 684/1034/326 685/1037/326
f 678/1032/327 677/1027/327 682/1035/327 683/1038/327
f 681/1020/328 680/1019/328 685/1039/328 686/1036/328
f 682/1035/395 673/1026/395 687/1040/395
f 676/1028/331 686/1036/331 691/1041/331
f 685/1037/332 684/1034/332 689/1042/332 690/1043/332
f 683/1038/333 682/1035/333 687/1040/333 688/1044/333
f 686/1036/334 685/1039/334 690/1045/334 691/1041/334
f 684/1034/335 683/1033/335 688/1046/335 689/1042/335
f 676/1028/337 691/1041/337 696/1047/337
f 690/1048/338 689/1049/338 694/1050/338 695/1051/338
f 688/1044/339 687/1040/339 692/1052/339 693/1053/339
f 691/1041/340 690/1045/340 695/1054/340 696/1047/340
f 689/1049/341 688/1055/341 693/1056/341 694/1050/341
f 687/1040/396 673/1026/396 692/1052/396
f 676/1028/348 696/1047/348 701/1057/348
f 695/1051/343 694/1050/343 699/1058/343 700/1059/343
f 693/1053/344 692/1052/344 697/1060/344 698/1061/344
f 696/1047/345 695/1054/345 700/1062/345 701/1057/345
f 694/1050/346 693/1056/346 698/1063/346 699/1058/346
f 692/1052/347 673/1026/347 697/1060/347
f 676/1028/353 701/1057/353 706/1064/353
f 700/1059/354 699/1058/354 704/1065/354 705/1066/354
f 698/1061/349 697/1060/349 702/1067/349 703/1068/349
f 701/1057/350 700/1062/350 705/1069/350 706/1064/350
f 699/1058/351 698/1063/351 703/1070/351 704/1065/351
f 697/1060/352 673/1026/352 702/1067/352
f 705/1071/359 704/1072/359 709/1073/359 710/1074/359
f 703/1068/360 702/1067/360 707/1075/360 708/1076/360
f 706/1064/355 705/1069/355 710/1077/355 711/1078/355
f 704/1072/356 703/1079/356 708/1080/356 709/1073/356
f 702/1067/357 673/1026/357 707/1075/357
f 676/1028/358 706/1064/358 711/1078/358
f 708/1076/366 707/1075/366 712/1081/366 713/1082/366
f 711/1078/361 710/1077/361 715/1083/361 716/1084/361
f 709/1073/362 708/1080/362 713/1085/362 714/1086/362
f 707/1075/363 673/1026/363 712/1081/363
f 676/1028/364 711/1078/364 716/1084/364
f 710/1074/365 709/1073/365 714/1086/365 715/1087/365
f 716/1084/367 715/1083/367 720/1088/367 721/1089/367
f 714/1086/368 713/1085/368 718/1090/368 719/1091/368
f 712/1081/369 673/1026/369 717/1092/369
f 676/1028/393 716/1084/393 721/1089/393
f 715/1087/371 714/1086/371 719/1091/371 720/1093/371
f 713/1082/372 712/1081/372 717/1092/372 718/1094/372
f 721/1089/373 720/1088/373 725/1095/373 726/1096/373
f 719/1097/374 718/1098/374 723/1099/374 724/1100/374
f 717/1092/375 673/1026/375 722/1101/375
f 676/1028/394 721/1089/394 726/1096/394
f 720/1102/377 719/1097/377 724/1100/377 725/1103/377
f 718/1094/378 717/1092/378 722/1101/378 723/1104/378
f 726/1096/384 725/1095/384 730/1105/384 731/1106/384
f 724/1100/379 723/1099/379 728/1107/379 729/1108/379
f 722/1101/380 673/1026/380 727/1109/380
f 676/1028/381 726/1096/381 731/1106/381
f 725/1103/382 724/1100/382 729/1108/382 730/1110/382
f 723/1104/383 722/1101/383 727/1109/383 728/1111/383
f 731/1106/389 730/1105/389 675/1018/389 734/1017/389
f 729/1108/390 728/1107/390 674/1112/390 733/1113/390
f 727/1109/385 673/1026/385 732/1025/385
f 676/1028/386 731/1106/386 734/1017/386
f 730/1110/387 729/1108/387 733/1113/387 675/1114/387
f 728/1111/388 727/1109/388 732/1025/388 674/1031/388
f 738/1115/322 796/1116/322 743/1117/322
f 737/1118/323 795/1119/323 741/1120/323 742/1121/323
f 736/1122/324 794/1123/324 739/1124/324 740/1125/324
f 796/1116/319 737/1126/319 742/1127/319 743/1117/319
f 795/1119/320 736/1128/320 740/1129/320 741/1120/320
f 794/1123/321 735/1130/321 739/1124/321
f 743/1117/328 742/1127/328 747/1131/328 748/1132/328
f 741/1120/329 740/1129/329 745/1133/329 746/1134/329
f 739/1124/330 735/1130/330 744/1135/330
f 738/1115/325 743/1117/325 748/1132/325
f 742/1121/326 741/1120/326 746/1134/326 747/1136/326
f 740/1125/327 739/1124/327 744/1135/327 745/1137/327
f 748/1132/334 747/1131/334 752/1138/334 753/1139/334
f 746/1134/335 745/1133/335 750/1140/335 751/1141/335
f 744/1135/336 735/1130/336 749/1142/336
f 738/1115/331 748/1132/331 753/1139/331
f 747/1136/332 746/1134/332 751/1141/332 752/1143/332
f 745/1137/333 744/1135/333 749/1142/333 750/1144/333
f 753/1139/340 752/1138/340 757/1145/340 758/1146/340
f 751/1147/341 750/1148/341 755/1149/341 756/1150/341
f 749/1142/342 735/1130/342 754/1151/342
f 738/1115/337 753/1139/337 758/1146/337
f 752/1152/338 751/1147/338 756/1150/338 757/1153/338
f 750/1144/339 749/1142/339 754/1151/339 755/1154/339
f 758/1146/345 757/1145/345 762/1155/345 763/1156/345
f 756/1150/346 755/1149/346 760/1157/346 761/1158/346
f 754/1151/347 735/1130/347 759/1159/347
f 738/1115/348 758/1146/348 763/1156/348
f 757/1153/343 756/1150/343 761/1158/343 762/1160/343
f 755/1154/344 754/1151/344 759/1159/344 760/1161/344
f 761/1158/351 760/1157/351 765/1162/351 766/1163/351
f 759/1159/352 735/1130/352 764/1164/352
f 738/1115/353 763/1156/353 768/1165/353
f 762/1160/354 761/1158/354 766/1163/354 767/1166/354
f 760/1161/349 759/1159/349 764/1164/349 765/1167/349
f 763/1156/350 762/1155/350 767/1168/350 768/1165/350
f 764/1164/357 735/1130/357 769/1169/357
f 738/1115/358 768/1165/358 773/1170/358
f 767/1171/359 766/1172/359 771/1173/359 772/1174/359
f 765/1167/360 764/1164/360 769/1169/360 770/1175/360
f 768/1165/355 767/1168/355 772/1176/355 773/1170/355
f 766/1172/356 765/1177/356 770/1178/356 771/1173/356
f 738/1115/364 773/1170/364 778/1179/364
f 772/1174/365 771/1173/365 776/1180/365 777/1181/365
f 770/1175/366 769/1169/366 774/1182/366 775/1183/366
f 773/1170/361 772/1176/361 777/1184/361 778/1179/361
f 771/1173/362 770/1178/362 775/1185/362 776/1180/362
f 769/1169/363 735/1130/363 774/1182/363
f 738/1115/370 778/1179/370 783/1186/370
f 777/1181/371 776/1180/371 781/1187/371 782/1188/371
f 775/1183/372 774/1182/372 779/1189/372 780/1190/372
f 778/1179/367 777/1184/367 782/1191/367 783/1186/367
f 776/1180/368 775/1185/368 780/1192/368 781/1187/368
f 774/1182/369 735/1130/369 779/1189/369
f 738/1115/376 783/1186/376 788/1193/376
f 782/1194/377 781/1195/377 786/1196/377 787/1197/377
f 780/1190/378 779/1189/378 784/1198/378 785/1199/378
f 783/1186/373 782/1191/373 787/1200/373 788/1193/373
f 781/1195/374 780/1201/374 785/1202/374 786/1196/374
f 779/1189/375 735/1130/375 784/1198/375
f 787/1197/382 786/1196/382 791/1203/382 792/1204/382
f 785/1199/383 784/1198/383 789/1205/383 790/1206/383
f 788/1193/384 787/1200/384 792/1207/384 793/1208/384
f 786/1196/379 785/1202/379 790/1209/379 791/1203/379
f 784/1198/380 735/1130/380 789/1205/380
f 738/1115/381 788/1193/381 793/1208/381
f 790/1206/388 789/1205/388 794/1123/388 736/1122/388
f 793/1208/389 792/1207/389 737/1126/389 796/1116/389
f 791/1203/390 790/1209/390 736/1210/390 795/1211/390
f 789/1205/385 735/1130/385 794/1123/385
f 738/1115/386 793/1208/386 796/1116/386
f 792/1204/387 791/1203/387 795/1211/387 737/1212/387
