# Blender 5.0.1
# www.blender.org
mtllib player_sleeve.mtl
o SM_PlayerSleeve
v 3.999154 4.338283 0.003694
v 19.999157 3.939013 -0.002093
v 3.999264 4.209699 -0.834639
v 19.999262 3.883827 -0.772121
v 3.999251 3.956162 -1.639484
v 19.999252 3.642980 -1.506212
v 3.999126 3.589036 -2.402301
v 19.999126 3.245348 -2.165561
v 3.999000 3.086771 -3.091207
v 19.999002 2.739596 -2.739398
v 3.998985 2.437433 -3.647887
v 19.998987 2.156200 -3.231058
v 3.999094 1.670807 -4.025509
v 19.999098 1.498847 -3.625482
v 3.999231 0.843807 -4.224250
v 19.999233 0.771069 -3.879949
v 3.999272 0.000743 -4.280072
v 19.999273 0.001894 -3.953543
v 3.999183 -0.841526 -4.217006
v 19.999186 -0.761681 -3.843533
v 3.999041 -1.668124 -4.017547
v 19.999044 -1.484223 -3.586387
v 3.998974 -2.437659 -3.645608
v 19.998976 -2.154394 -3.221671
v 3.999040 -3.092049 -3.095001
v 19.999043 -2.764065 -2.760080
v 3.999182 -3.596279 -2.407488
v 19.999182 -3.281763 -2.190780
v 3.999273 -3.958848 -1.642081
v 19.999275 -3.657608 -1.516058
v 3.999233 -4.204510 -0.834866
v 19.999235 -3.858606 -0.770315
v 3.999097 -4.329206 0.003694
v 19.999100 -3.893857 -0.002092
v 3.998987 -4.291253 0.856304
v 19.998989 -3.798541 0.755997
v 3.999000 -4.051555 1.677420
v 19.999001 -3.593648 1.491298
v 3.999125 -3.617716 2.413098
v 19.999126 -3.267444 2.186149
v 3.999251 -3.042073 3.037636
v 19.999252 -2.799082 2.799281
v 3.999266 -2.377969 3.558867
v 19.999268 -2.195511 3.281737
v 3.999156 -1.646096 3.982205
v 19.999157 -1.498661 3.611144
v 3.999021 -0.847137 4.276700
v 19.999022 -0.757049 3.802417
v 3.998978 0.000741 4.387419
v 19.998980 0.001893 3.879329
v 3.999068 0.849417 4.283938
v 19.999069 0.766437 3.838828
v 3.999209 1.648782 3.990171
v 19.999208 1.513288 3.650243
v 3.999277 2.377742 3.561150
v 19.999279 2.197317 3.291126
v 3.999211 3.036790 3.033839
v 19.999212 2.774609 2.778594
v 3.999069 3.610477 2.407912
v 19.999069 3.231031 2.160929
v 3.998978 4.048872 1.674826
v 19.998980 3.579024 1.481454
v 3.999019 4.296436 0.856078
v 19.999018 3.823757 0.757802
v 3.995771 4.205971 0.004788
v 19.995771 3.806701 -0.000998
v 3.996322 4.080235 -0.806722
v 19.996323 3.754364 -0.744202
v 3.996255 3.834189 -1.587595
v 19.996258 3.521008 -1.454321
v 3.995630 3.478420 -2.329260
v 19.995632 3.134731 -2.092520
v 3.995002 2.991667 -2.999020
v 19.995001 2.644490 -2.647213
v 3.994928 2.362618 -3.538744
v 19.994930 2.081382 -3.121917
v 3.995475 1.620472 -3.903169
v 19.995478 1.448512 -3.503142
v 3.996156 0.819869 -4.094048
v 19.996157 0.747132 -3.749747
v 3.996366 0.002564 -4.147570
v 19.996367 0.003718 -3.821041
v 3.995917 -0.815568 -4.087003
v 19.995918 -0.735721 -3.713530
v 3.995211 -1.619004 -3.894486
v 19.995213 -1.435104 -3.463326
v 3.994873 -2.365787 -3.534450
v 19.994873 -2.082526 -3.110511
v 3.995204 -2.998870 -3.001098
v 19.995205 -2.670888 -2.666175
v 3.995912 -3.485459 -2.335158
v 19.995913 -3.170942 -2.118452
v 3.996366 -3.835675 -1.593338
v 19.996367 -3.534435 -1.467317
v 3.996162 -4.074321 -0.809891
v 19.996162 -3.728417 -0.745342
v 3.995483 -4.196669 0.004794
v 19.995485 -3.761319 -0.000991
v 3.994933 -4.160976 0.832554
v 19.994934 -3.668264 0.732250
v 3.994999 -3.928842 1.627956
v 19.994999 -3.470935 1.441836
v 3.995623 -3.508112 2.338999
v 19.995625 -3.157840 2.112050
v 3.996252 -2.949914 2.942560
v 19.996256 -2.706924 2.704203
v 3.996325 -2.305649 3.447803
v 19.996326 -2.123193 3.170670
v 3.995778 -1.595071 3.859853
v 19.995781 -1.447636 3.488792
v 3.995098 -0.819407 4.147158
v 19.995100 -0.729316 3.672875
v 3.994888 0.002559 4.255087
v 19.994890 0.003715 3.746997
v 3.995336 0.823708 4.154174
v 19.995338 0.740729 3.709063
v 3.996044 1.596557 3.868551
v 19.996046 1.461061 3.528624
v 3.996382 2.302477 3.452111
v 19.996384 2.122051 3.182088
v 3.996048 2.942690 2.940460
v 19.996052 2.680508 2.685217
v 3.995343 3.501090 2.333098
v 19.995344 3.121645 2.086114
v 3.994889 3.927373 1.622227
v 19.994888 3.457527 1.428851
v 3.995091 4.166862 0.829383
v 19.995092 3.694185 0.731104
v 3.999221 4.292114 -0.418982
v 19.999222 3.934543 -0.388537
v 11.999789 4.163455 0.000595
v 11.999817 4.071037 -0.808615
v 3.999275 4.096954 -1.241622
v 19.999277 3.785593 -1.146542
v 11.999815 3.822441 -1.582577
v 3.999197 3.787838 -2.027462
v 19.999199 3.460701 -1.846460
v 11.999784 3.437933 -2.297627
v 3.999055 3.356203 -2.759395
v 19.999058 3.003473 -2.462908
v 11.999751 2.931016 -2.932587
v 3.998975 2.779498 -3.389717
v 19.998976 2.457020 -2.995827
v 11.999748 2.310844 -3.459937
v 3.999029 2.065373 -3.860113
v 19.999031 1.836888 -3.442725
v 11.999775 1.594265 -3.848435
v 3.999168 1.261522 -4.145281
v 19.999168 1.142522 -3.773244
v 11.999809 0.811926 -4.076512
v 3.999268 0.422827 -4.267816
v 19.999269 0.388796 -3.940489
v 11.999820 0.000976 -4.141653
v 3.999241 -0.421087 -4.263700
v 19.999241 -0.383291 -3.919721
v 11.999797 -0.806471 -4.054646
v 3.999111 -1.258769 -4.136711
v 19.999113 -1.129161 -3.730515
v 11.999762 -1.585384 -3.825041
v 3.998993 -2.063694 -3.854507
v 19.998993 -1.826098 -3.416138
v 11.999745 -2.309502 -3.454482
v 3.998992 -2.782274 -3.390832
v 19.998993 -2.468189 -3.003551
v 11.999762 -2.945528 -2.945148
v 3.999110 -3.363169 -2.764546
v 19.999111 -3.037466 -2.489338
v 11.999797 -3.459800 -2.312696
v 3.999241 -3.793555 -2.031600
v 19.999243 -3.490204 -1.865036
v 11.999820 -3.831323 -1.588209
v 3.999269 -4.095670 -1.242798
v 19.999269 -3.780246 -1.148979
v 11.999810 -4.055968 -0.807273
v 3.999170 -4.284105 -0.418905
v 19.999172 -3.894881 -0.386478
v 11.999776 -4.136383 0.000595
v 3.999031 -4.333609 0.430578
v 19.999033 -3.860581 0.379217
v 11.999748 -4.069324 0.810603
v 3.998976 -4.197289 1.274408
v 19.998976 -3.709970 1.127212
v 11.999752 -3.845610 1.593633
v 3.999055 -3.856175 2.058348
v 19.999058 -3.447244 1.845915
v 11.999784 -3.463130 2.313517
v 3.999196 -3.343831 2.739183
v 19.999195 -3.051394 2.506195
v 11.999814 -2.937857 2.936285
v 3.999276 -2.719082 3.310320
v 19.999275 -2.512084 3.059042
v 11.999819 -2.300300 3.441127
v 3.999222 -2.020438 3.783900
v 19.999224 -1.855486 3.465221
v 11.999790 -1.581946 3.819615
v 3.999083 -1.254507 4.148958
v 19.999084 -1.131231 3.722316
v 11.999758 -0.807292 4.063848
v 3.998982 -0.426734 4.357909
v 19.998983 -0.378958 3.854638
v 11.999746 0.000976 4.158186
v 3.999010 0.428471 4.362019
v 19.999010 0.384461 3.875401
v 11.999768 0.812747 4.085714
v 3.999141 1.257261 4.157526
v 19.999140 1.144593 3.765043
v 11.999804 1.590827 3.843011
v 3.999259 2.022117 3.789510
v 19.999260 1.866279 3.491813
v 11.999820 2.301641 3.446582
v 3.999259 2.716301 3.309203
v 19.999262 2.500912 3.051317
v 11.999804 2.923343 2.923725
v 3.999141 3.336864 2.734028
v 19.999144 3.017400 2.479761
v 11.999769 3.441264 2.298448
v 3.999011 3.850462 2.054212
v 19.999010 3.417747 1.827341
v 11.999745 3.836729 1.588003
v 3.998982 4.198570 1.273234
v 19.998983 3.715316 1.124776
v 11.999756 4.084392 0.811946
v 3.999081 4.341613 0.430654
v 19.999083 3.900239 0.381273
v 3.996101 4.160574 -0.404201
v 19.996103 3.803004 -0.373754
v 11.995136 3.981528 0.002100
v 11.995772 3.893025 -0.770227
v 3.996375 3.970721 -1.201330
v 19.996378 3.659361 -1.106248
v 11.995694 3.654730 -1.511228
v 3.995983 3.671061 -1.964699
v 19.995987 3.343926 -1.783695
v 11.994975 3.285835 -2.197195
v 3.995276 3.252775 -2.676550
v 19.995277 2.900044 -2.380064
v 11.994253 2.800246 -2.805831
v 3.994879 2.693941 -3.288698
v 19.994883 2.371460 -2.894811
v 11.994168 2.207972 -3.309866
v 3.995146 2.002391 -3.743784
v 19.995148 1.773904 -3.326397
v 11.994797 1.525054 -3.680215
v 3.995841 1.224322 -4.018298
v 19.995842 1.105322 -3.646261
v 11.995580 0.779012 -3.897485
v 3.996344 0.411950 -4.135809
v 19.996347 0.377922 -3.808482
v 11.995821 0.003483 -3.959460
v 3.996209 -0.407015 -4.131888
v 19.996210 -0.369218 -3.787909
v 11.995306 -0.770777 -3.875891
v 3.995556 -1.221165 -4.009602
v 19.995556 -1.091558 -3.603407
v 11.994493 -1.517844 -3.655832
v 3.994966 -2.003119 -3.736735
v 19.994970 -1.765525 -3.298363
v 11.994104 -2.210681 -3.301638
v 3.994962 -2.699437 -3.287662
v 19.994965 -2.385355 -2.900379
v 11.994486 -2.817408 -2.816030
v 3.995549 -3.260581 -2.681023
v 19.995550 -2.934879 -2.405815
v 11.995300 -3.307422 -2.213243
v 3.996205 -3.675866 -1.970955
v 19.996210 -3.372514 -1.804393
v 11.995821 -3.661960 -1.521188
v 3.996347 -3.968365 -1.205956
v 19.996349 -3.652940 -1.112139
v 11.995586 -3.876958 -0.772934
v 3.995848 -4.152182 -0.405800
v 19.995850 -3.762957 -0.373374
v 11.994806 -3.954144 0.002108
v 3.995154 -4.201589 0.419404
v 19.995155 -3.728560 0.368045
v 11.994173 -3.890193 0.777950
v 3.994880 -4.070092 1.237818
v 19.994881 -3.582773 1.090626
v 11.994248 -3.676880 1.525622
v 3.995269 -3.739370 1.996262
v 19.995270 -3.330439 1.783831
v 11.994967 -3.312426 2.211631
v 3.995978 -3.242532 2.654018
v 19.995979 -2.950096 2.421029
v 11.995692 -2.811139 2.805555
v 3.996375 -2.636634 3.206621
v 19.996378 -2.429638 2.955341
v 11.995773 -2.200861 3.288412
v 3.996106 -1.958570 3.666651
v 19.996109 -1.793620 3.347972
v 11.995145 -1.511786 3.651382
v 3.995413 -1.214822 4.022501
v 19.995417 -1.091544 3.595860
v 11.994363 -0.769162 3.885727
v 3.994910 -0.411655 4.226362
v 19.994911 -0.363874 3.723090
v 11.994122 0.003479 3.976229
v 3.995044 0.416582 4.230260
v 19.995047 0.372575 3.743641
v 11.994637 0.777398 3.907288
v 3.995697 1.217989 4.031188
v 19.995699 1.105320 3.638704
v 11.995452 1.519017 3.675785
v 3.996289 1.957853 3.673724
v 19.996292 1.802013 3.376028
v 11.995839 2.198152 3.296655
v 3.996291 2.631122 3.207649
v 19.996296 2.415731 2.949764
v 11.995457 2.793955 2.795330
v 3.995705 3.234722 2.649527
v 19.995707 2.915257 2.395259
v 11.994643 3.290858 2.195578
v 3.995049 3.734591 1.990015
v 19.995052 3.301879 1.763142
v 11.994122 3.669669 1.515676
v 3.994907 4.072440 1.233201
v 19.994909 3.589187 1.084739
v 11.994355 3.906228 0.775238
v 3.995405 4.209959 0.417795
v 19.995405 3.768586 0.368413
v 0.997462 4.346991 0.005326
v 22.997463 3.797993 -0.002630
v 0.997793 4.206068 -0.832403
v 22.997797 3.757995 -0.746439
v 0.997753 3.953898 -1.638528
v 22.997755 3.523273 -1.455278
v 0.997378 3.598170 -2.410169
v 22.997379 3.125598 -2.084652
v 0.997001 3.104315 -3.111078
v 22.997002 2.626948 -2.627342
v 0.996956 2.452757 -3.671471
v 22.996960 2.066059 -3.098332
v 0.997284 1.677882 -4.039343
v 22.997288 1.441437 -3.489306
v 0.997693 0.845476 -4.223705
v 22.997696 0.745462 -3.750291
v 0.997818 0.001438 -4.275045
v 22.997824 0.003022 -3.826068
v 0.997549 -0.843518 -4.222030
v 22.997553 -0.733730 -3.708505
v 0.997126 -1.678045 -4.036858
v 22.997129 -1.425182 -3.444013
v 0.996923 -2.454835 -3.669517
v 22.996925 -2.065348 -3.086602
v 0.997122 -3.106957 -3.110848
v 22.997124 -2.655980 -2.650329
v 0.997547 -3.599840 -2.411956
v 22.997549 -3.167381 -2.113983
v 0.997819 -3.953744 -1.641339
v 22.997822 -3.539540 -1.468058
v 0.997697 -4.204273 -0.834482
v 22.997696 -3.728654 -0.745725
v 0.997290 -4.344566 0.005329
v 22.997293 -3.745961 -0.002626
v 0.996960 -4.318497 0.863237
v 22.996962 -3.641019 0.725316
v 0.996999 -4.076056 1.687586
v 22.997000 -3.446434 1.431669
v 0.997374 -3.628590 2.418602
v 22.997375 -3.146966 2.106546
v 0.997752 -3.041554 3.034790
v 22.997755 -2.707443 2.707050
v 0.997795 -2.376019 3.555298
v 22.997799 -2.125141 3.174241
v 0.997467 -1.648228 3.990603
v 22.997469 -1.445504 3.480394
v 0.997059 -0.850164 4.300856
v 22.997063 -0.726291 3.648718
v 0.996933 0.001434 4.416521
v 22.996935 0.003021 3.717896
v 0.997202 0.852121 4.302514
v 22.997204 0.738025 3.690488
v 0.997626 1.648075 3.993097
v 22.997629 1.461770 3.525696
v 0.997829 2.373939 3.557260
v 22.997833 2.125854 3.185977
v 0.997629 3.038899 3.035007
v 22.997631 2.678399 2.684047
v 0.997206 3.626930 2.416814
v 22.997206 3.105193 2.077212
v 0.996934 4.076219 1.684785
v 22.996939 3.430180 1.418895
v 0.997055 4.320276 0.861157
v 22.997055 3.670344 0.726026
v 11.999805 4.137992 -0.406531
v 11.999820 3.964942 -1.201637
v 11.999799 3.646165 -1.948729
v 11.999763 3.199231 -2.626684
v 11.999744 2.634301 -3.211712
v 11.999757 1.962940 -3.673230
v 11.999793 1.208997 -3.983072
v 11.999817 0.407850 -4.128902
v 11.999811 -0.404828 -4.116425
v 11.999777 -1.201016 -3.957446
v 11.999748 -1.956254 -3.657405
v 11.999748 -2.640763 -3.216536
v 11.999779 -3.219553 -2.642602
v 11.999810 -3.663946 -1.959689
v 11.999818 -3.961828 -1.202796
v 11.999792 -4.114228 -0.405149
v 11.999758 -4.121850 0.406992
v 11.999745 -3.977478 1.207670
v 11.999763 -3.673610 1.963772
v 11.999801 -3.216606 2.638657
v 11.999820 -2.631042 3.204125
v 11.999807 -1.949562 3.646545
v 11.999772 -1.200310 3.959347
v 11.999747 -0.405674 4.130938
v 11.999753 0.408695 4.143416
v 11.999786 1.208291 3.984973
v 11.999815 1.956248 3.662371
v 11.999817 2.624578 3.199301
v 11.999786 3.196284 2.622739
v 11.999754 3.655830 1.952814
v 11.999746 3.980592 1.206511
v 11.999771 4.145611 0.408375
v 11.995517 3.957125 -0.386206
v 11.995831 3.791373 -1.146234
v 11.995382 3.485598 -1.862429
v 11.994569 3.057016 -2.512774
v 11.994112 2.516658 -3.072813
v 11.994420 1.876338 -3.513279
v 11.995218 1.157847 -3.808470
v 11.995797 0.392897 -3.947394
v 11.995641 -0.385478 -3.935183
v 11.994891 -1.149311 -3.782672
v 11.994212 -1.872964 -3.495467
v 11.994207 -2.526864 -3.074676
v 11.994883 -3.078495 -2.527759
v 11.995637 -3.502123 -1.876303
v 11.995800 -3.786783 -1.152140
v 11.995226 -3.932834 -0.387130
v 11.994428 -3.940321 0.391630
v 11.994112 -3.802583 1.157362
v 11.994561 -3.513004 1.878405
v 11.995378 -3.077321 2.521555
v 11.995831 -2.517678 3.061537
v 11.995522 -1.864494 3.485327
v 11.994726 -1.145742 3.785470
v 11.994147 -0.384937 3.950061
v 11.994303 0.392350 3.962245
v 11.995052 1.154291 3.811257
v 11.995733 1.867883 3.503166
v 11.995736 2.507455 3.059665
v 11.995061 3.055837 2.506549
v 11.994308 3.496509 1.864541
v 11.994143 3.807164 1.151464
v 11.994716 3.964586 0.390693
v 0.997660 4.293388 -0.417300
v 22.997662 3.801729 -0.375437
v 0.997825 4.092217 -1.239303
v 22.997826 3.664097 -1.108567
v 0.997590 3.790787 -2.030018
v 22.997591 3.340976 -1.781140
v 0.997165 3.370625 -2.773564
v 22.997166 2.885621 -2.365894
v 0.996927 2.797185 -3.413061
v 22.996929 2.353775 -2.871465
v 0.997087 2.076723 -3.880208
v 22.997089 1.762555 -3.306301
v 0.997503 1.265234 -4.151546
v 22.997505 1.101609 -3.639996
v 0.997806 0.423769 -4.263186
v 22.997808 0.376978 -3.813111
v 0.997724 -0.421138 -4.262290
v 22.997728 -0.369168 -3.789318
v 0.997333 -1.264268 -4.149317
v 22.997334 -1.086058 -3.590800
v 0.996979 -2.077956 -3.877816
v 22.996981 -1.751263 -3.275057
v 0.996976 -2.799746 -3.411863
v 22.996977 -2.367881 -2.879349
v 0.997329 -3.372945 -2.774386
v 22.997334 -2.925103 -2.395975
v 0.997723 -3.791589 -2.032508
v 22.997723 -3.374480 -1.803483
v 0.997808 -4.091160 -1.241968
v 22.997810 -3.657451 -1.112968
v 0.997509 -4.291123 -0.418433
v 22.997509 -3.755939 -0.373846
v 0.997092 -4.356291 0.434621
v 22.997091 -3.705878 0.364001
v 0.996928 -4.225062 1.283712
v 22.996929 -3.554999 1.081320
v 0.997162 -3.874447 2.067136
v 22.997162 -3.312167 1.775042
v 0.997588 -3.348015 2.740285
v 22.997587 -2.945913 2.419927
v 0.997825 -2.716670 3.305585
v 22.997826 -2.432050 2.960077
v 0.997664 -2.020432 3.785028
v 22.997667 -1.793624 3.346845
v 0.997248 -1.257779 4.165724
v 22.997250 -1.088273 3.579093
v 0.996946 -0.428153 4.386497
v 22.996946 -0.362457 3.694501
v 0.997027 0.430778 4.387380
v 22.997030 0.370266 3.718280
v 0.997419 1.258750 4.167948
v 22.997421 1.103831 3.628283
v 0.997774 2.019205 3.787435
v 22.997776 1.804926 3.378102
v 0.997775 2.714097 3.306780
v 22.997778 2.417936 2.952187
v 0.997423 3.345692 2.739453
v 22.997423 2.906429 2.389835
v 0.997030 3.873660 2.064652
v 22.997030 3.278679 1.752703
v 0.996944 4.226115 1.281054
v 22.996944 3.561642 1.076921
v 0.997243 4.358543 0.433483
v 22.997244 3.751655 0.365584
vn 0.0205 0.9961 -0.0860
vn 0.0268 0.9989 -0.0377
vn 0.0246 0.9887 -0.1481
vn 0.0184 0.9836 -0.1797
vn 0.0174 0.9644 -0.2638
vn 0.0236 0.9661 -0.2572
vn 0.0239 0.9330 -0.3592
vn 0.0177 0.9396 -0.3418
vn 0.0192 0.9094 -0.4155
vn 0.0254 0.8914 -0.4525
vn 0.0278 0.8442 -0.5353
vn 0.0216 0.8714 -0.4901
vn 0.0243 0.8239 -0.5662
vn 0.0305 0.7930 -0.6084
vn 0.0329 0.7379 -0.6741
vn 0.0267 0.7643 -0.6443
vn 0.0282 0.6909 -0.7224
vn 0.0344 0.6784 -0.7338
vn 0.0347 0.6119 -0.7902
vn 0.0285 0.6053 -0.7955
vn 0.0274 0.5086 -0.8606
vn 0.0336 0.5369 -0.8430
vn 0.0315 0.4516 -0.8916
vn 0.0253 0.4074 -0.9129
vn 0.0226 0.3049 -0.9521
vn 0.0289 0.3557 -0.9341
vn 0.0263 0.2519 -0.9674
vn 0.0200 0.2070 -0.9781
vn 0.0181 0.1155 -0.9931
vn 0.0243 0.1421 -0.9896
vn 0.0236 0.0325 -0.9992
vn 0.0173 0.0301 -0.9994
vn 0.0179 -0.0502 -0.9986
vn 0.0241 -0.0744 -0.9969
vn 0.0258 -0.1741 -0.9844
vn 0.0196 -0.1308 -0.9912
vn 0.0221 -0.2135 -0.9767
vn 0.0283 -0.2658 -0.9636
vn 0.0310 -0.3501 -0.9362
vn 0.0248 -0.3020 -0.9530
vn 0.0271 -0.3960 -0.9179
vn 0.0333 -0.4281 -0.9031
vn 0.0346 -0.5034 -0.8634
vn 0.0284 -0.4926 -0.8698
vn 0.0284 -0.5889 -0.8077
vn 0.0346 -0.5770 -0.8160
vn 0.0333 -0.6504 -0.7588
vn 0.0271 -0.6780 -0.7346
vn 0.0248 -0.7575 -0.6524
vn 0.0310 -0.7229 -0.6903
vn 0.0283 -0.7916 -0.6103
vn 0.0221 -0.8232 -0.5673
vn 0.0196 -0.8758 -0.4823
vn 0.0258 -0.8542 -0.5193
vn 0.0241 -0.9066 -0.4213
vn 0.0179 -0.9161 -0.4005
vn 0.0174 -0.9464 -0.3224
vn 0.0236 -0.9475 -0.3188
vn 0.0243 -0.9758 -0.2174
vn 0.0181 -0.9694 -0.2449
vn 0.0200 -0.9859 -0.1661
vn 0.0263 -0.9925 -0.1194
vn 0.0289 -0.9992 -0.0267
vn 0.0226 -0.9965 -0.0809
vn 0.0253 -0.9996 0.0122
vn 0.0315 -0.9977 0.0606
vn 0.0336 -0.9888 0.1452
vn 0.0274 -0.9931 0.1136
vn 0.0285 -0.9746 0.2221
vn 0.0347 -0.9729 0.2285
vn 0.0344 -0.9488 0.3140
vn 0.0282 -0.9429 0.3318
vn 0.0267 -0.8980 0.4392
vn 0.0329 -0.9150 0.4020
vn 0.0305 -0.8700 0.4921
vn 0.0243 -0.8431 0.5372
vn 0.0216 -0.7810 0.6241
vn 0.0278 -0.8124 0.5824
vn 0.0254 -0.7434 0.6683
vn 0.0192 -0.7163 0.6976
vn 0.0177 -0.6512 0.7587
vn 0.0239 -0.6640 0.7473
vn 0.0236 -0.5788 0.8151
vn 0.0174 -0.5857 0.8104
vn 0.0184 -0.5193 0.8544
vn 0.0246 -0.4904 0.8711
vn 0.0268 -0.4028 0.9149
vn 0.0205 -0.4475 0.8940
vn 0.0232 -0.3684 0.9294
vn 0.0294 -0.3175 0.9478
vn 0.0320 -0.2338 0.9718
vn 0.0258 -0.2786 0.9601
vn 0.0277 -0.1775 0.9837
vn 0.0339 -0.1512 0.9879
vn 0.0347 -0.0658 0.9972
vn 0.0285 -0.0679 0.9973
vn 0.0280 0.0480 0.9985
vn 0.0342 0.0236 0.9991
vn 0.0325 0.1190 0.9924
vn 0.0263 0.1623 0.9864
vn 0.0237 0.2720 0.9620
vn 0.0300 0.2199 0.9751
vn 0.0273 0.3233 0.9459
vn 0.0210 0.3710 0.9284
vn 0.0188 0.4586 0.8885
vn 0.0250 0.4267 0.9041
vn 0.0237 0.5241 0.8513
vn 0.0175 0.5351 0.8446
vn 0.0175 0.6023 0.7981
vn 0.0237 0.6136 0.7893
vn 0.0250 0.6915 0.7220
vn 0.0188 0.6646 0.7470
vn 0.0210 0.7235 0.6900
vn 0.0273 0.7580 0.6517
vn 0.0300 0.8138 0.5803
vn 0.0237 0.7817 0.6232
vn 0.0262 0.8382 0.5448
vn 0.0325 0.8605 0.5084
vn 0.0342 0.9005 0.4335
vn 0.0280 0.8906 0.4539
vn 0.0285 0.9360 0.3509
vn 0.0347 0.9344 0.3546
vn 0.0339 0.9627 0.2683
vn 0.0277 0.9701 0.2410
vn 0.0258 0.9915 0.1273
vn 0.0320 0.9843 0.1737
vn 0.0294 0.9970 0.0714
vn 0.0232 0.9996 0.0174
vn -0.0267 -0.9958 0.0872
vn -0.0246 -0.9833 0.1805
vn -0.0184 -0.9889 0.1478
vn -0.0206 -0.9991 0.0369
vn -0.0236 -0.9642 0.2642
vn -0.0239 -0.9395 0.3416
vn -0.0177 -0.9329 0.3598
vn -0.0174 -0.9661 0.2574
vn -0.0254 -0.9095 0.4149
vn -0.0278 -0.8717 0.4892
vn -0.0216 -0.8438 0.5362
vn -0.0192 -0.8911 0.4533
vn -0.0305 -0.8244 0.5652
vn -0.0329 -0.7648 0.6435
vn -0.0267 -0.7377 0.6746
vn -0.0243 -0.7927 0.6092
vn -0.0344 -0.6912 0.7218
vn -0.0347 -0.6053 0.7953
vn -0.0285 -0.6124 0.7900
vn -0.0282 -0.6786 0.7340
vn -0.0336 -0.5081 0.8606
vn -0.0315 -0.4064 0.9131
vn -0.0253 -0.4527 0.8913
vn -0.0274 -0.5378 0.8426
vn -0.0288 -0.3037 0.9523
vn -0.0262 -0.2058 0.9782
vn -0.0201 -0.2527 0.9673
vn -0.0227 -0.3568 0.9339
vn -0.0243 -0.1147 0.9931
vn -0.0236 -0.0298 0.9993
vn -0.0174 -0.0322 0.9993
vn -0.0181 -0.1424 0.9896
vn -0.0241 0.0500 0.9985
vn -0.0258 0.1301 0.9912
vn -0.0196 0.1750 0.9844
vn -0.0179 0.0751 0.9970
vn -0.0283 0.2126 0.9767
vn -0.0310 0.3010 0.9531
vn -0.0248 0.3509 0.9361
vn -0.0221 0.2668 0.9635
vn -0.0333 0.3951 0.9180
vn -0.0346 0.4920 0.8699
vn -0.0284 0.5034 0.8636
vn -0.0271 0.4286 0.9031
vn -0.0346 0.5887 0.8076
vn -0.0333 0.6783 0.7340
vn -0.0271 0.6498 0.7596
vn -0.0284 0.5766 0.8166
vn -0.0310 0.7580 0.6515
vn -0.0283 0.8238 0.5661
vn -0.0221 0.7911 0.6112
vn -0.0248 0.7222 0.6912
vn -0.0258 0.8762 0.4813
vn -0.0241 0.9163 0.3997
vn -0.0179 0.9067 0.4215
vn -0.0196 0.8540 0.5199
vn -0.0236 0.9464 0.3222
vn -0.0243 0.9692 0.2452
vn -0.0181 0.9761 0.2167
vn -0.0173 0.9478 0.3184
vn -0.0263 0.9856 0.1669
vn -0.0288 0.9962 0.0819
vn -0.0227 0.9994 0.0258
vn -0.0201 0.9928 0.1184
vn -0.0315 0.9994 -0.0111
vn -0.0336 0.9931 -0.1127
vn -0.0274 0.9890 -0.1455
vn -0.0253 0.9978 -0.0613
vn -0.0347 0.9745 -0.2217
vn -0.0344 0.9427 -0.3318
vn -0.0282 0.9492 -0.3134
vn -0.0285 0.9732 -0.2283
vn -0.0329 0.8975 -0.4398
vn -0.0305 0.8423 -0.5381
vn -0.0243 0.8707 -0.4912
vn -0.0267 0.9156 -0.4011
vn -0.0277 0.7801 -0.6250
vn -0.0254 0.7154 -0.6982
vn -0.0192 0.7439 -0.6680
vn -0.0216 0.8131 -0.5818
vn -0.0239 0.6506 -0.7590
vn -0.0236 0.5855 -0.8103
vn -0.0174 0.5786 -0.8155
vn -0.0177 0.6641 -0.7474
vn -0.0246 0.5196 -0.8541
vn -0.0267 0.4482 -0.8935
vn -0.0206 0.4020 -0.9154
vn -0.0184 0.4898 -0.8716
vn -0.0294 0.3693 -0.9288
vn -0.0320 0.2795 -0.9596
vn -0.0258 0.2332 -0.9721
vn -0.0232 0.3166 -0.9483
vn -0.0339 0.1782 -0.9834
vn -0.0347 0.0682 -0.9971
vn -0.0285 0.0661 -0.9974
vn -0.0277 0.1510 -0.9881
vn -0.0342 -0.0482 -0.9983
vn -0.0325 -0.1631 -0.9861
vn -0.0263 -0.1180 -0.9927
vn -0.0280 -0.0229 -0.9993
vn -0.0299 -0.2730 -0.9615
vn -0.0272 -0.3721 -0.9278
vn -0.0211 -0.3225 -0.9463
vn -0.0238 -0.2189 -0.9755
vn -0.0250 -0.4594 -0.8879
vn -0.0237 -0.5355 -0.8442
vn -0.0175 -0.5243 -0.8514
vn -0.0188 -0.4263 -0.9044
vn -0.0237 -0.6022 -0.7980
vn -0.0250 -0.6641 -0.7472
vn -0.0188 -0.6922 -0.7215
vn -0.0175 -0.6141 -0.7890
vn -0.0272 -0.7228 -0.6906
vn -0.0299 -0.7809 -0.6240
vn -0.0238 -0.8145 -0.5797
vn -0.0211 -0.7587 -0.6511
vn -0.0324 -0.8375 -0.5455
vn -0.0342 -0.8901 -0.4545
vn -0.0280 -0.9007 -0.4335
vn -0.0263 -0.8610 -0.5080
vn -0.0347 -0.9357 -0.3510
vn -0.0339 -0.9700 -0.2406
vn -0.0277 -0.9627 -0.2692
vn -0.0285 -0.9344 -0.3551
vn -0.0320 -0.9915 -0.1264
vn -0.0294 -0.9994 -0.0162
vn -0.0232 -0.9971 -0.0724
vn -0.0258 -0.9842 -0.1749
vn 0.0016 0.9931 -0.1172
vn -0.0005 0.9798 -0.2002
vn -0.0435 -0.9787 0.2007
vn -0.0455 -0.9920 0.1181
vn 0.0436 0.9913 -0.1241
vn 0.0456 0.9990 -0.0009
vn -0.0017 -1.0000 -0.0001
vn 0.0005 -0.9923 0.1236
vn -0.0015 0.9634 -0.2682
vn -0.0013 0.9438 -0.3305
vn -0.0428 -0.9430 0.3300
vn -0.0425 -0.9624 0.2682
vn 0.0428 0.9272 -0.3721
vn 0.0425 0.9667 -0.2522
vn 0.0015 -0.9676 0.2524
vn 0.0013 -0.9279 0.3728
vn 0.0002 0.9203 -0.3913
vn 0.0026 0.8878 -0.4603
vn -0.0466 -0.8872 0.4590
vn -0.0443 -0.9196 0.3904
vn 0.0467 0.8215 -0.5683
vn 0.0443 0.8763 -0.4797
vn -0.0002 -0.8768 0.4809
vn -0.0026 -0.8218 0.5698
vn 0.0053 0.8426 -0.5384
vn 0.0077 0.7807 -0.6249
vn -0.0517 -0.7801 0.6235
vn -0.0493 -0.8421 0.5370
vn 0.0518 0.7163 -0.6958
vn 0.0494 0.7675 -0.6392
vn -0.0054 -0.7678 0.6407
vn -0.0078 -0.7168 0.6973
vn 0.0092 0.6989 -0.7151
vn 0.0096 0.6012 -0.7990
vn -0.0536 -0.6004 0.7979
vn -0.0533 -0.6983 0.7139
vn 0.0536 0.6167 -0.7854
vn 0.0533 0.6683 -0.7420
vn -0.0093 -0.6690 0.7432
vn -0.0095 -0.6178 0.7863
vn 0.0085 0.4904 -0.8715
vn 0.0064 0.3786 -0.9255
vn -0.0503 -0.3773 0.9247
vn -0.0525 -0.4893 0.8705
vn 0.0503 0.4846 -0.8733
vn 0.0525 0.5580 -0.8282
vn -0.0085 -0.5595 0.8288
vn -0.0064 -0.4862 0.8738
vn 0.0037 0.2716 -0.9624
vn 0.0011 0.1776 -0.9841
vn -0.0451 -0.1765 0.9833
vn -0.0476 -0.2703 0.9616
vn 0.0451 0.2855 -0.9573
vn 0.0477 0.3936 -0.9180
vn -0.0038 -0.3952 0.9186
vn -0.0012 -0.2867 0.9580
vn -0.0008 0.0981 -0.9952
vn -0.0016 0.0285 -0.9996
vn -0.0425 -0.0284 0.9987
vn -0.0432 -0.0974 0.9943
vn 0.0425 0.0341 -0.9985
vn 0.0433 0.1620 -0.9858
vn 0.0008 -0.1626 0.9867
vn 0.0016 -0.0341 0.9994
vn -0.0011 -0.0345 -0.9994
vn 0.0006 -0.1026 -0.9947
vn -0.0447 0.1019 0.9938
vn -0.0430 0.0341 0.9985
vn 0.0447 -0.2066 -0.9774
vn 0.0430 -0.0927 -0.9948
vn 0.0011 0.0934 0.9956
vn -0.0007 0.2077 0.9782
vn 0.0031 -0.1796 -0.9837
vn 0.0058 -0.2709 -0.9626
vn -0.0498 0.2697 0.9617
vn -0.0471 0.1786 0.9828
vn 0.0499 -0.3860 -0.9211
vn 0.0472 -0.3049 -0.9512
vn -0.0032 0.3063 0.9519
vn -0.0059 0.3874 0.9219
vn 0.0081 -0.3753 -0.9269
vn 0.0094 -0.4857 -0.8741
vn -0.0535 0.4847 0.8730
vn -0.0521 0.3741 0.9259
vn 0.0535 -0.5113 -0.8577
vn 0.0522 -0.4522 -0.8904
vn -0.0082 0.4533 0.8913
vn -0.0094 0.5121 0.8589
vn 0.0094 -0.5965 -0.8026
vn 0.0082 -0.6953 -0.7187
vn -0.0521 0.6948 0.7173
vn -0.0535 0.5957 0.8014
vn 0.0521 -0.6281 -0.7764
vn 0.0534 -0.5672 -0.8218
vn -0.0094 0.5676 0.8232
vn -0.0082 0.6282 0.7780
vn 0.0059 -0.7788 -0.6272
vn 0.0032 -0.8425 -0.5387
vn -0.0471 0.8421 0.5372
vn -0.0498 0.7784 0.6257
vn 0.0472 -0.7655 -0.6416
vn 0.0498 -0.6946 -0.7177
vn -0.0059 0.6946 0.7194
vn -0.0032 0.7656 0.6433
vn 0.0006 -0.8890 -0.4579
vn -0.0011 -0.9222 -0.3868
vn -0.0430 0.9215 0.3859
vn -0.0446 0.8885 0.4566
vn 0.0430 -0.8987 -0.4365
vn 0.0447 -0.8364 -0.5463
vn -0.0007 0.8368 0.5475
vn 0.0010 0.8993 0.4373
vn -0.0016 -0.9458 -0.3248
vn -0.0008 -0.9649 -0.2626
vn -0.0433 0.9639 0.2628
vn -0.0425 0.9450 0.3244
vn 0.0433 -0.9796 -0.1964
vn 0.0425 -0.9479 -0.3157
vn 0.0016 0.9488 0.3158
vn 0.0008 0.9806 0.1960
vn 0.0011 -0.9806 -0.1962
vn 0.0037 -0.9933 -0.1157
vn -0.0477 0.9921 0.1164
vn -0.0451 0.9794 0.1967
vn 0.0477 -0.9988 0.0146
vn 0.0452 -0.9955 -0.0837
vn -0.0011 0.9966 0.0828
vn -0.0037 0.9999 -0.0156
vn 0.0063 -0.9998 -0.0188
vn 0.0084 -0.9956 0.0934
vn -0.0525 0.9943 -0.0926
vn -0.0503 0.9985 0.0197
vn 0.0525 -0.9842 0.1692
vn 0.0504 -0.9940 0.0975
vn -0.0064 0.9951 -0.0985
vn -0.0085 0.9854 -0.1700
vn 0.0095 -0.9759 0.2181
vn 0.0093 -0.9393 0.3431
vn -0.0533 0.9379 -0.3428
vn -0.0536 0.9746 -0.2175
vn 0.0533 -0.9525 0.2998
vn 0.0536 -0.9710 0.2331
vn -0.0095 0.9723 -0.2334
vn -0.0093 0.9540 -0.2997
vn 0.0078 -0.8865 0.4627
vn 0.0054 -0.8247 0.5656
vn -0.0493 0.8231 -0.5657
vn -0.0517 0.8850 -0.4628
vn 0.0493 -0.8885 0.4563
vn 0.0517 -0.9266 0.3726
vn -0.0078 0.9282 -0.3721
vn -0.0054 0.8901 -0.4558
vn 0.0026 -0.7597 0.6503
vn 0.0002 -0.6981 0.7160
vn -0.0442 0.6968 -0.7159
vn -0.0466 0.7582 -0.6503
vn 0.0443 -0.7628 0.6452
vn 0.0466 -0.8343 0.5493
vn -0.0027 0.8358 -0.5490
vn -0.0003 0.7640 -0.6452
vn -0.0013 -0.6427 0.7661
vn -0.0015 -0.5901 0.8074
vn -0.0426 0.5895 -0.8066
vn -0.0428 0.6418 -0.7657
vn 0.0425 -0.5733 0.8182
vn 0.0428 -0.6732 0.7383
vn 0.0013 0.6739 -0.7388
vn 0.0016 0.5736 -0.8191
vn -0.0005 -0.5377 0.8431
vn 0.0016 -0.4758 0.8795
vn -0.0456 0.4760 -0.8783
vn -0.0436 0.5376 -0.8421
vn 0.0456 -0.3681 0.9286
vn 0.0436 -0.4680 0.8826
vn 0.0005 0.4678 -0.8838
vn -0.0016 0.3676 -0.9300
vn 0.0042 -0.4006 0.9163
vn 0.0068 -0.3070 0.9517
vn -0.0508 0.3074 -0.9502
vn -0.0482 0.4009 -0.9148
vn 0.0509 -0.1990 0.9787
vn 0.0483 -0.2778 0.9594
vn -0.0043 0.2772 -0.9608
vn -0.0069 0.1984 -0.9801
vn 0.0088 -0.1943 0.9809
vn 0.0096 -0.0693 0.9976
vn -0.0536 0.0694 -0.9961
vn -0.0528 0.1946 -0.9795
vn 0.0536 -0.0642 0.9965
vn 0.0528 -0.1308 0.9900
vn -0.0088 0.1305 -0.9914
vn -0.0096 0.0644 -0.9979
vn 0.0091 0.0635 0.9979
vn 0.0073 0.1899 0.9818
vn -0.0513 -0.1904 -0.9804
vn -0.0531 -0.0638 -0.9966
vn 0.0513 0.0854 0.9950
vn 0.0531 0.0047 0.9986
vn -0.0091 -0.0040 -1.0000
vn -0.0074 -0.0844 -0.9964
vn 0.0048 0.3051 0.9523
vn 0.0021 0.4014 0.9159
vn -0.0460 -0.4019 -0.9145
vn -0.0487 -0.3057 -0.9509
vn 0.0461 0.2863 0.9570
vn 0.0488 0.1796 0.9825
vn -0.0049 -0.1786 -0.9839
vn -0.0022 -0.2856 -0.9584
vn -0.0002 0.4791 0.8778
vn -0.0014 0.5423 0.8402
vn -0.0426 -0.5421 -0.8392
vn -0.0438 -0.4793 -0.8766
vn 0.0426 0.5156 0.8558
vn 0.0439 0.4020 0.9146
vn 0.0001 -0.4018 -0.9157
vn 0.0014 -0.5160 -0.8566
vn -0.0014 0.5950 0.8037
vn -0.0002 0.6467 0.7627
vn -0.0439 -0.6457 -0.7623
vn -0.0427 -0.5943 -0.8031
vn 0.0439 0.7108 0.7020
vn 0.0427 0.6218 0.7820
vn 0.0014 -0.6227 -0.7825
vn 0.0002 -0.7121 -0.7021
vn 0.0021 0.7003 0.7138
vn 0.0048 0.7600 0.6500
vn -0.0488 -0.7585 -0.6499
vn -0.0461 -0.6990 -0.7136
vn 0.0488 0.8363 0.5461
vn 0.0461 0.7824 0.6211
vn -0.0021 -0.7838 -0.6210
vn -0.0048 -0.8378 -0.5459
vn 0.0073 0.8232 0.5676
vn 0.0090 0.8842 0.4670
vn -0.0531 -0.8828 -0.4668
vn -0.0513 -0.8217 -0.5676
vn 0.0531 0.9072 0.4174
vn 0.0514 0.8760 0.4795
vn -0.0073 -0.8776 -0.4794
vn -0.0091 -0.9085 -0.4177
vn 0.0096 0.9372 0.3487
vn 0.0088 0.9746 0.2236
vn -0.0528 -0.9734 -0.2229
vn -0.0536 -0.9359 -0.3482
vn 0.0528 0.9558 0.2891
vn 0.0536 0.9324 0.3573
vn -0.0096 -0.9336 -0.3581
vn -0.0088 -0.9569 -0.2903
vn 0.0069 0.9952 0.0973
vn 0.0043 0.9998 -0.0174
vn -0.0482 -0.9987 0.0184
vn -0.0508 -0.9940 -0.0964
vn 0.0482 0.9925 0.1124
vn 0.0508 0.9766 0.2091
vn -0.0069 -0.9776 -0.2105
vn -0.0043 -0.9935 -0.1138
vt 0.708278 0.069752
vt 0.706287 0.249954
vt 0.698549 0.249972
vt 0.699982 0.069772
vt 0.703643 0.430128
vt 0.696561 0.430146
vt 0.688915 0.430165
vt 0.690351 0.249991
vt 0.691332 0.069793
vt 0.681797 0.250010
vt 0.682436 0.069813
vt 0.680803 0.430183
vt 0.672369 0.430202
vt 0.672978 0.250030
vt 0.673332 0.069833
vt 0.663979 0.250050
vt 0.664041 0.069853
vt 0.663761 0.430219
vt 0.655096 0.430237
vt 0.654867 0.250069
vt 0.654584 0.069872
vt 0.645712 0.250089
vt 0.644997 0.069891
vt 0.646475 0.430254
vt 0.637939 0.430271
vt 0.636584 0.250108
vt 0.635382 0.069911
vt 0.627564 0.250127
vt 0.625869 0.069930
vt 0.629519 0.430288
vt 0.621242 0.430306
vt 0.618749 0.250146
vt 0.616627 0.069950
vt 0.610244 0.250163
vt 0.607820 0.069969
vt 0.613147 0.430324
vt 0.605329 0.430341
vt 0.602155 0.250180
vt 0.599564 0.069987
vt 0.594583 0.250196
vt 0.591943 0.070004
vt 0.597903 0.430358
vt 0.591022 0.430373
vt 0.587602 0.250210
vt 0.584950 0.070019
vt 0.002123 0.430005
vt 0.004653 0.249806
vt 0.011336 0.249812
vt 0.009231 0.430010
vt 0.007991 0.069633
vt 0.014169 0.069638
vt 0.021059 0.069643
vt 0.018594 0.249817
vt 0.016773 0.430015
vt 0.026334 0.249822
vt 0.024688 0.430021
vt 0.028535 0.069647
vt 0.036447 0.069652
vt 0.034480 0.249826
vt 0.032978 0.430026
vt 0.042964 0.249829
vt 0.041653 0.430032
vt 0.044646 0.069656
vt 0.053028 0.069659
vt 0.051726 0.249832
vt 0.050697 0.430036
vt 0.060708 0.249834
vt 0.060069 0.430039
vt 0.061515 0.069662
vt 0.070073 0.069663
vt 0.069833 0.249835
vt 0.069651 0.430041
vt 0.079019 0.249835
vt 0.079303 0.430040
vt 0.078679 0.069663
vt 0.087292 0.069661
vt 0.088163 0.249834
vt 0.088861 0.430038
vt 0.097157 0.249831
vt 0.098171 0.430034
vt 0.095855 0.069658
vt 0.104254 0.069654
vt 0.105896 0.249828
vt 0.107137 0.430029
vt 0.114281 0.249824
vt 0.115699 0.430024
vt 0.112357 0.069650
vt 0.120018 0.069645
vt 0.122238 0.249820
vt 0.123856 0.430018
vt 0.129706 0.249815
vt 0.131622 0.430013
vt 0.127101 0.069641
vt 0.133528 0.069636
vt 0.136644 0.249810
vt 0.138992 0.430008
vt 0.143014 0.249804
vt 0.145935 0.430004
vt 0.437721 0.252153
vt 0.431561 0.432249
vt 0.425069 0.432143
vt 0.431189 0.252047
vt 0.418071 0.432029
vt 0.424111 0.251934
vt 0.436562 0.071912
vt 0.429483 0.071797
vt 0.416533 0.251812
vt 0.421784 0.071672
vt 0.410699 0.431910
vt 0.403028 0.431787
vt 0.408500 0.251683
vt 0.413485 0.071538
vt 0.400063 0.251549
vt 0.404638 0.071397
vt 0.395104 0.431660
vt 0.386941 0.431530
vt 0.391296 0.251409
vt 0.395376 0.071250
vt 0.382282 0.251266
vt 0.385855 0.071100
vt 0.378549 0.431398
vt 0.369975 0.431263
vt 0.373127 0.251121
vt 0.376237 0.070948
vt 0.363939 0.250975
vt 0.366668 0.070798
vt 0.361285 0.431126
vt 0.352603 0.430990
vt 0.354822 0.250831
vt 0.357230 0.070649
vt 0.345874 0.250689
vt 0.347979 0.070503
vt 0.344065 0.430855
vt 0.335807 0.430724
vt 0.337168 0.250551
vt 0.338924 0.070360
vt 0.328769 0.250418
vt 0.330079 0.070219
vt 0.327950 0.430599
vt 0.320551 0.430480
vt 0.320734 0.250291
vt 0.321496 0.070081
vt 0.313118 0.250170
vt 0.313256 0.069950
vt 0.313643 0.430370
vt 0.307210 0.430267
vt 0.305990 0.250057
vt 0.305516 0.069826
vt 0.299429 0.249954
vt 0.298448 0.069714
vt 0.301231 0.430172
vt 0.282550 0.749647
vt 0.279154 0.929832
vt 0.272597 0.929858
vt 0.275561 0.749675
vt 0.285181 0.569431
vt 0.277846 0.569461
vt 0.267988 0.749707
vt 0.269768 0.569495
vt 0.265625 0.929888
vt 0.258225 0.929920
vt 0.259906 0.749741
vt 0.261107 0.569533
vt 0.251399 0.749778
vt 0.252034 0.569574
vt 0.250395 0.929955
vt 0.242186 0.929992
vt 0.242575 0.749816
vt 0.242706 0.569616
vt 0.233541 0.749856
vt 0.233260 0.569658
vt 0.233675 0.930030
vt 0.224994 0.930068
vt 0.224398 0.749896
vt 0.223763 0.569700
vt 0.215238 0.749937
vt 0.214258 0.569742
vt 0.216285 0.930107
vt 0.207674 0.930144
vt 0.206136 0.749977
vt 0.204766 0.569783
vt 0.197159 0.750017
vt 0.195314 0.569824
vt 0.199272 0.930180
vt 0.191129 0.930216
vt 0.188376 0.750056
vt 0.185989 0.569864
vt 0.179856 0.750095
vt 0.176901 0.569904
vt 0.183274 0.930250
vt 0.175715 0.930285
vt 0.171688 0.750132
vt 0.168220 0.569943
vt 0.163966 0.750168
vt 0.160123 0.569981
vt 0.168463 0.930318
vt 0.161576 0.930351
vt 0.156793 0.750202
vt 0.152754 0.570017
vt 0.723213 0.069714
vt 0.719980 0.249920
vt 0.713461 0.249936
vt 0.716082 0.069732
vt 0.155139 0.930384
vt 0.150269 0.750234
vt 0.710095 0.430111
vt 0.744760 0.069641
vt 0.752797 0.069649
vt 0.755180 0.249819
vt 0.747798 0.249810
vt 0.761181 0.069654
vt 0.763011 0.249825
vt 0.764386 0.430021
vt 0.757007 0.430015
vt 0.750184 0.430007
vt 0.769809 0.069656
vt 0.771197 0.249827
vt 0.778645 0.069653
vt 0.779648 0.249824
vt 0.780396 0.430020
vt 0.772230 0.430022
vt 0.787669 0.069648
vt 0.788281 0.249817
vt 0.796857 0.069640
vt 0.797022 0.249808
vt 0.797134 0.430005
vt 0.788738 0.430014
vt 0.806171 0.069632
vt 0.805802 0.249798
vt 0.815505 0.069625
vt 0.814544 0.249791
vt 0.813737 0.429991
vt 0.805482 0.429997
vt 0.824730 0.069622
vt 0.823169 0.249787
vt 0.833683 0.069623
vt 0.831584 0.249788
vt 0.829856 0.429988
vt 0.821869 0.429988
vt 0.842202 0.069627
vt 0.839693 0.249793
vt 0.850180 0.069633
vt 0.847400 0.249801
vt 0.845204 0.429999
vt 0.837663 0.429993
vt 0.857543 0.069640
vt 0.854617 0.249809
vt 0.864300 0.069646
vt 0.861275 0.249817
vt 0.859017 0.430013
vt 0.852371 0.430007
vt 0.152473 0.069639
vt 0.159290 0.069645
vt 0.162165 0.249815
vt 0.155851 0.249808
vt 0.166537 0.069648
vt 0.169047 0.249818
vt 0.170902 0.430013
vt 0.164302 0.430010
vt 0.158412 0.430004
vt 0.174156 0.069646
vt 0.176408 0.249815
vt 0.182148 0.069641
vt 0.184172 0.249809
vt 0.185719 0.430005
vt 0.178092 0.430011
vt 0.190523 0.069634
vt 0.192270 0.249801
vt 0.199263 0.069628
vt 0.200638 0.249793
vt 0.201727 0.429991
vt 0.193633 0.429998
vt 0.208328 0.069623
vt 0.209214 0.249787
vt 0.217603 0.069621
vt 0.217924 0.249785
vt 0.218172 0.429984
vt 0.209917 0.429986
vt 0.226950 0.069623
vt 0.226689 0.249787
vt 0.236212 0.069628
vt 0.235415 0.249793
vt 0.234778 0.429992
vt 0.226470 0.429986
vt 0.245242 0.069635
vt 0.244007 0.249802
vt 0.253951 0.069642
vt 0.252368 0.249810
vt 0.251174 0.430006
vt 0.243047 0.429999
vt 0.262283 0.069647
vt 0.260412 0.249816
vt 0.270242 0.069649
vt 0.268070 0.249819
vt 0.266487 0.430014
vt 0.259035 0.430012
vt 0.277841 0.069646
vt 0.275280 0.249816
vt 0.285073 0.069640
vt 0.282001 0.249809
vt 0.279686 0.430005
vt 0.273398 0.430011
vt 0.291905 0.069631
vt 0.288190 0.249799
vt 0.444253 0.070157
vt 0.451123 0.070121
vt 0.454979 0.250278
vt 0.448188 0.250314
vt 0.458166 0.430467
vt 0.451377 0.430502
vt 0.441920 0.250347
vt 0.445076 0.430534
vt 0.458592 0.070085
vt 0.462242 0.250241
vt 0.466641 0.070048
vt 0.469929 0.250205
vt 0.472730 0.430398
vt 0.465309 0.430431
vt 0.475215 0.070014
vt 0.477990 0.250172
vt 0.484185 0.069982
vt 0.486355 0.250143
vt 0.488251 0.430339
vt 0.480380 0.430367
vt 0.493399 0.069953
vt 0.494947 0.250118
vt 0.502704 0.069926
vt 0.503671 0.250094
vt 0.504596 0.430291
vt 0.496335 0.430314
vt 0.511963 0.069899
vt 0.512432 0.250070
vt 0.521099 0.069872
vt 0.521134 0.250045
vt 0.521357 0.430242
vt 0.512976 0.430267
vt 0.530066 0.069841
vt 0.529690 0.250016
vt 0.538853 0.069808
vt 0.538029 0.249984
vt 0.537600 0.430184
vt 0.529610 0.430214
vt 0.547448 0.069771
vt 0.546082 0.249949
vt 0.555795 0.069733
vt 0.553792 0.249912
vt 0.552369 0.430118
vt 0.545207 0.430151
vt 0.563809 0.069696
vt 0.561099 0.249876
vt 0.571335 0.069662
vt 0.567931 0.249844
vt 0.565271 0.430056
vt 0.559053 0.430085
vt 0.578200 0.069633
vt 0.574212 0.249817
vt 0.858451 0.929838
vt 0.851270 0.929833
vt 0.847572 0.749671
vt 0.854315 0.749676
vt 0.844541 0.569474
vt 0.850934 0.569479
vt 0.860479 0.749677
vt 0.856942 0.569480
vt 0.843385 0.929825
vt 0.840289 0.749663
vt 0.834951 0.929815
vt 0.832536 0.749652
vt 0.830588 0.569456
vt 0.837764 0.569467
vt 0.826131 0.929804
vt 0.824390 0.749639
vt 0.817075 0.929794
vt 0.815945 0.749628
vt 0.815060 0.569435
vt 0.823006 0.569445
vt 0.807910 0.929788
vt 0.807300 0.749621
vt 0.798695 0.929785
vt 0.798547 0.749618
vt 0.798423 0.569425
vt 0.806823 0.569427
vt 0.789471 0.929787
vt 0.789774 0.749620
vt 0.780258 0.929794
vt 0.781056 0.749628
vt 0.781673 0.569434
vt 0.789996 0.569427
vt 0.771089 0.929803
vt 0.772466 0.749638
vt 0.762051 0.929813
vt 0.764072 0.749650
vt 0.765715 0.569455
vt 0.773561 0.569444
vt 0.753262 0.929823
vt 0.755950 0.749661
vt 0.744889 0.929830
vt 0.748186 0.749669
vt 0.750911 0.569472
vt 0.758163 0.569465
vt 0.737108 0.929835
vt 0.740870 0.749673
vt 0.730055 0.929836
vt 0.734096 0.749673
vt 0.737383 0.569476
vt 0.743966 0.569476
vt 0.730295 0.069624
vt 0.737201 0.069632
vt 0.740961 0.249799
vt 0.734749 0.249790
vt 0.743977 0.429998
vt 0.727956 0.749671
vt 0.731239 0.569475
vt 0.699883 0.002168
vt 0.708277 0.002145
vt 0.691178 0.002191
vt 0.751266 0.002116
vt 0.759972 0.002119
vt 0.742873 0.002111
vt 0.695178 0.497683
vt 0.687854 0.497703
vt 0.701904 0.497662
vt 0.757056 0.497619
vt 0.750330 0.497614
vt 0.764380 0.497623
vt 0.682268 0.002212
vt 0.673172 0.002231
vt 0.768881 0.002120
vt 0.777977 0.002119
vt 0.680023 0.497721
vt 0.671849 0.497737
vt 0.772210 0.497624
vt 0.780385 0.497622
vt 0.663888 0.002248
vt 0.654416 0.002264
vt 0.787262 0.002115
vt 0.796733 0.002111
vt 0.663502 0.497752
vt 0.655120 0.497766
vt 0.788732 0.497619
vt 0.797113 0.497614
vt 0.644785 0.002280
vt 0.635108 0.002297
vt 0.806364 0.002106
vt 0.816041 0.002102
vt 0.646816 0.497779
vt 0.638623 0.497792
vt 0.805417 0.497609
vt 0.813610 0.497605
vt 0.625534 0.002316
vt 0.616255 0.002336
vt 0.825616 0.002100
vt 0.834894 0.002100
vt 0.630552 0.497808
vt 0.622602 0.497825
vt 0.821681 0.497603
vt 0.829632 0.497603
vt 0.607459 0.002357
vt 0.599261 0.002378
vt 0.843691 0.002102
vt 0.851889 0.002105
vt 0.614784 0.497845
vt 0.607186 0.497865
vt 0.837450 0.497605
vt 0.845048 0.497609
vt 0.591732 0.002398
vt 0.584836 0.002416
vt 0.859419 0.002109
vt 0.866315 0.002112
vt 0.599927 0.497884
vt 0.593184 0.497902
vt 0.852308 0.497613
vt 0.859051 0.497616
vt 0.009276 0.497612
vt 0.002100 0.497609
vt 0.016827 0.497617
vt 0.157367 0.002110
vt 0.164846 0.002112
vt 0.150269 0.002105
vt 0.016066 0.002100
vt 0.022720 0.002104
vt 0.584836 0.430386
vt 0.587140 0.497917
vt 0.865095 0.497618
vt 0.864997 0.430016
vt 0.170847 0.497614
vt 0.164257 0.497612
vt 0.024708 0.497624
vt 0.032949 0.497632
vt 0.172660 0.002112
vt 0.180840 0.002110
vt 0.029998 0.002110
vt 0.037718 0.002117
vt 0.178072 0.497614
vt 0.185751 0.497611
vt 0.041588 0.497641
vt 0.050624 0.497649
vt 0.189427 0.002107
vt 0.198420 0.002103
vt 0.045702 0.002124
vt 0.053829 0.002131
vt 0.193703 0.497607
vt 0.201807 0.497603
vt 0.060022 0.497654
vt 0.069650 0.497656
vt 0.207788 0.002101
vt 0.217400 0.002100
vt 0.062010 0.002135
vt 0.070230 0.002137
vt 0.209973 0.497600
vt 0.218183 0.497599
vt 0.079345 0.497655
vt 0.088925 0.497650
vt 0.227097 0.002101
vt 0.236693 0.002104
vt 0.078487 0.002136
vt 0.086767 0.002132
vt 0.226437 0.497600
vt 0.234721 0.497603
vt 0.098220 0.497643
vt 0.107144 0.497635
vt 0.246020 0.002107
vt 0.254989 0.002111
vt 0.095036 0.002126
vt 0.103179 0.002120
vt 0.243003 0.497608
vt 0.251170 0.497612
vt 0.115651 0.497627
vt 0.123773 0.497620
vt 0.263550 0.002113
vt 0.271733 0.002113
vt 0.111057 0.002113
vt 0.118496 0.002107
vt 0.259083 0.497615
vt 0.266570 0.497615
vt 0.131552 0.497615
vt 0.138994 0.497612
vt 0.279578 0.002111
vt 0.287093 0.002106
vt 0.125334 0.002103
vt 0.131480 0.002100
vt 0.273469 0.497613
vt 0.279686 0.497609
vt 0.146069 0.497610
vt 0.430732 0.004198
vt 0.437721 0.004315
vt 0.441920 0.002633
vt 0.448911 0.002601
vt 0.294248 0.002100
vt 0.421918 0.499633
vt 0.415040 0.499518
vt 0.428312 0.499740
vt 0.451716 0.498107
vt 0.445321 0.498137
vt 0.458595 0.498075
vt 0.423087 0.004072
vt 0.414796 0.003936
vt 0.456556 0.002566
vt 0.464849 0.002531
vt 0.407845 0.499399
vt 0.400417 0.499277
vt 0.465791 0.498043
vt 0.473221 0.498011
vt 0.405913 0.003794
vt 0.396592 0.003647
vt 0.473733 0.002496
vt 0.483056 0.002461
vt 0.392803 0.499155
vt 0.384993 0.499032
vt 0.480835 0.497981
vt 0.488647 0.497952
vt 0.387013 0.003498
vt 0.377356 0.003349
vt 0.492636 0.002429
vt 0.502294 0.002397
vt 0.376967 0.498908
vt 0.368746 0.498782
vt 0.496673 0.497925
vt 0.504896 0.497899
vt 0.367778 0.003202
vt 0.358349 0.003056
vt 0.511873 0.002366
vt 0.521302 0.002335
vt 0.360377 0.498654
vt 0.351987 0.498524
vt 0.513266 0.497872
vt 0.521656 0.497844
vt 0.349107 0.002911
vt 0.340037 0.002767
vt 0.530546 0.002302
vt 0.539616 0.002268
vt 0.343726 0.498395
vt 0.335751 0.498268
vt 0.529919 0.497815
vt 0.537894 0.497785
vt 0.331133 0.002623
vt 0.322446 0.002481
vt 0.548522 0.002232
vt 0.557209 0.002196
vt 0.328205 0.498146
vt 0.321147 0.498030
vt 0.545441 0.497755
vt 0.552500 0.497725
vt 0.314070 0.002344
vt 0.306192 0.002215
vt 0.565587 0.002160
vt 0.573465 0.002128
vt 0.314601 0.497922
vt 0.308521 0.497822
vt 0.559046 0.497696
vt 0.565127 0.497670
vt 0.299021 0.002100
vt 0.277925 0.501845
vt 0.285292 0.501815
vt 0.860865 0.997358
vt 0.853421 0.997353
vt 0.580636 0.002100
vt 0.277005 0.997366
vt 0.270709 0.997391
vt 0.285292 0.929807
vt 0.282971 0.997344
vt 0.850531 0.501865
vt 0.856567 0.501867
vt 0.844169 0.501860
vt 0.269768 0.501881
vt 0.261009 0.501922
vt 0.845200 0.997346
vt 0.836390 0.997339
vt 0.264071 0.997421
vt 0.257047 0.997454
vt 0.837471 0.501853
vt 0.830392 0.501846
vt 0.251848 0.501966
vt 0.242459 0.502012
vt 0.827192 0.997331
vt 0.817779 0.997325
vt 0.249596 0.997491
vt 0.241745 0.997529
vt 0.822895 0.501837
vt 0.815008 0.501830
vt 0.232987 0.502056
vt 0.223481 0.502099
vt 0.808291 0.997320
vt 0.798779 0.997319
vt 0.233557 0.997568
vt 0.225174 0.997606
vt 0.806797 0.501825
vt 0.798404 0.501823
vt 0.213967 0.502140
vt 0.204445 0.502179
vt 0.789265 0.997320
vt 0.779750 0.997324
vt 0.216753 0.997642
vt 0.208443 0.997676
vt 0.789988 0.501825
vt 0.781695 0.501830
vt 0.194929 0.502217
vt 0.185512 0.502255
vt 0.770250 0.997330
vt 0.760860 0.997337
vt 0.200370 0.997707
vt 0.192579 0.997738
vt 0.773651 0.501836
vt 0.765897 0.501844
vt 0.176323 0.502292
vt 0.167561 0.502330
vt 0.751709 0.997344
vt 0.742999 0.997350
vt 0.185086 0.997768
vt 0.177866 0.997800
vt 0.758448 0.501852
vt 0.751278 0.501858
vt 0.159431 0.502368
vt 0.152092 0.502406
vt 0.734935 0.997355
vt 0.727675 0.997358
vt 0.170898 0.997832
vt 0.164223 0.997866
vt 0.744365 0.501862
vt 0.737751 0.501864
vt 0.716212 0.002121
vt 0.723475 0.002100
vt 0.734938 0.002105
vt 0.727675 0.002100
vt 0.707979 0.497643
vt 0.157914 0.997900
vt 0.731510 0.501865
vt 0.744255 0.497608
s 0
usemtl M_PlayerSleeve
f 1/1/1 131/2/1 385/3/1 129/4/1
f 131/2/2 2/5/2 130/6/2 385/3/2
f 385/3/3 130/6/3 4/7/3 132/8/3
f 129/4/4 385/3/4 132/8/4 3/9/4
f 3/9/5 132/8/5 386/10/5 133/11/5
f 132/8/6 4/7/6 134/12/6 386/10/6
f 386/10/7 134/12/7 6/13/7 135/14/7
f 133/11/8 386/10/8 135/14/8 5/15/8
f 5/15/9 135/14/9 387/16/9 136/17/9
f 135/14/10 6/13/10 137/18/10 387/16/10
f 387/16/11 137/18/11 8/19/11 138/20/11
f 136/17/12 387/16/12 138/20/12 7/21/12
f 7/21/13 138/20/13 388/22/13 139/23/13
f 138/20/14 8/19/14 140/24/14 388/22/14
f 388/22/15 140/24/15 10/25/15 141/26/15
f 139/23/16 388/22/16 141/26/16 9/27/16
f 9/27/17 141/26/17 389/28/17 142/29/17
f 141/26/18 10/25/18 143/30/18 389/28/18
f 389/28/19 143/30/19 12/31/19 144/32/19
f 142/29/20 389/28/20 144/32/20 11/33/20
f 11/33/21 144/32/21 390/34/21 145/35/21
f 144/32/22 12/31/22 146/36/22 390/34/22
f 390/34/23 146/36/23 14/37/23 147/38/23
f 145/35/24 390/34/24 147/38/24 13/39/24
f 13/39/25 147/38/25 391/40/25 148/41/25
f 147/38/26 14/37/26 149/42/26 391/40/26
f 391/40/27 149/42/27 16/43/27 150/44/27
f 148/41/28 391/40/28 150/44/28 15/45/28
f 15/46/29 150/47/29 392/48/29 151/49/29
f 150/47/30 16/50/30 152/51/30 392/48/30
f 392/48/31 152/51/31 18/52/31 153/53/31
f 151/49/32 392/48/32 153/53/32 17/54/32
f 17/54/33 153/53/33 393/55/33 154/56/33
f 153/53/34 18/52/34 155/57/34 393/55/34
f 393/55/35 155/57/35 20/58/35 156/59/35
f 154/56/36 393/55/36 156/59/36 19/60/36
f 19/60/37 156/59/37 394/61/37 157/62/37
f 156/59/38 20/58/38 158/63/38 394/61/38
f 394/61/39 158/63/39 22/64/39 159/65/39
f 157/62/40 394/61/40 159/65/40 21/66/40
f 21/66/41 159/65/41 395/67/41 160/68/41
f 159/65/42 22/64/42 161/69/42 395/67/42
f 395/67/43 161/69/43 24/70/43 162/71/43
f 160/68/44 395/67/44 162/71/44 23/72/44
f 23/72/45 162/71/45 396/73/45 163/74/45
f 162/71/46 24/70/46 164/75/46 396/73/46
f 396/73/47 164/75/47 26/76/47 165/77/47
f 163/74/48 396/73/48 165/77/48 25/78/48
f 25/78/49 165/77/49 397/79/49 166/80/49
f 165/77/50 26/76/50 167/81/50 397/79/50
f 397/79/51 167/81/51 28/82/51 168/83/51
f 166/80/52 397/79/52 168/83/52 27/84/52
f 27/84/53 168/83/53 398/85/53 169/86/53
f 168/83/54 28/82/54 170/87/54 398/85/54
f 398/85/55 170/87/55 30/88/55 171/89/55
f 169/86/56 398/85/56 171/89/56 29/90/56
f 29/90/57 171/89/57 399/91/57 172/92/57
f 171/89/58 30/88/58 173/93/58 399/91/58
f 399/91/59 173/93/59 32/94/59 174/95/59
f 172/92/60 399/91/60 174/95/60 31/96/60
f 31/96/61 174/95/61 400/97/61 175/98/61
f 174/99/62 32/100/62 176/101/62 400/102/62
f 400/102/63 176/101/63 34/103/63 177/104/63
f 175/105/64 400/102/64 177/104/64 33/106/64
f 33/106/65 177/104/65 401/107/65 178/108/65
f 177/104/66 34/103/66 179/109/66 401/107/66
f 401/107/67 179/109/67 36/110/67 180/111/67
f 178/108/68 401/107/68 180/111/68 35/112/68
f 35/112/69 180/111/69 402/113/69 181/114/69
f 180/111/70 36/110/70 182/115/70 402/113/70
f 402/113/71 182/115/71 38/116/71 183/117/71
f 181/114/72 402/113/72 183/117/72 37/118/72
f 37/118/73 183/117/73 403/119/73 184/120/73
f 183/117/74 38/116/74 185/121/74 403/119/74
f 403/119/75 185/121/75 40/122/75 186/123/75
f 184/120/76 403/119/76 186/123/76 39/124/76
f 39/124/77 186/123/77 404/125/77 187/126/77
f 186/123/78 40/122/78 188/127/78 404/125/78
f 404/125/79 188/127/79 42/128/79 189/129/79
f 187/126/80 404/125/80 189/129/80 41/130/80
f 41/130/81 189/129/81 405/131/81 190/132/81
f 189/129/82 42/128/82 191/133/82 405/131/82
f 405/131/83 191/133/83 44/134/83 192/135/83
f 190/132/84 405/131/84 192/135/84 43/136/84
f 43/136/85 192/135/85 406/137/85 193/138/85
f 192/135/86 44/134/86 194/139/86 406/137/86
f 406/137/87 194/139/87 46/140/87 195/141/87
f 193/138/88 406/137/88 195/141/88 45/142/88
f 45/142/89 195/141/89 407/143/89 196/144/89
f 195/141/90 46/140/90 197/145/90 407/143/90
f 407/143/91 197/145/91 48/146/91 198/147/91
f 196/144/92 407/143/92 198/147/92 47/148/92
f 47/148/93 198/147/93 408/149/93 199/150/93
f 198/147/94 48/146/94 200/151/94 408/149/94
f 408/152/95 200/153/95 50/154/95 201/155/95
f 199/156/96 408/152/96 201/155/96 49/157/96
f 49/157/97 201/155/97 409/158/97 202/159/97
f 201/155/98 50/154/98 203/160/98 409/158/98
f 409/158/99 203/160/99 52/161/99 204/162/99
f 202/159/100 409/158/100 204/162/100 51/163/100
f 51/163/101 204/162/101 410/164/101 205/165/101
f 204/162/102 52/161/102 206/166/102 410/164/102
f 410/164/103 206/166/103 54/167/103 207/168/103
f 205/165/104 410/164/104 207/168/104 53/169/104
f 53/169/105 207/168/105 411/170/105 208/171/105
f 207/168/106 54/167/106 209/172/106 411/170/106
f 411/170/107 209/172/107 56/173/107 210/174/107
f 208/171/108 411/170/108 210/174/108 55/175/108
f 55/175/109 210/174/109 412/176/109 211/177/109
f 210/174/110 56/173/110 212/178/110 412/176/110
f 412/176/111 212/178/111 58/179/111 213/180/111
f 211/177/112 412/176/112 213/180/112 57/181/112
f 57/181/113 213/180/113 413/182/113 214/183/113
f 213/180/114 58/179/114 215/184/114 413/182/114
f 413/182/115 215/184/115 60/185/115 216/186/115
f 214/183/116 413/182/116 216/186/116 59/187/116
f 59/187/117 216/186/117 414/188/117 217/189/117
f 216/186/118 60/185/118 218/190/118 414/188/118
f 414/188/119 218/190/119 62/191/119 219/192/119
f 217/189/120 414/188/120 219/192/120 61/193/120
f 61/193/121 219/192/121 415/194/121 220/195/121
f 219/192/122 62/191/122 221/196/122 415/194/122
f 415/194/123 221/196/123 64/197/123 222/198/123
f 220/195/124 415/194/124 222/198/124 63/199/124
f 63/200/125 222/201/125 416/202/125 223/203/125
f 222/198/126 64/197/126 224/204/126 416/205/126
f 416/202/127 224/206/127 2/5/127 131/2/127
f 223/203/128 416/202/128 131/2/128 1/1/128
f 65/207/129 225/208/129 417/209/129 227/210/129
f 225/208/130 67/211/130 228/212/130 417/209/130
f 417/209/131 228/212/131 68/213/131 226/214/131
f 227/210/132 417/209/132 226/214/132 66/215/132
f 67/211/133 229/216/133 418/217/133 228/212/133
f 229/216/134 69/218/134 231/219/134 418/217/134
f 418/217/135 231/219/135 70/220/135 230/221/135
f 228/212/136 418/217/136 230/221/136 68/213/136
f 69/218/137 232/222/137 419/223/137 231/219/137
f 232/222/138 71/224/138 234/225/138 419/223/138
f 419/223/139 234/225/139 72/226/139 233/227/139
f 231/219/140 419/223/140 233/227/140 70/220/140
f 71/224/141 235/228/141 420/229/141 234/225/141
f 235/228/142 73/230/142 237/231/142 420/229/142
f 420/229/143 237/231/143 74/232/143 236/233/143
f 234/225/144 420/229/144 236/233/144 72/226/144
f 73/230/145 238/234/145 421/235/145 237/231/145
f 238/234/146 75/236/146 240/237/146 421/235/146
f 421/235/147 240/237/147 76/238/147 239/239/147
f 237/231/148 421/235/148 239/239/148 74/232/148
f 75/236/149 241/240/149 422/241/149 240/237/149
f 241/240/150 77/242/150 243/243/150 422/241/150
f 422/241/151 243/243/151 78/244/151 242/245/151
f 240/237/152 422/241/152 242/245/152 76/238/152
f 77/242/153 244/246/153 423/247/153 243/243/153
f 244/246/154 79/248/154 246/249/154 423/247/154
f 423/247/155 246/249/155 80/250/155 245/251/155
f 243/243/156 423/247/156 245/251/156 78/244/156
f 79/252/157 247/253/157 424/254/157 246/255/157
f 247/253/158 81/256/158 249/257/158 424/254/158
f 424/254/159 249/257/159 82/258/159 248/259/159
f 246/255/160 424/254/160 248/259/160 80/260/160
f 81/256/161 250/261/161 425/262/161 249/257/161
f 250/261/162 83/263/162 252/264/162 425/262/162
f 425/262/163 252/264/163 84/265/163 251/266/163
f 249/257/164 425/262/164 251/266/164 82/258/164
f 83/263/165 253/267/165 426/268/165 252/264/165
f 253/267/166 85/269/166 255/270/166 426/268/166
f 426/268/167 255/270/167 86/271/167 254/272/167
f 252/264/168 426/268/168 254/272/168 84/265/168
f 85/269/169 256/273/169 427/274/169 255/270/169
f 256/273/170 87/275/170 258/276/170 427/274/170
f 427/274/171 258/276/171 88/277/171 257/278/171
f 255/270/172 427/274/172 257/278/172 86/271/172
f 87/275/173 259/279/173 428/280/173 258/276/173
f 259/279/174 89/281/174 261/282/174 428/280/174
f 428/280/175 261/282/175 90/283/175 260/284/175
f 258/276/176 428/280/176 260/284/176 88/277/176
f 89/281/177 262/285/177 429/286/177 261/282/177
f 262/285/178 91/287/178 264/288/178 429/286/178
f 429/286/179 264/288/179 92/289/179 263/290/179
f 261/282/180 429/286/180 263/290/180 90/283/180
f 91/287/181 265/291/181 430/292/181 264/288/181
f 265/291/182 93/293/182 267/294/182 430/292/182
f 430/292/183 267/294/183 94/295/183 266/296/183
f 264/288/184 430/292/184 266/296/184 92/289/184
f 93/293/185 268/297/185 431/298/185 267/294/185
f 268/297/186 95/299/186 270/300/186 431/298/186
f 431/298/187 270/300/187 96/301/187 269/302/187
f 267/294/188 431/298/188 269/302/188 94/295/188
f 95/299/189 271/303/189 432/304/189 270/300/189
f 271/305/190 97/306/190 273/307/190 432/308/190
f 432/308/191 273/307/191 98/309/191 272/310/191
f 270/311/192 432/308/192 272/310/192 96/312/192
f 97/306/193 274/313/193 433/314/193 273/307/193
f 274/313/194 99/315/194 276/316/194 433/314/194
f 433/314/195 276/316/195 100/317/195 275/318/195
f 273/307/196 433/314/196 275/318/196 98/309/196
f 99/315/197 277/319/197 434/320/197 276/316/197
f 277/319/198 101/321/198 279/322/198 434/320/198
f 434/320/199 279/322/199 102/323/199 278/324/199
f 276/316/200 434/320/200 278/324/200 100/317/200
f 101/321/201 280/325/201 435/326/201 279/322/201
f 280/325/202 103/327/202 282/328/202 435/326/202
f 435/326/203 282/328/203 104/329/203 281/330/203
f 279/322/204 435/326/204 281/330/204 102/323/204
f 103/327/205 283/331/205 436/332/205 282/328/205
f 283/331/206 105/333/206 285/334/206 436/332/206
f 436/332/207 285/334/207 106/335/207 284/336/207
f 282/328/208 436/332/208 284/336/208 104/329/208
f 105/333/209 286/337/209 437/338/209 285/334/209
f 286/337/210 107/339/210 288/340/210 437/338/210
f 437/338/211 288/340/211 108/341/211 287/342/211
f 285/334/212 437/338/212 287/342/212 106/335/212
f 107/339/213 289/343/213 438/344/213 288/340/213
f 289/343/214 109/345/214 291/346/214 438/344/214
f 438/344/215 291/346/215 110/347/215 290/348/215
f 288/340/216 438/344/216 290/348/216 108/341/216
f 109/345/217 292/349/217 439/350/217 291/346/217
f 292/349/218 111/351/218 294/352/218 439/350/218
f 439/350/219 294/352/219 112/353/219 293/354/219
f 291/346/220 439/350/220 293/354/220 110/347/220
f 111/351/221 295/355/221 440/356/221 294/352/221
f 295/357/222 113/358/222 297/359/222 440/360/222
f 440/360/223 297/359/223 114/361/223 296/362/223
f 294/363/224 440/360/224 296/362/224 112/364/224
f 113/358/225 298/365/225 441/366/225 297/359/225
f 298/365/226 115/367/226 300/368/226 441/366/226
f 441/366/227 300/368/227 116/369/227 299/370/227
f 297/359/228 441/366/228 299/370/228 114/361/228
f 115/367/229 301/371/229 442/372/229 300/368/229
f 301/371/230 117/373/230 303/374/230 442/372/230
f 442/372/231 303/374/231 118/375/231 302/376/231
f 300/368/232 442/372/232 302/376/232 116/369/232
f 117/373/233 304/377/233 443/378/233 303/374/233
f 304/377/234 119/379/234 306/380/234 443/378/234
f 443/378/235 306/380/235 120/381/235 305/382/235
f 303/374/236 443/378/236 305/382/236 118/375/236
f 119/379/237 307/383/237 444/384/237 306/380/237
f 307/383/238 121/385/238 309/386/238 444/384/238
f 444/384/239 309/386/239 122/387/239 308/388/239
f 306/380/240 444/384/240 308/388/240 120/381/240
f 121/385/241 310/389/241 445/390/241 309/386/241
f 310/389/242 123/391/242 312/392/242 445/390/242
f 445/390/243 312/392/243 124/393/243 311/394/243
f 309/386/244 445/390/244 311/394/244 122/387/244
f 123/391/245 313/395/245 446/396/245 312/392/245
f 313/395/246 125/397/246 315/398/246 446/396/246
f 446/396/247 315/398/247 126/399/247 314/400/247
f 312/392/248 446/396/248 314/400/248 124/393/248
f 125/397/249 316/401/249 447/402/249 315/398/249
f 316/401/250 127/403/250 318/404/250 447/402/250
f 447/402/251 318/404/251 128/405/251 317/406/251
f 315/398/252 447/402/252 317/406/252 126/399/252
f 127/407/253 319/408/253 448/409/253 318/410/253
f 319/408/254 65/207/254 227/210/254 448/409/254
f 448/409/255 227/210/255 66/215/255 320/411/255
f 318/404/256 448/412/256 320/413/256 128/405/256
f 1/1/257 129/4/257 449/414/257 321/415/257
f 129/4/258 3/9/258 323/416/258 449/414/258
f 449/417/259 323/418/259 67/211/259 225/208/259
f 321/419/260 449/417/260 225/208/260 65/207/260
f 4/7/261 130/6/261 450/420/261 324/421/261
f 130/6/262 2/5/262 322/422/262 450/420/262
f 450/423/263 322/424/263 66/215/263 226/214/263
f 324/425/264 450/423/264 226/214/264 68/213/264
f 3/9/265 133/11/265 451/426/265 323/416/265
f 133/11/266 5/15/266 325/427/266 451/426/266
f 451/428/267 325/429/267 69/218/267 229/216/267
f 323/418/268 451/428/268 229/216/268 67/211/268
f 6/13/269 134/12/269 452/430/269 326/431/269
f 134/12/270 4/7/270 324/421/270 452/430/270
f 452/432/271 324/425/271 68/213/271 230/221/271
f 326/433/272 452/432/272 230/221/272 70/220/272
f 5/15/273 136/17/273 453/434/273 325/427/273
f 136/17/274 7/21/274 327/435/274 453/434/274
f 453/436/275 327/437/275 71/224/275 232/222/275
f 325/429/276 453/436/276 232/222/276 69/218/276
f 8/19/277 137/18/277 454/438/277 328/439/277
f 137/18/278 6/13/278 326/431/278 454/438/278
f 454/440/279 326/433/279 70/220/279 233/227/279
f 328/441/280 454/440/280 233/227/280 72/226/280
f 7/21/281 139/23/281 455/442/281 327/435/281
f 139/23/282 9/27/282 329/443/282 455/442/282
f 455/444/283 329/445/283 73/230/283 235/228/283
f 327/437/284 455/444/284 235/228/284 71/224/284
f 10/25/285 140/24/285 456/446/285 330/447/285
f 140/24/286 8/19/286 328/439/286 456/446/286
f 456/448/287 328/441/287 72/226/287 236/233/287
f 330/449/288 456/448/288 236/233/288 74/232/288
f 9/27/289 142/29/289 457/450/289 329/443/289
f 142/29/290 11/33/290 331/451/290 457/450/290
f 457/452/291 331/453/291 75/236/291 238/234/291
f 329/445/292 457/452/292 238/234/292 73/230/292
f 12/31/293 143/30/293 458/454/293 332/455/293
f 143/30/294 10/25/294 330/447/294 458/454/294
f 458/456/295 330/449/295 74/232/295 239/239/295
f 332/457/296 458/456/296 239/239/296 76/238/296
f 11/33/297 145/35/297 459/458/297 331/451/297
f 145/35/298 13/39/298 333/459/298 459/458/298
f 459/460/299 333/461/299 77/242/299 241/240/299
f 331/453/300 459/460/300 241/240/300 75/236/300
f 14/37/301 146/36/301 460/462/301 334/463/301
f 146/36/302 12/31/302 332/455/302 460/462/302
f 460/464/303 332/457/303 76/238/303 242/245/303
f 334/465/304 460/464/304 242/245/304 78/244/304
f 13/39/305 148/41/305 461/466/305 333/459/305
f 148/41/306 15/45/306 335/467/306 461/466/306
f 461/468/307 335/469/307 79/248/307 244/246/307
f 333/461/308 461/468/308 244/246/308 77/242/308
f 16/43/309 149/42/309 462/470/309 336/471/309
f 149/42/310 14/37/310 334/463/310 462/470/310
f 462/472/311 334/465/311 78/244/311 245/251/311
f 336/473/312 462/472/312 245/251/312 80/250/312
f 15/46/313 151/49/313 463/474/313 335/475/313
f 151/49/314 17/54/314 337/476/314 463/474/314
f 463/477/315 337/478/315 81/256/315 247/253/315
f 335/479/316 463/477/316 247/253/316 79/252/316
f 18/52/317 152/51/317 464/480/317 338/481/317
f 152/482/318 16/43/318 336/471/318 464/483/318
f 464/484/319 336/473/319 80/250/319 248/485/319
f 338/486/320 464/487/320 248/259/320 82/258/320
f 17/54/321 154/56/321 465/488/321 337/476/321
f 154/56/322 19/60/322 339/489/322 465/488/322
f 465/490/323 339/491/323 83/263/323 250/261/323
f 337/478/324 465/490/324 250/261/324 81/256/324
f 20/58/325 155/57/325 466/492/325 340/493/325
f 155/57/326 18/52/326 338/481/326 466/492/326
f 466/494/327 338/486/327 82/258/327 251/266/327
f 340/495/328 466/494/328 251/266/328 84/265/328
f 19/60/329 157/62/329 467/496/329 339/489/329
f 157/62/330 21/66/330 341/497/330 467/496/330
f 467/498/331 341/499/331 85/269/331 253/267/331
f 339/491/332 467/498/332 253/267/332 83/263/332
f 22/64/333 158/63/333 468/500/333 342/501/333
f 158/63/334 20/58/334 340/493/334 468/500/334
f 468/502/335 340/495/335 84/265/335 254/272/335
f 342/503/336 468/502/336 254/272/336 86/271/336
f 21/66/337 160/68/337 469/504/337 341/497/337
f 160/68/338 23/72/338 343/505/338 469/504/338
f 469/506/339 343/507/339 87/275/339 256/273/339
f 341/499/340 469/506/340 256/273/340 85/269/340
f 24/70/341 161/69/341 470/508/341 344/509/341
f 161/69/342 22/64/342 342/501/342 470/508/342
f 470/510/343 342/503/343 86/271/343 257/278/343
f 344/511/344 470/510/344 257/278/344 88/277/344
f 23/72/345 163/74/345 471/512/345 343/505/345
f 163/74/346 25/78/346 345/513/346 471/512/346
f 471/514/347 345/515/347 89/281/347 259/279/347
f 343/507/348 471/514/348 259/279/348 87/275/348
f 26/76/349 164/75/349 472/516/349 346/517/349
f 164/75/350 24/70/350 344/509/350 472/516/350
f 472/518/351 344/511/351 88/277/351 260/284/351
f 346/519/352 472/518/352 260/284/352 90/283/352
f 25/78/353 166/80/353 473/520/353 345/513/353
f 166/80/354 27/84/354 347/521/354 473/520/354
f 473/522/355 347/523/355 91/287/355 262/285/355
f 345/515/356 473/522/356 262/285/356 89/281/356
f 28/82/357 167/81/357 474/524/357 348/525/357
f 167/81/358 26/76/358 346/517/358 474/524/358
f 474/526/359 346/519/359 90/283/359 263/290/359
f 348/527/360 474/526/360 263/290/360 92/289/360
f 27/84/361 169/86/361 475/528/361 347/521/361
f 169/86/362 29/90/362 349/529/362 475/528/362
f 475/530/363 349/531/363 93/293/363 265/291/363
f 347/523/364 475/530/364 265/291/364 91/287/364
f 30/88/365 170/87/365 476/532/365 350/533/365
f 170/87/366 28/82/366 348/525/366 476/532/366
f 476/534/367 348/527/367 92/289/367 266/296/367
f 350/535/368 476/534/368 266/296/368 94/295/368
f 29/90/369 172/92/369 477/536/369 349/529/369
f 172/92/370 31/96/370 351/537/370 477/536/370
f 477/538/371 351/539/371 95/299/371 268/297/371
f 349/531/372 477/538/372 268/297/372 93/293/372
f 32/94/373 173/93/373 478/540/373 352/541/373
f 173/93/374 30/88/374 350/533/374 478/540/374
f 478/542/375 350/535/375 94/295/375 269/302/375
f 352/543/376 478/542/376 269/302/376 96/301/376
f 31/96/377 175/98/377 479/544/377 351/537/377
f 175/105/378 33/106/378 353/545/378 479/546/378
f 479/547/379 353/548/379 97/306/379 271/305/379
f 351/539/380 479/549/380 271/303/380 95/299/380
f 34/103/381 176/101/381 480/550/381 354/551/381
f 176/101/382 32/100/382 352/552/382 480/550/382
f 480/553/383 352/554/383 96/312/383 272/310/383
f 354/555/384 480/553/384 272/310/384 98/309/384
f 33/106/385 178/108/385 481/556/385 353/545/385
f 178/108/386 35/112/386 355/557/386 481/556/386
f 481/558/387 355/559/387 99/315/387 274/313/387
f 353/548/388 481/558/388 274/313/388 97/306/388
f 36/110/389 179/109/389 482/560/389 356/561/389
f 179/109/390 34/103/390 354/551/390 482/560/390
f 482/562/391 354/555/391 98/309/391 275/318/391
f 356/563/392 482/562/392 275/318/392 100/317/392
f 35/112/393 181/114/393 483/564/393 355/557/393
f 181/114/394 37/118/394 357/565/394 483/564/394
f 483/566/395 357/567/395 101/321/395 277/319/395
f 355/559/396 483/566/396 277/319/396 99/315/396
f 38/116/397 182/115/397 484/568/397 358/569/397
f 182/115/398 36/110/398 356/561/398 484/568/398
f 484/570/399 356/563/399 100/317/399 278/324/399
f 358/571/400 484/570/400 278/324/400 102/323/400
f 37/118/401 184/120/401 485/572/401 357/565/401
f 184/120/402 39/124/402 359/573/402 485/572/402
f 485/574/403 359/575/403 103/327/403 280/325/403
f 357/567/404 485/574/404 280/325/404 101/321/404
f 40/122/405 185/121/405 486/576/405 360/577/405
f 185/121/406 38/116/406 358/569/406 486/576/406
f 486/578/407 358/571/407 102/323/407 281/330/407
f 360/579/408 486/578/408 281/330/408 104/329/408
f 39/124/409 187/126/409 487/580/409 359/573/409
f 187/126/410 41/130/410 361/581/410 487/580/410
f 487/582/411 361/583/411 105/333/411 283/331/411
f 359/575/412 487/582/412 283/331/412 103/327/412
f 42/128/413 188/127/413 488/584/413 362/585/413
f 188/127/414 40/122/414 360/577/414 488/584/414
f 488/586/415 360/579/415 104/329/415 284/336/415
f 362/587/416 488/586/416 284/336/416 106/335/416
f 41/130/417 190/132/417 489/588/417 361/581/417
f 190/132/418 43/136/418 363/589/418 489/588/418
f 489/590/419 363/591/419 107/339/419 286/337/419
f 361/583/420 489/590/420 286/337/420 105/333/420
f 44/134/421 191/133/421 490/592/421 364/593/421
f 191/133/422 42/128/422 362/585/422 490/592/422
f 490/594/423 362/587/423 106/335/423 287/342/423
f 364/595/424 490/594/424 287/342/424 108/341/424
f 43/136/425 193/138/425 491/596/425 363/589/425
f 193/138/426 45/142/426 365/597/426 491/596/426
f 491/598/427 365/599/427 109/345/427 289/343/427
f 363/591/428 491/598/428 289/343/428 107/339/428
f 46/140/429 194/139/429 492/600/429 366/601/429
f 194/139/430 44/134/430 364/593/430 492/600/430
f 492/602/431 364/595/431 108/341/431 290/348/431
f 366/603/432 492/602/432 290/348/432 110/347/432
f 45/142/433 196/144/433 493/604/433 365/597/433
f 196/144/434 47/148/434 367/605/434 493/604/434
f 493/606/435 367/607/435 111/351/435 292/349/435
f 365/599/436 493/606/436 292/349/436 109/345/436
f 48/146/437 197/145/437 494/608/437 368/609/437
f 197/145/438 46/140/438 366/601/438 494/608/438
f 494/610/439 366/603/439 110/347/439 293/354/439
f 368/611/440 494/610/440 293/354/440 112/353/440
f 47/148/441 199/150/441 495/612/441 367/605/441
f 199/156/442 49/157/442 369/613/442 495/614/442
f 495/615/443 369/616/443 113/358/443 295/357/443
f 367/607/444 495/617/444 295/355/444 111/351/444
f 50/154/445 200/153/445 496/618/445 370/619/445
f 200/153/446 48/620/446 368/621/446 496/618/446
f 496/622/447 368/623/447 112/364/447 296/362/447
f 370/624/448 496/622/448 296/362/448 114/361/448
f 49/157/449 202/159/449 497/625/449 369/613/449
f 202/159/450 51/163/450 371/626/450 497/625/450
f 497/627/451 371/628/451 115/367/451 298/365/451
f 369/616/452 497/627/452 298/365/452 113/358/452
f 52/161/453 203/160/453 498/629/453 372/630/453
f 203/160/454 50/154/454 370/619/454 498/629/454
f 498/631/455 370/624/455 114/361/455 299/370/455
f 372/632/456 498/631/456 299/370/456 116/369/456
f 51/163/457 205/165/457 499/633/457 371/626/457
f 205/165/458 53/169/458 373/634/458 499/633/458
f 499/635/459 373/636/459 117/373/459 301/371/459
f 371/628/460 499/635/460 301/371/460 115/367/460
f 54/167/461 206/166/461 500/637/461 374/638/461
f 206/166/462 52/161/462 372/630/462 500/637/462
f 500/639/463 372/632/463 116/369/463 302/376/463
f 374/640/464 500/639/464 302/376/464 118/375/464
f 53/169/465 208/171/465 501/641/465 373/634/465
f 208/171/466 55/175/466 375/642/466 501/641/466
f 501/643/467 375/644/467 119/379/467 304/377/467
f 373/636/468 501/643/468 304/377/468 117/373/468
f 56/173/469 209/172/469 502/645/469 376/646/469
f 209/172/470 54/167/470 374/638/470 502/645/470
f 502/647/471 374/640/471 118/375/471 305/382/471
f 376/648/472 502/647/472 305/382/472 120/381/472
f 55/175/473 211/177/473 503/649/473 375/642/473
f 211/177/474 57/181/474 377/650/474 503/649/474
f 503/651/475 377/652/475 121/385/475 307/383/475
f 375/644/476 503/651/476 307/383/476 119/379/476
f 58/179/477 212/178/477 504/653/477 378/654/477
f 212/178/478 56/173/478 376/646/478 504/653/478
f 504/655/479 376/648/479 120/381/479 308/388/479
f 378/656/480 504/655/480 308/388/480 122/387/480
f 57/181/481 214/183/481 505/657/481 377/650/481
f 214/183/482 59/187/482 379/658/482 505/657/482
f 505/659/483 379/660/483 123/391/483 310/389/483
f 377/652/484 505/659/484 310/389/484 121/385/484
f 60/185/485 215/184/485 506/661/485 380/662/485
f 215/184/486 58/179/486 378/654/486 506/661/486
f 506/663/487 378/656/487 122/387/487 311/394/487
f 380/664/488 506/663/488 311/394/488 124/393/488
f 59/187/489 217/189/489 507/665/489 379/658/489
f 217/189/490 61/193/490 381/666/490 507/665/490
f 507/667/491 381/668/491 125/397/491 313/395/491
f 379/660/492 507/667/492 313/395/492 123/391/492
f 62/191/493 218/190/493 508/669/493 382/670/493
f 218/190/494 60/185/494 380/662/494 508/669/494
f 508/671/495 380/664/495 124/393/495 314/400/495
f 382/672/496 508/671/496 314/400/496 126/399/496
f 61/193/497 220/195/497 509/673/497 381/666/497
f 220/195/498 63/199/498 383/674/498 509/673/498
f 509/675/499 383/676/499 127/403/499 316/401/499
f 381/668/500 509/675/500 316/401/500 125/397/500
f 64/197/501 221/196/501 510/677/501 384/678/501
f 221/196/502 62/191/502 382/670/502 510/677/502
f 510/679/503 382/672/503 126/399/503 317/406/503
f 384/680/504 510/679/504 317/406/504 128/405/504
f 63/200/505 223/203/505 511/681/505 383/682/505
f 223/203/506 1/1/506 321/415/506 511/681/506
f 511/683/507 321/419/507 65/207/507 319/408/507
f 383/684/508 511/683/508 319/408/508 127/407/508
f 2/5/509 224/206/509 512/685/509 322/422/509
f 224/204/510 64/197/510 384/678/510 512/686/510
f 512/687/511 384/680/511 128/405/511 320/413/511
f 322/424/512 512/688/512 320/411/512 66/215/512
